<?xml version="1.0" standalone="no"?>
<!DOCTYPE svg PUBLIC "-//W3C//DTD SVG 20010904//EN"
 "http://www.w3.org/TR/2001/REC-SVG-20010904/DTD/svg10.dtd">
<svg version="1.0" xmlns="http://www.w3.org/2000/svg"
 width="421.282794pt" height="529.000000pt" viewBox="0 0 421.282794 529.000000"
 preserveAspectRatio="xMidYMid meet">
<metadata>
Created by potrace 1.12, written by Peter Selinger 2001-2015
</metadata>
<g transform="translate(-5.566135,538.000000) scale(0.100000,-0.100000)"
fill="#000000" stroke="none">
<path d="M1642 5268 c-12 -62 -34 -189 -48 -283 -26 -169 -27 -170 -101 -330
-42 -88 -79 -164 -83 -168 -4 -4 -10 23 -14 60 -4 37 -18 138 -31 224 -21 138
-23 169 -15 270 5 63 10 133 10 157 l0 42 -55 0 -55 0 0 -132 c0 -73 5 -176
10 -228 8 -82 6 -106 -11 -172 -60 -238 -162 -431 -292 -556 -90 -86 -159
-117 -257 -117 -91 0 -146 25 -190 86 -100 138 -30 414 124 488 47 23 132 28
157 8 56 -44 68 -137 29 -240 -12 -32 -20 -60 -18 -61 1 -2 24 -13 50 -24 l46
-20 23 51 c16 36 24 77 27 135 4 73 1 89 -21 135 -95 192 -406 129 -522 -106
-99 -203 -54 -409 109 -495 47 -25 60 -27 167 -27 113 0 116 1 193 39 168 82
290 249 381 518 38 114 36 118 56 -118 11 -132 10 -145 -10 -224 -11 -46 -21
-101 -21 -122 l0 -38 59 0 58 0 7 46 c3 26 6 89 6 141 0 89 3 101 44 201 24
59 56 132 70 162 l25 55 -6 -130 c-6 -141 9 -340 33 -433 38 -144 108 -239
196 -262 63 -18 142 -6 196 27 47 29 115 116 110 141 -2 11 -64 38 -94 42 -1
0 -7 -14 -14 -30 -7 -17 -28 -44 -47 -60 -42 -38 -106 -41 -147 -9 -100 78
-152 404 -128 794 11 170 15 199 43 275 35 97 74 258 84 343 l6 57 -59 0 -59
0 -21 -112z"/>
<path d="M3798 5339 c-43 -22 -43 -22 -23 -79 8 -23 15 -60 15 -82 0 -38 1
-39 33 -36 l32 3 0 97 c0 53 -5 101 -10 107 -6 6 -23 3 -47 -10z"/>
<path d="M2580 5332 c-20 -10 -44 -34 -57 -57 -33 -61 -85 -280 -128 -535 -17
-106 -75 -257 -110 -290 l-23 -22 -12 23 c-18 32 -5 191 23 304 22 84 25 90
50 93 22 3 27 8 27 33 0 23 -4 29 -21 29 -15 0 -19 5 -15 18 9 32 25 156 28
212 l3 55 -40 -3 c-22 -2 -41 -5 -42 -6 -2 -1 -14 -56 -28 -122 -14 -65 -27
-129 -30 -141 -4 -16 -13 -23 -29 -23 -23 0 -36 -16 -36 -46 0 -8 10 -14 25
-14 14 0 25 -1 25 -2 0 -2 -9 -54 -19 -116 -13 -80 -25 -122 -42 -147 -26 -38
-56 -57 -45 -28 4 9 12 49 18 89 19 122 -12 222 -78 250 -67 28 -142 -22 -175
-118 -14 -43 -22 -53 -40 -53 -32 -1 -51 -73 -53 -205 -1 -111 8 -144 53 -184
47 -43 170 2 210 77 17 32 38 54 94 99 l34 28 5 -63 c7 -76 24 -116 55 -123
34 -9 79 13 103 50 l20 31 0 -32 c0 -39 4 -41 57 -35 40 4 43 6 49 41 52 312
100 451 155 451 28 0 25 -48 -10 -163 -56 -181 -60 -248 -18 -294 48 -53 137
-8 188 96 13 28 27 50 30 51 4 0 9 -19 13 -41 5 -28 18 -53 40 -75 30 -30 40
-34 86 -34 36 0 63 7 88 22 46 29 103 119 148 236 65 170 64 168 74 152 19
-29 9 -99 -26 -196 -57 -156 -47 -250 33 -326 43 -41 94 -58 176 -58 173 0
296 126 285 294 -3 49 -11 75 -33 111 -41 66 -58 75 -84 44 -44 -53 -46 -64
-17 -101 49 -65 44 -163 -12 -230 -69 -82 -221 -77 -266 9 -35 69 -29 144 28
300 41 115 33 174 -32 236 -29 28 -29 28 -17 85 7 31 15 78 18 104 4 46 4 47
-27 53 -17 4 -38 9 -48 11 -13 4 -19 -6 -27 -46 -13 -62 -14 -150 -2 -183 20
-52 -66 -296 -127 -360 -79 -83 -145 -71 -161 30 l-8 53 51 23 c71 33 110 69
140 129 35 70 35 130 0 165 -22 22 -32 25 -71 20 -85 -9 -164 -103 -198 -235
-25 -94 -98 -247 -125 -262 -51 -27 -49 34 6 223 47 163 45 226 -6 247 -37 15
-84 -5 -134 -56 -37 -38 -37 -38 -31 -11 4 15 28 58 53 95 25 37 63 105 85
151 59 125 63 196 12 219 -34 16 -44 15 -85 -6z m48 -104 c-5 -40 -66 -203
-74 -196 -2 2 6 44 18 93 29 128 66 195 56 103z m389 -353 c10 -27 -26 -101
-69 -144 -23 -22 -45 -41 -50 -41 -11 0 1 58 24 110 32 75 80 113 95 75z
m-1016 -87 c27 -51 -14 -287 -48 -274 -8 3 -16 6 -19 6 -2 0 -11 15 -21 33
-40 77 -5 257 51 257 16 0 30 -8 37 -22z m-141 -263 c0 -7 18 -29 40 -48 l40
-34 -23 -21 c-31 -29 -44 -28 -62 8 -17 33 -21 125 -5 115 6 -3 10 -12 10 -20z"/>
<path d="M1075 5228 c-2 -7 -7 -30 -12 -51 -11 -52 -24 -51 -42 6 -10 34 -20
47 -33 47 -32 0 -30 -23 11 -116 26 -59 41 -111 46 -156 6 -57 10 -68 25 -68
18 0 19 7 13 83 -4 65 -1 99 16 164 12 45 21 86 21 92 0 15 -40 14 -45 -1z"/>
<path d="M748 5188 c-16 -5 -28 -15 -28 -22 0 -14 40 -198 60 -279 9 -35 17
-47 29 -45 17 4 20 39 9 95 -6 27 -4 33 15 39 31 9 57 34 57 55 0 46 -24 124
-46 146 -25 24 -52 28 -96 11z m77 -69 c22 -41 16 -94 -9 -94 -15 0 -23 12
-33 50 -7 28 -11 56 -8 63 8 22 34 13 50 -19z"/>
<path d="M4006 5192 c-16 -27 -28 -155 -19 -215 9 -62 8 -68 -33 -168 -22 -57
-64 -156 -92 -219 -38 -84 -48 -116 -39 -122 6 -4 17 -2 24 5 12 12 115 244
148 331 l18 49 24 -64 c29 -78 40 -167 24 -197 -13 -24 -50 -29 -80 -10 -15 9
-24 7 -49 -13 -39 -30 -39 -41 -1 -73 24 -20 41 -26 80 -26 90 0 136 42 215
196 48 93 53 114 26 114 -12 0 -24 -19 -41 -62 l-24 -61 -21 74 c-12 41 -41
110 -64 153 -23 44 -42 88 -42 98 0 10 9 51 20 90 24 88 25 114 4 122 -23 9
-72 7 -78 -2z"/>
<path d="M513 5103 c-18 -9 -33 -21 -33 -26 0 -23 126 -307 136 -307 28 0 33
26 13 69 -25 56 -24 58 11 76 16 8 32 26 35 38 7 25 -27 122 -52 150 -20 21
-67 21 -110 0z m98 -79 c23 -51 20 -74 -11 -74 -19 0 -42 38 -56 97 -5 20 -2
23 20 23 23 0 31 -8 47 -46z"/>
<path d="M304 4966 c-5 -12 43 -141 100 -268 19 -42 30 -56 41 -52 19 8 19 25
1 68 -10 25 -11 37 -3 45 17 17 31 13 57 -14 27 -29 42 -31 60 -10 7 8 8 15 3
15 -5 0 -60 52 -123 115 -63 63 -118 115 -123 115 -4 0 -10 -6 -13 -14z m116
-160 c-12 -12 -30 8 -30 33 0 11 5 10 20 -4 15 -13 17 -22 10 -29z"/>
<path d="M135 4820 c-4 -6 17 -38 46 -71 52 -60 52 -61 33 -80 -20 -19 -20
-19 -78 37 -54 52 -59 55 -74 40 -16 -15 -8 -25 98 -131 63 -63 121 -114 129
-112 28 4 22 27 -20 72 -41 44 -41 46 -24 65 19 20 19 20 60 -20 42 -41 69
-50 78 -27 6 15 -209 237 -229 237 -7 0 -16 -5 -19 -10z"/>
<path d="M2273 4279 c-10 -10 -13 -79 -13 -276 l0 -263 64 0 c84 0 121 14 147
57 21 33 22 49 23 217 1 199 -6 235 -52 255 -41 19 -155 26 -169 10z m127 -79
c28 -15 33 -57 25 -212 -8 -153 -18 -178 -70 -178 l-25 0 0 148 c0 198 7 252
32 252 11 0 28 -4 38 -10z"/>
<path d="M3063 4278 c-5 -7 -18 -52 -28 -101 -10 -48 -21 -90 -25 -92 -5 -3
-21 36 -36 86 -28 92 -43 111 -73 92 -21 -14 -18 -33 30 -180 29 -90 39 -139
39 -186 0 -35 3 -85 6 -111 6 -43 9 -47 33 -44 l26 3 6 125 c6 110 11 140 48
250 22 69 41 132 41 141 0 9 -10 19 -22 23 -32 8 -34 8 -45 -6z"/>
<path d="M2666 4258 c-4 -14 -10 -43 -67 -308 -21 -102 -39 -191 -39 -198 0
-9 11 -12 33 -10 31 3 33 6 48 68 15 61 18 65 47 68 27 3 32 0 37 -25 21 -94
29 -108 63 -111 39 -4 40 2 12 108 -11 41 -31 149 -45 239 -15 91 -28 168 -31
173 -8 13 -54 9 -58 -4z m37 -300 c-2 -5 -11 -8 -20 -8 -12 0 -14 7 -8 37 4
21 10 42 13 48 7 11 22 -66 15 -77z"/>
<path d="M1692 3603 c-97 -137 -179 -409 -170 -562 10 -172 115 -284 287 -306
l54 -7 -7 -222 c-4 -121 -9 -222 -11 -224 -1 -1 -19 14 -39 34 -32 32 -39 35
-51 23 -8 -8 -20 -58 -27 -113 l-13 -99 -37 55 c-21 29 -51 67 -68 83 -25 24
-33 27 -40 15 -35 -57 -41 -377 -10 -508 43 -179 125 -278 251 -303 51 -10 59
-15 59 -34 0 -105 46 -471 96 -768 20 -115 33 -211 30 -214 -3 -3 -8 8 -11 23
-4 16 -29 108 -55 204 -133 476 -287 861 -549 1377 l-121 236 23 16 c125 88
182 206 157 326 -27 130 -130 275 -302 425 -62 54 -94 76 -99 68 -4 -7 -11
-52 -15 -102 l-7 -89 -36 44 c-55 67 -93 99 -118 99 -29 0 -37 -27 -35 -129
l2 -83 -76 72 c-57 54 -79 69 -88 60 -7 -7 -11 -63 -10 -168 0 -126 5 -174 22
-244 42 -171 120 -291 219 -339 45 -22 112 -27 225 -16 26 2 32 -7 124 -198
171 -354 304 -645 369 -809 69 -174 157 -427 152 -433 -2 -2 -34 17 -70 41
-88 59 -185 95 -422 155 -110 29 -238 66 -285 83 -153 55 -296 150 -432 285
-78 77 -78 77 -78 45 0 -69 47 -211 95 -287 84 -133 217 -221 400 -265 266
-64 490 -241 606 -475 41 -84 57 -131 95 -272 3 -10 103 -13 459 -13 l455 0
14 35 c8 19 35 65 59 102 120 185 315 386 647 667 40 33 210 167 267 211 29
21 51 40 50 41 -7 7 -245 -50 -342 -82 -153 -50 -352 -150 -462 -233 -51 -38
-93 -67 -93 -64 0 8 331 647 340 657 5 4 30 0 57 -10 65 -25 156 -24 209 4
120 61 205 249 238 521 l7 53 -75 -41 c-41 -22 -77 -38 -79 -33 -2 4 -1 34 4
67 4 33 8 72 8 87 l1 27 -66 -40 c-102 -62 -98 -63 -90 12 4 35 10 74 13 87 3
12 1 22 -3 22 -17 0 -184 -131 -245 -193 -71 -70 -134 -162 -149 -216 -24 -87
-5 -178 48 -234 24 -25 25 -30 12 -50 -42 -66 -162 -291 -222 -417 -82 -170
-267 -583 -294 -654 -10 -27 -20 -44 -22 -38 -2 6 27 104 63 219 69 216 158
499 218 688 19 61 124 393 233 738 l198 628 30 -8 c60 -15 178 -8 226 13 126
57 190 208 177 413 -6 97 -46 321 -56 321 -4 0 -32 -29 -62 -64 -30 -36 -57
-65 -60 -65 -4 -1 -10 25 -14 57 -12 100 -25 142 -46 142 -17 0 -81 -75 -108
-127 -20 -40 -29 -25 -33 57 -2 60 -7 84 -21 97 -18 17 -20 16 -64 -32 -71
-80 -181 -279 -199 -361 -4 -19 -28 -47 -70 -81 -34 -29 -64 -53 -66 -53 -2 0
-3 45 -3 99 0 67 -4 104 -12 112 -22 22 -65 -3 -123 -73 l-55 -66 -5 98 c-3
54 -8 101 -12 105 -11 12 -43 -12 -110 -83 -129 -137 -224 -299 -255 -433 -13
-61 -14 -85 -5 -138 16 -92 55 -144 170 -221 l22 -15 -76 -750 c-41 -412 -78
-761 -81 -775 -4 -17 -16 24 -35 125 -43 223 -99 507 -105 532 -4 18 3 26 37
43 60 31 118 87 148 144 22 43 26 64 26 131 -1 138 -69 278 -232 476 l-87 106
3 181 c3 180 3 182 25 182 39 0 121 45 158 87 20 22 47 67 59 99 20 53 22 72
17 179 -3 77 -13 148 -27 199 -24 91 -91 276 -100 276 -3 0 -28 -36 -55 -80
-27 -44 -53 -80 -56 -80 -4 0 -12 21 -19 48 -21 75 -58 152 -73 152 -14 0 -59
-74 -88 -143 -8 -21 -19 -39 -24 -40 -5 -1 -14 23 -21 53 -14 63 -39 126 -53
134 -5 4 -18 -6 -29 -21z m1348 -918 c27 -14 28 -18 19 -43 -245 -639 -554
-1540 -703 -2052 -14 -47 -25 -73 -25 -58 -1 29 40 622 64 943 19 241 51 601
66 734 l11 96 112 0 c128 0 165 14 230 86 63 69 115 213 116 320 0 50 8 53 47
19 18 -16 47 -37 63 -45z m-1032 -1315 c43 -159 97 -462 137 -770 14 -107 28
-211 31 -230 4 -23 2 -32 -4 -25 -20 19 -104 393 -142 626 -33 209 -61 494
-46 478 2 -2 13 -38 24 -79z"/>
</g>
</svg>
