<?xml version="1.0" standalone="no"?>
<!DOCTYPE svg PUBLIC "-//W3C//DTD SVG 20010904//EN"
 "http://www.w3.org/TR/2001/REC-SVG-20010904/DTD/svg10.dtd">
<svg version="1.0" xmlns="http://www.w3.org/2000/svg"
 width="578.432529pt" height="282.012514pt" viewBox="0 0 578.432529 282.012514"
 preserveAspectRatio="xMidYMid meet">
<metadata>
Created by potrace 1.12, written by Peter Selinger 2001-2015
</metadata>
<g transform="translate(-11.398257,288.000000) scale(0.100000,-0.100000)"
fill="#000000" stroke="none">
<path d="M2497 2866 c-3 -8 2 -21 11 -29 27 -24 169 -98 191 -100 14 -1 21 -8
21 -22 0 -16 2 -17 10 -5 5 8 10 18 10 22 0 8 -216 148 -229 148 -5 0 -11 -6
-14 -14z"/>
<path d="M2719 2770 c50 -33 61 -43 51 -54 -8 -11 -8 -16 1 -22 7 -4 9 -3 5 4
-3 6 -2 13 3 16 9 6 130 -79 144 -101 5 -8 12 -11 18 -8 5 4 9 2 9 -3 0 -6 17
-20 37 -32 35 -21 36 -23 19 -36 -16 -11 -22 -11 -35 -1 -9 7 -8 2 4 -15 11
-15 28 -28 38 -28 9 0 17 -5 17 -10 0 -6 35 -47 78 -91 42 -45 82 -90 89 -102
7 -12 12 -18 13 -14 0 4 6 2 14 -5 9 -9 10 -15 3 -20 -5 -3 -27 15 -47 40 -66
82 -177 185 -193 179 -8 -3 -19 -1 -25 5 -7 7 -14 3 -22 -13 -11 -23 -11 -24
6 -4 16 20 16 19 10 -6 -5 -21 -1 -30 20 -44 44 -28 18 -28 -30 0 -28 16 -46
34 -46 45 0 10 -12 26 -27 35 -16 10 -22 12 -15 4 6 -7 12 -20 12 -28 0 -10
-9 -6 -28 12 -16 15 -31 25 -34 21 -3 -3 -5 1 -4 8 1 15 -103 112 -112 104 -3
-3 -11 2 -18 12 -12 15 -12 13 -4 -15 12 -45 15 -49 73 -92 92 -68 179 -151
160 -151 -15 -1 -15 -3 6 -20 13 -11 29 -20 37 -20 8 0 14 -6 14 -12 0 -9 4
-8 11 2 8 11 12 12 16 3 2 -7 11 -13 19 -13 8 0 14 -5 14 -11 0 -5 4 -8 8 -5
4 2 9 -4 9 -15 1 -10 -3 -19 -8 -19 -6 0 -7 5 -4 10 3 6 -5 10 -19 10 -27 0
-41 11 -190 142 -100 88 -126 103 -126 71 0 -37 12 -62 26 -56 8 3 14 0 14 -5
0 -6 16 -19 35 -28 19 -9 32 -21 28 -27 -3 -6 -1 -7 5 -3 7 4 22 0 34 -10 18
-13 19 -15 4 -10 -16 6 -17 4 -6 -9 7 -9 19 -14 27 -11 7 3 13 -1 13 -9 0 -8
7 -15 16 -15 14 0 15 2 3 18 -13 15 -12 16 4 3 16 -13 16 -16 3 -29 -12 -13
-19 -11 -53 14 -21 16 -41 33 -45 38 -4 6 -14 4 -25 -4 -15 -12 -16 -12 -5 0
6 8 12 21 11 29 0 9 -3 11 -5 4 -4 -7 -19 -4 -47 13 -50 28 -64 30 -69 7 -4
-21 67 -70 122 -86 19 -5 54 -22 78 -38 24 -16 51 -29 60 -28 12 0 11 3 -5 9
-26 11 -30 25 -8 34 18 6 45 -2 45 -15 0 -5 5 -9 11 -9 6 0 19 -10 28 -22 12
-15 22 -18 32 -12 8 5 19 9 24 9 6 1 9 7 7 15 -2 10 2 10 20 -2 35 -23 28 -33
-26 -36 -33 -2 -53 2 -65 12 -12 11 -28 14 -47 10 -22 -4 -43 3 -88 30 -66 40
-81 43 -90 21 -4 -10 3 -20 19 -27 14 -6 25 -15 25 -19 0 -4 11 -7 24 -6 14 1
25 -1 25 -5 1 -5 1 -23 0 -40 l-1 -33 -12 29 c-11 23 -14 25 -20 11 -3 -9 -3
-22 1 -28 4 -7 -1 -6 -10 2 -12 9 -17 10 -17 2 0 -19 -37 -54 -49 -46 -17 10
-13 23 9 30 22 7 27 21 8 22 -7 1 -29 4 -48 7 -26 5 -30 4 -15 -3 15 -7 16
-10 5 -10 -9 -1 -20 3 -25 8 -20 18 -86 34 -97 23 -8 -8 -3 -13 16 -18 14 -3
26 -10 26 -15 0 -5 7 -6 15 -3 8 4 15 2 15 -4 0 -18 -56 -32 -77 -18 -16 11
-120 46 -136 46 -4 0 -7 -5 -7 -11 0 -5 5 -7 10 -4 6 4 20 -5 32 -20 13 -17
27 -25 39 -22 11 3 16 1 13 -5 -4 -6 2 -8 16 -3 15 5 20 4 16 -4 -4 -6 -15
-11 -24 -11 -9 0 -37 -10 -62 -21 l-44 -20 -58 41 c-31 22 -60 40 -63 40 -3 0
-23 11 -45 25 -47 29 -51 30 -43 8 5 -12 3 -14 -8 -8 -9 6 -8 0 4 -19 10 -15
16 -30 13 -33 -8 -9 -38 6 -32 15 3 5 -6 7 -19 4 -17 -3 -25 0 -25 9 0 8 -9 0
-21 -18 -18 -28 -24 -31 -55 -26 -37 6 -42 -1 -20 -26 24 -26 4 -48 -29 -33
-31 14 -65 16 -65 3 0 -5 -3 -18 -6 -28 -6 -15 -4 -16 7 -5 19 17 29 15 22 -5
-5 -15 -3 -16 8 -5 16 15 33 16 23 0 -4 -6 -3 -8 4 -5 15 10 43 -3 35 -17 -5
-8 -3 -8 8 0 8 6 37 10 65 8 34 -2 58 2 70 11 19 15 18 15 -1 31 -11 8 -19 20
-17 25 1 6 -2 8 -7 4 -13 -8 -63 24 -55 36 3 5 10 9 15 9 6 0 7 -5 4 -10 -4
-7 2 -9 19 -4 20 5 27 2 33 -12 14 -37 29 -44 46 -23 14 16 20 17 43 7 24 -11
25 -13 8 -25 -21 -15 -6 -18 16 -3 13 9 11 13 -10 30 -14 11 -31 18 -38 15 -7
-3 -10 -1 -7 4 3 5 1 12 -4 16 -6 3 -8 12 -4 21 4 11 9 12 19 3 8 -6 21 -9 29
-5 8 3 15 1 15 -5 0 -6 5 -7 12 -3 7 4 8 3 4 -4 -7 -12 27 -35 38 -25 3 3 6 1
6 -5 0 -7 7 -12 15 -12 8 0 15 -5 15 -12 0 -6 -3 -8 -7 -5 -3 4 -11 3 -17 -2
-6 -5 -33 -16 -61 -24 -45 -14 -147 -51 -199 -72 -14 -6 -17 -5 -12 3 5 8 -1
12 -16 12 -18 0 -20 -2 -8 -10 8 -5 12 -11 9 -15 -3 -3 -21 5 -40 18 -77 52
-147 61 -166 22 -6 -14 -7 -25 -3 -25 5 0 11 9 15 19 6 20 33 19 46 -2 4 -5
25 -10 48 -10 37 0 46 -6 42 -29 0 -5 8 -8 20 -8 11 0 17 -4 14 -10 -11 -18
37 -11 71 10 19 12 35 17 38 11 10 -15 -68 -48 -100 -42 -7 1 -14 -8 -17 -20
-3 -11 -10 -18 -16 -15 -5 4 -12 2 -16 -4 -4 -6 -11 -8 -16 -5 -5 4 -12 -1
-15 -9 -3 -9 -17 -16 -31 -16 -13 0 -21 -4 -18 -10 3 -5 0 -10 -7 -10 -7 0
-23 -3 -35 -6 -14 -4 -23 -2 -23 5 0 5 7 8 15 5 8 -4 15 -2 15 4 0 5 18 17 40
26 22 9 40 21 40 27 0 7 -7 8 -17 4 -36 -15 -53 -17 -53 -7 0 5 -7 13 -16 16
-10 4 -13 2 -8 -6 5 -8 1 -9 -12 -4 -10 4 -35 10 -54 13 l-35 5 30 -26 c36
-31 23 -33 -33 -6 -27 13 -40 25 -36 32 6 9 9 9 11 1 7 -19 53 7 53 28 0 16 4
17 27 8 15 -5 37 -8 49 -5 13 4 29 0 36 -7 24 -23 66 -36 93 -29 26 7 26 8
-25 41 -50 33 -107 50 -94 29 3 -5 12 -7 18 -5 7 3 31 -8 54 -23 24 -16 37
-30 30 -32 -7 -3 -28 6 -47 19 -31 21 -75 37 -126 45 -15 2 -21 -3 -23 -24 -3
-22 -9 -27 -35 -30 -39 -4 -47 -30 -15 -46 19 -8 14 -9 -28 -5 -49 5 -51 4
-56 -21 -3 -14 -1 -26 3 -26 5 0 10 10 10 23 1 16 2 18 6 5 5 -18 23 -25 23
-9 0 5 15 7 33 6 44 -4 45 -5 18 -16 -18 -7 -27 -6 -34 3 -6 9 -7 7 -3 -6 5
-15 2 -17 -14 -13 -11 3 -18 1 -14 -4 7 -12 19 -11 61 6 30 13 33 17 23 30 -8
9 -9 15 -2 15 6 0 14 -4 17 -10 10 -16 45 -11 76 11 16 11 29 16 29 10 0 -5
-9 -13 -20 -16 -11 -3 -20 -11 -20 -16 0 -5 -9 -9 -20 -9 -11 0 -40 -10 -65
-22 -44 -22 -46 -22 -95 -4 -55 20 -94 16 -104 -11 -6 -15 -5 -16 5 -5 16 15
33 16 23 1 -3 -6 1 -10 12 -9 11 1 33 2 49 1 27 -1 28 -3 11 -13 -10 -6 -54
-10 -97 -9 -67 2 -79 -1 -79 -15 0 -14 10 -16 70 -12 58 3 70 1 70 -12 0 -12
-2 -12 -9 -1 -5 8 -10 9 -12 3 -5 -12 -177 -42 -241 -42 -84 0 -104 10 -440
214 -44 27 -83 44 -89 40 -8 -4 -9 -3 -5 4 8 14 -90 66 -106 56 -6 -4 -8 -3
-5 3 8 13 -113 69 -238 111 -99 34 -210 52 -315 52 -59 0 -68 -2 -66 -17 2
-12 13 -19 31 -21 16 -2 47 -16 70 -32 22 -15 69 -44 105 -63 36 -20 98 -68
138 -107 41 -38 78 -68 82 -65 4 3 6 -4 3 -15 -3 -11 0 -20 6 -20 6 0 44 -21
84 -46 208 -134 234 -159 223 -219 -4 -19 -10 -35 -14 -35 -4 0 -16 -14 -26
-30 -22 -38 -59 -74 -111 -108 -43 -29 -57 -43 -49 -51 3 -3 10 1 15 9 9 13
10 13 6 0 -2 -8 -13 -15 -25 -15 -11 0 -31 -10 -44 -22 -12 -11 -53 -38 -91
-58 -37 -20 -67 -41 -67 -46 0 -5 11 -2 25 7 14 9 25 13 25 9 0 -12 -33 -34
-51 -35 -23 0 -48 -30 -26 -30 8 0 17 4 19 9 1 4 12 5 23 1 16 -6 10 -9 -25
-15 -40 -7 -58 -17 -140 -85 l-25 -21 25 12 c14 6 37 21 53 31 15 11 27 15 27
10 0 -15 -26 -33 -35 -24 -5 4 -5 -1 -2 -11 4 -10 3 -16 -3 -12 -14 9 -108
-42 -120 -65 -6 -12 -21 -20 -35 -20 -18 0 -23 -4 -19 -15 5 -11 22 -15 66
-15 36 0 57 4 53 10 -3 6 1 7 10 4 22 -9 107 5 100 17 -3 5 0 6 8 3 17 -6 226
70 277 101 19 12 51 28 70 37 19 9 91 55 160 103 375 257 392 266 542 273 73
3 108 1 108 -6 0 -6 -10 -13 -22 -15 -20 -5 -20 -5 2 -4 15 1 25 8 25 17 0 20
-122 26 -203 10 -31 -7 -63 -12 -69 -13 -7 0 -13 -4 -13 -8 0 -3 -8 -9 -17
-12 -10 -2 -27 -8 -37 -13 -14 -5 -17 -4 -11 5 6 10 3 11 -14 2 -11 -7 -21
-17 -21 -23 0 -6 -3 -9 -6 -5 -3 3 -20 -9 -37 -26 -17 -17 -28 -24 -24 -14 8
21 -6 22 -23 2 -15 -18 -35 -20 -24 -3 4 7 3 8 -5 4 -9 -6 -9 -11 1 -24 11
-13 11 -14 0 -8 -8 5 -26 -6 -49 -31 -20 -21 -33 -32 -28 -24 5 9 4 12 -3 7
-6 -4 -8 -14 -5 -23 4 -10 2 -14 -4 -10 -6 4 -14 0 -17 -9 -3 -8 -10 -13 -15
-10 -5 3 -12 -1 -15 -10 -4 -9 -9 -14 -13 -11 -8 9 -63 -22 -63 -36 -1 -31
-383 -219 -411 -202 -5 4 -9 3 -9 -2 0 -4 -18 -9 -40 -10 -41 -1 -55 15 -21
24 11 3 22 11 25 18 7 18 -54 -14 -72 -37 -7 -10 -21 -18 -30 -18 -12 1 -10 5
8 15 14 8 19 14 13 15 -7 0 -13 5 -13 11 0 5 3 8 8 6 7 -5 19 1 118 54 45 25
47 27 19 25 -16 -1 -35 -4 -41 -8 -6 -4 -10 3 -10 16 0 17 5 22 21 19 11 -2
32 4 46 14 14 10 47 32 73 49 35 24 42 33 30 38 -8 3 -24 1 -35 -4 -13 -7 -19
-7 -19 0 0 5 5 10 11 10 5 0 7 5 3 11 -4 8 0 9 15 4 14 -4 39 4 78 26 32 18
75 42 95 53 46 26 48 33 5 29 l-32 -3 34 11 c18 6 58 29 88 52 30 23 70 51 88
62 25 16 31 24 25 35 -8 13 -10 13 -10 -1 0 -9 -7 -20 -16 -23 -24 -9 -32 3
-12 18 18 13 15 48 -5 74 -8 10 -7 16 6 23 9 6 17 15 17 20 0 12 -76 90 -81
84 -2 -2 -5 8 -5 21 -1 13 -1 24 1 24 16 0 115 -52 111 -59 -4 -5 4 -7 16 -4
16 4 20 2 13 -5 -5 -5 -18 -12 -28 -14 -12 -2 -7 -7 17 -14 29 -9 34 -8 26 1
-6 7 -10 17 -9 21 4 21 -3 31 -31 47 -34 20 -42 44 -9 27 11 -7 44 -29 72 -50
49 -37 100 -52 75 -22 -9 10 -13 11 -19 0 -7 -10 -9 -10 -9 2 -1 15 -50 55
-130 102 -49 30 -48 38 3 12 33 -17 118 -74 127 -85 3 -3 21 -14 40 -24 35
-18 35 -18 10 -27 -13 -5 -31 -14 -39 -21 -12 -9 -13 -9 -7 0 5 9 2 11 -9 7
-9 -4 -14 -13 -11 -20 7 -19 -9 -18 -40 2 -28 19 -43 12 -24 -11 10 -13 9 -15
-9 -15 -11 0 -21 -4 -21 -10 0 -13 27 -13 35 1 4 6 13 8 21 5 8 -3 39 6 69 19
30 14 77 30 104 37 40 9 48 14 40 25 -7 8 -8 13 -1 13 8 0 22 -22 22 -36 0 -9
-68 -34 -99 -36 -17 -1 -31 -5 -31 -9 0 -4 20 -6 44 -4 40 3 44 2 44 -21 0
-19 -6 -24 -27 -24 -14 0 -39 11 -54 25 -15 14 -27 21 -27 16 0 -14 50 -47 83
-55 15 -3 27 -11 27 -16 0 -15 -28 -12 -55 6 -13 9 -30 12 -36 8 -7 -4 -9 -3
-6 3 3 5 -9 16 -28 25 -29 13 -35 13 -39 1 -9 -23 -7 -29 5 -13 8 11 12 12 16
2 2 -6 9 -10 13 -7 5 3 11 1 15 -4 3 -6 -4 -15 -15 -21 -11 -6 -20 -15 -20
-21 0 -5 11 -4 26 4 22 11 32 12 53 2 14 -7 38 -16 53 -19 24 -5 28 -3 28 14
0 18 3 19 20 10 11 -6 33 -13 49 -15 24 -3 28 0 24 15 -5 19 -64 36 -83 25 -6
-4 -10 7 -10 24 0 25 7 34 37 49 21 11 50 22 65 26 l27 6 -24 -26 c-27 -29
-35 -56 -10 -30 8 8 15 20 15 26 0 6 12 9 27 8 16 -2 28 2 28 9 0 6 4 15 9 20
6 5 6 2 1 -6 -6 -11 -4 -13 8 -8 10 3 17 2 17 -3 0 -6 -7 -10 -15 -10 -8 0
-21 -12 -29 -27 l-15 -28 -10 25 -10 25 0 -27 c-1 -21 -6 -28 -20 -28 -19 0
-45 23 -36 32 3 3 -5 4 -17 3 -37 -4 -38 -4 -38 -18 0 -19 49 -34 96 -29 32 3
44 10 58 33 10 16 22 27 27 23 6 -4 6 -11 -2 -20 -7 -9 -8 -14 -1 -14 6 0 13
6 15 13 3 7 6 5 6 -5 1 -12 -6 -18 -20 -18 -11 0 -17 -5 -14 -10 4 -6 12 -7
18 -3 18 11 80 3 98 -12 8 -8 20 -15 25 -15 4 0 -6 13 -24 30 -31 28 -71 42
-57 20 3 -5 1 -10 -5 -10 -7 0 -10 7 -6 15 3 8 -2 19 -12 24 -13 7 -14 13 -5
21 8 9 13 7 18 -9 9 -29 27 -16 19 15 -5 20 -3 24 17 23 16 -1 18 -3 8 -6 -18
-4 -15 -34 6 -66 11 -16 13 -16 30 3 18 19 18 22 2 37 -9 10 -17 12 -17 6 0
-6 6 -14 13 -16 6 -3 2 -6 -10 -6 -26 -1 -28 6 -9 32 12 15 15 15 26 2 13 -15
30 -12 30 6 0 6 -5 7 -12 3 -7 -4 -8 -3 -4 4 5 9 13 9 29 0 12 -7 26 -11 31
-10 4 2 14 -2 21 -8 9 -8 14 -6 19 6 4 10 13 14 26 11 11 -3 20 -1 20 4 0 5 7
9 15 9 8 0 15 7 15 16 0 12 5 11 19 -7 18 -22 20 -22 26 -6 4 9 11 17 16 17 4
0 6 -8 3 -17 -5 -15 -4 -16 5 -3 5 8 8 25 5 36 -3 12 0 25 6 29 9 5 10 1 5
-14 -4 -13 -2 -21 5 -21 7 0 10 -7 7 -15 -4 -8 -1 -17 5 -21 7 -4 8 -3 4 4 -9
15 -1 15 25 2 22 -12 25 -30 5 -30 -8 0 -17 -8 -19 -17 -4 -16 -5 -16 -6 -2 0
9 -8 19 -15 22 -10 4 -13 1 -10 -7 3 -8 1 -17 -5 -21 -6 -3 -11 -1 -11 4 0 6
-9 11 -20 11 -11 0 -20 5 -20 12 0 6 -3 8 -6 5 -4 -4 -1 -14 7 -24 12 -15 12
-16 -4 -10 -10 4 -21 7 -23 7 -2 0 -5 10 -5 23 -1 16 -2 18 -6 5 -2 -10 -9
-18 -15 -18 -6 0 -17 -8 -24 -17 -12 -16 -15 -16 -24 -3 -9 13 -12 13 -25 -4
-8 -10 -12 -23 -9 -27 3 -5 1 -9 -4 -9 -18 0 -20 13 -6 35 10 16 12 25 5 30
-6 3 -11 -1 -11 -9 0 -9 -4 -16 -10 -16 -5 0 -10 7 -10 16 0 8 -5 12 -11 9 -6
-4 -8 -10 -5 -13 4 -3 -4 -16 -16 -29 -12 -13 -16 -23 -9 -23 7 0 9 -5 4 -12
-4 -7 5 -5 19 4 19 12 29 14 34 7 4 -6 1 -15 -7 -19 -9 -6 -5 -11 15 -16 19
-4 31 -2 37 7 8 11 12 10 24 -5 9 -13 15 -15 15 -7 0 8 -8 20 -17 27 -17 11
-16 14 11 39 l29 26 -5 -25 c-3 -14 -1 -26 3 -26 5 0 9 -7 9 -16 0 -10 6 -14
15 -11 8 4 17 2 20 -2 2 -5 14 -11 25 -14 15 -4 20 0 20 14 0 10 -5 19 -11 19
-5 0 -7 -4 -4 -10 10 -16 -11 -12 -25 5 -10 12 -8 19 8 40 14 18 23 22 28 14
4 -7 -1 -18 -11 -26 -18 -12 -18 -13 -1 -13 19 0 32 -11 59 -50 17 -24 17 -24
17 -2 0 12 -5 22 -10 22 -25 0 -20 32 10 70 30 38 31 42 16 59 -19 21 -21 33
-3 30 6 -1 20 2 31 6 13 6 21 3 28 -9 13 -23 29 -10 22 19 -3 13 0 26 7 30 7
5 10 4 6 -3 -10 -15 3 -42 19 -42 11 0 12 -4 4 -19 -13 -25 -13 -41 0 -21 9
13 11 13 21 0 9 -13 10 -13 6 2 -3 9 1 19 9 22 23 9 24 8 24 -19 0 -14 5 -25
11 -25 6 0 9 6 6 13 -2 6 0 20 4 29 6 10 5 19 -1 23 -5 3 -10 11 -10 17 0 7 9
2 20 -10 27 -28 39 -28 34 1 -2 12 -1 16 2 7 11 -23 31 -40 47 -40 9 0 18 -6
20 -12 3 -8 6 -6 6 5 1 20 12 22 29 5 9 -9 12 -9 12 1 0 9 5 8 16 -3 18 -18
34 -21 34 -6 0 6 -6 10 -14 10 -20 0 -15 46 6 59 16 10 16 8 8 -17 -9 -25 -9
-26 5 -8 14 18 15 18 21 1 7 -17 8 -17 20 -1 11 16 14 14 29 -19 10 -19 15
-39 11 -42 -3 -3 -6 -1 -6 6 0 7 -4 10 -9 6 -5 -3 -8 -20 -7 -38 2 -17 1 -24
-1 -14 -4 16 -23 25 -23 10 0 -5 -15 -8 -32 -7 -22 1 -35 -4 -40 -15 -5 -12
-7 -11 -7 7 -1 21 -31 33 -31 11 0 -5 4 -8 9 -5 5 3 8 -12 8 -34 -1 -28 -5
-40 -15 -40 -11 0 -13 9 -9 34 3 19 0 39 -6 45 -15 15 -50 14 -65 -1 -7 -7
-12 -8 -12 -2 0 5 5 15 12 22 9 9 9 12 1 12 -7 0 -15 -4 -18 -10 -3 -5 -10
-10 -15 -10 -12 0 0 32 14 42 6 4 1 8 -11 8 -16 0 -23 -6 -23 -20 0 -25 -10
-29 -75 -33 -45 -3 -50 -5 -47 -25 2 -15 -2 -22 -13 -22 -11 0 -15 6 -11 18 5
14 0 17 -26 17 -35 0 -46 -16 -23 -35 17 -14 20 -30 5 -30 -5 0 -10 7 -10 15
0 8 -8 15 -17 15 -14 0 -15 -2 -4 -9 11 -7 11 -9 0 -14 -10 -4 -9 -6 4 -6 9
-1 17 -9 18 -18 0 -11 3 -13 6 -5 2 6 9 10 14 6 5 -3 9 4 9 15 0 26 10 31 38
20 12 -5 21 -16 21 -26 -1 -17 -2 -17 -6 0 -2 9 -9 17 -14 17 -6 0 -6 -8 1
-20 13 -23 37 -17 46 13 16 51 54 82 69 57 4 -6 1 -9 -7 -8 -9 2 -14 -10 -16
-37 -3 -39 -2 -40 28 -40 16 0 28 5 26 10 -2 6 -9 9 -15 8 -15 -4 -14 1 6 45
12 29 17 33 20 18 3 -10 1 -21 -4 -25 -12 -9 -15 -31 -3 -31 6 0 10 -8 10 -17
0 -15 2 -16 10 -3 7 10 12 11 18 4 4 -6 15 -13 24 -17 13 -4 15 -2 11 10 -5
12 -1 14 25 9 16 -4 33 -3 36 2 3 5 23 7 46 6 22 -1 40 3 40 8 0 6 -11 8 -24
4 -28 -7 -43 18 -25 40 10 12 14 11 25 -3 12 -16 15 -16 24 -3 7 12 10 8 10
-17 0 -25 4 -31 15 -27 8 4 15 14 15 24 0 16 28 49 37 43 1 -2 6 -3 11 -2 4 0
-2 4 -13 9 -19 8 -19 9 3 9 12 1 22 -3 22 -9 0 -5 8 -10 18 -10 10 0 13 -3 6
-8 -6 -4 -14 -23 -18 -42 l-6 -34 20 22 c11 11 20 30 20 42 0 21 30 29 30 8 1
-7 7 -2 14 11 12 21 12 27 -1 39 -13 13 -16 13 -24 1 -8 -12 -11 -10 -21 6 -7
11 -13 25 -14 32 -1 6 -7 19 -12 29 -9 17 -11 16 -23 -9 -13 -29 -29 -36 -29
-12 0 8 -4 15 -10 15 -5 0 -6 7 -3 17 4 10 2 14 -4 10 -6 -4 -13 -1 -16 7 -4
10 1 12 16 9 18 -5 20 -3 10 8 -7 7 -13 20 -13 29 1 12 4 11 16 -5 9 -12 12
-30 8 -47 -3 -17 -1 -28 5 -28 6 0 11 7 11 15 0 8 5 15 11 15 5 0 7 6 3 13 -5
7 0 6 11 -3 14 -11 19 -12 22 -2 3 6 9 12 14 12 4 0 6 -8 2 -17 -6 -16 -4 -16
16 1 16 15 20 16 16 4 -4 -9 3 -21 19 -32 23 -14 26 -14 26 -1 0 8 -4 15 -9
15 -5 0 -11 12 -15 28 -7 33 -42 80 -52 69 -4 -4 1 -16 11 -27 10 -11 15 -23
12 -27 -8 -8 -36 26 -37 45 0 6 -7 12 -15 12 -19 0 -19 14 -1 30 12 9 18 7 33
-9 24 -28 35 -26 23 4 -7 20 -6 25 5 25 8 0 15 -6 15 -12 0 -10 2 -10 8 0 6 8
9 2 9 -17 0 -16 8 -37 18 -47 17 -17 18 -17 35 3 15 19 17 19 28 4 10 -14 12
-14 21 -1 9 13 12 12 25 -5 18 -23 20 -45 6 -45 -5 0 -10 -7 -10 -15 0 -8 -5
-15 -10 -15 -6 0 -8 11 -4 25 5 19 3 24 -8 20 -9 -4 -19 3 -26 17 l-11 23 0
-22 c-1 -13 -6 -23 -12 -23 -6 0 -8 -9 -4 -20 4 -11 2 -20 -4 -20 -15 0 -14
-36 2 -52 23 -23 29 -49 10 -46 -9 2 -18 -3 -21 -11 -3 -9 1 -11 15 -7 18 6
20 3 15 -21 -4 -19 -7 -23 -10 -10 -2 9 -10 17 -17 17 -7 0 -16 -8 -19 -17 -3
-10 -3 -1 0 19 4 31 2 37 -11 32 -11 -4 -14 -13 -9 -28 4 -11 3 -18 -1 -14 -5
4 -15 3 -22 -4 -11 -9 -16 -9 -22 1 -6 9 -10 3 -13 -18 -2 -17 -1 -31 4 -31 4
0 8 7 8 16 0 8 5 12 10 9 6 -3 10 -2 10 3 0 5 7 9 15 9 8 0 15 -4 15 -9 0 -13
28 -9 33 5 4 9 6 9 6 0 2 -25 31 -13 37 15 10 45 13 53 22 48 5 -3 7 6 4 19
-2 14 -8 28 -13 31 -5 3 -9 15 -9 27 0 22 1 22 20 -3 11 -14 20 -32 20 -41 0
-9 9 -24 20 -34 11 -10 20 -13 20 -7 0 7 -4 12 -10 12 -5 0 -10 5 -10 12 0 6
8 4 19 -6 14 -13 28 -16 55 -11 20 4 34 11 31 15 -3 5 4 6 15 3 11 -3 26 -3
35 0 13 5 12 10 -3 36 -21 38 -9 51 19 20 21 -25 21 -15 -3 33 -15 32 -28 36
-28 9 0 -11 -5 -23 -10 -26 -8 -5 -7 -11 1 -21 6 -8 10 -17 7 -19 -6 -6 -58
52 -58 65 0 22 -17 8 -30 -25 -16 -40 -18 -41 -37 -17 -13 15 -14 14 -8 -12 5
-26 4 -28 -9 -17 -20 17 -20 30 0 56 12 17 16 18 24 5 5 -8 12 -11 16 -7 4 4
0 15 -8 24 -9 10 -19 29 -23 43 -7 21 -6 22 7 10 8 -8 17 -23 21 -32 7 -20 27
-24 27 -6 0 6 -8 20 -17 30 -15 17 -15 19 3 32 11 8 21 10 22 5 3 -6 10 -5 18
2 10 8 14 8 14 0 0 -6 -4 -11 -10 -11 -5 0 -7 -7 -4 -15 4 -8 12 -15 20 -15 8
0 14 7 14 15 0 8 5 15 10 15 6 0 10 -7 10 -15 0 -8 -4 -15 -10 -15 -5 0 -10
-7 -10 -15 0 -18 17 -20 22 -3 3 8 14 3 29 -15 l24 -29 18 41 c10 23 23 41 28
41 6 0 7 4 4 10 -6 10 24 72 38 78 4 2 5 7 3 11 -3 4 5 7 16 6 12 -1 24 -8 26
-16 2 -10 1 -11 -5 -2 -12 17 -30 3 -52 -41 -16 -31 -17 -38 -5 -43 22 -8 17
-25 -6 -18 -14 4 -20 2 -20 -8 0 -8 6 -15 13 -14 37 1 45 -4 40 -23 -3 -11 0
-20 6 -20 6 0 11 -6 11 -14 0 -8 7 -16 15 -20 9 -3 15 0 15 9 0 10 10 15 31
15 20 0 29 -4 26 -12 -2 -7 -15 -13 -28 -13 -15 0 -23 -5 -21 -14 2 -8 4 -26
5 -41 1 -15 8 -27 15 -27 15 0 15 10 0 25 -6 6 -8 15 -4 19 4 5 14 -1 21 -12
8 -11 19 -26 25 -33 6 -7 8 -16 5 -21 -8 -15 15 -25 28 -12 8 8 8 11 -1 11 -9
0 -9 6 0 28 16 36 18 38 26 26 4 -7 15 -8 27 -3 19 7 19 8 -2 8 -12 1 -25 6
-28 11 -9 15 -25 2 -25 -21 0 -10 -6 -19 -14 -19 -22 0 -29 18 -9 23 14 4 14
5 -3 6 -23 1 -43 31 -21 31 7 0 18 5 25 12 26 26 98 18 107 -13 8 -24 22 -24
30 0 6 20 25 19 53 -2 8 -6 21 -12 30 -12 30 -3 137 -37 154 -50 10 -6 15 -15
11 -18 -3 -4 -1 -7 6 -7 6 0 16 -10 21 -22 7 -18 9 -19 9 -5 1 9 7 17 14 17 8
0 7 4 -3 10 -34 22 21 9 106 -25 47 -19 91 -35 97 -35 5 0 34 -11 64 -25 29
-14 58 -23 63 -20 6 3 10 2 10 -3 0 -5 8 -12 18 -16 9 -3 23 -9 30 -12 8 -4
10 0 6 10 -3 9 -12 16 -19 16 -8 0 -30 9 -49 21 -20 12 -36 17 -36 12 0 -4 -4
-3 -8 2 -4 6 -70 35 -147 64 -77 30 -151 60 -165 68 -29 16 -18 13 95 -29 44
-16 103 -36 130 -45 28 -8 60 -19 72 -23 16 -7 22 -5 26 10 3 13 -1 21 -14 25
-10 4 -19 10 -19 15 0 5 14 2 30 -7 17 -8 37 -12 45 -10 7 3 16 -1 19 -9 3 -9
11 -12 17 -8 8 5 6 11 -7 21 -10 8 -20 19 -20 26 -1 7 -2 17 -3 24 0 7 -8 10
-17 6 -12 -4 -13 -7 -3 -14 22 -13 3 -20 -26 -9 -24 9 -27 14 -21 41 3 16 2
28 -3 25 -5 -3 -11 8 -15 24 -7 38 -31 39 -50 3 -8 -16 -15 -24 -16 -19 0 5
-7 3 -15 -4 -17 -14 -35 -5 -35 16 0 11 -6 13 -21 9 -19 -6 -21 -4 -16 14 3
12 1 19 -4 15 -8 -4 -13 16 -10 38 0 4 -9 5 -20 3 -13 -3 -23 3 -28 17 l-8 22
-5 -22 c-4 -12 -2 -20 3 -16 5 3 9 1 9 -4 0 -12 -29 -24 -41 -16 -5 3 -9 -2
-9 -10 0 -19 23 -33 28 -18 2 7 10 12 17 12 7 0 16 6 18 13 4 9 6 9 6 -1 1 -7
6 -10 12 -6 7 4 9 -2 7 -17 -5 -35 -64 -31 -94 6 -13 16 -24 23 -28 17 -3 -6
-15 -10 -26 -9 -15 1 -17 4 -7 16 10 12 9 14 -6 8 -11 -4 -20 -1 -23 8 -4 9
-19 15 -36 15 -26 0 -29 2 -18 15 10 12 10 15 -3 15 -9 0 -19 -9 -22 -20 -4
-12 -16 -20 -28 -21 -21 0 -21 -1 -2 -10 15 -7 10 -8 -20 -4 -22 3 -75 5 -117
5 -78 0 -91 6 -63 30 8 7 15 25 15 41 0 19 5 29 15 29 8 0 15 -4 15 -8 0 -4 8
-8 18 -9 23 -2 48 35 33 50 -7 7 -13 3 -19 -13 -9 -23 -10 -23 -22 14 -10 32
-10 40 1 47 9 5 21 -1 37 -19 l23 -27 -7 25 c-4 14 -12 28 -18 32 -6 4 -9 8
-6 9 3 0 15 2 26 4 19 4 21 0 19 -34 -1 -21 -5 -43 -9 -50 -4 -6 -1 -11 8 -11
10 0 16 9 17 23 1 16 2 18 6 5 2 -10 7 -18 9 -18 12 0 30 26 27 37 -3 7 3 23
11 35 l16 23 -3 -30 c-3 -16 -2 -24 0 -17 3 7 9 10 14 6 5 -3 7 -10 4 -15 -4
-5 -1 -9 4 -9 6 0 11 6 12 13 0 6 18 27 40 45 l38 34 26 -28 27 -29 -7 30 -6
30 17 -29 c12 -21 18 -25 24 -16 7 11 11 11 23 1 13 -10 15 -9 10 11 -5 23 -5
23 10 3 16 -19 16 -19 17 -1 0 16 2 16 16 5 12 -10 17 -10 23 0 6 10 10 9 14
-3 4 -9 2 -16 -4 -16 -6 0 -7 -5 -3 -11 10 -18 24 12 18 41 -3 17 2 12 15 -15
16 -32 20 -35 20 -17 1 23 36 32 43 11 2 -7 12 1 22 16 13 20 15 30 7 38 -16
16 -13 22 12 23 20 1 23 -2 20 -25 -3 -25 -3 -25 6 -3 6 12 15 22 21 22 6 0 9
-10 7 -22 -2 -13 -2 -17 0 -10 7 20 23 13 20 -9 -1 -12 4 -24 11 -26 6 -3 12
3 12 13 0 15 3 14 19 -5 14 -16 21 -18 24 -9 4 10 8 10 16 -2 9 -13 11 -13 11
1 0 22 47 31 55 11 3 -8 12 -12 21 -8 8 3 12 2 9 -4 -3 -6 5 -10 19 -10 14 0
26 5 26 11 0 7 10 9 28 4 15 -4 33 -8 40 -8 8 0 10 -8 6 -21 -4 -15 0 -12 15
9 13 19 17 33 11 39 -16 16 -11 50 10 69 17 14 20 14 20 2 0 -8 7 -15 15 -15
8 0 15 -7 15 -16 0 -13 -3 -14 -13 -5 -8 6 -17 8 -20 4 -4 -3 -7 -1 -7 6 0 7
-4 9 -10 6 -26 -16 9 -52 44 -46 4 1 14 -4 22 -10 10 -8 14 -8 14 -1 0 6 7 9
15 6 12 -5 15 3 15 35 0 23 -4 41 -10 41 -5 0 -10 5 -10 12 0 28 31 -21 32
-51 1 -28 18 -58 18 -32 0 6 5 11 11 11 5 0 8 -4 4 -9 -3 -5 -1 -12 5 -16 5
-3 10 1 10 10 0 9 6 15 13 12 6 -2 11 -9 10 -15 -2 -6 6 -10 17 -9 11 1 20 5
20 10 0 4 5 5 10 2 6 -3 10 -16 10 -28 0 -18 2 -19 10 -7 7 11 10 12 10 2 0
-7 7 -21 16 -30 13 -13 22 -14 45 -5 21 8 29 8 29 0 0 -5 3 -7 7 -4 3 4 12 2
20 -5 20 -16 28 -2 9 18 -21 20 -13 32 9 14 11 -9 14 -22 10 -37 -3 -13 -2
-23 3 -23 4 0 8 10 9 21 1 12 4 23 7 26 7 8 26 -7 26 -20 0 -7 -4 -6 -10 3 -5
8 -10 10 -10 5 0 -12 20 -35 31 -35 4 0 9 9 12 20 6 21 -24 45 -46 37 -7 -2
-17 4 -22 14 -9 17 -13 17 -37 5 -22 -12 -30 -12 -53 0 -32 16 -38 17 -30 5 3
-5 1 -12 -4 -15 -5 -3 -11 3 -14 14 -3 11 -1 18 3 15 5 -3 11 -1 15 5 4 6 -6
10 -22 11 -15 0 -37 2 -48 5 -11 2 -35 6 -52 10 -53 10 -41 32 14 28 29 -2 51
2 56 9 6 8 7 6 3 -5 -4 -12 4 -20 30 -28 19 -6 40 -10 47 -7 6 2 20 0 31 -5
14 -7 16 -7 11 2 -6 9 -2 9 14 0 18 -9 26 -9 39 2 10 9 13 9 9 1 -9 -15 13
-53 30 -53 7 0 13 8 13 18 0 13 -2 14 -9 4 -7 -11 -9 -11 -14 1 -4 10 0 14 11
12 9 -1 25 2 36 7 14 8 17 7 13 -4 -2 -7 -10 -12 -16 -10 -6 1 -11 -9 -11 -23
0 -32 30 -34 31 -2 1 17 3 15 8 -8 4 -19 13 -31 26 -33 18 -2 19 -2 3 8 -18
11 -25 50 -10 50 9 0 32 -44 32 -60 0 -6 -7 -10 -15 -10 -8 0 -15 -5 -15 -10
0 -7 6 -7 18 -1 10 5 33 8 52 7 19 -1 41 2 48 7 8 7 12 4 12 -7 0 -8 11 -23
25 -32 20 -13 23 -20 14 -35 -5 -10 -17 -19 -25 -19 -8 0 -13 4 -10 8 3 5 -8
6 -25 4 -38 -6 -38 14 1 22 17 3 30 10 30 16 0 14 -22 12 -44 -5 -25 -19 -41
-19 -61 1 -9 9 -19 14 -22 10 -3 -3 5 -14 17 -24 l23 -19 -30 -15 c-16 -8 -37
-14 -46 -12 -10 1 -15 -1 -12 -6 3 -4 -15 -17 -39 -28 -24 -12 -55 -35 -70
-52 -15 -18 -31 -28 -37 -24 -7 4 -9 3 -6 -3 3 -5 -5 -27 -20 -47 -14 -21 -28
-56 -30 -77 -4 -24 -14 -45 -26 -54 -15 -11 -18 -20 -13 -42 4 -15 13 -67 19
-115 8 -54 19 -94 30 -106 18 -19 37 -69 41 -107 2 -11 6 -18 11 -15 9 6 28
-40 21 -48 -3 -3 -18 9 -33 27 -27 31 -53 41 -53 20 0 -5 4 -8 8 -5 14 8 70
-59 101 -120 32 -64 125 -149 201 -185 43 -20 141 -46 205 -55 24 -3 23 -1
-10 10 -60 21 -32 19 65 -5 79 -19 97 -20 230 -11 l145 10 -150 -4 c-142 -5
-156 -3 -270 25 -136 35 -235 69 -235 82 0 5 -5 9 -11 9 -5 0 -7 -5 -3 -11 9
-15 87 -49 149 -66 l50 -13 -48 5 c-64 6 -127 35 -190 87 -71 57 -76 62 -52
54 17 -6 17 -4 -4 18 -14 15 -27 26 -30 26 -3 0 0 -5 7 -12 15 -15 16 -32 2
-23 -9 6 -70 120 -70 132 0 3 8 -1 18 -8 15 -12 16 -12 5 1 -10 14 -23 46 -78
191 -19 50 -26 220 -10 242 14 19 45 23 45 5 0 -6 3 -8 6 -5 4 4 1 13 -6 22
-16 19 -6 47 15 39 11 -4 15 1 16 17 1 17 3 19 6 7 2 -10 9 -18 14 -18 5 0 9
-5 9 -11 0 -5 -4 -8 -8 -5 -15 9 -35 -12 -28 -29 6 -17 7 -17 25 -1 11 10 22
28 25 42 4 13 13 24 21 24 8 0 15 5 15 10 0 6 7 10 15 10 8 0 15 7 15 15 0 16
12 20 23 8 4 -3 1 -13 -6 -21 -10 -13 -8 -15 19 -9 26 5 33 2 44 -19 7 -13 19
-24 27 -24 16 0 55 -21 65 -35 4 -5 2 -12 -4 -16 -10 -6 6 -48 23 -59 4 -3 -1
-23 -11 -45 -9 -22 -23 -71 -30 -108 -7 -37 -19 -75 -27 -83 -9 -9 -13 -26
-11 -44 3 -17 0 -26 -5 -23 -6 3 -8 -31 -5 -89 5 -119 21 -145 109 -178 33
-13 77 -31 97 -42 20 -10 48 -18 62 -17 24 1 23 1 -5 9 -51 14 -185 72 -185
81 0 6 107 -29 213 -70 16 -6 34 -11 40 -11 14 1 -152 69 -169 70 -27 1 -96
43 -106 66 -8 18 -14 21 -20 12 -5 -9 -8 -10 -8 -1 0 6 4 14 10 18 10 6 8 70
-3 81 -3 3 -4 -13 -2 -36 2 -23 1 -39 -2 -36 -4 4 -7 33 -8 66 -1 33 2 55 5
49 11 -16 33 47 34 97 1 24 5 44 9 44 5 0 5 -6 1 -12 -5 -9 -2 -9 9 1 9 7 17
19 17 25 0 6 -5 4 -11 -4 -7 -11 -8 -3 -4 30 7 47 80 223 99 239 16 13 81 -21
80 -42 -2 -17 9 -21 56 -18 20 2 22 0 10 -8 -8 -6 -27 -11 -42 -11 -15 0 -30
-6 -35 -12 -21 -35 -4 -51 44 -42 42 8 43 17 1 10 -33 -5 -38 -3 -38 14 0 15
7 20 28 21 32 1 106 27 79 28 -10 1 -15 6 -12 12 4 6 19 7 35 4 15 -3 31 -2
34 3 3 6 -3 8 -14 5 -14 -4 -20 0 -20 12 0 13 3 15 13 7 7 -6 39 -9 72 -7 62
4 79 0 69 -16 -4 -6 -11 -6 -20 2 -10 9 -14 9 -14 0 0 -15 30 -27 39 -15 3 5
21 11 39 13 30 2 33 0 30 -20 -3 -22 -8 -24 -78 -24 -66 -1 -99 -7 -175 -35
-13 -4 -3 -7 27 -6 25 1 42 4 36 7 -15 9 34 19 62 13 20 -5 22 -3 10 5 -12 9
-10 11 11 11 66 0 129 -30 129 -62 0 -7 -7 -3 -15 8 -15 18 -15 17 -13 -15 3
-30 9 -37 60 -64 50 -26 175 -52 157 -33 -3 3 -27 8 -53 10 -71 5 -68 16 5 16
48 0 60 3 49 11 -12 8 -10 9 7 4 15 -4 25 0 32 12 10 17 12 17 40 1 25 -14 32
-14 41 -3 8 10 6 15 -9 20 -12 3 -21 11 -21 16 0 5 -6 9 -13 9 -13 0 -89 91
-82 98 2 3 25 -18 50 -44 26 -27 51 -48 57 -46 15 4 38 -18 38 -38 0 -9 18
-42 40 -73 22 -30 40 -60 40 -66 0 -5 9 -17 21 -25 12 -8 19 -18 16 -23 -3 -4
-34 -23 -69 -40 -61 -32 -157 -52 -250 -53 -44 0 -51 17 -10 22 15 2 -20 4
-78 3 -58 0 -108 -4 -112 -10 -13 -17 -9 -25 9 -18 10 4 14 2 10 -4 -4 -7 9
-9 41 -6 42 5 46 4 32 -10 -8 -9 -28 -18 -45 -21 l-30 -6 30 15 30 16 -30 -6
c-35 -8 -55 -22 -55 -41 0 -14 -11 -18 -40 -15 -12 2 -13 0 -1 -7 7 -5 22 -7
32 -5 14 4 19 0 19 -16 0 -12 4 -31 10 -41 11 -21 64 -42 85 -34 21 8 97 13
280 19 88 3 162 6 165 6 3 1 7 1 10 1 3 0 7 12 8 28 3 37 -4 38 -165 42 -137
3 -154 -4 -30 -13 79 -5 78 -6 -33 -6 -71 -1 -105 2 -90 7 21 7 21 8 5 9 -11
0 -26 -3 -33 -8 -25 -16 14 -20 177 -22 134 0 159 -3 154 -15 -4 -11 -33 -14
-142 -14 -75 -1 -155 -5 -178 -9 -24 -5 -40 -4 -37 0 3 5 16 9 30 9 14 0 23 4
20 9 -4 5 -20 5 -41 -2 -19 -5 -32 -13 -30 -16 2 -4 -5 -8 -16 -8 -16 -2 -18
1 -9 12 8 10 8 15 -1 21 -8 4 -9 3 -5 -4 4 -6 -6 -18 -23 -27 -37 -19 -52 -19
-28 -1 17 13 14 14 -25 10 -37 -3 -39 -2 -12 5 17 4 37 12 45 17 14 9 19 10
40 13 5 0 7 6 4 11 -4 6 -3 10 2 9 24 -4 43 2 37 13 -4 6 -3 8 4 5 16 -10 113
17 127 36 6 9 40 23 76 32 121 31 129 34 80 29 -25 -2 -42 -2 -39 2 11 11 82
23 88 15 11 -17 57 -20 76 -6 19 13 18 16 -15 112 -69 203 -162 355 -292 478
-128 120 -215 174 -459 283 -169 75 -500 172 -744 219 l-148 28 -29 42 c-16
23 -29 45 -29 50 -1 11 -39 60 -40 50 0 -4 13 -31 30 -60 21 -37 26 -56 20
-67 -8 -13 -10 -13 -10 1 0 9 -11 37 -25 63 -14 26 -25 54 -25 62 0 8 -35 49
-77 92 -43 42 -91 94 -106 115 -28 37 -50 41 -45 9 4 -23 -31 -28 -46 -6 -14
18 -36 12 -36 -10 0 -20 -53 -62 -72 -58 -12 2 -18 -3 -18 -16 0 -11 -7 -32
-15 -48 -9 -19 -11 -32 -5 -38 16 -16 11 -30 -5 -16 -9 7 -14 19 -11 27 3 7 0
13 -7 13 -9 0 -13 -14 -13 -42 1 -35 -2 -42 -16 -40 -20 3 -33 -14 -18 -23 8
-5 6 -13 -6 -26 -10 -12 -13 -19 -5 -19 6 0 14 7 17 15 8 19 34 20 34 1 0 -15
-24 -39 -32 -30 -3 2 -60 5 -127 5 -80 0 -121 3 -121 10 0 6 7 9 15 5 8 -3 15
-1 15 4 0 6 -9 10 -20 10 -11 0 -20 -7 -20 -15 0 -13 -7 -15 -37 -9 -32 6 -63
32 -183 150 -80 79 -165 158 -190 177 -60 45 -185 136 -239 175 -24 18 -51 32
-59 32 -8 0 13 -18 47 -40z m1319 -332 c23 -21 42 -43 42 -49 0 -5 4 -8 9 -4
5 3 13 0 17 -6 4 -7 3 -9 -3 -6 -15 9 -23 -29 -10 -42 6 -6 8 -13 5 -17 -4 -3
-18 16 -32 43 -26 52 -63 94 -50 57 7 -18 6 -18 -16 1 l-23 20 19 -35 c10 -19
27 -46 37 -59 21 -29 22 -42 2 -35 -8 4 -15 2 -15 -2 1 -14 33 -51 50 -57 10
-4 8 -6 -7 -6 -16 -1 -27 11 -47 50 -21 42 -22 50 -8 45 10 -3 8 1 -5 10 -13
9 -23 22 -23 30 0 7 -21 44 -47 81 -58 85 -63 90 -59 67 2 -10 1 -13 -1 -6 -3
6 -9 12 -14 12 -5 0 -9 5 -9 11 0 5 4 8 8 5 16 -10 51 24 45 42 -3 9 16 -12
44 -48 27 -36 69 -82 91 -102z m-202 117 c-6 -16 30 -66 46 -62 5 1 21 -14 34
-35 19 -29 20 -37 9 -42 -8 -3 -21 4 -30 17 -8 12 -15 16 -15 9 0 -10 40 -69
86 -125 16 -20 18 -27 6 -27 -5 0 -14 10 -21 23 -11 21 -11 20 -6 -6 4 -19 2
-26 -5 -22 -5 3 -10 12 -10 20 0 7 -4 15 -8 17 -5 2 -43 42 -84 89 l-76 86 29
27 c16 15 29 34 29 42 0 9 5 12 11 9 6 -4 8 -13 5 -20z m-615 -209 c37 -36 62
-67 55 -69 -6 -2 -64 48 -129 112 -65 64 -122 117 -127 117 -6 1 -15 2 -22 3
-6 0 -3 7 8 15 21 16 12 23 215 -178z m541 137 c26 -23 22 -40 -4 -17 l-23 19
19 -22 c10 -13 22 -21 26 -18 4 2 18 -7 30 -20 18 -20 21 -28 12 -37 -9 -9
-12 -8 -12 4 0 8 -7 22 -17 29 -15 13 -15 12 -1 -16 9 -17 25 -39 37 -49 12
-11 21 -30 21 -43 0 -12 4 -23 10 -23 5 0 6 8 3 18 -6 15 -5 15 11 3 13 -11
14 -16 4 -22 -22 -14 3 -27 57 -32 28 -2 12 -4 -34 -4 -46 1 -79 3 -73 5 22 7
12 32 -20 54 -18 12 -48 39 -67 60 -33 38 -33 38 -20 83 7 25 15 45 18 45 2 0
13 -7 23 -17z m-45 -116 c6 2 14 -1 18 -6 3 -6 1 -11 -5 -11 -7 0 -10 -6 -7
-14 3 -8 1 -17 -6 -19 -9 -3 -8 -8 2 -18 9 -9 11 -9 7 -1 -10 17 12 15 31 -4
13 -12 13 -15 2 -14 -30 5 -43 -2 -19 -10 l25 -8 -27 -1 c-16 -1 -28 4 -28 11
0 19 -41 57 -55 52 -7 -3 -16 0 -20 6 -4 6 -1 11 6 9 31 -4 39 2 39 29 1 23 2
25 13 11 7 -9 17 -14 24 -12z m-717 -17 c17 -16 27 -30 22 -30 -4 0 -21 14
-37 30 -16 17 -26 30 -22 30 3 0 20 -13 37 -30z m81 -66 c21 -22 21 -24 4 -18
-20 8 -35 23 -35 37 0 12 5 9 31 -19z m89 -24 c0 -11 -4 -20 -10 -20 -5 0 -7
7 -4 15 4 8 -1 17 -10 21 -9 3 -16 10 -16 15 0 6 9 5 20 -1 11 -6 20 -20 20
-30z m632 -2 c-9 -9 -12 -7 -12 12 0 19 3 21 12 12 9 -9 9 -15 0 -24z m354
-21 c4 -4 -2 -7 -14 -7 -12 0 -22 4 -22 9 0 10 26 9 36 -2z m-1226 -43 c0 -8
-4 -12 -10 -9 -5 3 -10 13 -10 21 0 8 5 12 10 9 6 -3 10 -13 10 -21z m883 -99
l21 -15 -22 0 c-13 0 -21 4 -17 9 3 5 1 12 -5 16 -5 3 -9 16 -9 28 l2 22 4
-22 c2 -13 14 -30 26 -38z m82 24 c-4 -5 1 -19 11 -30 16 -17 16 -19 1 -19
-10 0 -17 3 -17 8 0 4 -3 17 -6 30 -4 13 -2 22 5 22 7 0 9 -5 6 -11z m157 -43
c4 -6 5 -13 2 -15 -3 -3 -9 1 -13 8 -5 7 -15 11 -22 9 -10 -3 -59 36 -59 47 0
6 86 -40 92 -49z m-726 -38 c-15 -21 -23 -25 -33 -17 -19 17 -16 27 10 31 16
2 22 10 23 28 2 42 6 47 13 15 5 -22 2 -37 -13 -57z m280 64 c1 -7 0 -8 -3 -2
-3 8 -9 7 -19 -1 -12 -10 -13 -9 -8 5 7 18 26 17 30 -2z m-322 -33 c-16 -33
-44 -66 -44 -54 0 10 31 67 44 81 18 20 19 8 0 -27z m-1197 14 c0 -7 -4 -13
-7 -13 -4 0 -12 6 -18 13 -8 10 -6 13 7 13 10 0 18 -6 18 -13z m2104 -15 c11
-11 17 -23 15 -25 -5 -5 -46 33 -46 42 0 11 14 4 31 -17z m634 -16 c168 -58
241 -84 249 -92 12 -12 -31 -6 -69 10 -16 6 -38 13 -47 15 -9 2 -26 9 -38 15
-12 6 -23 10 -25 8 -13 -13 -6 -39 20 -73 22 -29 38 -41 59 -42 27 -2 45 -17
46 -36 0 -5 -12 -7 -27 -5 -20 2 -28 8 -27 21 3 27 -22 3 -35 -34 -9 -27 -8
-31 16 -40 15 -5 33 -7 40 -5 8 3 12 2 9 -3 -7 -10 17 -21 45 -21 11 0 34 -8
52 -17 18 -9 36 -16 40 -15 5 1 5 -3 1 -9 -5 -9 -2 -10 9 -6 12 4 17 1 17 -9
0 -11 -6 -15 -19 -11 -10 2 -25 0 -32 -5 -9 -6 9 -8 54 -5 37 3 67 1 67 -4 0
-5 -14 -9 -31 -9 -17 0 -28 -4 -24 -10 3 -5 1 -10 -4 -10 -6 0 -11 5 -11 10 0
7 -30 9 -82 6 -56 -3 -71 -2 -48 3 l35 8 -37 2 c-20 0 -38 -4 -40 -10 -2 -5
-12 -11 -22 -13 -10 -1 -24 -13 -32 -27 l-13 -24 -1 27 c0 14 6 29 13 31 9 4
8 8 -3 16 -17 12 -10 21 19 24 11 1 21 5 21 9 0 4 5 8 11 8 5 0 7 -4 4 -10 -3
-5 0 -7 9 -4 8 3 21 2 28 -2 18 -11 58 -14 58 -4 0 4 9 6 20 3 20 -5 28 11 11
21 -5 4 -49 18 -97 32 -49 14 -93 29 -100 35 -6 5 -14 6 -18 2 -3 -4 -24 -8
-45 -9 l-38 -2 24 24 c27 28 38 31 29 9 -12 -33 34 -13 53 22 15 29 14 33 -6
34 -11 0 -13 3 -5 6 15 6 16 24 1 21 -5 -2 -16 15 -24 37 -8 21 -24 47 -36 56
-12 9 -19 21 -15 28 4 6 4 10 -1 9 -10 -3 -103 39 -103 47 0 3 8 2 18 -4 9 -5
44 -18 77 -29z m-2691 -4 c3 3 6 0 6 -6 0 -7 5 -11 11 -9 6 1 14 -4 16 -11 3
-9 -6 -8 -31 5 -20 9 -39 13 -43 9 -10 -9 18 -26 32 -19 5 3 5 0 -1 -6 -9 -10
-17 -9 -37 4 -35 22 -26 46 13 35 16 -4 31 -6 34 -2z m866 -13 c0 -8 7 -21 16
-30 13 -12 14 -19 5 -28 -8 -8 -11 -6 -11 8 0 18 0 18 -14 0 -13 -18 -14 -18
-21 6 -4 13 -13 27 -19 31 -8 6 -8 8 1 8 7 0 16 -8 22 -17 5 -10 13 -15 17
-11 4 4 -1 19 -10 32 -14 22 -14 25 -1 20 8 -4 15 -12 15 -19z m52 7 c-7 -2
-12 -11 -12 -19 0 -13 3 -13 15 -3 8 7 15 10 15 7 0 -3 3 -14 6 -24 5 -15 4
-16 -6 -3 -9 12 -11 10 -6 -12 4 -16 1 -30 -6 -34 -8 -5 -9 -2 -5 9 3 10 3 17
-2 17 -5 0 -11 -10 -15 -22 -9 -34 -7 -45 4 -28 8 13 10 12 10 -3 0 -14 -5
-17 -20 -12 -12 4 -20 2 -20 -5 0 -6 -4 -8 -10 -5 -5 3 -10 11 -10 16 0 6 4 8
9 5 5 -3 16 10 25 29 13 27 14 39 6 56 -13 23 4 54 23 42 8 -5 7 -8 -1 -11z
m-2536 -12 c32 -11 101 -45 154 -74 52 -29 127 -70 165 -91 67 -36 96 -55 83
-55 -4 0 -66 32 -140 71 -73 40 -167 87 -208 106 -115 52 -136 63 -124 63 6 0
37 -9 70 -20z m2439 -69 c-5 -18 68 -113 83 -108 9 3 12 -8 11 -30 0 -11 -3
-13 -6 -5 -2 6 -22 15 -44 18 -21 4 -39 11 -39 16 0 6 9 8 20 5 11 -3 23 -1
26 4 3 5 0 9 -5 9 -15 0 -64 77 -57 89 4 6 0 24 -9 40 -22 43 -18 52 5 13 12
-19 18 -42 15 -51z m-38 8 c8 -3 5 -12 -9 -29 -19 -24 -20 -24 -14 -3 4 12 2
33 -4 45 -9 19 -9 21 2 7 7 -9 18 -18 25 -20z m-2411 7 c16 -8 50 -24 77 -35
54 -23 63 -35 15 -19 -18 5 -43 10 -55 9 -14 0 -23 5 -23 14 0 8 -4 15 -8 15
-10 0 -50 29 -41 30 3 0 19 -6 35 -14z m301 -53 c74 -42 56 -42 -27 0 -43 22
-82 47 -85 55 -3 10 6 7 32 -9 21 -12 57 -33 80 -46z m2024 33 c1 5 1 13 0 17
-1 5 3 6 9 2 16 -10 11 -31 -8 -32 -10 -1 -24 8 -31 20 -14 22 -14 22 8 3 11
-11 22 -15 22 -10z m1614 -7 c-3 -4 -12 -6 -20 -3 -8 4 -13 10 -10 15 3 4 12
6 20 3 8 -4 13 -10 10 -15z m-1712 -3 c3 -8 -3 -25 -14 -38 l-21 -23 7 28 c10
37 -10 35 -21 -2 l-9 -29 -19 25 c-18 25 -18 25 3 18 13 -4 21 -2 21 5 0 6 10
15 23 20 12 5 23 9 23 9 1 1 4 -5 7 -13z m2003 -1 c18 -14 18 -14 -7 -15 -16
0 -26 5 -26 15 0 19 8 19 33 0z m-2134 -64 c-5 -3 -11 -12 -13 -19 -3 -8 -8
-6 -16 8 -11 16 -10 18 2 14 11 -5 17 3 22 27 l8 34 3 -29 c2 -16 -1 -32 -6
-35z m38 9 c12 -23 12 -24 -3 -11 -10 7 -17 20 -17 29 0 18 3 16 20 -18z m460
9 c0 -5 -7 -9 -15 -9 -15 0 -20 12 -9 23 8 8 24 -1 24 -14z m-2124 -80 c27
-23 68 -55 92 -72 23 -17 42 -34 42 -39 0 -5 -4 -6 -10 -3 -5 3 -10 1 -10 -4
0 -11 13 -15 40 -12 13 2 13 1 0 -8 -10 -7 -11 -11 -2 -11 6 0 12 -4 12 -10 0
-19 -20 -10 -57 29 -21 21 -57 51 -81 66 -24 16 -41 34 -38 41 5 13 -33 54
-50 54 -6 0 -19 7 -30 15 -17 14 -17 14 12 5 16 -6 52 -29 80 -51z m-309 25
c26 -14 39 -23 29 -19 -11 3 -22 1 -26 -4 -3 -6 -18 3 -34 19 -34 37 -30 37
31 4z m2184 -27 c-6 -6 -11 -18 -11 -27 0 -9 -6 -24 -13 -35 -13 -17 -14 -17
-20 4 -3 11 -1 19 4 15 5 -3 9 2 9 10 0 8 -4 18 -10 21 -5 3 -10 1 -10 -6 0
-7 -3 -10 -6 -6 -3 3 -2 13 4 23 6 11 11 13 16 5 11 -18 24 -13 32 12 4 14 9
17 12 9 2 -8 -1 -19 -7 -25z m2273 27 c9 -3 16 -14 16 -23 -1 -14 -2 -14 -15
3 -7 10 -18 15 -24 11 -6 -3 -11 -1 -11 4 0 12 11 14 34 5z m-2731 -67 c-6 -9
-43 36 -43 53 0 6 11 -1 24 -17 13 -15 22 -31 19 -36z m-49 22 c27 -31 33 -49
17 -49 -5 0 -12 11 -15 25 -5 21 -11 25 -34 22 -21 -3 -27 -9 -25 -28 1 -13
-1 -18 -3 -11 -3 6 -15 12 -27 13 -15 0 -17 2 -7 6 8 4 20 13 25 20 6 8 15 14
20 13 22 -5 29 1 15 10 -8 5 -10 10 -3 10 6 0 23 -14 37 -31z m686 0 c6 -10
10 -20 10 -23 0 -11 -65 8 -73 21 -5 9 -17 12 -30 8 -15 -4 -18 -3 -9 3 25 17
92 11 102 -9z m-1190 -5 c-33 -17 -56 -19 -42 -1 6 6 23 13 38 14 l29 1 -25
-14z m-1156 -3 c14 -5 16 -10 8 -15 -7 -4 -22 0 -34 8 -24 17 -9 21 26 7z
m1075 -30 c-35 -30 -47 -25 -14 5 15 14 30 23 33 20 2 -3 -6 -14 -19 -25z
m1201 8 c0 -11 -4 -17 -10 -14 -5 3 -10 13 -10 21 0 8 5 14 10 14 6 0 10 -9
10 -21z m-805 -44 c2 -40 -6 -45 -20 -13 -14 30 -35 36 -28 7 4 -15 3 -20 -5
-15 -14 9 -16 42 -3 51 5 3 16 -2 24 -10 21 -21 26 -19 20 8 -3 12 -2 18 3 14
4 -4 9 -24 9 -42z m1215 30 c0 -9 -6 -12 -15 -9 -8 4 -15 10 -15 15 0 5 7 9
15 9 8 0 15 -7 15 -15z m-2590 -13 c19 -18 19 -18 -25 -8 -33 8 -41 12 -28 18
27 10 32 9 53 -10z m355 -12 c16 -18 16 -20 2 -20 -9 0 -21 9 -27 20 -6 11 -7
20 -2 20 5 0 17 -9 27 -20z m3465 15 c0 0 -4 -16 -10 -34 -8 -28 -6 -39 8 -55
15 -18 15 -19 0 -8 -11 9 -18 10 -23 2 -3 -6 -11 -8 -16 -5 -5 4 -9 1 -9 -4 0
-6 -7 -11 -15 -11 -8 0 -17 14 -21 35 -5 30 -2 39 18 58 13 13 34 23 46 23 12
0 22 0 22 -1z m-2036 -39 c-6 -25 -24 -37 -24 -15 0 15 21 52 26 46 3 -3 2
-16 -2 -31z m1149 -26 c-8 -29 -21 -25 -15 5 2 14 8 23 12 20 5 -3 6 -14 3
-25z m-1273 -63 c11 2 19 -1 15 -6 -9 -15 -64 -10 -58 5 7 20 -8 39 -18 23
-13 -22 -22 -3 -9 21 11 21 12 21 30 -12 13 -24 24 -32 40 -31z m951 48 c19
-8 27 -14 19 -14 -18 0 -79 27 -64 28 7 1 27 -6 45 -14z m-701 -15 c0 -7 8 -7
23 1 21 11 21 10 5 -6 -9 -10 -23 -15 -32 -12 -18 7 -22 27 -6 27 6 0 10 -5
10 -10z m2528 -20 c91 -21 157 -41 168 -53 4 -4 15 -7 25 -7 10 0 20 -4 24 -9
8 -15 -68 0 -83 16 -7 7 -18 13 -23 13 -6 0 -3 -7 6 -16 19 -19 83 -36 108
-28 9 3 17 1 17 -5 0 -6 5 -11 11 -11 5 0 7 5 3 12 -4 6 4 3 18 -8 33 -24 17
-30 -34 -13 -48 16 -73 4 -73 -35 -1 -30 -18 -51 -34 -42 -7 5 -6 15 5 31 18
27 12 45 -16 45 -10 0 -22 5 -25 11 -5 7 8 9 41 5 52 -6 49 -5 -33 22 -29 9
-53 22 -53 29 0 7 5 13 11 13 5 0 7 -4 4 -10 -4 -6 1 -7 11 -3 26 10 -5 23
-64 26 -28 1 -48 4 -46 7 3 2 -12 10 -33 16 -59 19 -31 16 65 -6z m-1568 -27
c36 -13 70 -29 75 -35 7 -8 4 -9 -10 -3 -36 14 -110 42 -137 54 -16 6 -28 13
-28 17 0 3 8 3 18 -1 9 -4 46 -18 82 -32z m1238 -27 c-7 -6 -18 -29 -23 -50
-11 -42 -21 -51 -44 -37 -11 7 -11 15 0 45 7 20 17 36 21 36 4 0 8 7 8 16 0
10 5 14 15 10 10 -3 18 1 23 12 6 15 7 15 10 -2 2 -11 -2 -24 -10 -30z m-2748
19 c0 -15 -34 -55 -46 -55 -19 0 -18 5 9 34 21 23 37 32 37 21z m2969 -69
c-13 -11 -49 -16 -49 -7 0 6 10 11 23 12 12 0 16 3 10 6 -7 2 -13 12 -13 21 0
13 4 11 16 -6 9 -13 14 -25 13 -26z m-3502 9 c-7 -17 -27 -21 -27 -4 0 5 5 7
10 4 6 -3 10 2 10 11 0 10 3 15 6 11 4 -3 4 -13 1 -22z m3429 0 c-18 -18 -32
-19 -42 -3 -5 8 -2 9 9 5 10 -3 17 -2 17 3 0 6 7 10 16 10 14 0 14 -2 0 -15z
m414 -67 c0 24 52 12 81 -20 27 -28 36 -69 17 -68 -5 0 -17 -9 -29 -21 -15
-15 -27 -19 -47 -14 -29 8 -53 13 -63 14 -4 1 -6 20 -5 44 1 45 25 84 38 63 6
-8 8 -8 8 2z m327 -156 c41 -83 48 -113 27 -105 -8 3 -14 12 -14 20 0 8 -14
35 -32 60 -20 27 -33 57 -34 78 0 19 3 32 7 29 4 -2 25 -39 46 -82z m-997
-117 c0 -26 -14 -33 -25 -15 -9 14 1 40 15 40 5 0 10 -11 10 -25z m654 -120
c24 -22 52 -31 80 -26 59 12 64 9 16 -9 -30 -11 -64 -24 -75 -27 -11 -3 -38
-20 -60 -37 -21 -17 -51 -32 -65 -32 -14 -1 -19 0 -12 3 17 7 15 30 -3 37 -8
3 -15 13 -14 23 0 16 1 16 9 -2 6 -13 9 -15 9 -5 1 17 65 40 113 40 l33 0 -32
20 c-18 10 -48 20 -67 22 -43 3 -39 13 7 16 24 2 41 -5 61 -23z m-630 -146
c-3 -5 -11 -3 -18 4 -18 16 -8 31 10 16 7 -6 11 -15 8 -20z"/>
<path d="M970 1794 c0 -10 34 -33 49 -34 8 0 2 9 -12 20 -26 21 -37 25 -37 14z"/>
<path d="M1054 1731 c11 -11 23 -21 28 -21 14 0 -1 19 -25 31 -22 12 -22 12
-3 -10z"/>
<path d="M5444 1453 c-46 -9 -28 -79 21 -84 55 -4 74 19 53 67 -11 24 -25 27
-74 17z"/>
<path d="M5355 1000 c-3 -5 -3 -14 0 -20 3 -5 1 -10 -6 -10 -7 0 -9 -3 -6 -6
9 -9 37 15 37 32 0 16 -16 19 -25 4z"/>
<path d="M2577 2757 c6 -25 91 -117 109 -117 6 0 17 -6 23 -14 7 -8 28 -22 47
-31 24 -11 34 -22 30 -31 -3 -8 -2 -13 3 -9 5 3 18 -5 28 -17 10 -13 25 -24
33 -26 8 -2 -1 13 -19 32 -44 46 -36 46 20 1 24 -19 51 -34 59 -34 13 1 13 1
0 6 -8 3 -61 50 -117 104 -65 62 -125 110 -162 128 -58 30 -59 30 -54 8z"/>
<path d="M2865 2572 c21 -23 43 -42 48 -42 5 0 4 6 -2 13 -6 8 -8 16 -5 19 3
3 0 9 -7 14 -8 4 -10 3 -5 -4 13 -21 -7 -13 -38 15 -18 16 -14 10 9 -15z"/>
<path d="M2580 2337 c-19 -16 -22 -47 -4 -40 8 3 20 1 27 -5 11 -9 80 -34 102
-37 6 -1 13 -3 18 -5 4 -1 10 -3 15 -4 13 -3 63 -39 59 -43 -3 -2 -20 5 -40
17 -33 20 -35 20 -39 2 -3 -10 0 -19 6 -20 6 -1 28 -4 49 -7 24 -4 37 -2 37 6
0 12 -70 78 -84 79 -4 0 -34 16 -66 35 -65 40 -60 38 -80 22z"/>
<path d="M2487 2299 c6 -6 9 -17 7 -24 -3 -8 12 -20 42 -31 38 -14 43 -19 28
-25 -13 -5 -8 -7 16 -6 19 0 49 -3 65 -8 27 -7 29 -7 17 8 -19 22 -150 97
-170 97 -12 0 -13 -3 -5 -11z"/>
<path d="M3489 2293 c-13 -17 -13 -17 5 -3 15 11 20 12 23 3 3 -7 12 -13 20
-13 13 0 13 3 3 15 -16 20 -34 19 -51 -2z"/>
<path d="M2391 2267 c-6 -6 -11 -15 -11 -20 0 -5 -7 -16 -16 -24 -13 -13 -20
-14 -35 -5 -24 16 -46 15 -51 0 -7 -19 2 -38 17 -38 7 0 16 -6 18 -12 4 -10 6
-10 6 -1 1 9 10 8 36 -4 19 -9 32 -21 28 -26 -3 -5 -9 -3 -14 4 -6 9 -9 10 -9
2 0 -14 59 -58 67 -49 4 3 0 6 -8 7 -8 0 -6 4 6 9 l20 9 -20 1 c-11 2 -24 2
-28 1 -5 -1 -5 3 -2 9 4 6 14 8 24 5 27 -12 62 -14 55 -4 -3 5 -23 18 -45 30
-33 16 -38 23 -29 34 6 8 19 11 28 9 15 -5 15 -4 0 6 -22 14 -23 27 -3 27 8 0
13 -2 10 -5 -8 -8 39 -39 80 -52 22 -7 44 -16 50 -21 11 -11 35 -12 35 -1 -1
9 -66 50 -142 90 -41 22 -59 27 -67 19z m15 -32 c-4 -35 -22 -53 -38 -37 -9 9
-7 13 5 18 9 3 17 15 17 25 0 10 4 19 9 19 5 0 8 -11 7 -25z"/>
<path d="M2640 2253 c8 -3 23 -15 32 -27 13 -16 20 -18 28 -10 14 14 -24 44
-55 43 -14 0 -16 -2 -5 -6z"/>
<path d="M2310 2082 c0 -13 27 -35 39 -30 5 1 -2 11 -15 21 -13 10 -24 14 -24
9z"/>
<path d="M3440 1931 c0 -5 -11 -12 -25 -15 -14 -4 -25 -10 -25 -14 0 -4 -21
-6 -47 -5 -45 2 -74 -14 -52 -27 5 -4 -20 -17 -55 -29 -36 -13 -71 -29 -77
-38 -10 -11 -10 -14 2 -11 7 2 20 9 28 16 8 8 22 11 32 9 11 -3 19 -1 19 5 0
5 5 6 10 3 6 -3 10 -2 10 4 0 6 7 8 15 5 8 -4 15 -2 15 4 0 11 56 28 79 23 7
-1 10 2 6 9 -4 7 -18 9 -32 5 -17 -4 -23 -2 -18 6 5 7 21 9 40 6 24 -4 35 -1
39 9 7 17 47 19 64 2 7 -7 12 -9 12 -5 0 4 -9 16 -20 27 -11 11 -20 16 -20 11z"/>
<path d="M3470 1929 c0 -5 9 -9 20 -9 13 0 18 -5 14 -15 -4 -8 -1 -22 6 -30
14 -17 30 -20 30 -5 0 6 -5 9 -12 8 -7 -2 -13 4 -13 12 -2 24 7 33 16 19 7
-12 9 -11 10 1 0 10 3 8 9 -5 8 -19 9 -19 9 3 1 12 -2 22 -6 23 -50 7 -83 6
-83 -2z"/>
<path d="M4610 1909 c0 -15 38 -34 49 -24 2 3 -1 5 -8 5 -7 0 -9 5 -5 12 5 7
3 8 -6 3 -9 -6 -12 -4 -8 7 4 9 0 15 -8 15 -8 0 -14 -8 -14 -18z"/>
<path d="M4259 1911 c11 -7 11 -9 0 -14 -10 -4 -9 -6 3 -6 23 -1 32 15 12 23
-23 9 -31 7 -15 -3z"/>
<path d="M4143 1858 c1 -30 4 -35 14 -26 8 6 10 15 4 22 -4 6 -11 18 -13 26
-3 8 -5 -2 -5 -22z"/>
<path d="M3192 1853 c-18 -20 -19 -24 -5 -18 10 4 33 11 51 17 17 5 32 13 32
18 0 13 -17 13 -25 0 -5 -7 -11 -8 -19 -1 -8 7 -18 2 -34 -16z"/>
<path d="M4280 1850 c0 -12 -4 -19 -8 -16 -5 3 -8 -14 -9 -37 0 -24 1 -31 4
-15 2 14 11 32 19 38 16 14 18 36 4 45 -5 3 -10 -3 -10 -15z"/>
<path d="M3426 1852 c-3 -6 3 -16 14 -22 11 -6 20 -18 20 -26 0 -9 5 -14 12
-12 16 6 23 28 8 28 -7 0 -20 10 -29 22 -12 14 -20 17 -25 10z"/>
<path d="M3533 1806 c-2 -25 0 -28 8 -13 6 10 19 16 32 14 12 -2 16 -2 9 0 -8
3 -11 11 -9 18 4 8 -3 12 -16 12 -17 0 -22 -6 -24 -31z"/>
<path d="M3759 1830 c-7 -19 0 -50 12 -50 5 0 6 -6 3 -14 -3 -8 -12 -12 -19
-10 -10 4 -12 -1 -8 -15 3 -12 10 -21 15 -21 6 0 8 -17 6 -38 -2 -26 1 -39 9
-39 6 0 12 3 11 6 -3 29 4 41 25 40 16 -1 18 -2 5 -6 -10 -2 -18 -9 -18 -15 0
-5 7 -7 15 -4 9 3 18 -1 21 -9 8 -19 21 -19 21 0 0 8 -4 15 -9 15 -4 0 -8 7
-8 15 0 8 -4 15 -10 15 -5 0 -7 7 -4 15 4 10 0 13 -17 10 -12 -2 -29 0 -38 6
-14 9 -14 10 2 5 9 -3 17 -1 17 5 0 6 7 9 15 5 9 -3 19 3 26 15 6 11 16 18 23
16 7 -3 18 4 25 15 11 18 11 20 -4 14 -10 -3 -24 -1 -32 5 -7 7 -16 9 -20 5
-3 -3 -1 -6 5 -6 16 0 15 -21 -2 -43 -13 -17 -15 -17 -30 -1 -10 9 -15 23 -12
31 3 8 2 11 -3 8 -5 -3 -11 5 -13 17 -3 16 -5 19 -9 8z"/>
<path d="M4461 1820 c-1 -20 -3 -22 -11 -10 -5 8 -11 12 -14 10 -2 -3 2 -14
10 -24 12 -17 14 -17 20 -3 3 9 4 24 1 34 -3 13 -5 11 -6 -7z"/>
<path d="M3380 1810 c13 -23 20 -26 20 -6 0 8 -7 16 -15 20 -13 4 -14 2 -5
-14z"/>
<path d="M3714 1821 c3 -5 -1 -11 -9 -15 -8 -3 -15 -16 -15 -30 0 -13 -6 -27
-12 -29 -10 -4 -10 -6 0 -6 8 -1 16 9 20 21 5 21 6 21 14 2 7 -15 8 -13 4 9
-2 15 1 30 5 33 12 7 11 24 -2 24 -5 0 -8 -4 -5 -9z"/>
<path d="M3125 1809 c-4 -6 -13 -8 -21 -5 -7 3 -16 1 -19 -3 -11 -19 25 -19
47 -1 13 11 18 19 11 20 -6 0 -15 -5 -18 -11z"/>
<path d="M2460 1803 c0 -14 45 -93 52 -93 14 0 9 21 -14 61 -20 35 -38 50 -38
32z"/>
<path d="M2680 1801 c0 -5 7 -14 15 -21 8 -7 15 -17 15 -22 0 -10 25 -38 34
-38 15 0 3 29 -19 48 -14 12 -25 26 -25 32 0 5 -4 10 -10 10 -5 0 -10 -4 -10
-9z"/>
<path d="M4220 1794 c0 -8 4 -13 9 -10 5 4 12 0 14 -6 4 -8 6 -7 6 3 1 9 -6
19 -14 23 -9 3 -15 0 -15 -10z"/>
<path d="M4551 1793 c0 -10 3 -13 5 -6 3 7 12 9 21 6 11 -4 14 -2 9 5 -11 18
-36 14 -35 -5z"/>
<path d="M3610 1790 c-7 -22 -5 -52 4 -57 6 -3 8 -3 4 2 -4 4 -1 14 7 22 8 8
15 20 15 26 0 8 -3 7 -9 -2 -7 -11 -9 -11 -14 0 -3 8 -6 12 -7 9z"/>
<path d="M3877 1763 c-11 -20 -13 -34 -7 -38 6 -3 10 3 10 14 0 10 5 21 12 23
6 2 9 11 6 19 -3 9 -10 4 -21 -18z"/>
<path d="M3984 1773 c0 -10 -4 -29 -8 -43 -5 -19 -5 -21 3 -10 10 13 15 8 12
-12 0 -5 4 -8 10 -8 7 0 8 7 3 18 -4 9 -7 29 -6 45 1 15 -2 27 -6 27 -4 0 -8
-8 -8 -17z"/>
<path d="M4357 1783 c-4 -3 -7 -20 -7 -36 0 -38 12 -28 15 13 3 32 2 34 -8 23z"/>
<path d="M3937 1757 c-9 -12 -17 -25 -17 -30 0 -5 -7 -3 -17 4 -15 13 -15 12
-5 -8 10 -18 9 -22 -6 -26 -16 -4 -16 -5 0 -6 10 -1 25 13 34 31 16 30 18 31
26 13 8 -19 8 -18 4 2 -2 12 1 24 7 26 7 2 7 6 1 9 -5 4 -17 -3 -27 -15z"/>
<path d="M4124 1739 c8 -35 -21 -49 -33 -17 -5 15 -10 18 -15 9 -8 -13 23 -43
36 -35 5 3 8 1 8 -5 0 -5 -4 -13 -10 -16 -5 -3 -10 -14 -9 -23 0 -12 3 -10 10
6 5 13 13 20 19 17 5 -3 10 -1 10 5 0 7 7 10 18 6 16 -6 16 -5 0 8 -10 7 -18
19 -18 27 0 8 -5 21 -11 29 -8 12 -9 9 -5 -11z"/>
<path d="M3932 1693 c2 -11 -3 -27 -11 -36 -9 -11 -10 -17 -2 -17 6 0 10 -6 9
-12 -2 -7 2 -12 8 -11 7 1 15 -9 18 -22 4 -14 11 -25 17 -25 6 0 7 -4 4 -10
-8 -13 1 -13 27 1 19 10 20 9 15 -10 -3 -11 -2 -23 3 -26 4 -3 10 6 12 20 3
14 1 25 -3 25 -5 0 -9 9 -9 20 0 16 -6 18 -31 15 -29 -4 -30 -3 -15 14 16 18
17 54 1 68 -4 5 -5 2 -1 -4 8 -15 5 -16 -18 -7 -9 3 -14 10 -11 14 3 5 0 12
-6 15 -7 5 -9 0 -7 -12z m41 -41 c4 9 6 7 6 -4 1 -11 -6 -16 -18 -15 -11 0
-17 5 -15 9 3 4 0 8 -6 8 -6 0 -8 5 -4 12 5 8 11 6 20 -6 9 -13 13 -14 17 -4z"/>
<path d="M4380 1696 c0 -8 5 -18 10 -21 6 -3 10 1 10 9 0 8 -4 18 -10 21 -5 3
-10 -1 -10 -9z"/>
<path d="M2410 1692 c0 -7 7 -20 15 -28 19 -20 20 -4 0 22 -9 12 -14 14 -15 6z"/>
<path d="M2905 1665 c4 -17 0 -21 -25 -23 -17 -1 -30 3 -30 9 0 6 9 9 20 6 11
-3 20 -1 20 4 0 5 -11 9 -25 9 -30 0 -32 -16 -6 -49 14 -18 20 -21 26 -11 6 9
4 11 -5 5 -9 -5 -11 -4 -6 3 4 7 14 12 22 12 14 0 17 -9 15 -40 0 -8 6 -1 14
15 10 20 14 24 15 12 0 -10 5 -15 10 -12 6 4 8 10 5 15 -3 5 -1 11 5 15 5 3
10 13 10 21 0 11 -8 14 -29 11 -17 -3 -32 0 -35 6 -3 7 -4 3 -1 -8z"/>
<path d="M1860 1663 c0 -6 5 -15 11 -18 6 -4 8 -14 5 -22 -3 -8 -1 -11 4 -8
14 8 13 18 -5 41 -8 10 -15 14 -15 7z"/>
<path d="M2471 1660 c-1 -23 15 -45 23 -31 4 6 3 11 -3 11 -5 0 -12 8 -14 18
-3 12 -5 13 -6 2z"/>
<path d="M2502 1658 c2 -6 10 -14 16 -16 7 -2 10 2 6 12 -7 18 -28 22 -22 4z"/>
<path d="M4146 1654 c-4 -11 -1 -14 11 -12 9 2 18 9 21 16 6 18 -25 15 -32 -4z"/>
<path d="M2250 1651 c0 -5 -3 -18 -6 -28 -4 -14 -4 -15 4 -4 5 7 15 10 22 6 9
-6 9 -3 1 14 -12 22 -21 27 -21 12z"/>
<path d="M3189 1655 c-11 -77 -7 -96 11 -49 7 17 7 31 0 42 -5 9 -10 13 -11 7z"/>
<path d="M4123 1625 c0 -22 2 -32 4 -22 3 9 10 17 16 17 9 0 9 2 1 8 -6 4 -13
14 -16 22 -3 8 -5 -3 -5 -25z"/>
<path d="M4167 1616 c-21 -19 -44 -37 -53 -40 -9 -3 -12 -11 -8 -18 6 -9 9 -9
12 0 2 7 7 10 12 7 5 -3 11 4 15 15 4 11 12 19 19 18 6 -2 11 0 11 3 0 4 9 16
19 28 29 32 14 25 -27 -13z"/>
<path d="M3265 1630 c8 -13 55 -18 62 -7 3 6 1 7 -5 3 -7 -4 -12 -3 -12 2 0 5
-11 10 -25 10 -13 0 -23 -4 -20 -8z"/>
<path d="M3858 1619 c-15 -16 -15 -19 -3 -19 8 0 15 5 15 11 0 5 4 7 10 4 6
-3 7 1 4 9 -3 9 -7 16 -8 15 0 0 -9 -9 -18 -20z"/>
<path d="M3892 1612 c0 -23 3 -29 14 -25 17 6 18 14 1 38 -13 16 -14 15 -15
-13z"/>
<path d="M912 1616 c7 -8 15 -11 18 -7 3 3 9 9 14 14 5 4 -3 7 -18 7 -22 0
-25 -2 -14 -14z"/>
<path d="M4366 1623 c-9 -9 -8 -41 2 -47 4 -2 14 0 22 6 12 8 12 9 -2 4 -20
-6 -24 4 -7 21 6 6 7 13 1 17 -5 3 -12 3 -16 -1z"/>
<path d="M3216 1605 c-3 -8 0 -17 6 -21 7 -4 6 -9 -3 -15 -8 -5 -9 -9 -4 -9 6
0 17 5 25 10 9 6 11 10 3 10 -7 0 -10 6 -7 14 3 8 1 17 -4 20 -6 3 -12 -1 -16
-9z"/>
<path d="M4066 1612 c-10 -17 7 -43 22 -33 9 6 9 11 -1 26 -10 12 -16 14 -21
7z"/>
<path d="M2654 1592 c-7 -4 12 -8 42 -9 32 -1 52 2 49 8 -7 11 -75 12 -91 1z"/>
<path d="M3374 1588 c-4 -6 -3 -8 3 -5 6 4 13 -3 16 -14 5 -17 2 -20 -14 -16
-23 6 -35 -9 -13 -17 19 -7 31 -1 45 26 8 15 8 19 0 14 -6 -4 -11 0 -11 8 0
19 -16 21 -26 4z"/>
<path d="M890 1575 c-10 -12 -10 -15 3 -15 19 0 31 16 18 24 -5 3 -14 -1 -21
-9z"/>
<path d="M2353 1572 c-13 -10 -19 -22 -15 -29 9 -15 36 4 40 30 4 21 3 21 -25
-1z"/>
<path d="M2593 1583 c-18 -7 -16 -33 2 -33 8 0 15 9 15 20 0 11 -1 20 -2 19
-2 0 -9 -3 -15 -6z"/>
<path d="M4047 1559 c-9 -33 -9 -39 3 -39 5 0 7 8 4 18 -5 14 -4 15 5 2 12
-16 15 -53 5 -63 -10 -10 -34 5 -34 22 0 12 -2 13 -9 3 -6 -10 -13 -8 -32 8
-20 18 -21 21 -4 15 11 -3 16 -3 12 2 -10 9 -87 11 -87 2 0 -4 9 -11 20 -14
27 -9 26 -25 -2 -17 -14 3 -19 2 -14 -6 4 -7 16 -12 27 -12 12 0 19 -7 19 -20
0 -11 5 -20 10 -20 6 0 10 5 10 11 0 8 6 7 17 -2 11 -9 14 -10 9 -2 -11 19 22
5 68 -28 29 -21 33 -28 18 -26 -11 0 -19 4 -16 8 2 4 -13 7 -34 7 l-37 0 39
-20 c21 -11 47 -17 58 -15 11 3 17 3 14 0 -3 -4 2 -15 11 -26 18 -20 18 -20
-7 -4 -32 22 -58 23 -40 2 7 -8 18 -15 24 -15 6 0 22 -9 36 -21 l25 -20 -40
18 c-22 10 -45 24 -51 32 -6 8 -16 11 -22 7 -5 -3 -12 -1 -14 6 -4 10 -68 22
-68 12 0 -3 56 -32 124 -65 105 -51 123 -63 119 -79 -6 -21 -23 -28 -23 -10 0
6 -12 15 -27 21 -25 9 -43 17 -118 50 -52 23 -75 28 -80 18 -4 -5 -3 -9 2 -8
14 4 144 -54 173 -77 25 -19 64 -24 82 -10 10 7 15 16 12 19 -3 3 3 3 15 0 15
-4 21 -1 21 11 0 9 5 16 11 16 8 0 8 5 -1 15 -10 13 -9 15 9 15 14 0 20 -4 15
-12 -4 -7 -3 -8 4 -4 16 9 15 -7 0 -22 -7 -7 -9 -12 -5 -12 5 0 19 12 32 26
l25 27 0 -27 c0 -14 -5 -25 -11 -24 -6 2 -14 -4 -16 -12 -4 -13 -3 -13 6 0 6
8 11 11 11 5 0 -5 7 -2 14 8 8 10 12 27 9 37 -6 23 -14 25 -30 9 -13 -13 -36
-3 -27 12 3 5 10 7 15 4 5 -4 9 -1 9 4 0 6 -7 11 -15 11 -8 0 -15 -4 -15 -9 0
-12 -57 7 -66 21 -4 6 3 5 15 -1 21 -12 41 -8 41 8 0 4 -15 15 -32 24 -18 10
-51 28 -73 42 -22 13 -49 28 -60 33 -24 11 -52 42 -39 42 5 0 2 5 -6 10 -13 9
-11 13 10 30 20 16 22 20 8 20 -10 0 -18 5 -18 11 0 5 -5 7 -10 4 -6 -3 -14 4
-18 16 l-9 23 -6 -25z m207 -272 c3 4 6 1 6 -5 0 -7 -2 -12 -5 -12 -10 0 -65
30 -65 36 0 2 13 -2 29 -10 16 -9 31 -12 35 -9z"/>
<path d="M3493 1563 c-7 -3 -13 -9 -13 -14 0 -6 4 -8 10 -4 13 8 85 -39 137
-90 24 -24 43 -39 43 -34 0 14 21 11 78 -13 45 -19 55 -20 62 -8 7 11 -8 20
-68 42 -42 15 -86 28 -99 28 -13 0 -23 5 -23 10 0 15 11 13 88 -15 84 -30 86
-30 72 -5 -6 11 -16 20 -23 20 -7 0 -60 18 -116 41 -57 22 -109 38 -116 35 -8
-3 -15 -1 -17 3 -2 4 -9 6 -15 4z"/>
<path d="M4157 1547 c4 -18 3 -19 -6 -7 -7 9 -11 10 -11 3 0 -6 5 -15 11 -19
6 -3 9 -14 6 -24 -3 -13 0 -16 14 -13 11 3 19 13 18 22 0 12 -2 12 -6 2 -4
-11 -7 -11 -14 0 -4 7 -4 21 2 30 6 12 4 19 -5 22 -10 4 -12 -1 -9 -16z"/>
<path d="M906 1534 c-8 -22 -2 -27 22 -20 31 10 36 36 8 36 -13 0 -27 -7 -30
-16z"/>
<path d="M1290 1524 c0 -21 22 -33 36 -19 8 7 24 11 36 8 20 -4 21 -3 6 7 -12
7 -24 8 -36 1 -13 -7 -22 -7 -30 1 -7 7 -12 8 -12 2z"/>
<path d="M1415 1520 c26 -11 45 -12 45 -2 0 4 -15 8 -33 9 -26 1 -28 0 -12 -7z"/>
<path d="M3793 1519 c34 -20 87 -39 87 -32 -1 10 -72 43 -91 43 -10 -1 -9 -3
4 -11z"/>
<path d="M1213 1477 c2 -7 14 -14 26 -15 28 -4 20 13 -9 21 -14 3 -20 1 -17
-6z"/>
<path d="M983 1440 c-74 -41 -96 -59 -45 -37 52 23 137 78 120 77 -2 0 -36
-18 -75 -40z"/>
<path d="M4161 1471 c-8 -5 -11 -16 -8 -25 9 -23 30 -20 24 4 -3 10 0 21 7 24
6 2 7 5 1 5 -5 0 -16 -3 -24 -8z"/>
<path d="M3793 1448 c2 -13 67 -42 75 -34 2 3 -7 8 -22 12 -14 3 -26 12 -26
20 0 8 -7 14 -15 14 -8 0 -14 -6 -12 -12z"/>
<path d="M1603 1433 c15 -2 37 -2 50 0 12 2 0 4 -28 4 -27 0 -38 -2 -22 -4z"/>
<path d="M1535 1420 c19 -8 105 -94 105 -105 0 -9 34 -45 43 -45 5 0 4 7 -3
15 -10 12 -9 15 6 15 31 0 104 32 104 45 0 19 -32 23 -60 8 -18 -9 -20 -13 -7
-13 9 0 17 -4 17 -9 0 -12 -39 -25 -47 -17 -4 3 -12 1 -19 -5 -11 -9 -16 -6
-23 12 -7 19 -5 25 8 27 29 6 82 24 79 27 -2 2 -28 -3 -58 -11 -36 -9 -57 -11
-64 -4 -7 7 -3 10 10 10 11 0 43 6 72 14 l52 13 76 -49 c41 -28 77 -48 79 -46
2 2 -31 28 -75 57 -72 49 -82 53 -107 43 -34 -13 -110 -27 -102 -19 3 4 23 11
45 17 l39 10 -44 -5 c-27 -4 -49 -1 -60 7 -14 12 -15 11 -2 -4 18 -24 5 -23
-26 2 -14 11 -33 20 -42 19 -12 0 -11 -2 4 -9z"/>
<path d="M862 1395 c-56 -30 -56 -30 -17 -30 19 0 40 6 47 14 11 11 9 12 -10
1 -13 -6 -26 -9 -29 -7 -3 3 9 13 26 22 17 8 31 18 31 20 0 7 0 7 -48 -20z"/>
<path d="M1903 1405 c-7 -19 -5 -20 26 -30 16 -5 21 -4 17 4 -4 6 -14 11 -23
11 -9 0 -13 6 -9 15 3 8 3 15 0 15 -2 0 -7 -7 -11 -15z"/>
<path d="M3823 1396 c0 -18 97 -59 118 -51 10 4 16 0 16 -9 0 -16 -32 -13 -67
5 -45 22 -164 58 -175 51 -21 -11 10 -45 43 -48 16 -1 61 -12 100 -25 67 -21
72 -22 96 -5 14 9 26 12 26 7 0 -5 12 -12 28 -16 15 -3 54 -19 87 -34 65 -31
105 -45 105 -38 0 7 -133 70 -147 70 -7 0 -13 3 -13 7 0 4 -23 17 -50 30 -36
17 -47 26 -38 33 10 6 9 7 -2 4 -8 -2 -14 -10 -12 -16 3 -13 -18 -14 -38 -1
-13 9 -13 10 0 10 16 1 -21 23 -56 34 -14 4 -21 2 -21 -8z m57 -16 c13 -9 13
-10 0 -10 -8 0 -22 5 -30 10 -13 9 -13 10 0 10 8 0 22 -5 30 -10z"/>
<path d="M4849 1382 c-13 -24 -14 -30 -2 -41 12 -11 14 -11 12 0 -4 31 2 44
11 24 10 -24 12 1 2 27 -6 15 -9 13 -23 -10z"/>
<path d="M937 1377 c4 -7 0 -8 -11 -4 -9 4 -15 3 -11 -2 3 -5 -15 -20 -40 -32
-25 -12 -43 -25 -40 -27 2 -3 16 3 30 12 15 10 31 16 38 13 6 -2 -10 -14 -36
-26 -49 -24 -63 -37 -24 -22 39 15 93 51 77 51 -11 1 -10 4 4 15 24 18 40 20
30 3 -4 -7 -3 -8 4 -4 18 11 14 23 -8 29 -13 3 -18 1 -13 -6z"/>
<path d="M5273 1383 c-61 -6 -54 -19 7 -15 27 2 50 8 50 13 0 5 -3 8 -7 7 -5
-1 -27 -3 -50 -5z"/>
<path d="M999 1359 c-23 -19 -23 -20 -2 -10 12 6 25 16 28 21 10 16 -1 12 -26
-11z"/>
<path d="M1918 1353 c-23 -6 -23 -20 1 -33 28 -15 33 -13 21 9 -8 16 -6 20 8
24 11 3 12 5 2 5 -8 0 -23 -2 -32 -5z"/>
<path d="M5328 1340 c-3 -9 -25 -15 -70 -19 -5 -1 -8 -5 -8 -10 0 -6 12 -6 32
0 41 11 51 11 44 0 -3 -4 -20 -11 -37 -15 -18 -3 -30 -9 -26 -12 3 -3 21 -1
40 5 27 9 35 17 35 36 0 26 -4 32 -10 15z"/>
<path d="M5623 1325 c-3 -9 -3 -19 1 -22 3 -4 6 2 6 13 0 16 2 17 10 4 8 -13
10 -12 10 3 0 21 -18 23 -27 2z"/>
<path d="M3782 1299 c5 -15 16 -33 24 -40 15 -13 20 -34 5 -25 -5 4 -20 1 -33
-4 -21 -10 -21 -10 5 -5 22 4 27 3 21 -7 -5 -10 -4 -10 6 -1 10 9 17 10 27 1
7 -6 42 -10 77 -9 34 1 74 -3 87 -9 20 -8 17 -9 -15 -3 -25 4 -37 2 -33 -4 4
-7 -8 -8 -36 -3 -37 7 -40 7 -23 -6 11 -8 17 -16 14 -19 -3 -3 -17 4 -31 16
-47 36 -29 9 33 -51 38 -37 71 -59 90 -62 24 -4 27 -2 19 9 -14 17 -9 16 57
-3 43 -12 58 -13 69 -4 16 13 10 34 -6 25 -5 -3 -6 1 -3 9 5 13 0 15 -27 11
-26 -4 -28 -3 -10 3 28 9 40 32 18 32 -9 0 -19 9 -22 20 -3 11 -14 20 -23 20
-14 0 -15 2 -2 10 13 8 13 9 0 14 -8 2 -22 7 -30 9 -8 3 -2 6 15 6 55 2 -6 29
-148 66 -69 18 -67 18 -67 5 0 -5 7 -10 15 -10 8 0 15 -4 15 -9 0 -5 34 -17
76 -26 41 -9 74 -19 72 -21 -3 -2 -35 3 -73 11 -61 12 -71 12 -85 0 -13 -11
-19 -12 -28 -3 -18 18 -14 31 8 25 11 -3 18 -1 14 4 -3 5 -16 9 -30 9 -13 0
-24 5 -24 10 0 6 7 10 15 10 27 0 16 18 -14 22 -27 4 -28 3 -19 -23z m168
-139 c-10 -6 6 -8 45 -5 l60 4 -58 -11 c-46 -8 -57 -14 -52 -26 5 -13 2 -12
-15 3 -25 22 -25 32 -2 38 30 8 38 7 22 -3z m80 -58 c-14 -2 -30 -8 -36 -13
-7 -6 -16 -4 -24 6 -11 13 -10 14 4 9 9 -3 16 -2 16 3 0 5 15 7 33 4 29 -5 30
-6 7 -9z"/>
<path d="M849 1277 c-42 -23 -84 -48 -93 -56 -27 -23 -9 -25 20 -2 35 27 52
27 28 -1 l-19 -22 27 20 c15 10 28 25 28 32 0 7 5 10 10 7 6 -3 10 -1 10 5 0
7 7 9 16 6 8 -3 13 -2 9 3 -3 5 7 19 22 30 40 29 28 25 -58 -22z"/>
<path d="M1748 1303 c-51 -17 -58 -31 -32 -58 18 -17 51 -14 112 11 51 21 39
65 -16 63 -9 0 -38 -7 -64 -16z m97 -3 c3 -5 1 -10 -5 -10 -6 0 -8 -5 -5 -10
6 -10 -16 -21 -67 -34 -18 -4 -32 -1 -43 11 -16 15 -15 17 7 29 27 16 62 18
53 4 -3 -5 0 -10 8 -10 8 0 17 7 21 15 6 17 22 20 31 5z"/>
<path d="M2034 1306 c-3 -8 -1 -23 6 -33 9 -16 10 -15 4 6 -4 15 -1 27 7 32
11 7 11 9 1 9 -7 0 -15 -6 -18 -14z"/>
<path d="M2071 1289 c-6 -18 -6 -30 2 -38 18 -18 27 -13 27 17 0 15 4 32 10
38 6 6 3 10 -10 10 -12 0 -23 -10 -29 -27z"/>
<path d="M4861 1240 c-2 -87 2 -99 60 -177 22 -29 39 -55 39 -58 0 -16 -21 1
-49 41 -18 25 -35 43 -38 40 -3 -3 10 -26 28 -51 27 -37 38 -45 55 -41 14 4
29 0 39 -11 9 -9 29 -17 45 -18 22 -1 26 2 22 17 -2 10 -9 18 -14 18 -5 0 -7
-4 -3 -9 8 -13 -8 -21 -24 -12 -10 7 -11 13 -1 30 9 17 9 26 -1 37 -15 18 10
20 31 2 12 -11 12 -10 0 5 -9 12 -21 16 -35 13 -17 -4 -25 2 -40 32 -14 27
-20 32 -23 19 -2 -9 -8 -15 -13 -11 -6 4 -6 10 1 19 7 9 7 21 -1 41 -6 16 -14
52 -18 79 -6 46 -8 50 -30 47 -18 -3 -22 0 -18 12 4 9 3 16 -2 16 -5 0 -9 -36
-10 -80z m44 -87 c3 -17 1 -35 -5 -38 -6 -4 -7 1 -3 11 4 10 0 22 -12 30 -14
10 -16 20 -10 51 l8 38 9 -30 c5 -16 11 -44 13 -62z m60 -76 c-5 -18 0 -28 19
-41 14 -9 26 -21 26 -26 0 -18 -25 -10 -49 16 -20 21 -22 28 -13 49 15 32 24
32 17 2z"/>
<path d="M3081 1278 c2 -30 2 -30 6 -6 3 20 9 25 21 22 15 -5 15 -4 2 5 -24
17 -30 13 -29 -21z"/>
<path d="M1932 1281 c12 -20 103 -71 126 -71 6 0 12 -4 12 -8 0 -5 19 -15 43
-22 23 -8 47 -17 52 -20 12 -9 65 -22 65 -17 0 3 -21 12 -47 21 -54 20 -96 38
-103 46 -3 3 -24 12 -47 19 -24 8 -55 27 -70 42 -32 33 -49 38 -31 10z"/>
<path d="M3130 1295 c0 -6 4 -15 9 -20 5 -6 11 -19 14 -30 5 -20 5 -19 6 1 0
11 -6 29 -14 40 -8 10 -15 14 -15 9z"/>
<path d="M5342 1289 c-4 -4 -16 -10 -27 -13 -11 -3 -2 -3 19 -1 22 2 43 8 47
12 10 10 -28 12 -39 2z"/>
<path d="M784 1281 c3 -4 -6 -13 -21 -20 -14 -6 -23 -14 -20 -17 2 -3 19 4 36
14 25 15 29 21 16 26 -9 3 -14 2 -11 -3z"/>
<path d="M3610 1270 c0 -22 25 -18 34 6 3 9 -1 14 -14 14 -13 0 -20 -7 -20
-20z"/>
<path d="M2110 1251 c0 -21 5 -31 15 -31 8 0 15 5 15 11 0 5 -5 7 -12 3 -8 -5
-9 0 -6 14 4 12 2 25 -3 28 -5 3 -9 -9 -9 -25z"/>
<path d="M3041 1263 c0 -13 2 -14 6 -4 5 11 7 11 14 0 7 -11 9 -10 9 4 0 9 -7
17 -15 17 -8 0 -15 -8 -14 -17z"/>
<path d="M4560 1277 c0 -4 7 -19 16 -33 9 -13 14 -27 12 -30 -3 -3 -15 10 -27
28 -11 18 -21 29 -21 23 0 -16 38 -60 52 -60 7 0 13 -7 13 -15 0 -8 -6 -14
-12 -13 -17 4 22 -69 58 -108 17 -18 33 -28 40 -23 9 5 6 10 -8 15 -22 8 -40
29 -26 29 5 0 14 -5 19 -10 7 -7 10 -4 8 12 -1 13 -3 25 -5 28 -1 3 -2 16 -3
29 -1 13 -8 26 -16 29 -13 5 -13 3 -1 -12 8 -9 12 -19 9 -22 -6 -6 -68 69 -68
82 -1 12 -39 61 -40 51z m115 -176 c-3 -2 -11 2 -20 9 -13 11 -14 10 -9 -4 12
-31 -6 -16 -25 23 -27 53 -13 61 26 15 17 -21 30 -40 28 -43z"/>
<path d="M5367 1264 c-16 -9 -27 -17 -25 -20 5 -5 68 25 68 32 0 7 -15 3 -43
-12z"/>
<path d="M1830 1244 c-30 -14 -41 -22 -25 -18 17 4 43 8 58 7 20 0 26 4 23 13
-7 19 4 17 37 -5 l29 -18 -27 -7 c-15 -4 -36 -4 -48 -1 -12 2 -16 2 -10 -1 9
-4 10 -11 2 -25 -5 -11 -7 -24 -4 -29 10 -16 -19 -12 -41 6 -16 13 -16 15 -2
10 10 -3 20 0 24 6 5 8 -3 9 -24 5 -24 -5 -32 -3 -32 7 0 14 -22 27 -43 25 -7
0 -2 -4 11 -9 12 -5 22 -16 22 -25 0 -8 7 -15 15 -15 8 0 15 -4 15 -9 0 -5 10
-13 23 -17 12 -4 37 -20 55 -35 19 -17 44 -29 60 -29 20 0 32 -8 44 -31 14
-24 24 -30 45 -27 23 3 28 -2 35 -29 7 -29 13 -33 41 -33 30 0 73 -31 60 -43
-12 -13 10 -47 30 -47 47 0 67 -12 75 -44 6 -23 19 -37 50 -53 58 -29 71 -41
87 -80 8 -18 21 -33 29 -33 22 0 34 -27 41 -96 6 -48 4 -62 -9 -73 -9 -7 -16
-23 -15 -35 0 -14 2 -16 6 -6 3 8 12 23 20 32 10 11 14 32 11 62 -2 26 1 46 6
46 4 0 3 6 -3 13 -6 8 -8 17 -4 20 3 4 1 7 -5 7 -16 0 -15 27 1 34 6 3 2 3
-10 0 -24 -6 -32 11 -10 19 7 3 4 6 -6 6 -10 1 -15 6 -12 11 5 9 -9 14 -19 8
-1 -2 -15 11 -30 29 -15 17 -40 34 -56 38 -18 4 -27 11 -24 17 4 6 2 8 -3 5
-14 -9 -30 11 -38 46 -5 17 -14 27 -25 27 -11 0 -21 4 -24 9 -3 5 -15 7 -26 4
-27 -7 -25 5 3 18 20 9 20 9 -5 4 -22 -4 -27 -2 -25 16 1 16 6 19 24 14 14 -3
23 -1 23 6 0 6 -13 9 -29 7 -16 -1 -36 4 -45 11 -9 7 -27 14 -41 14 -14 0 -28
3 -31 8 -6 11 -8 11 100 14 62 2 91 7 97 16 13 21 11 35 -3 17 -7 -9 -31 -19
-53 -22 -22 -3 -32 -3 -22 0 9 3 15 10 12 15 -4 5 -13 5 -24 0 -9 -5 -38 -12
-63 -15 -39 -4 -47 -2 -51 13 -3 13 4 21 30 30 19 7 33 15 30 17 -2 2 -19 -2
-38 -10 -74 -30 -77 -30 -99 6 -26 42 -25 43 8 57 53 21 89 22 113 2 l24 -19
-39 -16 c-21 -9 -48 -17 -60 -17 -18 -1 -19 -2 -2 -6 24 -6 103 24 109 42 6
14 -47 45 -77 45 -26 0 -90 -29 -103 -47 -15 -20 -55 -11 -82 18 -18 20 -18
22 -2 38 10 10 31 21 47 25 72 18 81 18 87 2 7 -18 -55 -55 -95 -57 -22 -1
-22 -1 2 -8 17 -5 38 0 67 17 24 13 43 27 43 32 0 25 -15 40 -39 40 -35 0
-104 -25 -109 -39 -2 -6 -8 -11 -13 -11 -22 0 11 35 42 45 45 15 46 29 5 49
-19 9 -36 16 -38 15 -1 0 -28 -12 -58 -25z"/>
<path d="M2156 1260 c-11 -3 -15 -9 -10 -13 10 -6 42 9 34 16 -3 3 -14 1 -24
-3z"/>
<path d="M2190 1244 c-6 -14 -10 -31 -11 -37 0 -7 -4 -3 -9 8 -8 19 -9 19 -9
-2 -1 -14 5 -23 14 -23 8 0 15 9 15 19 0 16 5 19 26 15 22 -4 23 -3 12 10 -7
7 -16 12 -20 9 -5 -2 -8 0 -8 6 0 5 6 12 13 14 9 4 9 6 -1 6 -7 1 -17 -11 -22
-25z"/>
<path d="M2240 1266 c0 -9 32 -36 43 -36 6 0 1 9 -11 20 -20 19 -32 25 -32 16z"/>
<path d="M3503 1247 c0 -20 3 -25 10 -18 17 17 27 13 27 -8 0 -11 5 -23 11
-27 8 -4 9 1 4 17 -10 31 -25 50 -35 44 -5 -3 -10 1 -13 7 -2 7 -4 0 -4 -15z"/>
<path d="M4386 1251 c-13 -20 6 -43 30 -37 18 5 24 2 24 -10 0 -10 3 -15 6
-11 4 3 3 14 0 24 -4 10 -7 20 -6 22 3 6 -24 21 -37 21 -6 0 -14 -4 -17 -9z"/>
<path d="M3566 1241 c-2 -3 0 -15 5 -26 7 -18 8 -18 9 5 l1 25 15 -25 c8 -14
13 -17 10 -7 -6 20 5 22 23 5 10 -11 11 -10 6 5 -4 9 -3 17 3 17 5 0 12 -10
15 -22 4 -12 8 -20 11 -17 3 3 3 14 0 26 -5 18 -13 21 -50 20 -25 0 -46 -3
-48 -6z"/>
<path d="M5743 1233 c8 -10 17 -29 20 -43 4 -22 4 -22 6 6 1 29 -14 54 -33 54
-5 0 -2 -8 7 -17z"/>
<path d="M3685 1229 c-4 -6 -4 -13 -1 -16 3 -4 6 -1 6 6 0 7 5 9 11 6 6 -4 8
-13 5 -21 -4 -11 0 -11 19 2 30 20 32 28 5 19 -11 -4 -20 -2 -20 4 0 14 -17
14 -25 0z"/>
<path d="M4281 1223 c-1 -16 5 -23 17 -23 10 0 13 3 6 8 -6 4 -14 14 -17 22
-4 10 -6 8 -6 -7z"/>
<path d="M2251 1208 c-2 -28 10 -48 30 -48 10 0 19 -3 19 -8 0 -4 16 -12 35
-18 19 -6 35 -7 35 -3 0 7 -41 24 -48 20 -2 -1 -12 8 -23 20 -12 14 -19 17
-19 9 0 -19 -17 0 -23 25 -3 15 -5 16 -6 3z"/>
<path d="M2207 1204 c-9 -10 4 -34 19 -34 8 0 14 8 14 18 0 14 -2 15 -10 2 -9
-13 -14 -7 -11 13 1 9 -4 9 -12 1z"/>
<path d="M3770 1190 c-11 -7 -5 -8 20 -4 43 8 51 14 19 14 -13 0 -31 -5 -39
-10z"/>
<path d="M5634 1165 c18 -13 15 -35 -5 -35 -6 0 -17 -7 -25 -15 -14 -13 -14
-15 0 -15 9 0 16 5 16 10 0 6 7 10 15 10 8 0 19 9 25 20 8 15 6 21 -9 30 -28
15 -39 12 -17 -5z"/>
<path d="M2473 1085 c0 -22 2 -30 4 -17 2 12 2 30 0 40 -3 9 -5 -1 -4 -23z"/>
<path d="M4253 1114 c3 -3 23 -5 46 -6 40 0 70 -17 34 -19 -10 0 -13 -3 -6 -5
7 -3 10 -13 7 -22 -5 -15 -4 -15 9 1 8 9 20 17 27 17 8 0 4 8 -9 19 -13 12
-38 19 -67 19 -26 1 -44 -1 -41 -4z"/>
<path d="M2452 1080 c0 -19 2 -27 5 -17 2 9 2 25 0 35 -3 9 -5 1 -5 -18z"/>
<path d="M2160 1085 c-14 -17 0 -21 17 -4 8 8 16 8 30 -2 24 -18 26 -34 5 -36
-37 -4 -74 -12 -80 -17 -3 -3 9 -4 27 -2 17 2 35 6 38 10 3 3 12 1 18 -4 8 -6
22 -7 36 -2 l23 9 -34 32 c-38 34 -61 39 -80 16z"/>
<path d="M2290 1089 c0 -5 4 -8 9 -5 5 3 14 -1 21 -9 7 -8 18 -15 24 -15 13 1
-32 40 -45 40 -5 0 -9 -5 -9 -11z"/>
<path d="M2494 1073 c-6 -30 -15 -38 -37 -34 -5 1 -6 -3 -2 -9 3 -6 11 -8 16
-5 5 4 9 -2 9 -12 0 -15 8 -18 44 -18 30 0 40 3 29 8 -8 5 -26 7 -39 4 -26 -5
-29 6 -14 53 l7 25 11 -25 c6 -14 11 -20 11 -13 1 6 4 20 7 30 4 14 4 15 -4 4
-8 -11 -12 -10 -20 5 -10 17 -12 16 -18 -13z"/>
<path d="M2545 1060 c-4 -17 -5 -34 -2 -36 3 -3 8 9 12 26 4 17 5 34 2 36 -3
3 -8 -9 -12 -26z"/>
<path d="M4180 1075 c-16 -9 -19 -14 -9 -15 8 0 24 7 35 15 24 18 7 19 -26 0z"/>
<path d="M5766 1059 c-75 -32 -116 -39 -51 -9 50 23 39 26 -16 4 -30 -13 -37
-19 -27 -26 9 -7 7 -8 -10 -5 -12 3 -20 1 -16 -4 3 -5 -3 -9 -13 -10 -11 0
-13 -3 -5 -6 13 -5 198 62 217 79 16 14 -7 8 -79 -23z"/>
<path d="M2920 1048 c0 -6 3 -8 6 -5 4 3 15 2 25 -3 20 -11 49 -3 49 12 0 6
-7 5 -15 -2 -12 -10 -19 -10 -27 -2 -15 15 -38 15 -38 0z"/>
<path d="M3107 1035 c-4 -8 -10 -15 -14 -14 -18 3 -33 -2 -33 -10 0 -13 51 0
57 16 3 8 3 16 0 19 -2 3 -7 -2 -10 -11z"/>
<path d="M2300 1033 c0 -9 81 -45 88 -39 2 2 -14 12 -35 22 -21 9 -41 19 -45
21 -5 2 -8 1 -8 -4z"/>
<path d="M2720 1015 c-7 -9 -11 -18 -8 -20 3 -3 11 1 18 10 7 9 11 18 8 20 -3
3 -11 -1 -18 -10z"/>
<path d="M5845 1000 c-3 -5 1 -10 9 -10 22 0 29 -17 22 -55 -5 -26 -11 -33
-23 -28 -12 5 -14 3 -8 -7 5 -9 4 -11 -3 -6 -7 4 -22 0 -34 -8 -12 -9 -31 -16
-41 -16 -10 0 -43 -7 -72 -16 -39 -11 -52 -19 -48 -30 4 -10 -3 -14 -23 -16
-56 -3 -79 -6 -96 -13 -10 -4 -18 -3 -18 1 0 5 28 18 62 29 35 11 55 21 46 23
-9 2 -27 -2 -40 -9 -13 -7 -52 -21 -88 -31 -36 -10 -50 -16 -32 -13 18 3 31 1
28 -4 -9 -14 -143 -30 -350 -42 -109 -6 -205 -13 -212 -16 -8 -3 -14 0 -14 6
0 7 -36 10 -112 9 -86 -1 -100 -3 -58 -7 46 -5 35 -7 -74 -14 -70 -4 -162 -12
-203 -19 l-76 -11 -102 -93 c-134 -124 -203 -172 -260 -183 -56 -10 -60 5 -12
50 l32 31 -32 -22 c-18 -12 -33 -18 -33 -14 0 4 15 20 33 35 17 16 26 28 19
29 -7 0 -15 -7 -18 -15 -4 -8 -10 -15 -16 -15 -5 0 -6 5 -3 10 4 6 2 17 -5 25
-9 10 -5 22 15 54 15 22 34 42 43 44 15 4 15 5 0 6 -10 0 -23 -8 -30 -19 -19
-31 -27 -24 -18 16 11 49 16 52 80 57 l55 3 -62 2 c-71 2 -79 -5 -86 -76 -2
-23 -6 -45 -10 -49 -10 -10 -8 -43 2 -43 6 0 6 -12 0 -32 -9 -34 -12 -98 -4
-98 2 0 28 5 57 11 65 14 138 65 267 188 l94 89 80 12 c44 6 179 16 301 21
368 15 623 36 756 62 143 28 285 64 313 79 24 12 47 68 47 113 0 28 -4 35 -19
35 -11 0 -23 -4 -26 -10z m-19 -132 c4 -6 3 -8 -4 -4 -6 3 -13 2 -16 -3 -3 -5
-22 -12 -42 -15 -19 -4 -42 -10 -50 -13 -8 -3 -14 0 -14 5 0 6 17 14 38 17 20
4 46 10 57 15 11 5 21 9 22 9 1 1 5 -4 9 -11z"/>
<path d="M2380 970 c0 -5 -25 -17 -55 -26 -30 -10 -53 -19 -51 -22 5 -4 136
37 136 43 0 1 -7 5 -15 9 -8 3 -15 1 -15 -4z"/>
<path d="M2725 967 c17 -8 32 -13 34 -11 7 7 -3 12 -34 19 l-30 6 30 -14z"/>
<path d="M2417 958 c-2 -7 -34 -21 -71 -32 -47 -13 -66 -23 -66 -35 0 -11 3
-12 8 -4 4 6 38 22 75 34 37 12 67 26 67 30 0 10 48 -9 73 -29 9 -9 17 -20 17
-26 0 -18 -64 -48 -85 -41 -16 5 -17 5 -6 -3 12 -9 10 -12 -12 -17 -28 -7 -35
-19 -17 -30 11 -7 127 30 147 47 13 11 42 -1 62 -26 11 -13 9 -17 -13 -27 -14
-7 -26 -18 -26 -25 0 -7 -18 -23 -40 -35 -40 -23 -50 -40 -11 -19 12 6 21 7
21 1 0 -5 -7 -12 -16 -15 -9 -4 -14 -9 -10 -13 3 -4 16 3 29 15 23 21 89 48
117 47 8 -1 25 -7 38 -13 18 -10 20 -17 12 -31 -14 -28 8 -41 44 -26 22 9 25
13 12 18 -8 3 -18 2 -21 -3 -4 -6 -14 -10 -23 -10 -12 0 -13 3 -4 12 7 7 12
17 12 23 0 17 -52 42 -80 38 -14 -1 -34 -4 -44 -5 -29 -4 -31 21 -2 32 14 5
26 16 26 23 0 28 -75 70 -89 50 -6 -9 -121 -53 -137 -53 -5 1 23 16 63 34 48
23 71 39 69 50 -3 23 -37 56 -57 56 -10 0 -21 5 -24 10 -9 14 -32 12 -38 -2z"/>
<path d="M5577 943 c18 -2 50 -2 70 0 21 2 7 4 -32 4 -38 0 -55 -2 -38 -4z"/>
<path d="M2310 833 c0 -19 3 -24 9 -15 4 7 28 19 52 27 l44 14 -52 0 c-51 1
-53 0 -53 -26z"/>
<path d="M3376 774 c-9 -8 -25 -17 -37 -19 -28 -6 -37 -15 -15 -15 21 0 76 31
76 42 0 12 -7 10 -24 -8z"/>
<path d="M3463 779 c9 -6 50 -11 90 -13 39 -2 95 -6 122 -9 35 -5 29 -2 -20 8
-38 9 -91 14 -117 13 -26 -1 -51 1 -54 5 -4 4 -14 7 -23 7 -14 -1 -13 -2 2
-11z"/>
<path d="M3155 749 c-22 -3 -76 -20 -120 -37 -44 -18 -91 -32 -103 -32 -13 0
-36 -9 -51 -19 -26 -19 -54 -16 -50 5 7 36 -19 46 -42 17 -13 -16 -12 -17 3
-5 19 15 42 7 32 -10 -4 -6 1 -17 11 -25 18 -12 17 -15 -16 -51 -20 -20 -62
-72 -95 -115 -32 -44 -74 -99 -92 -123 -19 -24 -30 -44 -25 -43 8 0 123 146
169 214 45 68 132 145 165 146 37 2 40 3 64 16 67 36 144 53 221 49 57 -2 72
-1 54 6 -14 5 -37 7 -52 4 -15 -3 -28 -2 -30 2 -2 4 -21 5 -43 1z"/>
<path d="M3536 744 c-10 -25 -7 -29 7 -10 12 16 18 17 102 1 110 -19 357 -31
404 -18 24 6 -5 8 -100 7 -121 -1 -126 -1 -44 6 l90 6 -71 2 c-39 1 -98 4
-130 6 -47 3 -51 2 -19 -4 l40 -7 -40 -1 c-22 -1 -78 5 -125 13 -105 19 -107
19 -114 -1z"/>
<path d="M3425 740 c-4 -7 -19 -9 -36 -5 -18 4 -29 2 -29 -4 0 -6 8 -8 18 -4
14 5 15 3 5 -8 -7 -7 -13 -21 -13 -31 0 -29 23 -21 49 17 16 23 31 35 47 35
27 0 28 -3 14 -31 -9 -16 -7 -19 9 -19 18 0 31 18 31 44 0 16 -86 21 -95 6z"/>
<path d="M3245 705 c-44 -13 -99 -31 -123 -39 -23 -8 -49 -13 -57 -10 -9 4
-15 0 -15 -8 0 -17 -252 -270 -278 -279 -10 -4 -24 -14 -32 -24 -32 -39 -331
-225 -361 -225 -4 0 -31 -11 -61 -25 -29 -14 -66 -25 -81 -25 l-29 0 31 39
c17 21 31 46 31 55 0 9 38 55 85 103 47 48 85 93 85 102 0 8 28 41 61 73 34
32 57 58 52 58 -6 0 -16 -7 -23 -15 -7 -8 -17 -12 -23 -8 -5 3 -7 2 -4 -4 4
-6 -11 -26 -33 -46 -22 -19 -40 -42 -40 -49 0 -8 -38 -53 -85 -101 -47 -48
-85 -93 -85 -102 0 -8 -13 -34 -30 -57 -17 -22 -30 -45 -30 -50 0 -16 70 -8
122 14 94 40 261 129 328 176 94 65 126 92 279 239 148 142 168 155 315 197
84 25 89 25 103 9 14 -17 14 -17 9 0 -3 10 -6 21 -6 23 0 8 -25 3 -105 -21z"/>
<path d="M4364 705 c-12 -8 -23 -12 -26 -10 -3 3 -5 -2 -5 -10 0 -13 2 -13 18
1 9 8 30 19 45 24 21 6 24 9 9 9 -11 1 -30 -6 -41 -14z"/>
<path d="M4248 625 c-37 -30 -68 -51 -71 -47 -2 4 -2 2 -1 -5 2 -7 -8 -21 -21
-32 -14 -10 -25 -22 -25 -26 0 -7 60 42 145 119 68 62 54 57 -27 -9z"/>
<path d="M2727 634 c-11 -14 -69 -80 -130 -147 -61 -67 -104 -116 -96 -110 9
7 20 9 25 5 5 -4 6 -4 3 0 -3 4 17 31 45 60 28 29 80 87 116 128 35 41 70 74
77 74 7 -1 10 2 7 7 -9 16 -29 9 -47 -17z"/>
<path d="M4173 643 c-18 -9 -33 -24 -33 -32 0 -10 3 -12 8 -6 4 6 23 21 42 33
41 25 30 28 -17 5z"/>
<path d="M4214 634 c-49 -33 -50 -34 -33 -34 13 1 90 59 78 60 -3 0 -24 -12
-45 -26z"/>
<path d="M2510 626 c0 -10 4 -15 9 -12 5 4 11 2 13 -3 1 -5 17 -3 33 5 l30 14
-28 -5 c-16 -3 -35 -1 -43 6 -11 9 -14 8 -14 -5z"/>
<path d="M2765 572 c-27 -36 -64 -81 -81 -101 -49 -58 -107 -142 -101 -147 2
-3 28 26 56 63 28 37 61 82 73 98 13 17 42 54 66 83 24 28 42 56 40 60 -2 5
-25 -21 -53 -56z"/>
<path d="M2900 618 c-86 -102 -110 -133 -110 -140 0 -9 66 63 104 115 16 20
33 37 38 37 11 0 -35 -61 -95 -128 -21 -24 -37 -46 -34 -49 10 -9 147 156 147
177 0 18 -31 10 -50 -12z"/>
<path d="M2575 605 c-16 -8 -23 -14 -14 -15 8 0 24 7 35 15 23 18 18 18 -21 0z"/>
<path d="M2609 588 c-23 -21 -73 -78 -67 -78 6 0 36 27 67 63 25 28 25 36 0
15z"/>
<path d="M2690 549 c-18 -23 -60 -70 -93 -105 -33 -35 -52 -61 -43 -58 27 10
191 204 173 204 -2 0 -18 -18 -37 -41z"/>
</g>
</svg>
