<?xml version="1.0" standalone="no"?>
<!DOCTYPE svg PUBLIC "-//W3C//DTD SVG 20010904//EN"
 "http://www.w3.org/TR/2001/REC-SVG-20010904/DTD/svg10.dtd">
<svg version="1.0" xmlns="http://www.w3.org/2000/svg"
 width="553.647018pt" height="268.986660pt" viewBox="0 0 553.647018 268.986660"
 preserveAspectRatio="xMidYMid meet">
<metadata>
Created by potrace 1.12, written by Peter Selinger 2001-2015
</metadata>
<g transform="translate(-11.000000,275.000000) scale(0.100000,-0.100000)"
fill="#000000" stroke="none">
<path d="M2395 2740 c-4 -6 -1 -18 6 -26 17 -20 189 -105 200 -98 5 3 9 -5 9
-18 0 -18 2 -20 9 -8 6 8 7 18 4 23 -3 5 0 13 7 17 9 6 0 16 -29 35 -23 16
-44 26 -47 23 -3 -3 11 -16 31 -28 20 -12 34 -25 31 -27 -3 -3 -17 4 -33 15
-47 33 -165 102 -173 102 -5 0 -12 -5 -15 -10z"/>
<path d="M2470 2632 c0 -17 88 -112 104 -112 4 0 22 -11 40 -25 18 -14 37 -25
42 -25 5 0 20 -15 34 -34 13 -18 30 -33 37 -33 8 0 2 12 -14 29 -35 37 -18 35
27 -2 19 -17 41 -30 50 -29 13 0 13 1 0 6 -8 3 -59 48 -113 99 -53 52 -120
105 -147 119 -59 30 -60 30 -60 7z"/>
<path d="M2650 2621 c0 -4 33 -32 73 -62 39 -29 74 -57 75 -61 2 -4 10 -8 18
-8 8 0 14 -4 14 -8 0 -5 9 -13 20 -18 32 -15 299 -282 286 -287 -7 -3 -68 51
-136 118 -113 113 -149 139 -133 100 3 -8 11 -15 19 -15 8 0 14 -5 14 -11 0
-7 38 -50 85 -96 47 -46 85 -89 85 -94 0 -6 3 -8 8 -6 4 3 12 -1 19 -8 10 -10
9 -14 -2 -19 -8 -3 -15 -1 -15 5 0 18 -200 211 -214 206 -8 -3 -18 -1 -24 5
-7 7 -14 3 -22 -13 -11 -23 -11 -24 6 -4 16 20 16 20 10 -5 -4 -19 0 -29 17
-42 36 -27 15 -28 -30 -1 -25 15 -43 32 -43 43 0 10 -12 26 -27 35 -16 10 -22
12 -15 4 6 -7 12 -20 12 -28 0 -10 -9 -6 -28 12 -16 15 -32 24 -37 20 -4 -5
-5 -2 -1 5 8 14 -48 69 -105 104 l-27 17 9 -32 c5 -17 12 -34 16 -37 5 -3 44
-36 88 -72 102 -84 120 -104 104 -114 -8 -4 -10 -3 -5 4 4 7 1 12 -9 12 -10 0
-13 5 -9 12 5 7 2 9 -8 5 -15 -5 -58 25 -58 42 0 9 -77 61 -91 61 -10 0 -12
-25 -3 -57 3 -12 12 -19 19 -17 7 3 15 -2 18 -10 4 -9 13 -16 22 -16 8 0 15
-4 15 -8 0 -20 -15 -20 -51 -2 -50 26 -53 25 -66 -11 -10 -26 -10 -29 2 -19
13 11 39 -1 85 -37 2 -2 -2 -8 -10 -13 -13 -8 -12 -10 3 -10 9 0 17 5 17 11 0
17 48 1 98 -32 23 -16 51 -29 60 -28 12 0 11 3 -5 9 -26 11 -30 25 -8 34 18 6
45 -2 45 -15 0 -5 6 -9 13 -9 7 0 18 -9 25 -21 11 -17 16 -19 29 -7 9 7 19 13
22 13 3 0 5 4 3 9 -2 5 6 3 18 -5 32 -21 25 -34 -21 -37 -27 -2 -47 2 -58 12
-12 11 -28 14 -47 10 -22 -4 -43 3 -88 30 -68 41 -72 42 -80 21 -6 -18 -34 -9
-97 31 -55 34 -84 38 -87 10 -1 -15 7 -25 26 -33 76 -32 101 -41 106 -36 3 3
13 0 22 -8 10 -8 20 -13 23 -11 3 2 7 -2 9 -8 3 -9 -1 -9 -16 -1 -16 9 -21 7
-25 -10 -3 -12 -3 -18 0 -15 3 3 14 1 24 -4 24 -14 47 23 28 46 -10 12 -9 13
5 8 9 -3 16 -10 16 -15 0 -5 11 -7 24 -3 29 7 35 -2 25 -41 -6 -28 -7 -28 -14
-8 -7 21 -7 21 -26 2 -10 -10 -19 -22 -19 -25 0 -10 -28 -34 -39 -34 -17 0
-13 18 6 29 23 12 17 18 -32 26 -30 5 -36 4 -25 -4 8 -6 10 -11 5 -11 -6 0
-15 4 -20 9 -20 18 -86 34 -97 23 -8 -8 -3 -13 16 -18 14 -3 26 -10 26 -15 0
-5 7 -6 15 -3 8 4 15 2 15 -4 0 -12 -24 -22 -53 -22 -18 0 -19 2 -7 10 13 9
10 14 -14 33 -59 45 -163 96 -175 84 -6 -6 -11 -15 -11 -20 0 -5 -7 -15 -16
-24 -13 -13 -19 -14 -39 -3 -22 12 -45 7 -45 -8 1 -18 19 -34 42 -36 14 -2 36
-11 49 -21 20 -14 20 -16 4 -11 -19 7 -19 6 -3 -11 14 -13 20 -14 30 -5 7 7
17 12 23 12 5 0 3 -5 -5 -10 -13 -9 -13 -10 0 -10 18 0 47 17 40 23 -3 3 -20
12 -38 21 -27 14 -31 20 -22 31 6 8 19 11 28 9 15 -5 15 -4 0 6 -22 14 -23 27
-3 27 8 0 13 -2 10 -5 -8 -8 38 -39 78 -52 21 -6 36 -14 33 -17 -3 -3 -26 2
-52 11 -56 19 -64 20 -64 5 0 -5 5 -7 10 -4 6 4 19 -3 28 -16 12 -13 30 -22
50 -23 33 -1 46 -16 15 -16 -10 0 -38 -10 -62 -21 l-45 -20 -51 36 c-28 19
-55 35 -58 35 -4 0 -25 11 -47 25 -47 29 -51 30 -43 8 5 -12 3 -14 -8 -8 -11
7 -11 4 2 -15 9 -13 28 -25 44 -27 15 -2 39 -13 53 -23 13 -11 28 -17 33 -14
5 3 9 0 9 -5 0 -6 7 -11 15 -11 8 0 15 -5 15 -10 0 -6 -3 -9 -7 -8 -5 0 -17
-2 -28 -7 -11 -4 -56 -21 -100 -37 -44 -16 -95 -36 -112 -43 -19 -8 -33 -10
-33 -5 0 6 -7 10 -16 10 -8 0 -12 -4 -9 -10 10 -16 -10 -11 -36 8 -57 45 -139
55 -154 20 -7 -16 -18 -23 -37 -23 -40 1 -34 -18 10 -38 44 -19 56 -21 47 -7
-9 14 1 12 36 -6 17 -8 33 -13 36 -10 3 3 -17 16 -44 29 -46 21 -50 25 -39 44
11 20 34 20 47 0 4 -5 25 -10 48 -10 33 0 41 -3 41 -18 0 -13 10 -20 35 -25
19 -3 32 -11 29 -16 -3 -5 -13 -7 -21 -4 -9 4 -17 -1 -20 -14 -5 -18 -21 -25
-46 -21 -4 1 -10 -6 -13 -14 -4 -8 -17 -15 -31 -15 -13 0 -21 -4 -18 -10 3 -5
0 -10 -7 -10 -7 0 -23 -3 -35 -6 -14 -4 -23 -2 -23 5 0 5 7 8 15 5 8 -4 15 -2
15 4 0 5 18 17 40 26 22 9 40 20 40 26 0 5 11 12 25 16 14 3 22 10 19 15 -2 5
-27 -4 -55 -19 -40 -22 -51 -24 -58 -13 -5 7 -13 11 -18 8 -5 -4 -26 -1 -46 5
-46 14 -57 5 -26 -21 18 -15 20 -20 8 -21 -9 0 -19 3 -23 7 -3 4 -33 8 -65 10
-56 3 -59 2 -63 -22 -3 -14 -1 -25 3 -25 5 0 10 10 10 23 1 16 2 18 6 5 5 -20
23 -25 23 -7 0 6 7 8 16 5 8 -3 24 -1 34 4 13 7 21 7 25 0 10 -16 45 -11 76
11 16 11 29 16 29 10 0 -5 -9 -13 -20 -16 -11 -3 -20 -11 -20 -16 0 -5 -9 -9
-20 -9 -11 0 -20 -5 -20 -11 0 -6 9 -8 23 -4 20 5 20 5 -3 -9 -32 -20 -41 -20
-33 -1 5 14 0 13 -31 -1 -35 -17 -39 -17 -86 0 -49 18 -100 16 -100 -4 0 -5 7
-6 17 -3 11 4 14 3 9 -6 -6 -9 -2 -12 10 -11 11 1 33 2 49 1 27 -1 28 -3 11
-13 -10 -6 -52 -10 -92 -9 -63 1 -74 -1 -74 -15 0 -14 10 -16 65 -12 36 2 65
0 65 -5 0 -4 -4 -6 -9 -3 -5 4 -11 1 -13 -4 -5 -15 -199 -33 -276 -25 -67 6
-91 18 -265 132 -55 35 -120 74 -146 86 -25 12 -48 25 -51 28 -13 16 -92 49
-102 43 -6 -4 -8 -3 -5 3 7 12 -141 82 -248 118 -95 32 -345 48 -345 21 0 -11
9 -16 26 -16 14 0 44 -13 67 -29 23 -16 71 -45 107 -64 36 -20 96 -66 133
-102 38 -36 73 -63 77 -60 5 3 6 -4 3 -15 -3 -13 0 -20 8 -20 8 0 37 -17 64
-38 28 -20 76 -53 108 -72 84 -50 121 -94 114 -136 -9 -53 -72 -129 -147 -176
-37 -23 -52 -39 -44 -47 3 -3 10 1 15 9 9 13 10 13 6 0 -2 -8 -13 -15 -25 -15
-30 0 -75 -45 -61 -61 8 -10 19 -8 52 12 23 13 57 32 75 41 41 21 41 30 -1 27
l-32 -3 35 10 c47 14 145 91 145 114 0 10 6 20 13 23 13 4 7 48 -11 70 -7 9
-5 16 8 26 14 10 15 16 6 34 -6 11 -19 27 -29 34 -20 14 -46 57 -40 64 3 2 36
-9 74 -26 61 -25 66 -30 46 -37 -22 -8 -21 -9 9 -20 26 -10 29 -10 19 2 -7 8
-9 18 -6 24 3 5 -11 23 -32 41 -44 37 -18 26 57 -24 59 -40 68 -43 73 -20 2
13 6 13 20 2 17 -12 16 -14 -12 -30 -17 -10 -28 -13 -25 -8 3 6 -1 7 -10 4 -9
-4 -14 -13 -11 -20 7 -19 -9 -18 -40 2 -28 19 -43 12 -24 -11 10 -13 9 -15 -9
-15 -11 0 -21 -4 -21 -10 0 -13 27 -13 35 1 4 6 13 8 21 5 8 -3 43 8 78 24 35
16 80 32 100 35 30 6 34 10 25 21 -7 9 -8 14 -1 14 5 0 13 -8 16 -17 9 -24
-15 -40 -80 -53 -58 -12 -64 -20 -36 -41 15 -13 16 -12 4 3 -11 14 -9 17 15
21 47 9 61 5 60 -19 0 -31 -66 -40 -112 -14 -29 16 -34 17 -39 4 -9 -24 -7
-31 5 -14 8 11 12 12 16 2 2 -6 9 -10 14 -6 5 3 9 1 9 -5 0 -5 -8 -14 -17 -20
-26 -14 -9 -25 17 -11 14 7 25 8 33 2 7 -6 29 -15 49 -20 34 -9 38 -8 38 8 0
17 3 18 33 6 35 -15 57 -11 57 9 0 14 -64 30 -80 20 -6 -4 -10 7 -10 24 0 32
27 53 92 72 l28 8 -20 -29 c-24 -33 -26 -48 -5 -26 8 8 15 19 15 25 0 13 10
14 29 2 7 -5 10 -14 6 -21 -6 -9 -9 -9 -16 1 -6 10 -9 8 -9 -8 0 -16 -6 -23
-19 -23 -19 0 -45 23 -36 32 5 4 -19 4 -47 -1 -19 -3 -5 -28 20 -37 47 -18 96
-6 116 27 10 16 22 27 27 23 6 -4 6 -11 -2 -20 -7 -9 -8 -14 -1 -14 6 0 13 6
15 13 3 7 6 5 6 -5 1 -12 -6 -18 -21 -18 -12 0 -18 -3 -15 -7 12 -11 -37 -31
-50 -20 -9 6 -13 6 -13 -1 0 -17 20 -25 34 -13 7 6 22 8 31 4 12 -4 16 -3 11
5 -17 27 75 34 105 7 8 -8 20 -15 25 -15 4 0 -6 13 -24 30 -31 28 -71 42 -57
20 3 -5 1 -10 -5 -10 -7 0 -10 7 -6 15 3 8 -2 19 -12 24 -13 7 -14 13 -5 21 8
9 13 7 18 -9 9 -29 27 -16 19 15 -5 20 -3 24 17 23 16 -1 18 -3 8 -6 -18 -4
-15 -34 6 -66 11 -16 13 -16 30 3 18 19 18 22 2 37 -9 10 -17 12 -17 6 0 -6 6
-14 13 -16 6 -3 2 -6 -10 -6 -26 -1 -28 2 -11 29 11 18 14 18 30 3 16 -14 18
-14 24 1 5 13 9 14 20 5 8 -6 14 -19 13 -28 0 -10 -2 -11 -6 -3 -2 6 -10 12
-16 12 -5 0 -7 -3 -4 -7 4 -3 -3 -17 -15 -30 -12 -13 -16 -23 -9 -23 7 0 9 -5
5 -11 -4 -8 -1 -8 13 -1 30 16 46 39 46 68 0 17 3 22 10 15 6 -6 15 -5 25 5 8
8 21 13 28 10 8 -3 14 -1 14 4 0 6 7 10 15 10 8 0 15 5 15 12 0 6 8 4 19 -6
18 -17 20 -17 30 1 10 17 10 17 11 -2 0 -16 2 -17 10 -5 5 8 7 25 3 37 -3 13
-1 23 6 23 6 0 8 -6 5 -14 -3 -8 0 -17 5 -21 6 -3 8 -11 5 -17 -4 -6 -3 -8 3
-5 6 4 19 0 29 -8 16 -13 17 -16 4 -25 -8 -5 -19 -8 -25 -6 -5 1 -15 -4 -22
-13 -8 -11 -12 -12 -13 -3 0 6 -9 12 -20 12 -11 0 -20 5 -20 12 0 6 -3 8 -6 5
-4 -4 -1 -14 7 -24 12 -15 12 -16 -4 -10 -10 4 -21 7 -23 7 -2 0 -5 10 -5 23
-1 16 -2 18 -6 5 -2 -10 -9 -18 -15 -18 -6 0 -17 -8 -24 -17 -12 -16 -15 -16
-23 -3 -11 16 -27 6 -33 -20 -2 -8 -9 -21 -17 -29 -12 -13 -10 -16 8 -25 17
-7 25 -6 32 5 8 12 12 11 24 -5 9 -13 15 -15 15 -7 0 8 -8 20 -17 27 -17 11
-16 14 11 39 l29 26 -5 -25 c-3 -14 -1 -26 3 -26 5 0 9 -7 9 -16 0 -10 6 -14
15 -11 8 4 17 2 20 -3 10 -16 45 -11 45 5 0 8 -5 15 -11 15 -5 0 -7 -4 -4 -10
10 -16 -11 -12 -25 5 -10 12 -8 19 8 40 14 18 23 22 28 14 4 -7 -1 -18 -11
-26 -18 -12 -18 -13 -1 -13 19 0 36 -14 54 -45 8 -15 11 -16 12 -5 0 9 -5 21
-11 27 -8 8 -8 19 2 42 8 17 17 31 20 31 16 0 18 35 3 51 -10 11 -15 19 -13
20 45 7 69 7 74 -1 10 -16 24 -2 18 19 -3 10 0 22 6 25 7 4 8 1 5 -8 -4 -10 1
-18 11 -22 12 -5 15 -14 10 -33 -4 -20 -3 -22 5 -11 9 13 11 13 21 0 9 -13 10
-13 6 2 -3 9 0 19 8 21 17 7 25 -1 25 -25 0 -10 5 -18 11 -18 5 0 7 4 4 10 -3
5 -1 19 5 30 7 13 7 20 0 20 -5 0 -10 5 -10 12 0 6 7 4 18 -5 24 -22 33 -21
25 1 -4 12 -1 11 14 -5 11 -13 27 -23 36 -23 8 0 18 -6 20 -12 3 -8 6 -6 6 5
1 19 16 23 26 7 4 -6 10 -8 15 -5 5 3 11 1 15 -5 3 -5 14 -10 23 -10 16 1 16
1 0 13 -9 8 -16 22 -14 32 3 21 26 34 26 14 0 -7 3 -9 7 -6 3 4 12 2 20 -4 9
-9 13 -8 13 0 0 20 15 11 28 -16 15 -34 15 -44 0 -40 -8 1 -12 -10 -11 -33 2
-31 1 -32 -6 -10 -5 14 -9 21 -10 15 -1 -5 -16 -10 -33 -9 -22 1 -35 -4 -40
-15 -5 -12 -7 -11 -7 7 -1 21 -31 33 -31 11 0 -5 4 -8 9 -5 5 3 8 -12 8 -34
-1 -28 -5 -40 -15 -40 -11 0 -13 9 -9 34 3 19 0 39 -6 45 -15 15 -50 14 -65
-1 -16 -16 -16 4 1 22 10 12 9 12 -6 1 -23 -18 -35 -6 -19 19 10 17 10 20 -3
20 -8 0 -15 -9 -15 -20 0 -25 -10 -29 -75 -33 -45 -3 -50 -5 -47 -25 2 -15 -2
-22 -13 -22 -11 0 -15 6 -11 18 5 14 0 17 -26 17 -35 0 -46 -16 -23 -35 17
-14 20 -30 5 -30 -5 0 -10 7 -10 15 0 8 -4 15 -10 15 -12 0 -9 -19 5 -35 14
-18 35 -14 35 6 0 24 10 28 38 18 12 -5 21 -16 21 -26 -1 -17 -2 -17 -6 0 -2
9 -9 17 -14 17 -6 0 -6 -8 1 -20 13 -23 37 -17 46 13 16 51 54 82 69 57 4 -6
1 -9 -7 -8 -8 2 -14 -10 -16 -34 -3 -35 -1 -38 22 -38 13 0 27 6 29 13 4 9 6
9 6 -1 1 -7 5 -10 11 -7 5 3 21 -2 35 -11 24 -16 25 -16 19 1 -6 15 -3 17 20
11 15 -4 32 -3 39 1 12 8 18 8 85 11 24 2 32 7 32 21 0 18 17 38 33 40 4 1 10
1 15 2 4 0 -2 4 -13 9 -19 8 -19 9 3 9 12 1 22 -3 22 -9 0 -5 8 -10 18 -10 10
0 13 -3 6 -8 -6 -4 -14 -23 -18 -42 l-6 -34 20 22 c11 11 20 30 20 42 0 11 7
20 15 20 8 0 15 -6 15 -12 0 -7 9 2 20 20 16 25 18 37 10 50 -9 14 -10 13 -5
-5 7 -24 -9 -32 -18 -10 -4 9 -8 8 -16 -3 -9 -13 -12 -12 -25 5 -13 18 -13 21
0 32 10 7 12 13 5 18 -6 3 -11 0 -11 -7 -1 -8 -6 -6 -15 5 -13 18 -14 18 -25
-2 -14 -27 -27 -27 -36 2 -4 12 -12 25 -18 29 -7 5 -4 8 7 8 15 0 16 3 7 21
-7 11 -9 23 -7 26 11 10 27 -38 21 -62 -4 -15 -2 -25 5 -25 6 0 11 7 11 15 0
8 5 15 11 15 5 0 7 6 3 13 -5 7 0 6 11 -3 14 -11 19 -12 22 -2 3 6 9 12 14 12
4 0 6 -8 2 -17 -6 -16 -4 -16 16 1 17 16 21 17 16 4 -4 -11 1 -21 15 -28 22
-12 43 -5 24 8 -6 4 -14 18 -17 32 -9 32 -44 77 -53 67 -4 -4 1 -16 11 -27 10
-11 15 -23 12 -27 -8 -8 -36 26 -37 45 0 6 -7 12 -15 12 -19 0 -19 14 -1 30
12 9 18 7 33 -9 24 -28 35 -26 23 4 -7 20 -6 25 5 25 8 0 15 -5 15 -11 0 -5 3
-8 8 -6 4 3 8 -6 8 -19 1 -13 9 -30 18 -39 14 -14 16 -14 28 4 11 18 13 18 25
3 11 -15 14 -15 22 -2 9 13 12 12 25 -5 18 -23 20 -45 6 -45 -5 0 -10 -7 -10
-16 0 -8 -4 -13 -9 -10 -5 3 -7 15 -4 26 4 15 1 19 -9 15 -9 -4 -19 3 -26 17
l-11 23 0 -22 c-1 -13 -4 -23 -8 -23 -5 0 -9 -14 -9 -32 -1 -18 -6 -34 -13
-36 -6 -2 -11 -10 -11 -19 0 -9 6 -12 19 -8 13 4 20 0 24 -15 3 -13 0 -20 -9
-20 -8 0 -14 -4 -14 -10 0 -5 6 -7 14 -4 10 4 12 -2 8 -23 -4 -19 -7 -22 -10
-10 -4 20 -19 23 -25 5 -2 -7 -3 -1 -1 15 3 19 -1 27 -12 27 -11 0 -14 -6 -8
-22 3 -13 3 -20 -1 -16 -5 4 -15 3 -22 -4 -11 -9 -16 -9 -22 1 -6 9 -10 3 -13
-18 -2 -17 -1 -31 4 -31 4 0 8 7 8 16 0 8 5 12 10 9 6 -3 10 -2 10 3 0 5 7 9
15 9 8 0 15 -3 15 -7 0 -4 14 -7 30 -7 25 0 32 5 36 26 10 45 14 52 24 46 11
-6 5 15 -13 52 -6 13 -7 26 -4 30 9 9 36 -27 37 -48 0 -18 40 -58 40 -41 0 7
-4 12 -10 12 -5 0 -10 5 -10 12 0 6 8 4 19 -6 18 -16 26 -16 78 -5 32 7 59 13
61 15 2 1 -4 14 -14 28 -21 33 -11 46 16 21 11 -10 20 -15 20 -11 0 13 -34 66
-42 66 -8 0 -13 -30 -9 -65 1 -18 -1 -17 -24 7 -14 15 -25 32 -25 38 0 19 -17
10 -30 -17 -8 -16 -16 -30 -17 -32 -1 -2 -10 2 -19 10 -15 12 -16 11 -9 -11 7
-22 6 -23 -9 -11 -19 16 -20 20 0 46 12 17 16 18 24 5 5 -8 12 -11 16 -7 4 4
0 15 -8 24 -9 10 -19 29 -23 43 -7 21 -6 22 7 10 8 -8 17 -23 21 -32 7 -20 27
-24 27 -6 0 6 -8 20 -17 30 -15 17 -15 19 3 32 11 8 21 10 22 5 3 -6 10 -5 18
2 10 8 14 8 14 0 0 -6 -4 -11 -10 -11 -5 0 -7 -7 -4 -15 7 -18 31 -20 37 -2 2
6 2 -1 0 -18 -3 -24 -2 -27 7 -15 9 11 13 12 17 3 7 -19 26 -16 19 3 -3 8 -2
12 4 9 6 -3 10 1 10 9 0 8 -4 18 -10 21 -5 3 -10 1 -10 -6 0 -7 -3 -10 -6 -6
-3 3 -2 13 4 23 6 11 11 13 16 5 11 -17 24 -13 31 10 4 11 9 18 13 15 5 -6 -3
-26 -33 -88 -8 -16 -10 -28 -5 -28 5 0 17 16 26 35 9 19 21 35 26 35 5 0 6 4
3 10 -3 5 2 25 12 42 19 35 32 48 48 48 6 0 4 -4 -3 -8 -7 -5 -21 -25 -31 -46
-16 -31 -17 -38 -5 -43 22 -8 17 -25 -6 -18 -14 4 -20 2 -20 -8 0 -8 6 -15 13
-14 37 1 45 -4 40 -23 -3 -11 0 -20 6 -20 6 0 11 -7 11 -15 0 -8 7 -15 15 -15
8 0 15 5 15 10 0 6 11 10 25 10 14 0 25 -3 25 -8 0 -9 -100 -33 -111 -26 -5 3
-6 -1 -4 -8 4 -9 -4 -14 -25 -16 -21 -2 -29 1 -25 8 4 6 13 9 21 6 8 -3 14 -1
14 5 0 13 -42 8 -46 -6 -2 -5 5 -21 15 -34 14 -18 20 -21 26 -11 6 9 4 11 -5
5 -9 -5 -11 -4 -6 3 4 7 14 12 22 12 14 0 17 -9 15 -40 0 -8 6 -1 14 15 10 20
14 24 15 12 0 -10 5 -15 10 -12 6 4 8 9 6 13 -2 4 2 16 10 27 14 19 14 19 14
-1 0 -15 2 -16 9 -5 8 12 12 10 22 -12 7 -15 16 -27 22 -27 5 0 7 -7 4 -15 -8
-19 11 -31 26 -16 8 8 8 11 0 11 -8 0 -8 8 0 30 11 28 27 41 27 21 0 -5 10 -6
22 -3 22 5 21 6 -6 13 -33 9 -46 4 -46 -17 0 -8 -7 -14 -15 -14 -18 0 -20 16
-2 23 6 3 2 6 -10 6 -33 1 -28 24 7 40 20 8 44 11 68 6 20 -4 31 -10 25 -12
-21 -8 -15 -18 11 -19 14 -1 27 4 30 12 7 18 30 18 45 0 7 -8 20 -14 29 -14
24 1 133 -32 154 -47 10 -6 15 -15 11 -18 -3 -4 -1 -7 6 -7 6 0 16 -10 21 -22
8 -21 9 -22 11 -3 1 11 1 23 0 28 -2 13 16 8 105 -28 47 -19 93 -35 100 -35 7
0 28 -9 46 -20 50 -30 22 -24 -90 20 -55 22 -106 40 -111 40 -18 0 -12 -28 7
-34 9 -3 42 -28 72 -55 33 -29 57 -45 61 -39 5 7 26 3 64 -13 48 -20 58 -21
65 -9 7 12 -1 19 -38 32 -35 13 -39 16 -15 12 27 -5 32 -3 27 10 -4 11 0 14
15 13 26 -2 26 -6 4 -23 -17 -13 -17 -13 0 -14 9 0 17 5 17 10 0 6 11 8 25 4
15 -4 25 -2 25 5 0 6 -7 11 -16 11 -9 0 -28 8 -42 19 -15 10 -94 44 -175 76
-149 58 -200 86 -71 39 134 -49 155 -55 176 -48 13 4 18 2 14 -4 -3 -6 -2 -13
3 -16 5 -3 11 3 14 14 3 13 -1 21 -14 25 -10 4 -19 10 -19 15 0 5 14 2 30 -7
17 -8 37 -12 45 -10 7 3 16 -1 19 -9 3 -9 11 -12 17 -8 8 5 6 11 -7 21 -10 8
-20 19 -20 26 -1 7 -2 17 -3 24 0 7 -8 10 -17 6 -12 -4 -13 -7 -3 -14 22 -13
3 -20 -26 -9 -22 9 -26 15 -21 35 4 14 2 25 -4 25 -5 0 -10 9 -10 20 0 38 -37
37 -52 -2 -2 -3 -15 -10 -30 -13 -22 -6 -28 -4 -28 10 0 12 -5 15 -21 10 -19
-6 -21 -4 -16 14 3 12 1 19 -4 15 -8 -4 -13 16 -10 38 0 4 -9 5 -20 3 -13 -3
-23 3 -28 17 l-8 22 -5 -22 c-4 -12 -2 -20 3 -16 5 3 9 0 9 -5 0 -10 -14 -15
-32 -12 -12 2 -10 -27 2 -34 6 -3 10 -1 10 4 0 6 6 11 14 11 8 0 17 6 19 13 4
9 6 9 6 -1 1 -7 6 -10 12 -6 7 4 9 -2 7 -17 -4 -34 -55 -29 -84 7 -13 15 -24
22 -28 16 -3 -6 -15 -10 -26 -9 -15 1 -17 4 -7 16 10 12 9 14 -6 8 -11 -4 -20
-1 -23 8 -4 9 -19 15 -36 15 -26 0 -29 2 -18 15 10 12 10 15 -3 15 -9 0 -19
-9 -22 -20 -3 -11 -14 -20 -23 -20 -15 0 -15 -2 -2 -11 11 -8 6 -9 -20 -4 -19
3 -70 5 -112 5 -78 0 -91 6 -63 30 8 7 15 25 15 41 0 19 5 29 15 29 8 0 15 -4
15 -8 0 -5 8 -9 18 -9 18 0 43 27 36 39 -9 14 -24 8 -25 -9 0 -11 -6 -6 -17
15 -14 29 -14 34 -2 43 11 6 19 3 29 -11 17 -26 31 -26 24 0 -3 11 -10 20 -16
20 -16 0 1 14 22 17 16 2 18 -3 16 -32 -2 -19 -6 -39 -10 -45 -3 -5 1 -10 9
-10 9 0 16 8 16 18 0 14 2 15 10 2 9 -13 11 -13 19 0 5 8 7 18 5 22 -3 4 2 18
11 30 16 23 16 23 10 -7 -3 -16 -2 -24 1 -17 8 17 22 15 27 -5 4 -14 5 -14 7
-3 1 8 19 30 41 48 l38 34 26 -28 27 -29 -6 30 c-6 28 -6 28 5 8 14 -27 22
-28 42 -9 11 11 17 12 26 3 8 -8 11 -8 11 2 0 11 3 11 16 0 12 -10 17 -10 23
0 6 10 10 9 14 -3 4 -9 2 -16 -4 -16 -6 0 -7 -5 -3 -11 10 -18 24 12 18 41 -3
17 2 12 15 -15 16 -32 20 -35 20 -17 1 23 36 32 43 11 2 -7 12 0 22 15 13 20
14 31 6 40 -8 10 -5 15 10 19 17 4 20 2 15 -16 -5 -19 -5 -20 5 -4 15 24 31
21 27 -5 -2 -13 -2 -17 0 -10 7 20 23 13 20 -9 -1 -12 4 -24 11 -26 6 -3 12 3
12 13 0 15 3 14 19 -5 14 -16 21 -18 24 -9 4 10 8 10 16 -2 9 -13 11 -13 11 2
0 23 41 27 63 6 19 -20 57 -24 57 -7 0 7 10 9 28 4 15 -4 33 -8 40 -8 8 0 10
-8 6 -21 -4 -15 0 -12 15 9 13 19 17 33 11 39 -16 16 -11 50 10 69 17 14 20
14 20 2 0 -8 7 -15 15 -15 8 0 15 -7 15 -16 0 -13 -3 -14 -13 -5 -8 6 -17 8
-20 4 -4 -3 -7 -1 -7 6 0 7 -4 9 -10 6 -18 -11 -11 -32 13 -40 12 -4 37 -8 55
-9 31 -3 32 -2 32 35 0 20 -6 40 -12 42 -10 4 -10 6 -1 6 16 1 24 -14 25 -49
1 -28 18 -56 18 -31 0 6 5 11 11 11 5 0 8 -4 4 -9 -3 -5 -1 -12 5 -16 5 -3 10
1 10 10 0 9 6 15 13 12 6 -2 11 -9 10 -15 -2 -6 6 -10 17 -9 11 1 20 5 20 10
0 4 5 5 10 2 6 -3 10 -16 10 -28 0 -18 2 -19 10 -7 7 11 10 12 10 2 0 -26 30
-45 53 -35 23 11 60 2 72 -16 11 -18 25 -12 25 10 0 23 21 22 28 -2 3 -11 2
-11 -7 1 -8 11 -11 11 -11 2 0 -19 31 -27 41 -11 7 11 9 11 9 -2 0 -9 10 -19
23 -22 18 -5 15 1 -16 29 -25 23 -45 34 -58 31 -12 -3 -20 1 -24 13 -5 16 -10
17 -37 8 -23 -8 -36 -8 -49 1 -29 17 -34 13 -13 -10 19 -21 19 -21 0 -18 -10
2 -23 14 -27 27 -5 14 -5 21 0 17 5 -3 12 -1 16 5 4 6 -6 10 -22 11 -15 0 -37
2 -48 5 -11 2 -35 6 -52 10 -53 10 -41 32 14 28 29 -2 51 2 56 9 6 8 7 6 3 -5
-6 -20 43 -40 90 -36 16 1 35 -2 42 -6 7 -4 20 -2 29 6 11 8 14 9 10 1 -9 -15
13 -53 30 -53 7 0 13 8 13 18 0 13 -2 14 -9 4 -7 -11 -9 -11 -14 1 -4 10 0 14
11 12 9 -1 25 2 36 7 14 8 17 7 13 -4 -2 -7 -10 -12 -16 -10 -6 1 -11 -9 -11
-23 0 -31 20 -33 28 -2 6 20 7 20 12 -7 3 -16 12 -31 20 -34 12 -4 13 -2 3 9
-16 16 -17 49 -2 49 6 0 8 -7 5 -16 -3 -8 -2 -12 4 -9 6 4 10 -5 10 -20 0 -25
2 -26 47 -23 38 2 51 -1 73 -22 21 -19 26 -29 19 -42 -6 -10 -17 -18 -25 -18
-8 0 -13 4 -10 8 3 5 -8 6 -25 4 -17 -3 -29 0 -29 7 0 6 -6 11 -14 11 -8 0
-22 7 -30 16 -9 8 -16 11 -16 6 0 -5 7 -15 15 -22 8 -7 15 -16 15 -20 0 -9
-37 -23 -62 -23 -10 0 -15 -3 -13 -7 3 -4 -14 -17 -38 -28 -72 -34 -157 -143
-157 -202 0 -11 -9 -29 -21 -41 -15 -15 -19 -28 -14 -47 3 -15 12 -63 18 -107
7 -44 20 -91 29 -105 16 -25 31 -73 32 -100 1 -8 5 -13 10 -10 9 5 30 -40 22
-48 -3 -2 -19 11 -35 29 -17 18 -33 30 -36 27 -3 -3 11 -24 32 -46 51 -54 57
-62 72 -100 8 -18 32 -47 55 -64 22 -18 58 -47 79 -65 35 -31 65 -45 52 -23
-8 13 -3 13 32 -1 15 -7 51 -18 78 -25 l50 -14 -45 5 c-25 2 -55 7 -65 10 -19
6 -19 6 0 -6 11 -7 46 -13 77 -13 31 -1 51 -4 45 -8 -7 -5 -1 -8 15 -8 53 0
36 17 -33 34 -39 9 -93 26 -120 37 -28 10 -47 14 -43 8 4 -7 1 -10 -7 -7 -8 3
-13 14 -12 24 1 10 0 13 -3 6 -6 -12 -25 -1 -84 49 -20 17 -21 20 -5 14 17 -5
17 -3 -4 19 -14 15 -27 26 -30 26 -3 0 0 -5 7 -12 14 -14 16 -32 3 -24 -10 6
-71 111 -71 122 0 4 8 0 18 -7 15 -12 16 -12 4 2 -6 9 -21 41 -31 71 -10 30
-26 68 -34 84 -15 30 -31 232 -20 260 6 17 43 19 43 2 0 -6 3 -8 6 -5 4 4 1
13 -6 22 -16 19 -6 47 15 39 11 -4 15 1 16 17 1 17 3 19 6 7 2 -10 9 -18 14
-18 5 0 9 -5 9 -11 0 -5 -4 -8 -8 -5 -15 9 -35 -12 -28 -29 6 -17 7 -17 25 -1
11 10 22 28 25 42 4 13 13 24 21 24 8 0 15 5 15 10 0 6 7 10 15 10 8 0 15 7
15 16 0 8 5 12 11 9 6 -4 8 -14 5 -22 -5 -12 -1 -14 18 -11 18 4 28 -1 37 -19
7 -12 18 -23 26 -23 16 0 55 -21 65 -35 4 -5 2 -12 -3 -16 -7 -4 -5 -17 6 -39
15 -28 15 -35 2 -63 -8 -18 -20 -61 -27 -97 -6 -36 -19 -73 -27 -82 -9 -10
-13 -28 -11 -42 3 -15 1 -23 -5 -19 -6 4 -8 -26 -5 -84 5 -114 22 -141 110
-174 35 -13 77 -31 95 -42 18 -10 42 -17 55 -14 21 4 20 4 -4 6 -15 0 -29 5
-32 10 -4 5 -38 21 -76 36 -39 15 -70 31 -70 36 0 9 28 0 157 -52 39 -16 78
-29 85 -29 14 0 -86 45 -142 63 -74 24 -115 51 -126 85 -5 18 -14 29 -18 25
-5 -5 -3 1 4 13 10 16 10 25 1 40 -11 18 -12 18 -6 -3 3 -12 2 -24 -2 -26 -4
-3 -8 17 -8 44 -1 27 2 44 6 38 9 -16 31 46 33 91 0 22 4 40 9 40 4 0 5 -6 1
-13 -5 -8 -2 -8 9 2 9 7 17 19 17 25 0 6 -5 4 -10 -4 -9 -13 -10 -13 -10 0 1
37 23 106 60 184 35 73 43 84 64 82 13 0 22 -3 20 -5 -2 -2 5 -11 17 -19 11
-8 18 -20 15 -28 -6 -14 8 -18 54 -14 38 3 16 -12 -27 -19 -29 -5 -38 -11 -38
-26 0 -22 26 -28 60 -14 14 6 8 7 -17 4 -29 -4 -38 -1 -38 10 0 9 9 15 24 15
25 0 101 29 78 30 -7 0 -10 5 -6 11 3 6 18 8 33 5 14 -3 20 -3 14 0 -7 3 -13
13 -13 21 0 11 3 13 13 5 6 -6 36 -9 66 -7 58 4 75 0 65 -16 -4 -6 -11 -6 -20
2 -10 9 -14 9 -14 0 0 -15 30 -27 39 -15 3 5 21 11 39 12 25 3 32 0 32 -15 0
-15 2 -15 9 -3 12 18 5 30 -19 30 -10 0 -22 5 -26 11 -11 18 66 1 85 -19 15
-15 14 -15 -3 -9 -13 5 -17 3 -13 -7 3 -8 -1 -22 -8 -33 -12 -15 -17 -16 -34
-5 -34 20 -38 13 -6 -13 17 -14 24 -25 18 -25 -7 0 -13 -11 -13 -24 0 -34 94
-87 164 -94 28 -2 48 -2 45 2 -3 3 -27 8 -53 10 -71 5 -68 16 5 16 48 0 60 3
49 11 -12 8 -10 9 7 4 14 -4 25 0 31 11 6 11 16 15 27 10 14 -5 15 -9 5 -21
-7 -9 -10 -18 -6 -22 3 -3 6 -1 6 6 0 6 12 16 28 22 l27 11 -22 11 c-13 5 -23
14 -23 19 0 4 -6 8 -12 8 -13 1 -80 81 -73 88 2 2 24 -17 50 -43 25 -26 49
-45 52 -41 9 9 33 -14 33 -33 0 -19 81 -139 106 -158 22 -16 15 -23 -58 -60
-81 -42 -278 -72 -278 -43 0 6 12 10 27 10 14 0 24 3 20 6 -3 3 -24 3 -47 -1
-30 -5 -39 -10 -31 -18 15 -15 14 -32 -2 -19 -7 6 -29 12 -50 14 -41 2 -40 10
1 16 47 6 38 13 -13 10 -46 -3 -64 -11 -65 -30 0 -4 7 -4 17 -1 10 4 14 2 10
-4 -5 -8 6 -9 33 -6 35 5 39 3 34 -11 -5 -13 1 -16 31 -16 20 0 34 4 30 9 -3
6 6 7 22 2 16 -5 37 -5 48 0 11 4 29 8 40 8 17 0 -53 -29 -110 -46 -11 -3 -36
-18 -55 -32 -19 -14 -46 -27 -60 -27 -14 -1 -19 0 -12 3 14 5 16 33 2 33 -18
0 1 26 28 38 l27 12 -30 -5 -30 -5 25 15 25 16 -25 -6 c-29 -8 -67 -48 -51
-53 6 -2 11 -13 11 -23 0 -59 45 -80 140 -67 36 5 135 11 220 14 120 3 158 7
169 19 13 13 13 19 3 35 -13 22 -3 27 16 8 9 -9 12 -9 12 3 0 12 -21 14 -136
11 -82 -3 -140 0 -146 6 -16 16 38 50 100 63 87 17 116 29 62 24 -28 -3 -39
-1 -30 4 23 13 80 21 80 12 0 -14 54 -20 68 -8 18 14 8 71 -31 172 -75 197
-212 372 -392 502 -33 24 -64 47 -70 51 -16 13 -95 52 -104 52 -5 0 -47 18
-93 39 -120 56 -309 125 -413 151 -202 49 -245 59 -363 82 -118 22 -124 24
-144 56 -21 34 -36 45 -19 14 5 -10 6 -24 2 -30 -5 -8 -12 1 -19 26 -7 22 -19
45 -27 52 -8 7 -15 21 -15 31 0 11 -35 54 -77 97 -43 43 -89 93 -102 111 -22
30 -36 33 -36 8 0 -7 -10 -13 -22 -15 -13 -2 -23 1 -23 7 0 6 -4 11 -9 11 -4
0 -7 -12 -5 -26 3 -28 30 -64 47 -61 16 3 51 -63 39 -75 -6 -6 -15 -2 -26 13
-9 13 -16 18 -16 11 0 -7 13 -30 29 -50 32 -41 45 -98 25 -106 -9 -3 -11 1 -7
11 3 9 0 21 -8 27 -8 6 -46 47 -86 92 l-72 80 30 28 c16 15 29 32 29 37 0 5
-14 -6 -31 -25 -18 -21 -36 -33 -45 -29 -8 3 -14 -1 -14 -8 0 -7 3 -9 7 -6 8
8 43 -22 43 -36 0 -6 -10 -2 -22 9 l-23 19 19 -22 c10 -13 22 -21 26 -18 12 8
51 -41 45 -57 -3 -8 1 -21 10 -28 8 -7 15 -23 15 -36 0 -13 4 -24 10 -24 5 0
6 8 3 18 -6 15 -5 15 11 3 13 -11 14 -16 4 -22 -21 -13 2 -27 52 -32 25 -2 9
-4 -34 -4 -43 1 -74 3 -68 5 21 7 12 30 -20 53 -60 43 -89 81 -85 113 3 25 2
27 -8 13 -7 -10 -19 -17 -27 -17 -10 0 -14 -10 -13 -32 0 -18 -3 -39 -8 -46
-7 -9 -5 -11 7 -6 15 6 21 30 16 63 -1 13 1 13 15 1 12 -10 13 -15 3 -21 -9
-6 -5 -11 12 -18 l25 -10 -25 -2 c-18 -1 -20 -3 -7 -6 13 -3 16 -10 11 -25 -4
-14 -2 -18 5 -14 6 4 18 0 27 -8 14 -15 13 -16 -8 -17 -22 0 -22 -1 -3 -9 l20
-9 -20 0 c-12 -1 -28 12 -40 29 -11 16 -29 31 -40 32 -11 2 -19 9 -17 16 1 8
-2 10 -9 7 -8 -5 -8 -10 0 -18 8 -8 6 -16 -6 -29 -10 -11 -12 -18 -4 -18 6 0
14 7 17 15 8 19 34 20 34 1 0 -15 -24 -39 -32 -31 -3 3 -58 6 -122 6 -76 0
-116 3 -116 10 0 6 7 9 15 5 8 -3 15 -1 15 4 0 6 -9 10 -20 10 -11 0 -20 -7
-20 -15 0 -13 -7 -15 -37 -9 -31 6 -63 31 -179 146 -78 77 -171 161 -207 186
-36 26 -88 64 -116 84 -28 21 -51 34 -51 29z m1138 -204 c17 -23 51 -62 76
-85 25 -23 46 -47 46 -53 0 -6 3 -8 8 -6 4 3 7 -10 8 -29 0 -19 -1 -34 -2 -34
-2 0 -11 15 -20 33 -23 45 -54 76 -70 70 -14 -5 -7 -23 29 -72 18 -25 22 -43
10 -38 -27 8 -6 -42 21 -53 21 -9 21 -9 -1 -9 -17 -1 -27 10 -43 43 -23 52
-24 59 -7 51 6 -3 2 2 -10 11 -13 9 -23 23 -23 30 0 12 -88 154 -96 154 -1 0
-1 -8 1 -17 1 -10 0 -12 -2 -5 -3 6 -9 12 -14 12 -5 0 -9 5 -9 11 0 5 4 8 9 5
4 -3 17 1 27 9 27 21 30 19 62 -28z m-1068 -168 c11 -6 11 -8 2 -9 -7 0 -10
-5 -7 -11 4 -6 13 -8 21 -5 8 3 14 -1 14 -9 0 -8 7 -15 16 -15 14 0 15 2 3 18
-13 15 -12 16 4 3 16 -13 16 -16 3 -29 -12 -13 -19 -11 -53 14 -47 35 -63 51
-63 59 0 7 37 -3 60 -16z m120 -44 c0 -5 4 -4 8 3 7 10 15 6 35 -14 28 -28 34
-44 16 -44 -5 0 -8 4 -5 9 3 5 -7 11 -22 15 -15 3 -43 19 -61 36 l-35 30 32
-12 c18 -7 32 -17 32 -23z m114 -24 c17 -19 17 -19 -2 -14 -12 3 -23 11 -26
19 -8 20 8 17 28 -5z m86 -21 c0 -11 -4 -20 -10 -20 -5 0 -7 7 -4 15 4 8 -1
17 -10 21 -9 3 -16 10 -16 15 0 6 9 5 20 -1 11 -6 20 -20 20 -30z m602 -2 c-9
-9 -12 -7 -12 12 0 19 3 21 12 12 9 -9 9 -15 0 -24z m-1336 -23 c-4 -35 -22
-53 -38 -37 -9 9 -7 13 5 18 9 3 17 15 17 25 0 10 4 19 9 19 5 0 8 -11 7 -25z
m1680 2 c4 -4 -2 -7 -14 -7 -12 0 -22 4 -22 9 0 10 26 9 36 -2z m-1176 -43 c0
-8 -4 -12 -10 -9 -5 3 -10 13 -10 21 0 8 5 12 10 9 6 -3 10 -13 10 -21z m847
-93 c16 -9 16 -10 -5 -11 -13 0 -21 4 -17 9 3 5 1 12 -5 16 -5 3 -10 14 -9 23
0 13 2 12 9 -5 5 -12 17 -26 27 -32z m-201 11 c1 -7 0 -8 -3 -2 -3 8 -9 7 -19
-1 -12 -10 -13 -9 -8 5 7 18 26 17 30 -2z m428 -28 c3 -8 1 -14 -4 -14 -6 0
-10 5 -10 11 0 6 -8 9 -17 7 -15 -3 -53 23 -53 36 0 10 79 -28 84 -40z m-698
-36 c-15 -21 -23 -25 -33 -17 -19 17 -16 27 10 31 14 2 23 10 23 23 3 37 6 40
13 15 5 -18 1 -33 -13 -52z m-28 55 c-22 -46 -33 -63 -39 -63 -5 0 -5 7 -2 17
4 11 3 14 -5 9 -8 -5 -10 -2 -6 8 3 9 10 14 14 11 4 -3 13 2 20 10 13 16 24
20 18 8z m872 -46 c0 -6 -9 -1 -20 11 -11 12 -20 24 -20 28 0 4 9 -1 20 -11
11 -10 20 -23 20 -28z m595 4 c235 -84 282 -104 224 -97 -24 3 -34 7 -113 40
-22 9 -40 15 -42 14 -10 -12 -5 -39 16 -69 18 -27 30 -36 53 -36 26 0 46 -15
47 -35 0 -13 -48 -9 -56 4 -9 14 -34 -18 -34 -43 0 -18 43 -34 62 -23 6 4 8 3
5 -3 -8 -13 14 -23 47 -23 13 0 39 -10 57 -23 19 -13 40 -22 47 -19 15 5 16
-14 1 -24 -7 -4 -19 3 -28 15 -10 13 -43 28 -90 41 -41 12 -83 26 -95 33 -12
6 -25 10 -31 8 -5 -2 -26 -5 -46 -6 l-36 -3 24 24 c27 28 38 31 29 9 -7 -20
18 -19 38 1 19 18 21 54 4 54 -9 0 -8 4 2 10 13 8 13 10 -1 10 -10 0 -19 12
-23 30 -3 17 -17 41 -32 55 -14 13 -23 29 -19 35 3 6 3 9 -2 8 -4 -1 -28 8
-53 19 -63 30 -47 28 45 -6z m-1703 -9 c-7 -2 -12 -11 -12 -19 0 -13 3 -13 15
-3 8 7 15 10 15 7 0 -3 3 -14 6 -24 5 -15 4 -16 -6 -3 -9 12 -10 10 -6 -12 4
-17 2 -28 -4 -28 -6 0 -8 5 -5 10 3 6 2 10 -3 10 -5 0 -14 12 -21 26 -13 29 2
60 22 47 8 -5 7 -8 -1 -11z m-2430 -11 c59 -20 120 -49 128 -61 3 -4 20 -15
38 -24 17 -9 32 -18 32 -21 0 -3 -80 33 -245 110 -43 21 -18 18 47 -4z m2343
-68 c-3 -9 0 -22 6 -29 7 -9 8 -14 1 -14 -12 0 -24 29 -17 41 3 4 -1 22 -10
38 -22 43 -18 52 6 12 11 -18 18 -40 14 -48z m21 52 c4 -8 14 -15 24 -15 23 0
33 -30 21 -61 -5 -13 -10 -19 -11 -14 0 6 -5 3 -10 -5 -5 -8 -10 -10 -10 -4 0
6 7 17 15 24 27 22 16 47 -18 41 -4 -1 -10 7 -14 16 -4 10 -11 21 -17 25 -7 5
-7 8 2 8 7 0 15 -7 18 -15z m-59 -46 c8 -3 5 -12 -9 -29 -19 -24 -20 -24 -14
-3 4 12 2 33 -4 45 -9 19 -9 21 2 7 7 -9 18 -18 25 -20z m-2299 1 c23 -11 55
-26 70 -31 15 -6 22 -13 15 -16 -7 -2 -21 0 -32 6 -11 6 -27 8 -35 5 -11 -4
-16 -1 -16 10 0 9 -4 16 -8 16 -9 0 -50 29 -41 30 3 0 24 -9 47 -20z m247 -29
c41 -28 14 -27 -35 2 -46 26 -66 56 -22 33 15 -8 41 -24 57 -35z m1985 14 c0
-7 -7 -12 -15 -11 -22 3 -31 16 -11 16 10 0 14 5 10 12 -4 7 -3 8 4 4 7 -4 12
-13 12 -21z m1610 0 c6 -8 10 -19 8 -24 -1 -5 -11 2 -21 15 -19 26 -8 34 13 9z
m195 5 c-3 -5 -1 -10 4 -10 6 0 11 -4 11 -10 0 -5 -9 -10 -20 -10 -22 0 -28
25 -7 33 18 8 19 8 12 -3z m-1915 -16 c0 -8 -7 -23 -16 -32 -15 -15 -16 -14
-10 6 4 12 3 22 -2 22 -6 0 -14 -11 -19 -25 l-8 -25 -18 21 c-12 13 -14 19 -5
17 7 -3 24 3 37 13 29 23 41 24 41 3z m-545 -15 c-4 -5 -16 -9 -28 -9 -21 1
-21 1 -3 15 20 15 41 11 31 -6z m416 -37 c-6 -2 -11 -11 -11 -20 0 -15 -2 -15
-10 -2 -6 10 -5 17 5 23 8 4 16 18 16 30 2 20 2 20 6 -3 3 -13 0 -26 -6 -28z
m-1740 7 c23 -11 39 -23 36 -25 -5 -6 -87 33 -87 41 0 9 10 6 51 -16z m2166
-39 c7 0 9 -9 5 -22 -3 -12 -7 -17 -9 -11 -3 7 -20 15 -39 19 -19 3 -34 11
-34 16 0 5 9 6 20 3 23 -7 28 10 5 19 -8 3 -15 11 -15 18 0 6 13 0 28 -15 15
-15 33 -27 39 -27z m-2237 -28 c3 -2 -5 -1 -17 2 -16 5 -23 3 -23 -6 0 -7 -11
-1 -25 14 -14 15 -25 30 -25 32 0 5 79 -32 90 -42z m217 26 c17 -13 59 -45 93
-72 46 -36 64 -45 70 -36 7 11 11 10 24 -3 21 -20 20 -30 -1 -23 -10 3 -25 1
-32 -4 -12 -7 -10 -11 12 -21 15 -7 27 -16 27 -21 0 -16 -19 -7 -47 22 -15 17
-50 45 -76 62 -27 17 -46 36 -43 43 5 15 -24 45 -62 62 -15 6 -20 12 -12 12 9
1 30 -9 47 -21z m-52 -9 c20 -12 34 -24 31 -26 -5 -5 -76 35 -76 43 0 7 9 4
45 -17z m4073 -1 c7 -7 12 -17 12 -22 0 -6 -7 -3 -15 8 -7 10 -18 15 -24 11
-6 -3 -11 -1 -11 4 0 15 23 14 38 -1z m-2625 -61 c-6 -9 -43 36 -43 53 0 6 11
-1 24 -17 13 -15 22 -31 19 -36z m-23 -17 c0 -20 -18 -9 -24 15 -5 19 -12 24
-31 23 -14 -1 -25 -8 -25 -15 0 -7 -10 -13 -22 -12 -16 0 -18 2 -8 6 8 3 18
11 22 17 4 6 13 11 20 11 7 1 12 7 10 15 -1 8 11 0 28 -18 16 -18 30 -37 30
-42z m630 40 c6 -8 10 -18 10 -23 0 -12 -54 5 -63 20 -5 9 -17 12 -30 8 -17
-5 -18 -4 -8 4 21 14 80 8 91 -9z m-2246 -9 c14 -5 16 -10 8 -15 -7 -4 -22 0
-34 8 -24 17 -9 21 26 7z m209 -12 c63 -32 147 -95 146 -108 -1 -13 -2 -12 -6
2 -2 9 -11 17 -18 17 -7 0 -27 11 -43 25 -16 14 -49 36 -73 50 -44 25 -48 35
-6 14z m826 -18 c-35 -30 -47 -25 -14 5 15 14 30 23 33 20 2 -3 -6 -14 -19
-25z m1151 8 c0 -11 -4 -17 -10 -14 -5 3 -10 13 -10 21 0 8 5 14 10 14 6 0 10
-9 10 -21z m-775 -46 l2 -36 -19 27 c-22 29 -41 35 -31 9 4 -11 3 -14 -5 -9
-14 9 -16 33 -3 41 5 3 16 -2 24 -10 21 -21 26 -19 20 8 -3 12 -2 18 3 14 4
-4 9 -24 9 -44z m1165 32 c0 -9 -6 -12 -15 -9 -8 4 -15 10 -15 15 0 5 7 9 15
9 8 0 15 -7 15 -15z m-2482 -12 c16 -16 15 -16 -8 -10 -14 4 -34 7 -45 8 l-20
0 20 9 c29 13 35 12 53 -7z m3655 -18 c-3 -11 -7 -27 -8 -35 -2 -23 -15 -41
-26 -35 -5 4 -9 1 -9 -4 0 -25 -29 -8 -35 20 -6 24 -2 34 17 52 32 30 71 31
61 2z m-1943 3 c0 -19 -18 -43 -25 -36 -4 3 -2 16 5 27 12 24 20 27 20 9z
m2337 -9 c38 -16 73 -20 73 -9 0 5 6 7 14 4 8 -3 12 -12 9 -21 -4 -11 -19 -14
-57 -12 -54 2 -101 -11 -109 -33 -3 -7 -5 4 -5 24 1 33 10 45 45 57 1 1 14 -4
30 -10z m-1547 -45 l25 -15 -25 7 c-14 3 -29 10 -34 15 -16 14 6 10 34 -7z
m-908 -48 c13 4 18 2 14 -4 -3 -6 -20 -10 -36 -10 -16 1 -27 5 -24 10 3 5 3
16 -1 26 -5 14 -7 14 -15 2 -5 -8 -12 -11 -16 -7 -4 3 -1 14 6 22 12 14 16 13
33 -15 15 -23 24 -29 39 -24z m257 31 c13 5 13 3 4 -7 -13 -15 -43 -7 -43 12
0 9 3 9 11 1 6 -6 19 -9 28 -6z m894 -41 c42 -16 77 -33 77 -37 0 -5 -15 -2
-32 5 -18 8 -53 22 -78 32 -38 15 -87 45 -55 33 6 -2 45 -17 88 -33z m1531 19
c36 -9 78 -20 94 -26 60 -25 112 -53 112 -61 0 -4 5 -8 11 -8 5 0 7 5 3 12 -4
6 4 3 18 -8 48 -36 10 -30 -159 24 -29 9 -53 22 -53 29 0 7 5 13 11 13 5 0 7
-4 4 -10 -3 -6 1 -7 10 -3 22 8 1 22 -35 24 -28 1 -112 26 -93 28 6 1 41 -6
77 -14z m-336 -49 c-8 -6 -18 -27 -22 -48 -7 -37 -24 -52 -46 -38 -10 6 -10
15 1 44 7 20 17 36 21 36 4 0 8 7 8 16 0 10 6 14 15 11 8 -4 18 -1 22 5 5 9 8
8 11 -2 3 -7 -2 -18 -10 -24z m-2708 6 c0 -10 -6 -26 -12 -34 -12 -16 -14 -16
-28 0 -13 14 -12 15 2 10 11 -5 18 0 22 18 7 28 16 32 16 6z m70 13 c0 -15
-34 -55 -46 -55 -19 0 -18 5 9 34 21 23 37 32 37 21z m138 -50 c-1 -1 -13 -5
-24 -9 -25 -8 -41 19 -24 40 9 10 15 9 32 -8 11 -11 18 -21 16 -23z m2711 -19
c-13 -11 -49 -16 -49 -7 0 6 10 11 23 12 12 0 16 3 10 6 -7 2 -13 12 -13 21 0
13 4 11 16 -6 9 -13 14 -25 13 -26z m-3363 9 c-3 -9 -10 -13 -16 -10 -6 4 -5
11 3 20 15 16 22 11 13 -10z m3290 0 c-18 -18 -32 -19 -42 -3 -5 8 -2 9 9 5
10 -3 17 -2 17 3 0 6 7 10 16 10 14 0 14 -2 0 -15z m-3712 -11 c9 -3 16 -10
16 -15 0 -14 -24 -11 -46 6 -16 12 -17 14 -2 15 9 0 23 -3 32 -6z m2416 -50
c22 -9 26 -12 10 -9 -14 2 -35 5 -47 5 -13 0 -23 5 -23 10 0 13 18 12 60 -6z
m1774 -23 c24 -25 34 -70 13 -63 -4 1 -16 -7 -28 -19 -15 -15 -27 -19 -47 -14
-15 4 -34 8 -42 9 -19 4 -26 80 -9 99 7 7 29 14 49 15 28 2 42 -4 64 -27z
m232 -129 c20 -42 37 -79 36 -82 -2 -11 -22 -11 -22 0 0 6 -14 32 -32 57 -20
27 -33 57 -34 78 0 19 3 32 7 29 4 -2 25 -39 45 -82z m-956 -107 c0 -25 -14
-34 -24 -16 -8 12 3 41 15 41 5 0 9 -11 9 -25z m766 -195 c5 -5 43 -11 84 -13
59 -2 51 -3 -35 -4 -69 -1 -103 2 -90 7 13 6 15 9 5 9 -8 0 -21 -3 -28 -8 -25
-15 13 -20 168 -22 122 -1 150 -3 150 -15 0 -11 -25 -14 -132 -14 -73 -1 -152
-5 -175 -9 -24 -5 -40 -4 -37 0 3 5 -2 9 -11 9 -9 0 -14 -4 -11 -8 3 -5 -7 -9
-22 -9 -15 0 -36 -4 -47 -9 -17 -6 -18 -5 -8 7 10 13 7 14 -25 12 l-37 -2 32
8 c17 4 51 18 75 31 72 38 125 49 144 30z m-742 -61 c-3 -5 -11 -3 -18 4 -18
16 -8 31 10 16 7 -6 11 -15 8 -20z"/>
<path d="M930 1714 c0 -10 34 -33 49 -34 8 0 2 9 -12 20 -26 21 -37 25 -37 14z"/>
<path d="M1014 1651 c21 -23 26 -26 26 -11 0 5 -10 15 -22 21 -23 12 -23 12
-4 -10z"/>
<path d="M5120 1500 c13 -11 31 -20 41 -20 9 0 25 -3 35 -7 12 -4 15 -3 10 5
-4 7 -18 12 -32 12 -14 0 -32 7 -40 15 -9 8 -20 15 -26 15 -6 0 -1 -9 12 -20z"/>
<path d="M5197 1383 c-12 -11 -8 -50 6 -61 12 -10 38 -15 68 -13 21 1 31 38
18 63 -7 13 -21 18 -48 18 -21 0 -41 -3 -44 -7z"/>
<path d="M5275 900 c-18 -8 -17 -9 8 -9 16 -1 26 3 22 9 -3 6 -7 10 -8 9 -1 0
-11 -4 -22 -9z"/>
<path d="M5348 903 c17 -2 47 -2 65 0 17 2 3 4 -33 4 -36 0 -50 -2 -32 -4z"/>
<path d="M2759 2448 c24 -27 54 -41 33 -15 -6 6 -10 16 -10 20 0 5 -4 12 -8
15 -4 4 -4 1 0 -5 4 -7 3 -13 -1 -13 -5 0 -15 6 -23 13 -8 6 -4 0 9 -15z"/>
<path d="M3960 2254 c0 -6 9 -21 20 -34 11 -13 20 -19 20 -14 -1 13 -40 61
-40 48z"/>
<path d="M2376 2193 c-3 -10 -9 -25 -12 -33 -4 -8 1 -6 10 5 8 11 16 15 16 9
0 -6 18 -19 40 -29 24 -11 36 -21 30 -25 -7 -4 1 -7 17 -7 15 0 42 -3 58 -8
27 -7 29 -7 17 8 -14 17 -148 97 -162 97 -4 0 -10 -8 -14 -17z"/>
<path d="M3366 2195 c4 -8 13 -15 21 -15 13 0 13 3 3 15 -7 8 -16 15 -21 15
-5 0 -6 -7 -3 -15z"/>
<path d="M2530 2153 c8 -3 23 -15 32 -27 13 -16 20 -18 28 -10 14 14 -24 44
-55 43 -14 0 -16 -2 -5 -6z"/>
<path d="M2050 2048 c0 -9 -6 -19 -12 -21 -10 -4 -10 -6 0 -6 7 -1 10 -6 7
-11 -4 -7 2 -9 19 -4 20 5 27 2 33 -12 4 -11 13 -25 20 -32 11 -11 14 -11 19
2 3 9 15 16 26 16 10 0 16 5 13 10 -4 6 -10 8 -15 5 -5 -3 -11 3 -15 14 -4 12
-19 21 -43 26 -20 4 -40 12 -44 18 -5 8 -8 6 -8 -5z"/>
<path d="M1960 2007 c0 -21 33 -47 63 -49 15 -1 27 -6 27 -10 0 -4 5 -7 11 -5
6 1 14 -4 16 -11 3 -9 -6 -8 -31 5 -20 9 -39 13 -43 9 -10 -9 18 -26 32 -19 5
3 5 0 -1 -6 -9 -10 -17 -9 -38 4 -14 10 -24 20 -22 24 3 4 -3 7 -12 8 -9 1
-32 5 -49 9 -20 4 -33 2 -33 -4 0 -6 -3 -19 -6 -29 -6 -15 -4 -16 7 -5 19 17
29 15 22 -5 -5 -15 -3 -16 8 -5 16 15 33 16 23 0 -4 -7 -3 -8 4 -4 7 4 18 4
24 -1 24 -14 125 -12 145 3 17 14 17 15 -2 30 -11 8 -19 20 -17 25 1 6 -2 8
-8 4 -5 -3 -27 6 -47 20 -41 27 -73 33 -73 12z"/>
<path d="M2220 1975 c7 -8 20 -15 28 -15 13 0 12 3 -4 15 -25 19 -40 19 -24 0z"/>
<path d="M1816 1868 c3 -5 12 -7 19 -4 8 3 25 -4 40 -16 14 -11 28 -18 31 -15
3 3 -6 13 -21 23 -29 19 -79 28 -69 12z"/>
<path d="M3326 1834 c-8 -21 -8 -24 5 -24 5 0 7 5 3 11 -8 14 58 9 69 -6 5 -6
7 -1 5 10 -4 26 -73 33 -82 9z"/>
<path d="M1667 1823 c-4 -3 -7 -13 -7 -22 0 -13 2 -13 9 -2 5 7 13 11 18 8 6
-4 19 0 29 8 18 13 17 14 -12 15 -17 0 -34 -3 -37 -7z"/>
<path d="M3250 1821 c0 -4 -12 -7 -27 -5 -28 4 -28 4 2 -6 21 -7 31 -6 37 3 6
9 8 9 8 0 0 -7 5 -13 11 -13 8 0 8 5 -1 15 -14 16 -30 20 -30 6z"/>
<path d="M3155 1811 c-3 -6 -4 -15 -1 -20 3 -5 -3 -11 -13 -14 -15 -4 -18 -1
-13 12 5 14 3 14 -11 3 -9 -8 -21 -11 -26 -7 -6 3 -20 -4 -32 -16 -20 -20 -20
-22 -3 -15 42 18 56 15 18 -3 -23 -11 -45 -24 -49 -30 -8 -14 17 -10 27 4 4 5
17 10 30 11 34 3 68 15 68 24 0 10 58 25 79 21 7 -1 10 2 6 9 -4 7 -18 9 -31
6 -16 -4 -23 -2 -22 5 4 15 -18 23 -27 10z"/>
<path d="M3350 1811 c0 -13 29 -35 37 -27 3 3 1 6 -5 6 -7 0 -12 7 -12 15 0 8
-4 15 -10 15 -5 0 -10 -4 -10 -9z"/>
<path d="M4564 1795 c-10 -8 -14 -15 -7 -15 19 0 43 11 43 21 0 13 -14 11 -36
-6z"/>
<path d="M3973 1770 c0 -24 3 -27 14 -19 11 9 11 15 1 28 -7 9 -13 17 -14 19
0 1 -1 -11 -1 -28z"/>
<path d="M4100 1770 c0 -12 -4 -19 -8 -16 -5 3 -8 -14 -9 -37 0 -24 1 -31 4
-15 2 14 11 32 19 38 16 14 18 36 4 45 -5 3 -10 -3 -10 -15z"/>
<path d="M3286 1771 c-4 -6 3 -15 14 -21 11 -6 20 -17 20 -25 0 -8 5 -15 10
-15 17 0 11 18 -14 45 -14 15 -27 22 -30 16z"/>
<path d="M3383 1726 c-2 -25 0 -28 8 -13 6 10 19 16 32 14 12 -2 16 -2 9 0 -8
3 -11 11 -9 18 4 8 -3 12 -16 12 -17 0 -22 -6 -24 -31z"/>
<path d="M3600 1750 c-4 -24 1 -44 12 -51 6 -4 3 -11 -8 -17 -16 -9 -17 -14
-6 -31 6 -12 12 -32 12 -45 0 -14 5 -28 10 -31 6 -3 10 3 10 14 0 12 5 21 11
21 5 0 7 -5 3 -12 -5 -8 -2 -9 10 -5 10 4 19 1 22 -8 7 -18 25 -20 22 -2 -2 6
-10 19 -19 27 -9 8 -14 20 -12 27 3 8 -3 11 -16 8 -14 -3 -21 1 -21 12 0 9 6
13 15 9 9 -3 19 3 26 15 6 11 16 18 23 16 7 -3 18 4 25 15 11 18 11 20 -4 14
-10 -3 -24 -1 -32 5 -7 7 -16 9 -20 5 -3 -3 -1 -6 5 -6 16 0 15 -21 -2 -43
-13 -17 -15 -17 -30 -1 -10 9 -15 23 -12 31 3 8 2 11 -3 8 -5 -3 -12 5 -14 17
-2 13 -5 16 -7 8z"/>
<path d="M1657 1731 c2 -9 -3 -12 -17 -8 -11 3 -18 1 -14 -4 7 -12 24 -11 59
7 29 14 29 14 3 9 -14 -3 -28 -2 -31 3 -2 4 -2 1 0 -7z"/>
<path d="M3240 1730 c13 -23 20 -26 20 -6 0 8 -7 16 -15 20 -13 4 -14 2 -5
-14z"/>
<path d="M3552 1730 c-6 -11 -12 -28 -12 -37 0 -14 2 -15 9 -4 7 11 9 11 13 0
3 -8 6 3 6 24 0 20 -1 37 -2 37 0 0 -7 -9 -14 -20z"/>
<path d="M2995 1729 c-4 -6 -13 -8 -21 -5 -7 3 -16 1 -19 -3 -11 -19 25 -19
47 -1 13 11 18 19 11 20 -6 0 -15 -5 -18 -11z"/>
<path d="M2360 1723 c0 -14 45 -93 52 -93 14 0 9 21 -14 61 -20 35 -38 50 -38
32z"/>
<path d="M2570 1721 c0 -5 7 -14 15 -21 8 -7 15 -17 15 -22 0 -18 28 -39 36
-27 3 6 -5 22 -20 35 -14 14 -26 29 -26 34 0 6 -4 10 -10 10 -5 0 -10 -4 -10
-9z"/>
<path d="M4040 1714 c0 -8 4 -13 9 -10 5 4 12 0 14 -6 4 -8 6 -7 6 3 1 9 -6
19 -14 23 -9 3 -15 0 -15 -10z"/>
<path d="M4361 1713 c0 -10 3 -13 5 -6 3 7 12 9 21 6 11 -4 14 -2 9 5 -11 18
-36 14 -35 -5z"/>
<path d="M3460 1710 c-7 -22 -5 -52 4 -57 6 -3 8 -3 4 2 -4 4 -1 14 7 22 8 8
15 20 15 26 0 8 -3 7 -9 -2 -7 -11 -9 -11 -14 0 -3 8 -6 12 -7 9z"/>
<path d="M3717 1683 c-11 -20 -13 -34 -7 -38 6 -3 10 3 10 14 0 10 5 21 12 23
6 2 9 11 6 19 -3 9 -10 4 -21 -18z"/>
<path d="M3814 1701 c4 -5 2 -20 -3 -33 -9 -22 -16 -11 -12 21 2 11 0 11 -12
0 -11 -11 -11 -15 1 -30 8 -10 20 -15 27 -13 14 6 18 64 4 64 -6 0 -8 -4 -5
-9z"/>
<path d="M4177 1703 c-4 -3 -7 -20 -7 -36 0 -38 12 -28 15 13 3 32 2 34 -8 23z"/>
<path d="M3951 1665 c1 -11 0 -23 -1 -27 -1 -5 -3 -11 -5 -15 -1 -5 -5 -16
-10 -26 -4 -10 -5 -21 -1 -24 3 -4 6 0 6 8 0 9 10 20 23 25 12 6 17 9 11 8 -7
-2 -10 5 -7 16 3 10 0 27 -6 37 -11 17 -11 17 -10 -2z"/>
<path d="M3907 1653 c-11 -10 -8 -20 7 -26 10 -4 12 0 9 14 -6 21 -7 22 -16
12z"/>
<path d="M3773 1618 c3 -9 0 -22 -8 -28 -15 -13 -8 -50 10 -50 7 0 18 -13 25
-30 11 -26 15 -28 33 -19 18 10 19 9 14 -10 -3 -11 -2 -23 3 -26 4 -3 10 6 12
20 3 14 1 25 -3 25 -5 0 -9 9 -9 21 0 16 -4 19 -20 14 -18 -6 -19 -2 -15 35 2
27 0 38 -7 34 -6 -4 -18 2 -26 12 -12 15 -13 15 -9 2z m21 -34 c20 -8 21 -21
1 -21 -8 0 -16 6 -19 14 -6 15 -4 15 18 7z"/>
<path d="M3976 1585 c-4 -12 -1 -16 11 -13 18 3 21 20 5 26 -5 1 -12 -4 -16
-13z"/>
<path d="M1790 1575 c6 -8 8 -20 4 -27 -5 -10 -4 -10 5 -2 13 12 5 44 -11 44
-6 0 -5 -6 2 -15z"/>
<path d="M3057 1573 c-2 -5 -4 -21 -5 -36 -2 -31 13 -29 21 3 3 13 1 18 -6 13
-6 -4 -8 0 -4 10 6 17 2 24 -6 10z"/>
<path d="M3953 1546 c-1 -17 2 -24 5 -16 3 8 8 17 12 20 4 3 2 10 -5 16 -9 9
-12 5 -12 -20z"/>
<path d="M3130 1559 c0 -11 50 -17 57 -6 3 6 1 7 -5 3 -7 -4 -12 -3 -12 1 0 5
-9 9 -20 9 -11 0 -20 -3 -20 -7z"/>
<path d="M3698 1549 c-15 -16 -15 -19 -3 -19 8 0 15 5 15 11 0 5 4 7 10 4 6
-3 7 1 4 9 -3 9 -7 16 -8 15 0 0 -9 -9 -18 -20z"/>
<path d="M3732 1542 c0 -23 3 -29 14 -25 17 6 18 14 1 38 -13 16 -14 15 -15
-13z"/>
<path d="M3991 1541 c-17 -16 -38 -31 -46 -35 -10 -3 -13 -11 -9 -18 6 -9 9
-9 12 0 2 7 7 10 12 7 5 -3 12 4 15 16 5 14 12 18 23 14 9 -3 13 -3 9 1 -4 4
0 16 10 26 25 28 9 21 -26 -11z"/>
<path d="M872 1546 c7 -8 15 -11 18 -7 3 3 9 9 14 14 5 4 -3 7 -18 7 -22 0
-25 -2 -14 -14z"/>
<path d="M4186 1553 c-9 -9 -8 -41 2 -47 4 -2 14 0 22 6 12 8 12 9 -2 4 -20
-6 -24 4 -7 21 6 6 7 13 1 17 -5 3 -12 3 -16 -1z"/>
<path d="M3896 1542 c-10 -17 7 -43 22 -33 9 6 9 11 -1 26 -10 12 -16 14 -21
7z"/>
<path d="M3086 1531 c-4 -5 -1 -13 5 -17 8 -4 7 -9 -2 -16 -12 -8 -12 -9 0 -6
16 5 24 35 11 43 -5 3 -11 1 -14 -4z"/>
<path d="M2544 1522 c-7 -4 12 -8 42 -9 32 -1 52 2 49 8 -7 11 -75 12 -91 1z"/>
<path d="M3234 1518 c-4 -6 -3 -8 3 -5 6 4 13 -3 16 -14 5 -17 2 -20 -14 -16
-23 6 -35 -9 -13 -17 19 -7 31 -1 45 26 8 15 8 19 0 14 -6 -4 -11 0 -11 8 0
19 -16 21 -26 4z"/>
<path d="M850 1505 c-10 -12 -10 -15 3 -15 19 0 31 16 18 24 -5 3 -14 -1 -21
-9z"/>
<path d="M2253 1502 c-13 -10 -19 -22 -15 -29 9 -15 36 4 40 30 4 21 3 21 -25
-1z"/>
<path d="M2483 1513 c-18 -7 -16 -33 2 -33 8 0 15 9 15 20 0 11 -1 20 -2 19
-2 0 -9 -3 -15 -6z"/>
<path d="M3877 1489 c-9 -33 -9 -39 3 -39 5 0 7 8 4 18 -5 14 -4 15 5 2 16
-23 14 -60 -4 -60 -9 0 -18 7 -21 15 -4 8 -10 12 -15 9 -11 -7 -41 15 -35 25
3 4 -11 7 -30 7 -39 0 -44 -8 -11 -24 l22 -11 -23 0 c-28 -1 -19 -21 9 -21 10
0 19 -6 19 -14 0 -9 10 -12 31 -10 23 3 42 -4 71 -26 31 -22 35 -29 20 -27
-11 0 -19 4 -16 8 2 4 -9 7 -26 7 -16 -1 -30 -2 -30 -4 0 -11 66 -35 82 -31
11 3 17 3 14 0 -3 -4 2 -15 11 -26 18 -20 18 -20 -7 -4 -32 22 -58 23 -40 2 7
-8 18 -15 24 -15 6 0 22 -9 36 -21 l25 -20 -40 18 c-22 10 -45 25 -52 33 -6 8
-15 12 -18 8 -4 -4 -14 -1 -22 7 -16 17 -39 20 -47 7 -3 -5 44 -32 104 -61 60
-28 111 -55 114 -59 2 -4 1 -14 -3 -21 -6 -10 -10 -10 -16 -1 -4 6 -4 14 -1
17 7 8 -127 72 -137 66 -5 -3 18 -18 50 -34 32 -16 47 -27 33 -23 -14 3 -29
10 -34 15 -14 12 -39 11 -31 -1 8 -13 3 -13 -31 0 -27 11 -169 50 -179 50 -3
0 -5 -4 -5 -10 0 -5 7 -10 15 -10 8 0 15 -4 15 -9 0 -5 25 -15 56 -21 68 -14
67 -24 -2 -11 -32 6 -53 6 -61 -1 -7 -6 -19 -8 -28 -5 -8 4 -17 1 -21 -6 -4
-7 -4 -9 1 -5 4 4 14 3 22 -4 7 -6 40 -10 72 -9 32 1 69 -3 82 -7 18 -7 6 -9
-44 -8 -56 1 -64 -1 -50 -11 9 -7 14 -15 11 -18 -3 -3 -17 4 -31 16 -47 36
-29 9 33 -51 33 -32 71 -60 85 -62 20 -4 23 -3 14 8 -15 18 -9 17 57 -2 43
-12 58 -13 69 -4 16 13 10 34 -6 25 -5 -3 -6 1 -3 9 5 13 0 15 -27 11 -26 -4
-28 -3 -10 3 28 9 40 32 18 32 -9 0 -19 9 -22 20 -3 11 -14 20 -23 20 -14 0
-15 2 -2 10 12 7 10 11 -10 19 -22 9 -23 10 -5 12 35 3 60 -2 75 -16 8 -7 27
-15 41 -16 41 -6 117 39 104 61 -3 5 1 10 10 10 10 0 13 -5 9 -12 -5 -7 -3 -8
6 -3 10 6 12 4 6 -10 -6 -16 -4 -16 11 -4 10 8 22 19 26 24 5 6 7 -3 4 -18 -3
-20 -1 -25 6 -18 7 7 14 5 22 -6 8 -10 19 -14 29 -10 25 10 14 31 -17 35 -15
2 -27 10 -27 18 0 17 -12 18 -27 3 -13 -13 -36 -3 -27 12 3 5 10 7 15 4 5 -4
9 -1 9 4 0 6 -7 11 -15 11 -8 0 -15 -4 -15 -9 0 -12 -57 7 -66 21 -4 5 4 5 16
-2 17 -9 25 -9 34 0 8 9 8 14 -1 17 -7 2 -27 14 -45 26 -18 12 -44 28 -58 35
-50 25 -83 47 -80 56 1 5 -4 13 -12 17 -10 7 -7 14 12 29 20 16 22 20 8 20
-10 0 -18 5 -18 11 0 5 -5 7 -10 4 -6 -3 -14 4 -18 16 l-9 23 -6 -25z m-92
-379 c-3 -5 15 -7 47 -5 l53 4 -53 -10 c-43 -9 -52 -14 -47 -27 5 -13 2 -12
-15 3 -25 22 -25 32 -2 38 9 3 18 5 20 6 2 0 1 -3 -3 -9z m93 -55 c-2 -1 -17
-5 -35 -8 -24 -5 -31 -3 -27 7 3 8 16 11 35 8 16 -2 29 -5 27 -7z"/>
<path d="M3987 1477 c4 -18 3 -19 -7 -7 -10 13 -11 13 -6 0 3 -8 9 -23 12 -33
4 -10 11 -16 17 -14 13 4 22 28 10 26 -19 -3 -23 2 -14 20 8 14 7 20 -3 24
-10 4 -12 -1 -9 -16z"/>
<path d="M866 1464 c-8 -22 -2 -27 22 -20 31 10 36 36 8 36 -13 0 -27 -7 -30
-16z"/>
<path d="M1355 1450 c26 -11 45 -12 45 -2 0 4 -15 8 -33 9 -26 1 -28 0 -12 -7z"/>
<path d="M3633 1449 c34 -20 87 -39 87 -32 -1 10 -72 43 -91 43 -10 -1 -9 -3
4 -11z"/>
<path d="M870 1418 c0 -9 -6 -19 -12 -21 -7 -3 -8 -6 -3 -6 6 0 17 4 25 9 12
7 12 12 2 22 -9 9 -12 9 -12 -4z"/>
<path d="M1163 1407 c5 -15 37 -22 37 -9 0 5 -9 12 -21 15 -13 3 -19 1 -16 -6z"/>
<path d="M1300 1400 c-19 -4 17 -5 80 -2 63 3 117 6 119 8 8 7 -163 2 -199 -6z"/>
<path d="M3991 1401 c-7 -5 -10 -14 -7 -20 11 -18 25 -13 23 9 -1 11 -1 20 -2
20 0 0 -6 -4 -14 -9z"/>
<path d="M4995 1389 c-5 -7 5 -8 32 -3 51 9 54 14 10 14 -20 0 -39 -5 -42 -11z"/>
<path d="M917 1366 c-20 -12 -40 -26 -44 -30 -12 -11 52 18 78 36 36 25 10 21
-34 -6z"/>
<path d="M1201 1375 c-40 -18 -44 -18 -35 -4 4 8 0 8 -15 0 -11 -7 -21 -17
-21 -23 0 -6 -3 -9 -6 -5 -3 3 -14 -3 -25 -14 -11 -11 -24 -17 -28 -14 -5 2
-14 -2 -21 -10 -15 -18 -34 -20 -24 -3 4 7 3 8 -5 4 -9 -6 -9 -11 1 -24 11
-13 11 -14 0 -8 -8 5 -26 -6 -49 -31 -20 -21 -33 -32 -28 -24 5 9 4 12 -3 7
-6 -4 -8 -14 -5 -23 4 -11 3 -14 -5 -9 -7 4 -12 2 -12 -3 0 -6 -7 -11 -15 -11
-8 0 -15 -4 -15 -10 0 -5 -9 -10 -21 -10 -12 0 -33 -13 -47 -28 -44 -46 -108
-84 -272 -161 -25 -11 -24 -11 5 -6 32 7 41 11 150 69 78 42 188 115 193 128
2 4 9 8 15 8 6 0 42 24 81 54 75 57 191 130 241 152 17 7 23 13 15 13 -8 0
-30 -6 -49 -14z"/>
<path d="M4912 1380 c-48 -11 -49 -18 -4 -17 22 1 38 5 36 9 -2 3 4 9 13 11
31 8 -10 6 -45 -3z"/>
<path d="M1538 1373 c12 -2 32 -2 45 0 12 2 2 4 -23 4 -25 0 -35 -2 -22 -4z"/>
<path d="M1490 1354 c0 -6 18 -29 40 -52 22 -22 40 -44 40 -46 0 -10 34 -46
43 -46 5 0 4 7 -3 15 -10 12 -9 15 6 15 30 0 103 31 106 46 2 10 16 5 52 -17
66 -42 67 -32 0 14 -30 21 -54 33 -54 27 0 -6 -8 -10 -17 -9 -10 1 -29 -3 -43
-9 -18 -8 -20 -11 -7 -11 9 -1 17 -5 17 -10 0 -12 -39 -25 -47 -17 -4 3 -12 1
-19 -5 -11 -9 -16 -6 -23 12 -7 19 -5 25 8 27 29 6 82 24 79 27 -2 2 -28 -3
-58 -11 -36 -9 -57 -11 -64 -4 -7 7 -3 10 10 10 11 0 43 6 71 13 35 9 57 10
70 4 17 -9 17 -9 1 8 -14 15 -21 16 -45 7 -34 -13 -110 -27 -102 -19 3 4 23
11 45 16 l39 9 -51 -1 c-29 -1 -50 -5 -47 -9 8 -14 -10 -8 -29 9 -10 9 -18 12
-18 7z"/>
<path d="M1823 1345 c-7 -19 -5 -20 26 -30 16 -5 21 -4 17 4 -4 6 -14 11 -23
11 -9 0 -13 6 -9 15 3 8 3 15 0 15 -2 0 -7 -7 -11 -15z"/>
<path d="M3663 1336 c0 -20 97 -59 122 -50 13 5 16 4 11 -4 -4 -7 -2 -12 4
-12 7 0 10 -6 7 -12 -3 -9 7 -14 29 -15 46 -2 43 7 -11 36 -24 13 -42 28 -38
34 3 6 1 7 -6 3 -6 -4 -9 -12 -6 -17 8 -12 -16 -11 -35 1 -13 9 -13 10 0 10
16 1 -21 23 -56 34 -14 4 -21 2 -21 -8z m57 -16 c13 -9 13 -10 0 -10 -8 0 -22
5 -30 10 -13 9 -13 10 0 10 8 0 22 -5 30 -10z"/>
<path d="M4649 1322 c-13 -24 -14 -30 -2 -41 12 -11 14 -11 12 0 -4 31 2 44
11 24 10 -24 12 1 2 27 -6 15 -9 13 -23 -10z"/>
<path d="M3559 1330 c-20 -13 16 -49 49 -48 15 0 54 -10 86 -21 68 -24 80 -26
70 -9 -5 8 -2 9 10 5 9 -4 15 -3 12 2 -3 5 -16 11 -28 14 -13 3 -59 19 -104
35 -50 19 -86 27 -95 22z"/>
<path d="M844 1319 c-3 -6 -17 -8 -29 -5 -13 3 -26 3 -28 -1 -9 -15 51 -12 63
2 7 8 10 15 7 15 -3 0 -9 -5 -13 -11z"/>
<path d="M897 1317 c4 -7 0 -8 -11 -4 -9 4 -15 3 -11 -3 3 -5 -10 -16 -30 -26
-19 -9 -38 -22 -42 -28 -4 -6 5 -3 20 7 14 9 32 17 39 17 7 0 -5 -12 -27 -25
-22 -14 -35 -25 -30 -25 17 1 91 50 75 50 -11 1 -10 4 4 15 24 18 40 20 30 3
-4 -7 -3 -8 4 -4 18 11 14 23 -8 29 -13 3 -18 1 -13 -6z"/>
<path d="M5053 1323 c-61 -6 -54 -19 7 -15 27 2 50 8 50 13 0 5 -3 8 -7 7 -5
-1 -27 -3 -50 -5z"/>
<path d="M959 1299 c-23 -19 -23 -20 -2 -10 12 6 25 16 28 21 10 16 -1 12 -26
-11z"/>
<path d="M1838 1293 c-23 -6 -23 -20 1 -33 28 -15 33 -13 21 9 -8 16 -6 20 8
24 11 3 12 5 2 5 -8 0 -23 -2 -32 -5z"/>
<path d="M5108 1280 c-3 -9 -25 -15 -70 -19 -5 -1 -8 -5 -8 -10 0 -6 12 -6 32
0 41 11 51 11 44 0 -3 -4 -20 -11 -37 -15 -18 -3 -30 -9 -26 -12 3 -3 21 -1
40 5 27 9 35 17 35 36 0 26 -4 32 -10 15z"/>
<path d="M3622 1238 c6 -15 13 -28 16 -29 37 -4 60 -3 56 3 -3 4 -16 8 -30 8
-13 0 -24 5 -24 10 0 6 7 10 15 10 27 0 16 18 -14 22 -28 4 -28 3 -19 -24z"/>
<path d="M807 1216 c-80 -44 -110 -66 -90 -66 6 0 16 7 23 15 7 8 19 15 27 15
13 0 13 -3 2 -17 -10 -14 -8 -13 10 2 14 11 32 27 40 35 9 8 30 25 46 37 42
32 31 27 -58 -21z"/>
<path d="M1675 1243 c-50 -20 -48 -18 -40 -42 3 -12 13 -21 21 -21 13 0 13 3
-2 17 -16 16 -15 18 15 32 27 13 34 13 40 2 7 -11 13 -9 30 8 l21 21 -22 -1
c-13 0 -41 -7 -63 -16z"/>
<path d="M1983 1232 c-3 -12 -3 -26 1 -29 3 -4 7 5 7 18 1 18 3 15 9 -11 l7
-35 2 31 c0 16 5 34 11 40 6 6 3 10 -10 10 -13 0 -23 -9 -27 -24z"/>
<path d="M4661 1182 c-1 -72 1 -81 34 -132 19 -30 35 -50 35 -44 0 5 7 19 16
30 15 19 15 19 9 -2 -4 -16 2 -27 22 -42 31 -22 24 -44 -7 -24 -12 7 -20 8
-20 2 0 -21 -18 -8 -44 31 -15 22 -30 38 -33 36 -3 -3 8 -24 23 -47 23 -31 34
-39 51 -35 13 3 28 -2 38 -12 9 -9 29 -17 45 -18 22 -1 26 2 22 17 -4 16 -6
17 -16 3 -7 -10 -16 -12 -25 -6 -12 8 -12 12 -2 25 11 13 11 19 1 31 -10 12
-10 15 2 15 8 0 20 -6 28 -12 12 -11 12 -10 0 5 -8 11 -21 16 -34 13 -31 -7
-77 80 -85 159 -6 56 -8 60 -30 57 -17 -1 -22 2 -17 13 3 8 2 15 -3 15 -5 0
-9 -35 -10 -78z m40 -115 c-7 -7 -8 -3 -4 11 3 15 0 24 -11 28 -17 6 -21 30
-9 60 5 14 11 4 20 -35 10 -36 11 -57 4 -64z"/>
<path d="M1763 1227 c-7 -15 -18 -27 -25 -27 -9 0 -8 -3 2 -10 20 -13 70 -13
70 0 0 6 10 5 25 -2 22 -10 24 -13 10 -21 -9 -5 -25 -7 -36 -4 -11 3 -16 1
-13 -4 3 -6 0 -16 -6 -24 -6 -8 -9 -19 -5 -25 15 -24 -29 -7 -56 21 -16 17
-29 26 -29 21 0 -14 48 -62 62 -62 6 0 26 -13 45 -30 19 -18 45 -30 61 -30 20
0 32 -8 45 -31 14 -25 22 -30 41 -25 20 5 24 1 30 -24 5 -26 10 -30 39 -30 30
0 73 -31 60 -43 -3 -3 -2 -14 1 -25 5 -14 19 -21 48 -25 22 -3 45 -11 49 -19
7 -10 9 -9 9 5 0 10 -8 17 -19 17 -11 0 -22 4 -25 9 -3 5 -15 7 -26 4 -27 -7
-25 5 3 18 20 9 20 9 -5 4 -22 -4 -27 -2 -25 16 1 16 6 19 24 14 14 -3 23 -1
23 6 0 7 -12 10 -30 7 -18 -3 -35 1 -41 9 -6 7 -25 13 -41 13 -23 0 -29 4 -24
15 3 8 1 15 -4 15 -22 0 -8 29 20 40 51 21 27 21 -28 0 l-52 -20 -20 32 c-25
42 -25 43 8 57 51 21 79 22 103 2 l24 -19 -39 -16 c-21 -9 -46 -16 -55 -17
-11 0 -12 -2 -3 -6 18 -7 99 25 105 42 4 8 -8 20 -30 30 -30 15 -42 15 -75 6
-22 -7 -48 -21 -59 -32 -24 -24 -58 -20 -88 12 -18 20 -18 22 -2 38 32 32 123
46 129 21 3 -18 -54 -49 -91 -51 -21 -1 -20 -1 3 -8 17 -5 38 0 67 17 24 13
43 26 43 29 0 18 -24 43 -43 43 -31 0 -101 -26 -105 -39 -2 -6 -8 -11 -13 -11
-22 0 13 39 41 45 43 9 45 21 5 39 -26 13 -40 14 -54 6 -28 -15 -48 -13 -27 3
10 7 17 22 15 32 -3 16 -6 15 -16 -8z"/>
<path d="M2951 1223 c1 -23 2 -24 6 -6 3 15 9 20 21 17 15 -5 15 -4 2 5 -24
17 -30 13 -29 -16z"/>
<path d="M1852 1221 c7 -11 23 -25 37 -31 25 -11 25 -11 -4 19 -34 34 -51 41
-33 12z"/>
<path d="M3000 1239 c0 -4 7 -20 15 -35 8 -16 15 -22 15 -13 0 14 -29 61 -30
48z"/>
<path d="M3825 1232 c6 -5 21 -13 35 -17 17 -5 22 -4 15 3 -5 5 -21 13 -35 17
-17 5 -22 4 -15 -3z"/>
<path d="M5125 1230 c-3 -5 -16 -11 -28 -11 -14 -1 -16 -3 -6 -6 21 -5 65 12
51 21 -6 3 -13 2 -17 -4z"/>
<path d="M3460 1210 c0 -22 25 -18 34 6 3 9 -1 14 -14 14 -13 0 -20 -7 -20
-20z"/>
<path d="M2020 1196 c0 -18 5 -26 18 -26 13 0 14 2 3 9 -7 5 -11 13 -7 19 3 6
2 13 -4 17 -6 4 -10 -5 -10 -19z"/>
<path d="M4370 1211 c0 -6 5 -13 10 -16 6 -3 10 -12 10 -18 -1 -7 -10 -1 -20
12 -11 13 -20 19 -20 14 0 -5 11 -20 24 -32 30 -28 44 -12 20 24 -17 27 -24
31 -24 16z"/>
<path d="M2066 1200 c-11 -3 -15 -9 -10 -13 10 -6 42 9 34 16 -3 3 -14 1 -24
-3z"/>
<path d="M2096 1179 c-9 -21 -15 -27 -19 -18 -4 10 -6 9 -6 -3 -1 -10 6 -18
14 -18 8 0 15 7 15 15 0 14 11 19 35 16 6 -1 2 5 -7 12 -10 8 -15 17 -11 20 3
4 3 7 -1 7 -4 0 -13 -14 -20 -31z"/>
<path d="M2156 1195 c4 -8 13 -15 21 -15 12 0 12 2 -1 15 -8 8 -17 15 -20 15
-3 0 -3 -7 0 -15z"/>
<path d="M517 1194 c-14 -14 -7 -25 13 -22 12 2 21 8 21 13 0 12 -24 18 -34 9z"/>
<path d="M3359 1184 c-12 -15 -11 -16 7 -10 17 5 23 2 27 -16 4 -12 9 -20 12
-16 7 7 -15 58 -25 58 -4 0 -14 -7 -21 -16z"/>
<path d="M1700 1180 c8 -5 22 -10 30 -10 13 0 13 1 0 10 -8 5 -22 10 -30 10
-13 0 -13 -1 0 -10z"/>
<path d="M3421 1166 c0 -21 1 -21 9 -1 7 18 8 18 15 3 6 -15 9 -16 22 -3 19
19 33 19 33 0 0 -8 4 -15 9 -15 5 0 7 9 4 19 -4 15 -14 19 -49 18 -38 0 -44
-3 -43 -21z"/>
<path d="M5508 1178 c5 -7 12 -24 15 -38 4 -22 4 -21 6 6 1 21 -5 34 -15 38
-13 5 -14 3 -6 -6z"/>
<path d="M458 1164 c-16 -8 -28 -19 -28 -25 0 -5 11 -2 25 7 14 9 25 13 25 9
0 -12 -33 -34 -51 -35 -9 0 -22 -7 -29 -15 -10 -12 -10 -15 4 -15 9 0 16 4 16
9 0 5 10 6 23 3 18 -5 14 -8 -24 -17 -31 -7 -62 -25 -100 -59 -47 -42 -27 -40
24 2 9 8 17 11 17 6 0 -15 -31 -37 -88 -64 -30 -13 -58 -32 -63 -42 -5 -10
-19 -18 -29 -18 -11 0 -20 -7 -20 -15 0 -12 13 -15 61 -15 33 0 58 4 55 8 -3
5 8 6 24 4 29 -4 226 55 216 65 -3 3 -24 -2 -46 -11 -47 -19 -130 -30 -130
-17 0 5 10 16 23 25 21 15 21 15 -8 4 -16 -7 -36 -21 -43 -30 -7 -10 -21 -18
-30 -18 -15 1 -15 2 1 11 9 6 15 14 12 19 -3 5 7 12 22 16 15 4 35 12 43 19 8
7 33 22 55 33 l40 20 -37 -2 c-28 -2 -38 1 -41 14 -3 13 0 16 13 13 20 -5 44
7 112 56 32 23 44 37 36 42 -7 4 -20 3 -31 -3 -16 -8 -18 -7 -12 11 7 25 0 26
-37 5z"/>
<path d="M3530 1170 c0 -5 8 -6 17 -3 12 5 15 2 10 -10 -5 -14 -4 -15 13 -4
27 16 25 22 -10 24 -17 1 -30 -2 -30 -7z"/>
<path d="M1972 1156 c8 -7 32 -19 53 -27 22 -7 45 -16 50 -20 13 -8 65 -21 65
-16 0 3 -21 12 -47 22 -80 29 -103 40 -103 47 0 5 -7 8 -16 8 -13 0 -13 -2 -2
-14z"/>
<path d="M2116 1136 c7 -18 34 -22 34 -4 0 6 -3 8 -7 5 -3 -4 -12 -2 -20 5
-11 8 -12 7 -7 -6z"/>
<path d="M4417 1136 c-4 -10 -12 -14 -17 -11 -6 4 -3 -8 7 -27 31 -58 64 -98
80 -98 11 0 9 6 -8 21 -17 15 -19 19 -6 15 23 -7 22 6 -3 21 -16 11 -18 10
-14 -2 12 -31 -6 -13 -26 24 -20 40 -13 64 10 36 7 -8 16 -13 20 -10 5 3 12 0
16 -6 4 -8 3 -9 -4 -5 -16 10 -15 -9 1 -22 10 -9 13 -6 12 13 0 27 -25 60 -25
35 0 -10 -7 -7 -19 9 -16 21 -19 21 -24 7z"/>
<path d="M5390 1120 c0 -5 5 -10 10 -10 6 0 10 -7 10 -15 0 -8 -5 -15 -11 -15
-6 0 -17 -7 -25 -15 -14 -13 -14 -15 0 -15 9 0 16 5 16 10 0 6 6 10 14 10 8 0
17 7 20 16 8 22 8 22 -14 34 -14 7 -20 7 -20 0z"/>
<path d="M2180 1113 c8 -3 17 -9 20 -12 9 -11 70 -29 70 -21 0 9 -39 25 -52
22 -5 -1 -8 3 -8 8 0 6 -10 10 -22 9 -16 0 -18 -2 -8 -6z"/>
<path d="M2373 1035 c0 -22 2 -30 4 -17 2 12 2 30 0 40 -3 9 -5 -1 -4 -23z"/>
<path d="M4073 1064 c3 -3 23 -5 46 -6 40 0 70 -17 34 -19 -10 0 -13 -3 -6 -5
7 -3 10 -13 7 -22 -5 -15 -4 -15 9 1 8 9 20 17 27 17 8 0 4 8 -9 19 -13 12
-38 19 -67 19 -26 1 -44 -1 -41 -4z"/>
<path d="M2352 1030 c0 -19 2 -27 5 -17 2 9 2 25 0 35 -3 9 -5 1 -5 -18z"/>
<path d="M2070 1035 c-14 -17 0 -21 17 -4 8 8 17 7 33 -4 l22 -15 -31 -17
c-17 -9 -36 -13 -41 -10 -5 3 -12 0 -16 -6 -4 -7 -3 -9 3 -6 6 4 19 0 29 -8
10 -8 27 -15 37 -15 17 0 17 1 3 16 -9 8 -16 18 -16 22 0 3 5 1 11 -5 13 -13
49 -5 49 11 0 15 -54 56 -73 56 -8 0 -20 -7 -27 -15z"/>
<path d="M2396 1032 c-4 -13 -5 -26 -2 -29 3 -4 6 1 6 10 0 10 5 14 15 11 8
-4 15 -1 15 6 0 6 -4 9 -9 6 -5 -4 -11 0 -14 6 -2 7 -7 3 -11 -10z"/>
<path d="M2436 1014 c-4 -14 -5 -29 -2 -31 3 -3 8 7 12 21 3 15 4 29 1 32 -2
3 -8 -7 -11 -22z"/>
<path d="M4004 1025 c-10 -8 -14 -15 -8 -15 5 0 19 7 30 15 10 8 14 15 8 15
-5 0 -19 -7 -30 -15z"/>
<path d="M5526 1009 c-75 -32 -116 -39 -51 -9 48 22 39 26 -11 5 -23 -9 -33
-19 -28 -26 5 -9 2 -10 -9 -6 -10 3 -17 2 -17 -3 0 -6 5 -10 11 -10 14 0 172
61 184 72 16 14 -7 8 -79 -23z"/>
<path d="M2800 998 c0 -6 3 -8 6 -5 4 3 16 1 28 -5 19 -10 20 -10 7 5 -16 19
-41 23 -41 5z"/>
<path d="M2980 994 c0 -6 -12 -15 -27 -21 l-28 -11 28 -1 c26 -1 47 22 33 36
-3 4 -6 2 -6 -3z"/>
<path d="M2203 983 c9 -14 47 -24 47 -12 0 5 -4 9 -9 9 -5 0 -17 3 -27 7 -11
4 -15 3 -11 -4z"/>
<path d="M2377 970 c3 -11 9 -20 13 -20 5 0 6 9 3 20 -3 11 -9 20 -13 20 -5 0
-6 -9 -3 -20z"/>
<path d="M5134 945 c3 -8 0 -15 -6 -15 -6 0 -8 -3 -5 -6 8 -8 37 14 37 27 0 5
-7 9 -16 9 -10 0 -14 -6 -10 -15z"/>
<path d="M2280 931 c0 -5 -17 -16 -37 -24 -42 -18 -5 -11 42 7 24 10 26 13 12
19 -9 3 -17 3 -17 -2z"/>
<path d="M2318 919 c-2 -7 -32 -20 -67 -31 -35 -11 -61 -21 -58 -24 7 -7 137
38 137 47 0 10 48 -10 73 -31 9 -8 17 -19 17 -25 0 -17 -64 -47 -85 -40 -16 5
-17 5 -6 -3 12 -9 10 -12 -12 -17 -15 -4 -27 -11 -27 -16 0 -18 29 -20 57 -4
15 9 19 13 8 10 -55 -19 -54 -13 3 14 34 16 65 37 68 46 8 19 -18 50 -59 70
-36 18 -44 19 -49 4z"/>
<path d="M5630 877 c0 -11 -5 -14 -17 -10 -12 5 -14 3 -8 -7 5 -8 4 -11 -3 -7
-5 4 -23 1 -39 -7 -15 -8 -55 -20 -87 -27 -42 -9 -60 -18 -64 -31 -3 -11 -14
-18 -31 -19 -14 0 -20 -3 -13 -6 16 -6 210 44 239 63 22 14 39 51 29 61 -3 4
-6 -1 -6 -10z m-44 -49 c4 -6 3 -8 -4 -4 -6 3 -13 2 -16 -3 -3 -5 -22 -12 -42
-15 -19 -4 -42 -10 -50 -13 -8 -3 -14 0 -14 5 0 6 17 14 38 17 20 4 46 10 57
15 11 5 21 9 22 9 1 1 5 -4 9 -11z"/>
<path d="M2430 822 c0 -5 -12 -13 -27 -17 -16 -4 -22 -10 -15 -12 7 -3 24 2
37 11 27 18 49 12 74 -18 11 -13 9 -17 -13 -27 -20 -9 -25 -17 -20 -32 5 -16
3 -19 -10 -14 -12 5 -15 3 -10 -5 5 -7 2 -9 -7 -6 -8 3 -23 0 -32 -7 -16 -12
-15 -13 10 -12 15 1 34 8 41 14 7 7 21 13 30 13 13 0 13 2 -4 14 -18 14 -18
15 9 25 31 12 35 31 10 54 -22 19 -73 33 -73 19z"/>
<path d="M2210 799 c0 -12 4 -18 11 -13 7 4 30 13 53 20 l41 13 -52 0 c-47 1
-53 -1 -53 -20z"/>
<path d="M5340 796 c-14 -7 -49 -19 -77 -26 -53 -12 -72 -30 -32 -30 12 0 17
4 13 11 -4 8 0 9 15 4 12 -4 21 -2 21 4 0 6 8 11 18 12 22 1 102 37 82 38 -8
0 -26 -6 -40 -13z"/>
<path d="M2190 768 c0 -5 19 -18 43 -28 47 -21 67 -40 85 -82 6 -16 18 -28 26
-28 21 0 33 -26 41 -91 5 -44 4 -58 -9 -68 -9 -8 -16 -23 -15 -35 l0 -21 9 21
c5 12 14 25 20 29 13 8 11 100 -4 133 -7 18 -6 26 5 33 10 8 8 9 -8 4 -24 -7
-33 9 -10 18 7 3 4 6 -6 6 -10 1 -15 6 -12 11 5 9 1 11 -20 10 -3 0 -16 11
-28 25 -24 28 -117 78 -117 63z"/>
<path d="M5309 759 c-10 -6 -7 -9 14 -9 29 0 35 5 14 13 -8 3 -20 1 -28 -4z"/>
<path d="M3230 741 c0 -5 -12 -14 -27 -19 -16 -6 -21 -11 -13 -11 8 -1 29 8
45 19 21 14 25 20 13 20 -10 0 -18 -4 -18 -9z"/>
<path d="M3361 746 c2 -2 36 -6 74 -9 41 -3 60 -2 45 3 -25 8 -127 13 -119 6z"/>
<path d="M4815 739 c11 -4 54 -8 95 -8 95 1 80 6 -30 12 -47 2 -76 0 -65 -4z"/>
<path d="M5023 743 c20 -2 54 -2 75 0 20 2 3 4 -38 4 -41 0 -58 -2 -37 -4z"/>
<path d="M5080 730 l-85 -6 80 -1 c44 -1 91 3 105 7 29 9 26 9 -100 0z"/>
<path d="M3396 722 c-3 -5 7 -9 22 -8 15 0 52 -3 82 -7 41 -5 46 -4 20 3 -63
16 -118 21 -124 12z"/>
<path d="M2945 694 c-51 -25 -44 -24 32 2 28 10 67 13 115 10 40 -2 64 -1 53
3 -11 5 -49 8 -85 9 -50 0 -77 -5 -115 -24z"/>
<path d="M3285 709 c-4 -6 -19 -7 -36 -4 -18 4 -29 2 -29 -4 0 -6 8 -8 18 -4
14 5 15 3 5 -8 -7 -7 -13 -21 -13 -31 0 -29 23 -21 49 17 26 39 44 43 69 19
12 -12 17 -13 20 -4 9 25 -68 44 -83 19z"/>
<path d="M3620 710 c34 -7 34 -7 -15 -10 l-50 -3 55 -7 c69 -10 247 -10 280
-1 14 4 -34 6 -105 5 -115 -1 -120 0 -45 6 l85 6 -70 2 c-38 1 -92 4 -120 6
-41 3 -44 2 -15 -4z"/>
<path d="M4545 711 c40 -5 25 -8 -80 -14 -71 -5 -160 -14 -196 -21 -64 -12
-71 -16 -160 -99 -132 -121 -201 -169 -255 -175 -52 -6 -57 8 -16 43 15 13 28
33 29 45 2 18 -1 19 -13 9 -11 -9 -12 -14 -3 -20 8 -4 4 -11 -12 -20 -13 -7
-27 -12 -31 -11 -11 3 -10 -55 0 -62 4 -2 30 0 57 6 61 13 123 56 249 174 90
84 100 90 159 101 34 7 149 16 254 19 160 6 191 9 182 21 -8 9 -39 13 -113 11
-77 -1 -89 -3 -51 -7z"/>
<path d="M4780 710 c-30 -4 4 -5 75 -2 72 2 132 6 134 8 7 6 -149 1 -209 -6z"/>
<path d="M2606 702 c2 -2 -1 -13 -6 -22 -15 -28 9 -42 40 -24 25 15 25 15 -10
8 -32 -6 -33 -5 -21 10 9 11 11 20 4 25 -5 5 -8 6 -7 3z"/>
<path d="M3165 689 c-17 -8 -16 -9 6 -4 19 3 29 0 33 -12 4 -9 9 -14 11 -11 9
8 -6 38 -19 37 -6 0 -20 -5 -31 -10z"/>
<path d="M4184 675 c-12 -8 -23 -12 -26 -10 -3 3 -5 -2 -5 -10 0 -13 2 -13 16
-1 9 8 28 19 41 25 14 5 18 10 10 10 -9 1 -25 -6 -36 -14z"/>
<path d="M3032 650 c-46 -16 -90 -26 -98 -23 -8 3 -14 -1 -14 -9 0 -15 -233
-251 -268 -272 -10 -6 -50 -35 -88 -63 -38 -29 -94 -66 -124 -83 -30 -17 -75
-43 -100 -59 -25 -15 -61 -32 -80 -39 l-35 -11 35 6 c35 5 111 39 120 53 3 4
28 19 55 33 28 14 83 49 123 79 40 29 88 63 105 76 17 13 88 78 157 146 128
125 129 126 270 175 30 11 48 20 40 20 -8 0 -52 -13 -98 -29z"/>
<path d="M2669 653 c-13 -16 -12 -17 3 -5 19 15 42 7 32 -10 -4 -6 1 -17 11
-25 18 -12 17 -15 -20 -53 -62 -63 -33 -47 34 20 46 45 69 60 91 61 45 2 48 3
62 18 11 12 10 13 -7 6 -11 -4 -36 -10 -55 -13 -19 -2 -46 -13 -61 -23 -24
-17 -52 -13 -48 7 7 36 -19 46 -42 17z"/>
<path d="M3831 651 c-6 -10 -11 -36 -12 -57 -2 -21 -8 -47 -13 -58 -8 -14 -8
-20 1 -23 8 -3 11 -14 7 -29 -4 -14 -2 -24 4 -24 19 0 21 16 8 41 -11 22 -10
29 11 59 13 19 31 38 41 42 16 6 16 7 0 7 -9 1 -24 -9 -32 -21 -16 -22 -16
-22 -16 8 0 48 18 63 80 67 l55 3 -62 2 c-52 2 -64 -1 -72 -17z"/>
<path d="M4074 600 c-34 -27 -65 -46 -68 -43 -3 4 -6 -1 -6 -10 0 -9 -9 -22
-20 -29 -11 -7 -20 -17 -20 -21 0 -9 58 38 140 111 61 56 48 52 -26 -8z"/>
<path d="M2606 594 c-15 -19 -22 -32 -15 -28 17 7 64 64 52 63 -4 0 -21 -16
-37 -35z"/>
<path d="M4048 614 c-16 -8 -28 -10 -28 -5 0 7 -9 6 -25 -1 -14 -6 -25 -18
-25 -25 0 -12 3 -11 16 1 20 21 41 21 24 1 -21 -25 3 -16 40 15 39 33 38 36
-2 14z"/>
<path d="M2410 602 c0 -19 28 -26 53 -13 20 11 20 11 -7 6 -19 -4 -32 -1 -37
7 -7 10 -9 10 -9 0z"/>
<path d="M2650 547 c-25 -33 -59 -77 -76 -96 -50 -59 -106 -141 -97 -141 5 0
30 28 56 63 82 109 91 121 130 170 21 26 37 51 35 56 -2 5 -23 -19 -48 -52z"/>
<path d="M2777 584 c-12 -14 -37 -44 -56 -65 -18 -21 -29 -39 -24 -39 9 0 35
29 91 100 11 14 23 22 26 19 3 -3 -26 -41 -65 -83 -39 -43 -68 -80 -65 -84 3
-3 7 -3 9 -1 2 2 33 38 70 80 37 42 67 81 67 88 0 20 -31 12 -53 -15z"/>
<path d="M2502 563 c-7 -2 -17 -14 -23 -26 -11 -21 -10 -20 15 2 14 14 26 26
26 28 0 3 0 3 -18 -4z"/>
<path d="M2493 473 c-68 -76 -89 -103 -80 -103 3 0 42 41 87 90 45 50 78 90
72 90 -5 0 -41 -35 -79 -77z"/>
<path d="M2588 541 c-1 -6 -36 -46 -76 -90 -40 -45 -69 -81 -64 -81 6 0 38 33
73 73 92 105 93 107 81 107 -6 0 -12 -4 -14 -9z"/>
<path d="M2641 495 c-1 -5 -30 -46 -65 -90 -35 -44 -62 -82 -59 -85 2 -3 12 5
21 16 88 110 113 146 109 157 -3 6 -6 8 -6 2z"/>
<path d="M2372 410 c-23 -22 -42 -46 -42 -55 0 -8 -12 -25 -27 -38 -57 -46
-121 -116 -128 -138 -4 -12 -20 -40 -36 -62 -37 -51 -36 -57 4 -57 41 0 77 10
77 21 0 5 -12 4 -26 -1 -14 -6 -37 -10 -50 -10 l-26 0 31 39 c17 21 31 47 31
57 0 9 36 52 80 95 44 43 80 83 80 90 0 7 18 30 40 52 53 52 47 57 -8 7z"/>
</g>
</svg>
