<?xml version="1.0" standalone="no"?>
<!DOCTYPE svg PUBLIC "-//W3C//DTD SVG 20010904//EN"
 "http://www.w3.org/TR/2001/REC-SVG-20010904/DTD/svg10.dtd">
<svg version="1.0" xmlns="http://www.w3.org/2000/svg"
 width="521.941133pt" height="204.032088pt" viewBox="0 0 521.941133 204.032088"
 preserveAspectRatio="xMidYMid meet">
<metadata>
Created by potrace 1.12, written by Peter Selinger 2001-2015
</metadata>
<g transform="translate(-4.058867,208.076374) scale(0.100000,-0.100000)"
fill="#000000" stroke="none">
<path d="M3050 2069 c0 -7 9 -27 21 -45 l21 -34 -21 -36 c-27 -45 -27 -58 -1
-44 11 6 17 17 14 25 -3 7 -1 21 4 31 8 14 11 13 24 -12 36 -69 54 -99 61
-102 4 -2 5 -8 2 -13 -4 -5 9 -30 27 -55 51 -71 59 -87 46 -95 -7 -5 0 -21 21
-47 17 -22 28 -43 23 -46 -10 -6 -52 21 -52 34 0 13 -36 64 -105 150 -33 41
-77 100 -98 130 -57 84 -65 93 -76 85 -7 -4 -2 -21 14 -50 19 -32 24 -50 19
-71 -6 -24 -5 -27 15 -21 18 4 28 -3 49 -34 15 -22 44 -61 65 -86 28 -34 35
-48 26 -54 -9 -5 -3 -16 21 -39 26 -24 31 -33 21 -43 -10 -9 -18 -5 -39 23
-103 132 -246 300 -258 300 -20 0 -18 -6 21 -57 27 -35 32 -49 25 -63 -15 -28
-12 -33 13 -26 26 6 47 -12 81 -69 10 -16 30 -42 44 -57 20 -21 23 -30 13 -41
-6 -8 -8 -27 -5 -46 4 -18 2 -31 -4 -31 -13 0 -23 26 -16 44 9 23 -196 253
-215 242 -15 -10 39 -87 103 -147 50 -47 50 -48 31 -63 -11 -9 -24 -16 -29
-16 -5 0 -33 25 -63 55 -81 83 -111 71 -34 -13 17 -18 31 -35 31 -38 0 -12
-29 -2 -45 16 -23 25 -55 29 -34 4 20 -24 0 -30 -109 -37 -53 -3 -103 -7 -110
-9 -7 -1 -25 13 -40 32 l-26 35 32 -29 c18 -17 32 -25 32 -20 0 16 -51 65 -61
59 -5 -4 -9 -2 -9 3 0 14 -61 72 -77 72 -8 0 -45 23 -81 50 -92 69 -171 120
-187 120 -8 0 -17 5 -20 10 -10 17 -72 11 -107 -10 -18 -11 -44 -36 -58 -55
-14 -19 -29 -35 -33 -35 -9 0 -53 -39 -95 -82 -15 -16 -32 -28 -39 -28 -6 0
-15 -10 -19 -22 -7 -23 -130 -148 -145 -148 -5 0 -9 -6 -9 -14 0 -7 -12 -26
-26 -41 -22 -24 -23 -30 -12 -41 8 -8 28 -18 45 -23 l32 -9 -2 38 c-2 25 1 36
9 33 7 -2 15 5 19 16 4 13 15 21 28 21 29 0 57 19 40 27 -22 8 -15 43 8 43 16
0 19 4 14 21 -6 17 -3 20 12 17 23 -4 53 20 46 38 -3 8 5 18 21 24 14 5 26 14
26 20 0 5 10 11 23 11 16 1 18 2 5 6 -10 2 -18 11 -18 18 0 9 6 12 18 8 25 -9
42 -24 37 -33 -5 -8 21 -30 100 -83 28 -19 55 -42 60 -53 6 -12 18 -18 33 -16
14 2 22 -2 22 -12 0 -8 14 -29 31 -46 32 -32 33 -57 1 -27 -39 38 -84 69 -178
125 -112 66 -133 75 -152 63 -15 -9 4 -23 103 -76 80 -42 102 -58 127 -90 27
-34 48 -79 48 -102 0 -13 -3 -13 -15 -3 -8 7 -15 21 -15 31 0 11 -4 19 -10 19
-5 0 -10 7 -10 15 0 8 -5 15 -11 15 -6 0 -25 11 -42 24 -46 34 -169 97 -176
90 -3 -3 8 -17 24 -31 29 -24 29 -24 5 -18 l-25 6 24 -21 c15 -13 33 -19 44
-16 22 5 77 -19 77 -34 0 -18 -50 -23 -63 -7 -13 16 -116 70 -154 82 -34 10
-28 -12 7 -30 17 -9 28 -20 25 -25 -4 -6 3 -10 15 -10 12 0 35 -8 53 -17 l32
-18 -31 -3 c-19 -2 -48 6 -70 17 -41 22 -64 27 -64 13 0 -15 36 -42 56 -42 17
-1 18 -1 2 -11 -10 -5 -15 -16 -12 -24 4 -8 1 -15 -6 -15 -15 0 -2 -41 18 -56
11 -8 12 -15 5 -29 -10 -17 -11 -16 -18 6 -4 13 -14 32 -23 42 -12 13 -13 20
-4 29 19 19 15 24 -46 56 -45 24 -59 27 -59 16 0 -8 13 -22 29 -30 36 -19 36
-28 -1 -21 -16 4 -31 2 -33 -4 -5 -15 -278 -68 -419 -81 -89 -8 -155 -9 -225
-2 -96 10 -104 13 -289 103 -104 51 -250 113 -323 138 -168 56 -361 113 -384
113 -20 0 -23 -17 -8 -55 8 -21 16 -25 42 -24 18 1 51 1 73 0 32 -2 36 -4 20
-11 -24 -10 -1 -11 35 -1 22 6 20 8 -23 19 -26 7 -52 10 -57 7 -5 -3 -11 -1
-14 3 -3 5 -16 7 -30 5 -18 -4 -26 0 -31 17 -4 12 -5 23 -3 25 1 1 37 -8 78
-21 41 -13 83 -24 93 -24 16 0 21 -10 18 -37 -1 -7 5 -13 13 -13 9 0 14 6 12
12 -1 7 -1 10 1 6 3 -5 12 -8 22 -8 10 0 17 -8 17 -20 0 -11 -7 -20 -15 -20
-8 0 -12 -3 -8 -6 8 -9 48 6 42 16 -3 5 -1 11 4 14 5 4 12 2 16 -4 4 -6 11 -8
16 -5 5 4 9 1 9 -5 0 -6 29 -25 65 -41 36 -17 65 -37 65 -44 0 -6 21 -23 48
-37 92 -49 257 -140 277 -154 27 -19 32 -18 39 11 7 27 36 35 36 10 0 -8 6
-15 14 -15 19 0 42 -30 38 -52 -2 -10 2 -18 8 -18 8 0 9 -10 5 -30 -8 -38 12
-41 21 -4 l7 27 18 -24 c10 -13 19 -33 18 -44 l0 -20 -15 20 c-14 19 -16 19
-25 2 -6 -9 -15 -15 -20 -11 -5 3 -17 0 -26 -8 -15 -12 -15 -11 -5 8 9 17 9
24 -3 34 -12 10 -15 9 -15 -9 0 -11 -4 -21 -9 -21 -11 0 -22 55 -15 75 5 11
-1 15 -19 15 l-25 0 19 -40 c23 -48 24 -54 2 -46 -9 4 -20 1 -25 -6 -6 -10
-10 -7 -14 10 -4 12 -13 22 -21 22 -13 0 -13 4 1 25 9 14 14 30 11 35 -6 9 8
14 28 11 4 0 7 3 7 8 0 14 -266 146 -395 196 -66 25 -146 57 -178 71 -32 14
-60 24 -63 21 -5 -5 137 -71 149 -69 4 1 7 -2 7 -8 0 -5 6 -7 14 -4 8 3 17 1
21 -5 4 -7 -5 -11 -22 -12 -24 0 -25 -1 -8 -9 11 -4 24 -4 29 1 13 11 49 12
42 1 -3 -5 14 -16 37 -26 23 -10 74 -32 112 -51 39 -18 101 -47 139 -64 38
-17 67 -34 63 -37 -3 -3 -15 0 -27 6 -12 6 -72 29 -133 51 -165 59 -182 65
-302 103 -60 19 -128 42 -150 50 -22 8 -46 15 -52 16 -23 0 -14 -28 20 -63 32
-35 33 -35 116 -34 51 0 85 -4 89 -10 8 -13 102 -45 275 -93 64 -18 115 -35
113 -38 -5 -4 -30 1 -244 55 -73 18 -142 33 -154 33 -12 0 -41 10 -66 21 -56
28 -72 16 -48 -35 9 -20 26 -40 36 -46 11 -6 20 -19 20 -29 0 -25 32 -51 61
-50 22 1 21 2 -8 15 -21 9 -31 19 -27 28 6 14 34 11 34 -3 0 -4 17 -8 37 -9
21 -1 50 -4 66 -8 16 -3 27 -1 27 5 0 6 5 11 11 11 5 0 7 -4 4 -10 -4 -6 12
-8 42 -5 34 3 41 2 23 -4 -27 -9 -20 -10 125 -30 53 -7 57 -9 36 -18 l-25 -10
28 -7 c15 -4 31 -4 36 -1 5 3 11 1 14 -3 6 -10 -134 -22 -245 -22 -58 0 -67
-2 -62 -16 5 -13 21 -15 117 -9 61 3 131 8 156 11 33 3 41 2 30 -5 -13 -9 -12
-11 3 -11 11 0 15 -4 11 -12 -5 -8 0 -9 17 -5 13 4 27 7 31 7 4 0 4 8 1 18 -6
15 -5 15 10 3 10 -8 22 -10 30 -5 6 5 39 9 72 9 52 0 60 -2 60 -19 0 -11 6
-21 14 -24 10 -3 12 2 7 21 -9 36 10 44 22 10 6 -16 11 -21 11 -12 1 9 8 22
16 29 9 7 13 21 10 31 -3 9 -1 20 5 24 13 8 13 55 0 55 -5 0 -10 15 -10 33 l0
32 25 -44 c29 -50 31 -67 10 -75 -9 -3 -15 -18 -15 -36 0 -16 -4 -30 -10 -30
-5 0 -10 -7 -10 -15 0 -8 7 -15 15 -15 8 0 15 6 15 14 0 8 5 18 10 21 19 11
69 14 75 4 4 -5 11 -7 16 -4 12 8 12 52 -1 60 -5 3 -10 15 -10 26 0 11 5 17
10 14 6 -3 10 -15 10 -26 0 -30 24 -17 31 17 l7 29 1 -27 c0 -15 8 -31 17 -36
13 -7 14 -13 6 -28 -10 -17 -11 -17 -12 -1 0 22 -26 22 -34 0 -8 -20 33 -56
49 -44 26 20 40 18 41 -5 1 -13 -2 -22 -6 -19 -5 3 -11 1 -15 -5 -3 -5 -1 -10
4 -10 6 0 14 0 19 -1 4 0 9 10 12 23 5 21 7 20 29 -16 13 -20 24 -48 24 -62 0
-13 3 -21 8 -18 5 3 9 16 9 30 0 13 5 24 10 24 6 0 10 13 10 30 0 21 4 28 14
24 7 -3 11 -14 9 -28 -3 -16 0 -23 12 -23 9 0 14 5 12 11 -2 6 -10 29 -17 51
-7 22 -24 63 -38 91 -28 60 -28 112 1 55 9 -19 17 -42 17 -52 0 -24 19 -34 26
-15 8 21 -25 106 -41 106 -8 0 -11 8 -8 20 l6 21 18 -20 c11 -11 19 -32 19
-46 0 -14 4 -25 9 -25 18 0 22 -52 6 -70 -11 -12 -14 -26 -10 -39 7 -24 16
-26 33 -9 10 10 15 10 22 -2 8 -13 11 -12 24 5 15 19 15 19 16 -7 0 -20 -4
-26 -15 -22 -11 5 -13 0 -5 -25 11 -41 19 -53 31 -46 5 4 5 13 0 24 -8 15 2
54 11 41 2 -3 8 -13 13 -24 6 -10 15 -17 20 -15 15 6 7 40 -13 55 -20 14 -11
29 13 20 8 -3 18 -19 21 -36 4 -16 10 -30 15 -30 15 0 19 19 9 46 -9 24 -9 25
5 14 20 -17 20 -70 0 -70 -17 0 -19 -18 -4 -40 8 -11 12 -12 16 -2 2 7 12 19
20 27 14 15 14 31 -3 87 -3 12 0 15 13 12 12 -3 19 -16 20 -36 3 -40 25 -88
40 -88 7 0 13 9 13 21 0 11 -4 18 -9 15 -5 -3 -11 8 -15 25 -8 43 -8 59 3 59
9 0 27 -38 24 -51 -1 -3 9 -18 23 -34 l24 -28 0 26 c0 14 5 29 10 32 6 3 10
-5 10 -19 0 -14 5 -28 10 -31 6 -3 10 4 10 17 0 13 7 36 15 52 8 15 15 41 15
57 0 15 5 31 10 34 6 3 10 22 10 41 0 19 5 34 10 34 13 0 13 -67 0 -75 -6 -4
-9 -19 -8 -35 1 -15 -3 -34 -9 -42 -19 -22 -21 -73 -3 -73 11 0 14 8 12 29 -2
16 3 33 12 40 8 6 16 20 18 31 5 28 22 21 26 -10 2 -14 9 -25 16 -25 15 0 9
-72 -7 -81 -5 -4 -7 -14 -4 -24 10 -25 27 -8 27 26 0 18 4 28 10 24 15 -9 12
28 -6 63 -8 18 -14 40 -11 50 3 12 7 9 17 -15 15 -40 30 -43 30 -5 0 42 16 60
24 27 4 -17 2 -35 -8 -50 -16 -24 -8 -85 10 -75 5 3 8 9 6 14 -6 18 8 57 18
51 12 -8 13 -68 1 -80 -13 -15 -21 -74 -11 -80 6 -3 10 3 10 14 0 12 5 21 10
21 6 0 10 10 11 23 l0 22 16 -22 c8 -13 19 -23 24 -23 14 0 11 37 -4 52 -20
20 -26 43 -16 59 6 10 10 5 15 -18 4 -18 10 -33 14 -33 4 0 12 -11 18 -24 9
-19 8 -27 -4 -36 -8 -8 -14 -30 -14 -56 0 -25 -5 -44 -11 -44 -15 0 -7 -53 9
-58 10 -3 13 4 11 24 -2 16 2 39 9 51 7 12 12 31 12 42 0 12 6 30 12 41 11 17
9 27 -11 64 -15 27 -22 50 -17 62 6 16 9 16 16 4 6 -8 10 -25 10 -37 0 -13 6
-23 14 -23 17 0 26 -32 15 -52 -4 -7 -4 -20 0 -27 12 -19 24 3 31 59 l6 45 13
-29 c10 -24 9 -32 -4 -46 -17 -19 -10 -50 11 -50 8 0 14 8 15 18 0 13 3 12 11
-5 6 -13 15 -23 20 -23 4 0 8 -11 8 -25 0 -16 6 -25 15 -25 19 0 20 39 1 46
-10 4 -13 15 -9 41 5 30 3 34 -13 31 -15 -2 -20 4 -22 28 -2 18 -12 40 -23 50
-10 9 -19 25 -19 36 0 10 -4 18 -10 18 -5 0 -10 -16 -10 -36 0 -24 -4 -34 -12
-31 -7 2 -12 16 -10 31 2 20 -2 26 -18 26 -16 0 -20 6 -20 30 0 20 5 30 15 30
9 0 15 -9 15 -21 0 -27 24 -19 28 9 4 24 22 20 22 -4 0 -9 7 -22 15 -30 8 -9
15 -26 15 -38 0 -13 7 -29 15 -36 8 -7 15 -19 15 -26 0 -8 9 -14 20 -14 15 0
20 7 20 25 0 14 5 25 10 25 6 0 10 -11 10 -24 0 -33 16 -42 24 -13 9 35 7 47
-9 47 -23 0 -30 48 -10 70 9 10 14 24 10 30 -4 6 -2 17 5 25 6 7 10 19 9 27
-4 32 2 59 12 53 6 -5 8 -26 4 -60 -6 -43 -4 -53 9 -58 18 -7 22 -62 6 -72 -5
-3 -10 -23 -10 -44 0 -20 -5 -42 -11 -48 -13 -13 -4 -63 11 -63 6 0 10 16 10
35 0 19 5 35 10 35 15 0 12 -56 -4 -69 -16 -14 -8 -62 12 -69 8 -2 12 10 12
37 0 23 5 41 11 41 7 0 9 12 5 34 -5 24 -2 37 9 46 19 16 19 74 0 90 -8 7 -15
22 -15 33 0 11 -8 26 -17 33 -16 12 -16 15 -3 24 11 7 16 5 18 -5 2 -8 10 -15
18 -15 9 0 14 -10 14 -27 0 -34 31 -102 48 -103 20 0 14 26 -18 87 -16 31 -30
68 -30 83 0 16 -7 30 -15 34 -10 3 -15 19 -15 43 0 45 12 34 29 -27 7 -24 22
-55 32 -69 10 -13 19 -38 19 -56 0 -20 6 -35 15 -39 9 -3 15 -18 15 -34 0 -16
7 -35 15 -42 17 -14 20 -41 5 -56 -14 -14 -1 -74 16 -74 11 0 13 9 8 39 -4 24
-2 41 5 45 16 10 14 41 -4 56 -8 7 -15 25 -15 41 0 16 -4 29 -10 29 -13 0 -26
28 -34 75 l-7 40 20 -25 c12 -14 21 -35 21 -47 0 -12 5 -25 10 -28 14 -9 12
43 -4 90 -8 21 -19 41 -25 43 -6 2 -11 13 -11 25 -1 12 -7 33 -15 47 -17 29
-19 60 -5 60 6 0 10 -11 10 -24 0 -13 7 -29 15 -36 8 -7 15 -23 15 -37 0 -13
7 -26 15 -29 8 -4 15 -14 15 -23 0 -10 7 -26 15 -37 8 -10 15 -29 15 -41 0
-12 5 -25 10 -28 15 -10 50 -81 50 -104 0 -11 11 -28 24 -39 13 -10 24 -27 23
-37 -1 -10 4 -20 11 -22 20 -7 14 14 -23 91 -35 73 -44 116 -25 116 6 0 10 14
10 31 0 20 -4 29 -12 26 -7 -2 -12 -16 -11 -31 1 -17 -3 -26 -13 -26 -8 0 -14
10 -14 24 0 13 -7 29 -15 36 -9 7 -13 21 -9 35 4 17 0 24 -15 28 -15 4 -21 13
-21 34 0 15 -7 37 -15 47 -17 23 -20 46 -5 46 6 0 13 -13 17 -30 3 -16 12 -30
19 -30 8 0 14 -10 14 -23 0 -28 27 -87 40 -87 5 0 13 12 18 28 l9 27 8 -35 c4
-19 12 -38 18 -41 5 -4 10 -18 10 -33 0 -19 5 -26 19 -26 17 0 19 5 13 30 -5
23 -3 30 9 30 10 0 16 -9 16 -25 0 -15 6 -25 14 -25 17 0 10 38 -11 58 -7 7
-13 18 -13 23 0 16 32 23 40 8 7 -11 10 -10 16 4 3 9 12 17 19 17 14 0 12 -44
-3 -63 -5 -7 -10 -27 -10 -45 -1 -43 22 -37 26 6 2 18 7 32 12 32 5 0 8 16 6
35 -2 30 0 34 16 29 10 -3 18 -1 18 4 0 5 10 8 23 7 17 -1 23 -9 25 -33 4 -37
35 -46 32 -9 -3 38 -1 47 15 47 21 0 19 26 -5 50 -24 24 -26 56 -5 64 8 3 15
16 15 29 0 14 -7 30 -15 37 -8 7 -15 19 -15 26 0 8 7 14 15 14 9 0 15 -9 15
-21 0 -12 5 -19 13 -16 6 2 11 14 10 26 -2 11 2 21 7 21 6 0 10 -11 10 -25 0
-16 6 -25 15 -25 9 0 15 9 15 25 0 14 4 25 9 25 16 0 18 -34 5 -50 -13 -15 -9
-60 5 -60 4 0 13 17 20 38 16 45 30 64 42 56 19 -12 49 8 49 32 0 13 5 24 11
24 7 0 8 11 4 30 l-7 31 67 -5 c71 -5 125 -24 125 -43 0 -22 -21 -25 -27 -4
-9 34 -30 24 -38 -16 -4 -21 -10 -42 -14 -48 -12 -17 -11 -55 3 -55 6 0 18 16
25 35 7 19 17 35 22 35 12 0 12 -5 -7 -48 -9 -20 -16 -47 -15 -59 0 -13 -4
-23 -9 -23 -6 0 -10 -11 -10 -25 0 -16 -6 -25 -15 -25 -8 0 -15 9 -15 20 0 11
-4 20 -9 20 -5 0 -13 -9 -16 -20 -3 -11 -13 -20 -21 -20 -8 0 -14 9 -14 20 0
13 -7 20 -19 20 -14 0 -18 -5 -14 -20 3 -11 0 -20 -6 -20 -6 0 -13 11 -17 25
-3 14 -10 25 -15 25 -5 0 -9 -11 -9 -25 0 -14 -5 -25 -11 -25 -8 0 -10 15 -5
47 8 58 22 76 32 39 7 -28 24 -36 24 -11 0 9 7 27 16 40 15 23 12 45 -5 45 -5
0 -12 -10 -15 -22 -6 -23 -6 -23 -22 -3 -15 20 -15 20 -30 1 -8 -11 -14 -32
-14 -47 0 -15 -4 -31 -10 -34 -14 -9 -12 -52 3 -59 6 -3 0 -3 -15 0 -20 4 -28
2 -28 -7 -1 -10 -5 -9 -14 4 -20 26 -36 20 -36 -14 0 -29 1 -30 33 -24 32 7
32 7 14 -13 -21 -23 -15 -62 10 -62 11 0 14 6 9 25 -5 18 -2 27 9 31 8 4 15
12 15 20 0 16 16 19 25 5 3 -5 -1 -15 -8 -23 -20 -19 -36 -95 -28 -126 11 -40
27 -27 23 18 -4 43 3 50 24 23 11 -15 13 -16 14 -3 0 9 -5 21 -12 28 -9 9 -8
21 2 52 14 44 29 51 37 20 7 -26 21 -26 25 2 4 30 26 34 36 7 7 -18 10 -19 15
-6 5 13 19 15 79 13 88 -4 128 2 128 20 0 17 -40 29 -50 15 -5 -9 -10 -9 -17
1 -8 9 -7 24 2 53 8 21 12 41 10 43 -8 9 -25 -10 -25 -29 0 -11 -7 -22 -15
-25 -11 -5 -13 -10 -5 -19 12 -14 -3 -31 -18 -21 -13 8 -8 36 11 75 9 19 17
42 17 52 0 10 5 21 10 24 6 3 10 17 10 30 0 13 5 36 10 51 8 21 14 24 22 16 9
-9 9 -15 0 -24 -7 -7 -12 -25 -12 -40 0 -22 5 -28 21 -28 17 0 20 5 15 28 -6
27 17 72 30 59 4 -4 1 -13 -6 -21 -6 -9 -10 -21 -7 -28 2 -7 -4 -35 -14 -63
-23 -61 -24 -75 -3 -75 12 0 15 7 12 25 -3 14 -1 28 5 32 6 4 7 1 2 -7 -5 -9
-4 -11 3 -6 7 4 12 16 12 27 0 10 5 19 11 19 7 0 9 12 5 35 -4 19 -3 35 2 35
16 0 23 -61 10 -78 -10 -12 -10 -16 0 -19 18 -7 15 -21 -5 -25 -12 -2 -18 -14
-19 -36 -2 -37 12 -43 25 -9 5 12 18 46 30 76 20 52 20 56 4 80 l-16 26 21
-19 c24 -21 29 -55 10 -74 -9 -9 -8 -12 8 -12 35 0 47 15 39 49 -9 41 -1 39
19 -4 23 -47 40 -46 33 3 -5 32 -4 34 6 17 7 -11 12 -44 12 -74 0 -38 4 -56
14 -59 11 -4 13 2 8 27 -4 17 -2 31 3 31 5 0 10 12 12 28 l4 27 12 -27 c14
-34 29 -36 35 -5 4 22 4 22 14 -3 8 -19 7 -29 -4 -42 -8 -9 -12 -21 -9 -27 4
-5 2 -12 -4 -16 -5 -3 -12 6 -16 20 -6 26 -18 32 -29 15 -3 -5 1 -20 9 -32 18
-25 22 -73 6 -63 -5 3 -10 17 -10 31 0 13 -5 24 -11 24 -6 0 -9 -12 -7 -27 3
-27 1 -28 -42 -28 -35 0 -45 -4 -45 -17 0 -9 -4 -20 -8 -24 -4 -4 -7 -20 -7
-35 0 -15 -5 -31 -10 -34 -6 -3 -7 -17 -4 -31 4 -14 2 -24 -5 -24 -6 0 -12 7
-12 15 -1 8 -2 20 -3 27 0 6 -7 13 -13 16 -9 2 -13 -7 -13 -27 0 -19 -6 -34
-15 -37 -11 -5 -12 -10 -4 -26 13 -25 5 -35 -14 -17 -13 14 -20 82 -7 74 13
-8 37 62 28 84 -11 32 -25 18 -32 -34 -4 -24 -11 -47 -17 -50 -5 -4 -9 -21 -9
-40 0 -25 7 -39 27 -55 26 -20 28 -20 40 -4 7 10 13 28 13 41 0 13 5 23 10 23
6 0 10 -11 10 -25 0 -26 44 -98 54 -88 3 4 6 15 6 25 0 11 4 17 9 13 6 -3 13
11 17 32 6 35 23 104 40 161 9 30 34 28 34 -3 0 -33 18 -32 22 0 2 14 8 26 13
26 15 0 19 -43 4 -51 -7 -5 -9 -15 -5 -26 7 -18 8 -18 20 -1 19 25 26 21 26
-13 0 -30 -13 -40 -25 -19 -5 7 -14 3 -27 -10 -10 -12 -16 -26 -12 -33 5 -7
11 -6 20 7 12 16 14 14 21 -16 5 -18 15 -35 21 -37 9 -3 11 3 7 20 -4 16 -1
29 9 37 18 15 10 82 -11 94 -16 10 -17 43 -2 52 6 4 13 -2 16 -14 6 -25 18
-27 27 -5 4 11 10 13 19 7 10 -8 57 -10 77 -3 3 1 23 1 45 0 22 0 49 6 60 14
25 18 14 32 -13 15 -16 -10 -26 -10 -46 -1 -15 6 -28 7 -31 2 -7 -12 -37 -1
-52 19 -10 14 -13 14 -28 -4 -15 -19 -16 -17 -9 35 3 30 7 57 8 60 0 3 -4 6
-9 7 -6 2 -10 -5 -10 -15 0 -27 -26 -92 -36 -92 -11 0 -12 33 0 46 14 15 22
62 12 69 -5 3 -13 -5 -17 -17 -3 -13 -12 -29 -18 -37 -6 -8 -11 -23 -11 -34 0
-11 -6 -22 -12 -24 -8 -3 -13 5 -13 21 0 14 5 26 10 26 6 0 10 11 10 25 0 16
6 25 15 25 8 0 15 5 15 10 0 6 -5 10 -11 10 -8 0 -9 4 0 13 6 8 8 17 4 20 -3
4 -1 7 5 7 7 0 12 -4 12 -10 0 -5 7 -10 15 -10 8 0 15 5 15 10 0 18 18 10 23
-10 7 -29 20 -25 36 12 8 18 16 27 19 20 2 -6 -3 -24 -10 -40 -14 -26 -13 -29
9 -39 29 -14 41 4 23 36 -9 17 -8 21 5 21 9 0 13 -5 10 -10 -12 -19 20 -35 69
-36 27 0 44 2 38 4 -6 2 -9 9 -6 17 6 15 72 13 83 -2 3 -5 29 -17 56 -27 28
-10 73 -31 100 -46 49 -28 147 -67 193 -77 12 -3 22 -8 22 -12 0 -4 23 -13 50
-20 28 -7 50 -16 50 -20 0 -15 -13 -21 -26 -11 -14 12 -73 -12 -111 -44 -30
-26 -29 -36 5 -36 17 0 22 3 15 8 -9 6 -4 13 16 25 l29 17 -19 -37 c-32 -63
-20 -128 27 -154 15 -7 21 -16 15 -22 -5 -5 -19 -2 -34 8 -24 16 -25 15 -23
-9 1 -18 9 -29 29 -35 16 -6 27 -6 27 -1 0 5 7 6 17 3 9 -4 14 -2 10 3 -3 6
15 11 44 12 38 2 49 -1 49 -13 0 -8 3 -15 8 -15 11 0 38 20 28 20 -6 0 0 9 12
20 12 12 22 25 22 30 0 5 7 7 15 4 8 -3 24 1 37 10 28 20 64 20 100 2 30 -16
74 -18 59 -3 -5 5 -20 15 -33 21 -12 6 -25 20 -27 31 -3 17 -1 18 13 6 9 -7
16 -11 16 -7 0 4 18 -3 40 -14 25 -13 38 -25 34 -32 -5 -7 -3 -8 5 -4 12 8 51
-19 51 -35 0 -4 -26 -22 -57 -39 -32 -18 -71 -43 -86 -56 -16 -13 -33 -24 -38
-24 -6 0 -32 -18 -58 -40 -48 -40 -68 -51 -55 -27 6 9 4 9 -7 -1 -16 -14 -69
-16 -69 -2 0 6 12 10 28 11 24 0 25 1 7 9 -19 9 -19 9 3 16 12 3 22 13 22 21
0 10 8 12 34 7 26 -4 45 0 75 17 48 27 59 56 12 33 -35 -17 -82 -26 -134 -24
-34 1 -39 -2 -53 -36 -14 -33 -14 -40 1 -70 11 -23 23 -34 37 -34 22 0 147 65
161 84 5 7 6 3 3 -8 -5 -14 -2 -17 10 -12 9 4 55 13 103 22 47 8 91 16 96 18
24 4 35 19 35 48 l0 31 -47 -7 -46 -6 34 23 c19 12 35 31 37 40 5 27 -48 70
-150 123 -51 26 -109 57 -128 69 -80 49 -194 106 -340 169 -85 37 -164 72
-175 76 -11 5 -74 27 -140 49 -108 35 -148 46 -280 80 -22 5 -78 15 -125 21
-136 17 -344 51 -350 57 -3 2 -5 25 -5 49 0 24 -2 39 -3 34 -2 -6 -8 -8 -13
-4 -5 3 -9 0 -9 -6 0 -6 -4 -8 -10 -5 -12 8 -12 7 -1 -32 7 -25 6 -33 -7 -38
-8 -3 -19 -2 -22 2 -8 9 -164 367 -174 400 -8 26 -32 47 -40 35 -3 -5 0 -24 7
-41 10 -28 10 -34 -6 -42 -21 -12 -22 -29 -1 -29 9 0 12 5 8 12 -4 7 -3 8 4 4
7 -4 23 -30 36 -59 20 -42 21 -48 5 -28 -10 13 -19 20 -19 16 0 -8 52 -98 61
-105 15 -12 29 -51 29 -80 0 -17 5 -40 10 -50 7 -13 7 -21 -1 -26 -13 -8 -40
23 -64 73 -9 18 -51 86 -95 153 -44 66 -80 123 -80 126 0 3 -19 35 -42 70 -39
58 -68 81 -68 53z m-875 -237 c94 -59 285 -247 285 -281 0 -21 -16 -10 -70 45
-30 31 -94 89 -141 130 -70 59 -92 73 -117 71 -16 -1 -28 -6 -25 -12 2 -5 37
-32 78 -58 41 -27 92 -70 115 -95 22 -26 52 -59 67 -74 50 -50 15 -40 -49 14
-35 29 -100 81 -145 116 -45 34 -85 67 -88 72 -3 6 -12 10 -18 10 -7 0 -4 -7
6 -14 13 -10 15 -15 5 -19 -7 -2 -11 -6 -8 -8 3 -2 28 -22 55 -45 28 -22 74
-57 103 -78 28 -21 52 -40 52 -42 0 -5 -48 24 -72 44 -9 8 -23 12 -29 10 -15
-5 95 -90 114 -87 26 3 37 -2 37 -16 0 -8 4 -15 9 -15 5 0 7 -9 4 -20 -4 -17
-8 -18 -20 -8 -11 9 -16 9 -23 -1 -4 -8 -13 -10 -20 -6 -9 6 -9 10 1 17 11 7
4 18 -31 50 -43 39 -223 163 -265 182 -18 8 -18 9 -2 13 9 3 15 8 12 13 -3 4
11 25 30 46 19 21 35 43 35 50 0 6 11 10 28 8 15 -2 19 -1 9 2 -25 8 -11 23
16 16 12 -3 40 -17 62 -30z m2005 -418 c0 -10 -10 -13 -32 -10 -36 4 -49 22
-21 28 27 6 53 -3 53 -18z m-3180 -211 c0 -7 -4 -13 -10 -13 -5 0 -10 3 -10 8
0 4 -3 18 -6 32 -6 24 -6 25 9 5 9 -11 17 -26 17 -32z m910 -32 c0 -16 -7 -36
-15 -44 -10 -10 -13 -25 -9 -45 6 -31 -10 -53 -20 -27 -7 18 24 145 35 145 5
0 9 -13 9 -29z m2898 -30 c52 -26 75 -78 59 -127 -7 -21 -55 -50 -65 -39 -3 3
0 5 6 5 7 0 12 5 12 10 0 15 -27 12 -44 -5 -15 -16 -61 -21 -52 -6 3 4 -3 16
-14 26 -29 26 -24 115 6 115 7 0 16 5 20 12 5 8 0 9 -17 5 -23 -6 -23 -5 -5 8
26 20 49 19 94 -4z m-3090 -19 c4 -25 -13 -30 -22 -6 -9 25 -7 36 7 32 6 -3
13 -14 15 -26z"/>
<path d="M2128 1638 c12 -12 25 -19 28 -15 4 4 -1 14 -12 22 -29 22 -41 18
-16 -7z"/>
<path d="M4733 1110 c-28 -11 -40 -54 -22 -76 23 -28 57 -35 90 -19 35 18 42
65 10 65 -12 0 -18 7 -17 17 1 21 -28 27 -61 13z"/>
<path d="M3182 1922 c7 -9 16 -19 19 -22 3 -3 11 -15 18 -27 6 -13 16 -23 22
-23 6 0 1 13 -10 29 -12 16 -21 33 -21 39 0 5 -9 12 -21 15 -18 5 -18 3 -7
-11z"/>
<path d="M3470 1830 c0 -17 -5 -19 -25 -14 -19 5 -25 2 -25 -9 0 -19 22 -35
28 -19 6 18 32 2 32 -20 0 -10 4 -17 8 -14 4 2 6 -12 4 -32 -2 -27 -1 -33 7
-23 7 11 13 12 23 4 9 -8 5 15 -11 68 -24 76 -41 101 -41 59z"/>
<path d="M3342 1690 c13 -20 28 -27 28 -12 0 10 -22 32 -32 32 -5 0 -3 -9 4
-20z"/>
<path d="M2880 1684 c0 -9 5 -14 12 -12 18 6 21 28 4 28 -9 0 -16 -7 -16 -16z"/>
<path d="M3016 1682 c-3 -6 -1 -14 5 -17 15 -10 25 3 12 16 -7 7 -13 7 -17 1z"/>
<path d="M86 1552 c-3 -5 1 -26 9 -47 10 -31 20 -41 45 -48 18 -4 34 -6 37 -4
2 3 -10 8 -27 12 -21 5 -30 12 -28 23 1 10 -1 23 -5 30 -5 8 -3 12 7 12 9 0
16 -7 16 -16 0 -9 5 -14 12 -12 24 8 18 26 -13 42 -36 18 -46 19 -53 8z"/>
<path d="M3330 1545 c0 -8 -5 -24 -12 -34 -12 -20 -5 -51 12 -51 5 0 10 9 10
20 0 11 7 20 15 20 18 0 18 1 5 34 -10 28 -30 35 -30 11z"/>
<path d="M2014 1535 c11 -8 25 -15 32 -15 7 0 14 -6 17 -12 2 -7 8 -10 12 -6
11 10 -36 47 -60 47 -20 0 -20 0 -1 -14z"/>
<path d="M3385 1540 c-3 -5 -4 -14 0 -19 3 -5 1 -12 -5 -16 -5 -3 -10 -15 -10
-25 0 -10 -7 -26 -16 -35 -9 -9 -14 -25 -11 -35 3 -11 1 -23 -4 -26 -15 -9
-10 -44 6 -44 9 0 15 9 15 25 0 14 5 25 10 25 6 0 10 -12 10 -26 0 -16 5 -24
13 -22 21 8 20 45 -3 61 -19 13 -20 47 -1 47 12 0 32 66 25 84 -7 18 -20 21
-29 6z"/>
<path d="M185 1510 c3 -5 13 -10 21 -10 8 0 12 5 9 10 -3 6 -13 10 -21 10 -8
0 -12 -4 -9 -10z"/>
<path d="M3510 1415 c0 -8 5 -15 10 -15 6 0 10 7 10 15 0 8 -4 15 -10 15 -5 0
-10 -7 -10 -15z"/>
<path d="M3110 1390 c0 -21 4 -30 13 -27 6 2 12 14 12 27 0 13 -6 25 -12 28
-9 2 -13 -7 -13 -28z"/>
<path d="M3721 1389 c-14 -40 -14 -59 -1 -59 6 0 10 7 10 15 0 8 7 15 16 15
11 0 14 5 10 16 -3 9 -6 22 -6 30 0 25 -18 15 -29 -17z"/>
<path d="M3669 1397 c-19 -14 -23 -77 -5 -77 13 0 38 78 27 84 -3 2 -13 -1
-22 -7z"/>
<path d="M4224 1389 c-11 -19 11 -30 37 -20 17 7 19 10 7 10 -10 1 -18 6 -18
11 0 13 -17 13 -26 -1z"/>
<path d="M4116 1328 c-7 -46 6 -70 26 -50 9 9 9 12 0 12 -7 0 -12 5 -12 10 0
6 7 10 15 10 8 0 15 5 15 10 0 6 -4 10 -10 10 -5 0 -10 9 -10 20 0 36 -17 21
-24 -22z"/>
<path d="M3090 1324 c0 -14 5 -24 11 -22 6 2 10 7 10 11 -1 4 -1 14 -1 22 0 8
-4 15 -10 15 -5 0 -10 -12 -10 -26z"/>
<path d="M4045 1330 c2 -14 5 -31 5 -37 0 -7 7 -13 15 -13 8 0 15 4 15 9 0 5
3 16 6 25 4 11 0 16 -14 16 -11 0 -23 6 -26 13 -4 6 -4 1 -1 -13z"/>
<path d="M3142 1324 c4 -21 22 -23 26 -1 2 10 -3 17 -13 17 -10 0 -15 -6 -13
-16z"/>
<path d="M3756 1324 c-9 -22 -8 -24 9 -24 8 0 15 6 15 14 0 22 -17 28 -24 10z"/>
<path d="M4175 1330 c-7 -12 2 -30 16 -30 5 0 9 9 9 20 0 21 -15 27 -25 10z"/>
<path d="M4220 1315 c0 -8 -4 -15 -10 -15 -5 0 -10 -7 -10 -15 0 -21 30 -19
31 3 0 10 3 12 6 5 6 -16 59 -17 69 -2 11 19 -13 34 -32 18 -14 -11 -18 -11
-29 4 -15 21 -25 22 -25 2z"/>
<path d="M3582 1280 c3 -22 0 -30 -10 -30 -9 0 -13 -7 -9 -19 3 -12 -1 -22 -9
-25 -8 -3 -14 -16 -14 -28 -1 -21 -2 -22 -14 -5 -14 19 -36 23 -36 7 0 -5 -4
-10 -10 -10 -5 0 -10 7 -10 15 0 8 -4 15 -10 15 -5 0 -10 -4 -10 -10 0 -6 -3
-9 -7 -8 -10 4 -13 -5 -13 -37 0 -31 18 -33 29 -3 7 20 8 20 19 -10 13 -39 32
-42 32 -4 0 21 2 24 10 12 13 -20 13 -60 -1 -60 -5 0 -7 -5 -3 -12 10 -15 34
19 34 48 0 13 5 26 10 29 6 3 10 16 10 29 0 13 7 37 15 54 14 27 21 31 54 30
33 0 38 -3 34 -19 -3 -11 0 -19 6 -19 6 0 11 6 11 14 0 8 5 16 12 18 21 7 0
38 -26 38 -13 0 -27 6 -29 13 -4 9 -7 9 -14 0 -6 -8 -14 -9 -23 -3 -25 16 -32
11 -28 -20z"/>
<path d="M4311 1277 c-10 -18 -19 -22 -44 -19 -56 6 -142 -34 -220 -104 -73
-65 -91 -76 -81 -49 4 8 1 15 -5 15 -23 0 -5 -93 28 -144 17 -28 31 -56 31
-63 0 -14 138 -184 184 -227 89 -82 172 -112 268 -98 l53 8 -75 6 c-110 10
-184 53 -280 164 l-25 29 30 -25 c16 -14 35 -31 43 -38 40 -37 137 -94 167
-99 42 -7 48 12 6 20 -29 6 -231 160 -231 176 0 5 -27 37 -61 72 -33 34 -65
72 -70 83 -9 20 -9 20 4 3 12 -14 27 -17 71 -15 32 2 58 -1 60 -7 2 -5 5 -4 5
3 1 7 6 10 11 7 6 -3 10 -1 10 4 0 6 -5 11 -11 11 -6 0 -17 6 -24 13 -8 6 -22
18 -30 26 -9 7 -13 16 -9 20 4 3 9 0 11 -6 3 -7 13 -13 24 -13 13 0 19 7 19
23 0 13 5 28 11 34 29 29 -40 54 -69 26 -11 -10 -35 -31 -55 -48 -20 -16 -37
-36 -37 -43 0 -8 -6 -12 -12 -9 -24 7 -13 24 54 82 36 31 64 63 62 70 -3 7 2
15 10 18 9 4 16 2 16 -3 0 -6 5 -10 11 -10 6 0 8 7 5 15 -9 25 23 30 46 7 25
-25 17 -41 -17 -34 -15 2 -25 0 -25 -7 0 -7 5 -9 10 -6 6 3 10 1 10 -5 0 -6 5
-8 10 -5 6 3 11 -1 11 -9 3 -32 4 -36 14 -34 14 3 85 90 85 105 0 6 5 15 11
19 8 4 9 -3 4 -27 -5 -19 -9 -46 -10 -60 -1 -15 -8 -41 -15 -58 -7 -17 -10
-34 -6 -38 3 -3 6 -1 6 5 0 7 4 12 9 12 4 0 6 -11 4 -24 -3 -14 2 -35 11 -48
21 -30 22 -72 1 -64 -21 8 -19 -10 3 -32 18 -18 18 -13 18 151 -1 206 -6 199
125 191 54 -4 89 -2 89 4 0 18 -130 55 -171 48 -32 -5 -37 -3 -33 9 10 25 -31
18 -45 -8z"/>
<path d="M3098 1206 c-3 -16 2 -30 14 -40 10 -9 18 -22 18 -29 0 -8 10 -22 21
-33 l21 -19 -7 35 c-4 19 -12 40 -19 45 -7 6 -16 22 -20 38 -8 33 -22 35 -28
3z"/>
<path d="M2987 1213 c-4 -3 -7 -17 -7 -29 0 -13 -4 -26 -10 -29 -5 -3 -10 -22
-10 -41 0 -19 -4 -34 -10 -34 -5 0 -10 -11 -10 -25 0 -37 37 -35 38 3 1 42 13
102 21 102 4 0 12 -13 18 -30 6 -16 16 -30 22 -30 19 0 12 49 -9 62 -11 7 -20
23 -20 35 0 23 -10 30 -23 16z"/>
<path d="M3269 1215 c-3 -3 -4 -19 -1 -35 5 -36 28 -35 24 1 -3 25 -15 43 -23
34z"/>
<path d="M4574 1193 c2 -16 5 -31 5 -35 1 -11 51 33 51 45 0 5 -7 7 -15 4 -8
-4 -17 -2 -20 3 -12 20 -26 9 -21 -17z"/>
<path d="M3964 1193 c2 -10 7 -28 11 -40 3 -13 11 -23 17 -23 6 0 8 10 4 23
-3 12 -6 30 -6 40 0 9 -7 17 -16 17 -10 0 -14 -6 -10 -17z"/>
<path d="M3320 1172 c0 -15 -5 -33 -12 -40 -7 -7 -9 -12 -4 -12 4 0 14 6 22
14 16 17 19 66 4 66 -5 0 -10 -13 -10 -28z"/>
<path d="M3360 1195 c0 -15 43 -95 51 -95 9 0 4 34 -12 78 -7 18 -39 33 -39
17z"/>
<path d="M3820 1171 c0 -16 -4 -33 -10 -36 -5 -3 -10 -19 -10 -36 0 -16 -4
-29 -10 -29 -5 0 -10 -16 -10 -36 0 -19 -4 -33 -8 -30 -5 3 -9 -1 -9 -9 0 -13
4 -12 19 2 10 9 18 24 18 34 0 10 6 22 14 26 24 14 40 133 19 140 -9 3 -13 -6
-13 -26z"/>
<path d="M932 1174 c1 -9 9 -19 16 -22 9 -3 13 2 10 14 -1 9 -9 19 -16 22 -9
3 -13 -2 -10 -14z"/>
<path d="M4450 1158 c0 -7 -3 -24 -7 -38 -6 -22 -5 -24 10 -11 18 15 23 61 7
61 -5 0 -10 -6 -10 -12z"/>
<path d="M3075 1130 c3 -20 -1 -33 -10 -36 -8 -3 -13 -18 -13 -35 1 -34 -9
-49 -17 -25 -3 9 -7 23 -10 31 -8 26 -25 16 -25 -15 0 -16 -5 -30 -11 -30 -8
0 -10 -12 -6 -34 4 -22 1 -36 -6 -39 -9 -3 -9 -8 1 -18 10 -11 12 -10 12 4 0
9 5 17 10 17 6 0 10 16 10 36 0 31 2 35 15 24 8 -7 15 -25 15 -40 0 -15 7 -33
15 -40 21 -17 29 -7 16 18 -14 27 -14 59 0 68 15 9 29 -14 29 -48 0 -14 5 -28
11 -30 11 -4 12 -19 7 -102 -2 -24 2 -41 10 -43 8 -3 12 7 12 31 0 20 5 36 10
36 17 0 11 43 -10 75 -23 35 -26 80 -6 92 15 9 5 53 -12 53 -5 0 -9 6 -10 13
-1 6 -3 23 -4 37 -2 14 -10 26 -20 28 -13 3 -16 -3 -13 -28z m32 -91 l2 -44
-14 30 c-18 38 -19 68 -2 63 7 -3 13 -24 14 -49z"/>
<path d="M4390 1152 c0 -10 22 -32 32 -32 12 0 -2 28 -18 34 -8 3 -14 2 -14
-2z"/>
<path d="M370 1101 c0 -22 -6 -44 -15 -51 -8 -7 -15 -17 -15 -22 0 -6 -12 -24
-26 -41 -18 -22 -25 -39 -22 -59 3 -17 0 -28 -8 -28 -6 0 -17 -13 -24 -30 -7
-16 -18 -35 -26 -41 -8 -6 -14 -20 -14 -31 0 -11 -11 -33 -25 -50 -23 -27 -31
-56 -27 -102 2 -12 -3 -16 -13 -12 -10 3 -17 -3 -21 -21 -4 -14 -15 -34 -25
-44 -11 -11 -19 -28 -19 -40 0 -18 4 -20 33 -14 50 10 161 47 175 58 7 5 24
11 38 13 26 3 131 41 149 55 6 4 46 21 90 39 103 41 354 163 355 173 0 4 -6 7
-14 7 -25 0 -59 36 -76 79 -9 23 -20 42 -24 41 -5 -1 -13 4 -17 12 -7 10 -9
10 -9 1 0 -7 -10 -13 -21 -13 -12 0 -96 -25 -186 -55 -91 -30 -171 -55 -179
-55 -17 0 -18 -17 -1 -23 6 -3 1 -6 -13 -7 -14 -1 -19 -4 -13 -7 16 -6 219 60
407 133 16 6 18 4 13 -10 -4 -10 -1 -19 8 -23 12 -4 13 -9 5 -18 -7 -9 -8 -15
-1 -19 14 -9 2 -36 -15 -36 -14 0 -222 -99 -294 -139 -19 -11 -56 -29 -82 -41
-50 -21 -67 -37 -23 -20 20 8 25 6 25 -5 0 -9 -10 -19 -23 -24 -13 -5 -29 -16
-36 -25 -14 -16 -36 -12 -26 5 4 5 -1 9 -10 9 -9 0 -14 -4 -10 -9 7 -12 -32
-34 -44 -26 -11 6 -42 -5 -37 -14 2 -3 -11 -7 -30 -8 -23 -1 -34 3 -34 12 0 7
-5 15 -12 17 -6 2 -8 10 -4 16 9 15 36 16 36 2 0 -5 4 -10 9 -10 13 0 7 30 -8
39 -9 6 1 15 31 29 23 11 82 38 130 61 48 23 90 41 93 41 2 0 51 22 107 49 57
26 127 58 156 71 55 24 75 56 25 40 -96 -29 -215 -77 -215 -85 1 -13 -19 -23
-96 -52 -36 -12 -75 -34 -88 -48 -15 -16 -29 -23 -41 -19 -13 4 -15 3 -5 -4
11 -7 9 -10 -7 -15 -12 -3 -26 1 -33 10 -10 13 -8 18 10 33 28 23 28 28 -3 22
-15 -2 -25 0 -25 7 0 6 12 11 28 11 15 0 38 9 52 20 l25 20 -30 -9 c-16 -5
-39 -12 -50 -17 -18 -7 -18 -6 -6 9 7 9 20 17 28 17 8 0 11 5 7 11 -4 8 0 9
15 4 20 -6 26 2 22 28 -1 9 76 46 96 47 8 0 10 -7 6 -17 -6 -16 -5 -16 11 -4
28 23 3 36 -42 23 -22 -7 -50 -12 -63 -11 -19 1 -17 3 10 11 26 7 31 12 20 19
-11 7 -11 9 0 9 7 0 11 6 8 13 -8 22 12 57 38 67 14 5 25 17 25 25 0 26 31 65
51 65 11 0 19 5 19 10 0 6 -28 10 -65 10 l-65 0 0 -39z m70 15 c0 -7 -10 -16
-22 -20 -19 -5 -21 -8 -8 -16 12 -8 11 -10 -8 -10 -20 0 -22 4 -16 23 11 34
54 53 54 23z m40 -246 c-8 -5 -22 -10 -30 -10 -13 0 -13 1 0 10 8 5 22 10 30
10 13 0 13 -1 0 -10z m-240 -170 c0 -10 -32 -30 -48 -30 -8 0 -9 16 -3 38 3 7
51 0 51 -8z"/>
<path d="M573 1123 c-26 -10 -12 -23 25 -22 30 1 32 3 12 8 -19 4 -11 7 30 12
l55 6 -55 1 c-30 0 -61 -2 -67 -5z"/>
<path d="M2442 1088 c4 -46 28 -49 28 -4 0 26 -4 36 -16 36 -11 0 -14 -8 -12
-32z"/>
<path d="M2843 1080 c4 -18 7 -36 7 -41 0 -5 5 -9 11 -9 15 0 6 73 -10 78 -11
4 -13 -3 -8 -28z"/>
<path d="M3246 1101 c-4 -6 -4 -23 0 -38 4 -22 3 -25 -5 -13 -9 13 -11 13 -11
-1 0 -9 7 -22 15 -29 10 -9 15 -9 15 -1 0 6 7 11 15 11 8 0 15 5 15 10 0 6 -7
10 -16 10 -8 0 -12 5 -9 10 6 10 23 8 115 -17 30 -8 71 -19 90 -23 52 -13 154
-42 163 -47 4 -3 3 -11 -3 -18 -9 -11 -16 -12 -30 -2 -11 6 -22 8 -26 5 -11
-11 6 -28 29 -28 16 0 19 -3 8 -9 -7 -5 -10 -14 -7 -20 10 -16 26 -14 26 4 0
8 2 15 4 15 2 0 20 -7 39 -15 20 -8 39 -15 43 -15 4 0 1 7 -6 15 -10 13 -9 15
8 15 12 0 23 -4 27 -9 3 -5 19 -12 35 -16 17 -4 27 -11 24 -17 -4 -6 -1 -9 7
-6 8 3 20 -1 27 -9 17 -16 35 -17 30 -1 -4 12 -150 78 -174 78 -8 0 -11 -6 -8
-15 4 -8 2 -15 -3 -15 -10 0 -36 50 -30 56 7 8 227 -85 227 -95 0 -4 16 -6 35
-6 19 1 35 -2 35 -7 0 -21 18 -5 23 21 6 28 -11 81 -25 81 -5 0 -8 5 -8 11 0
5 5 7 11 3 7 -4 10 -1 7 6 -10 30 -24 18 -27 -21 -1 -33 1 -40 13 -36 17 7 28
-14 17 -32 -13 -20 -83 48 -75 73 4 17 3 18 -5 6 -6 -8 -11 -23 -11 -33 0 -14
-5 -16 -27 -11 -32 8 -100 34 -164 62 -24 11 -70 27 -101 36 -140 39 -167 46
-228 61 -36 9 -72 18 -82 21 -9 3 -19 0 -22 -5z"/>
<path d="M2784 1085 c-7 -18 3 -35 22 -35 15 0 17 9 8 34 -8 20 -23 21 -30 1z"/>
<path d="M4261 1093 c-1 -15 -37 -53 -50 -53 -5 0 -11 6 -14 13 -2 6 -2 1 0
-13 6 -34 9 -35 38 -20 26 14 41 49 32 72 -4 10 -6 10 -6 1z"/>
<path d="M4450 1070 c0 -11 5 -20 10 -20 6 0 10 9 10 20 0 11 -4 20 -10 20 -5
0 -10 -9 -10 -20z"/>
<path d="M4565 1080 c-10 -16 6 -59 20 -54 8 3 17 -6 23 -23 9 -24 11 -25 11
-6 1 34 -10 53 -31 53 -15 0 -19 5 -15 20 5 21 2 26 -8 10z"/>
<path d="M2682 1050 c1 -18 6 -30 15 -30 7 0 13 -9 13 -19 0 -11 9 -26 20 -34
11 -8 17 -16 14 -19 -9 -9 26 -69 36 -63 11 7 4 27 -39 109 -17 33 -31 66 -31
73 0 7 -6 13 -14 13 -10 0 -14 -10 -14 -30z"/>
<path d="M2890 1050 c0 -16 -5 -30 -11 -30 -7 0 -9 -10 -7 -25 3 -14 -1 -30
-8 -36 -19 -15 -18 -49 1 -49 8 0 15 7 15 15 0 8 5 15 10 15 6 0 10 18 10 39
0 22 5 43 10 46 16 10 12 55 -5 55 -10 0 -15 -10 -15 -30z"/>
<path d="M3175 1063 c4 -10 9 -33 12 -51 3 -18 10 -35 14 -38 5 -3 9 -14 9
-25 0 -10 7 -19 15 -19 21 0 19 21 -9 76 -13 26 -22 53 -19 61 3 8 -2 13 -12
13 -12 0 -15 -5 -10 -17z"/>
<path d="M3842 1064 c-17 -19 -6 -94 13 -94 10 0 12 11 8 40 -5 34 -3 40 12
40 14 0 15 3 5 15 -15 18 -21 18 -38 -1z"/>
<path d="M3560 1056 c0 -8 7 -16 15 -20 17 -6 18 -4 9 18 -8 20 -24 21 -24 2z"/>
<path d="M987 1053 c-12 -11 -8 -23 8 -23 8 0 15 7 15 15 0 16 -12 20 -23 8z"/>
<path d="M610 1043 c-14 -2 -68 -11 -120 -20 -83 -15 -91 -18 -60 -24 30 -5
31 -7 8 -8 -15 0 -29 -5 -32 -10 -6 -9 118 10 224 34 36 9 87 16 113 17 29 1
43 4 35 9 -13 9 -120 10 -168 2z"/>
<path d="M918 1037 c9 -11 11 -31 6 -67 -6 -43 -4 -52 7 -48 9 3 13 16 11 33
-2 16 2 39 9 52 14 26 13 28 -21 38 -22 7 -23 6 -12 -8z"/>
<path d="M1150 1024 c0 -14 4 -23 10 -19 6 3 10 15 10 26 0 10 -4 19 -10 19
-5 0 -10 -12 -10 -26z"/>
<path d="M1192 1028 c5 -32 28 -35 28 -4 0 17 -5 26 -16 26 -10 0 -14 -7 -12
-22z"/>
<path d="M1240 1024 c0 -15 5 -24 12 -22 16 6 18 48 1 48 -7 0 -13 -11 -13
-26z"/>
<path d="M1510 1026 c0 -13 7 -29 15 -36 8 -7 15 -20 15 -29 1 -22 29 -70 30
-51 1 10 4 9 10 -5 5 -11 9 -15 9 -9 1 6 -12 37 -29 69 -16 32 -30 65 -30 72
0 7 -4 13 -10 13 -5 0 -10 -11 -10 -24z"/>
<path d="M1971 1008 c0 -18 3 -27 6 -20 2 6 9 9 15 6 6 -4 8 3 6 17 -5 37 -28
35 -27 -3z"/>
<path d="M2818 1035 c-9 -10 7 -68 20 -73 17 -5 16 52 -1 67 -8 6 -16 8 -19 6z"/>
<path d="M3325 1018 c4 -12 12 -26 18 -30 15 -9 29 1 20 15 -4 7 -8 16 -8 22
0 5 -8 11 -18 13 -16 3 -18 0 -12 -20z"/>
<path d="M3880 1015 c0 -14 5 -25 11 -25 7 0 9 -10 7 -25 -3 -13 -1 -22 3 -19
17 10 6 94 -12 94 -5 0 -9 -11 -9 -25z"/>
<path d="M612 995 c-131 -29 -154 -45 -29 -20 9 2 17 -1 17 -5 0 -5 -17 -11
-37 -15 -21 -3 -49 -13 -63 -21 -14 -9 -18 -14 -10 -11 183 49 288 82 284 89
-8 12 -48 8 -162 -17z"/>
<path d="M2938 1014 c-14 -13 -9 -61 7 -74 12 -10 15 -9 14 6 -3 38 -14 76
-21 68z"/>
<path d="M3275 1007 c-23 -14 -23 -58 1 -77 8 -7 14 -21 14 -31 0 -12 10 -23
25 -29 14 -5 25 -16 25 -24 0 -8 15 -26 33 -41 17 -15 35 -36 39 -47 5 -11 21
-25 38 -31 16 -6 30 -15 30 -18 0 -4 14 -10 31 -14 17 -4 33 -13 36 -21 3 -8
13 -12 22 -9 10 3 41 1 70 -5 41 -8 60 -7 89 5 20 9 41 14 48 11 7 -3 24 1 39
7 22 10 26 17 22 42 -3 17 1 48 9 70 7 22 14 41 14 42 0 1 -12 -10 -27 -25
-15 -15 -26 -35 -25 -44 2 -11 -6 -18 -25 -21 l-28 -4 28 -2 c22 -1 27 -6 27
-26 0 -21 -5 -25 -30 -25 -20 0 -30 5 -30 15 0 9 -10 15 -26 15 -14 0 -23 -4
-19 -10 3 -5 13 -6 23 -3 9 3 14 3 10 -1 -3 -4 -23 -11 -43 -16 -29 -7 -54 -3
-114 17 -42 13 -83 30 -91 37 -8 7 -30 18 -47 26 -18 7 -33 17 -33 22 0 13
-26 38 -40 38 -6 0 -9 4 -5 9 3 5 -3 16 -12 23 -10 7 -24 25 -32 40 -8 15 -22
30 -33 34 -10 3 -18 12 -18 20 0 9 5 12 12 8 8 -5 9 0 6 14 -5 17 -2 22 14 22
10 0 16 5 13 10 -7 12 -14 12 -40 -3z"/>
<path d="M3394 1005 c3 -8 1 -15 -5 -15 -6 0 -7 -5 -4 -11 10 -16 28 -5 32 19
2 15 -2 22 -13 22 -10 0 -14 -6 -10 -15z"/>
<path d="M2590 1002 c0 -10 22 -32 32 -32 15 0 8 28 -8 34 -21 8 -24 8 -24 -2z"/>
<path d="M2557 993 c-4 -3 -7 -19 -7 -35 0 -16 -4 -37 -9 -47 -11 -20 -4 -61
10 -61 5 0 9 16 9 36 0 31 2 35 15 24 19 -16 19 -44 0 -74 -12 -18 -13 -30 -6
-50 15 -38 31 -32 28 10 -3 47 16 54 28 12 6 -18 15 -32 20 -30 13 4 8 44 -8
54 -8 5 -7 8 6 8 9 0 17 5 17 11 0 6 -8 8 -19 4 -14 -4 -20 1 -24 22 -3 15 -1
36 4 46 13 23 0 46 -13 23 -15 -27 -28 -18 -28 19 0 33 -8 43 -23 28z"/>
<path d="M3157 993 c-13 -12 -7 -33 8 -33 8 0 15 9 15 20 0 20 -11 26 -23 13z"/>
<path d="M4240 976 c0 -13 -5 -26 -11 -28 -7 -2 -3 -17 11 -40 12 -21 19 -42
15 -48 -7 -12 19 -75 35 -85 14 -8 23 14 11 28 -5 7 -12 29 -14 48 -4 41 -23
79 -39 79 -7 0 -4 6 6 13 13 10 16 20 12 35 -10 29 -26 28 -26 -2z"/>
<path d="M967 984 c-4 -4 -7 -17 -7 -28 0 -19 1 -19 17 -3 12 11 14 20 7 27
-6 6 -13 7 -17 4z"/>
<path d="M1360 968 c0 -12 3 -18 7 -14 11 10 12 36 2 36 -5 0 -9 -10 -9 -22z"/>
<path d="M1730 974 c0 -17 22 -14 28 4 2 7 -3 12 -12 12 -9 0 -16 -7 -16 -16z"/>
<path d="M1490 965 c0 -8 4 -15 9 -15 16 0 20 -28 5 -34 -10 -4 -18 4 -26 24
-10 31 -28 41 -28 17 0 -24 37 -57 64 -57 30 0 32 6 10 48 -16 34 -34 42 -34
17z"/>
<path d="M1642 952 c1 -16 6 -29 12 -29 7 0 10 12 8 29 -2 15 -8 28 -12 28 -5
0 -8 -13 -8 -28z"/>
<path d="M2056 972 c-3 -5 -2 -19 1 -31 4 -17 8 -19 14 -9 12 18 11 48 0 48
-6 0 -12 -4 -15 -8z"/>
<path d="M3430 970 c0 -5 7 -10 15 -10 8 0 15 5 15 10 0 6 -7 10 -15 10 -8 0
-15 -4 -15 -10z"/>
<path d="M1316 961 c-3 -4 4 -17 17 -27 12 -10 17 -12 10 -5 -6 7 -9 20 -6 27
6 15 -12 20 -21 5z"/>
<path d="M2400 940 c0 -21 4 -30 13 -27 6 2 12 14 12 27 0 13 -6 25 -12 28 -9
2 -13 -7 -13 -28z"/>
<path d="M3523 958 c2 -7 10 -13 17 -13 7 0 15 6 18 13 2 7 -5 12 -18 12 -13
0 -20 -5 -17 -12z"/>
<path d="M4420 956 c0 -9 -8 -16 -18 -16 -12 0 -17 -7 -17 -25 1 -14 5 -28 8
-32 4 -3 7 -22 7 -42 0 -33 -1 -34 -15 -15 -8 10 -14 15 -15 9 0 -17 14 -32
37 -39 24 -8 41 10 25 26 -6 6 -8 17 -5 26 4 10 2 13 -5 8 -7 -4 -12 -1 -12 9
0 13 4 14 21 4 17 -9 23 -8 30 2 11 17 7 31 -9 37 -7 2 -12 -3 -12 -12 0 -9
-4 -16 -10 -16 -5 0 -10 4 -10 10 0 5 -6 7 -14 4 -11 -4 -13 0 -9 16 3 12 9
17 12 12 3 -6 11 0 18 14 6 14 7 26 2 30 -5 3 -9 -2 -9 -10z"/>
<path d="M2700 931 c0 -11 6 -26 13 -33 8 -7 18 -26 23 -41 5 -15 13 -26 19
-24 15 3 5 40 -16 60 -10 10 -19 27 -19 37 0 11 -4 20 -10 20 -5 0 -10 -9 -10
-19z"/>
<path d="M3323 937 c4 -14 101 -32 123 -23 21 8 6 29 -17 23 -10 -3 -21 -2
-24 3 -8 13 -87 10 -82 -3z"/>
<path d="M2910 922 c0 -10 -5 -23 -11 -29 -6 -6 -9 -21 -7 -34 4 -29 28 -38
28 -10 0 12 6 21 15 21 18 0 18 -1 4 39 -12 34 -29 42 -29 13z"/>
<path d="M4143 910 c-1 -17 2 -30 7 -30 6 0 10 14 10 30 0 39 -14 39 -17 0z"/>
<path d="M4190 931 c0 -5 6 -12 13 -15 9 -3 7 -9 -5 -19 -22 -17 -23 -27 -3
-27 8 0 15 5 15 10 0 6 5 10 11 10 5 0 8 -4 4 -9 -3 -5 0 -13 6 -16 21 -14 20
4 -3 39 -22 35 -38 46 -38 27z"/>
<path d="M1946 914 c-10 -27 -7 -44 9 -44 8 0 15 8 15 18 0 15 -2 15 -11 2 -8
-12 -9 -9 -5 13 7 29 2 37 -8 11z"/>
<path d="M3026 921 c-3 -5 -3 -16 0 -25 3 -8 -1 -25 -10 -38 -17 -24 -22 -63
-7 -54 5 4 12 0 14 -6 3 -7 6 6 6 28 1 26 6 44 15 47 9 4 12 14 9 27 -6 24
-19 34 -27 21z"/>
<path d="M3083 918 c-16 -19 -29 -108 -16 -108 13 0 36 71 31 100 -3 20 -5 21
-15 8z"/>
<path d="M3540 920 c0 -5 4 -10 9 -10 5 0 16 -3 25 -6 9 -3 16 -1 16 6 0 6 -4
8 -10 5 -5 -3 -10 -1 -10 4 0 6 -7 11 -15 11 -8 0 -15 -4 -15 -10z"/>
<path d="M1812 904 c-7 -8 -11 -20 -9 -27 4 -9 6 -9 6 1 1 7 6 10 11 7 6 -3
10 3 10 14 0 25 -1 25 -18 5z"/>
<path d="M3243 906 c5 -16 27 -19 27 -3 0 7 -7 14 -15 14 -9 0 -14 -5 -12 -11z"/>
<path d="M1139 901 c9 -6 10 -10 2 -12 -6 -2 19 -4 56 -4 38 0 91 -3 118 -7
32 -5 41 -4 25 1 l-25 9 24 1 c33 1 24 7 -24 15 -29 5 -36 4 -25 -3 12 -9 11
-11 -7 -11 -13 0 -23 5 -23 10 0 6 -29 10 -67 10 -42 0 -63 -4 -54 -9z"/>
<path d="M1630 890 c-1 -23 -2 -23 -10 -5 -8 20 -9 20 -9 -1 -1 -24 23 -61 32
-48 3 5 2 25 -3 44 -7 29 -8 31 -10 10z"/>
<path d="M2140 883 c0 -39 15 -61 23 -34 6 25 -2 61 -14 61 -5 0 -9 -12 -9
-27z"/>
<path d="M2972 889 c1 -12 9 -24 16 -27 9 -3 13 3 10 19 -1 12 -9 24 -16 27
-9 3 -13 -3 -10 -19z"/>
<path d="M3184 895 c-9 -23 14 -45 26 -25 5 8 8 19 7 24 -6 17 -27 18 -33 1z"/>
<path d="M630 834 c-63 -30 -146 -69 -185 -86 -38 -17 -79 -37 -90 -45 -19
-14 -18 -15 10 -9 l30 6 -25 -15 c-70 -41 55 11 175 72 138 71 174 89 203 101
35 15 43 32 15 32 -10 -1 -70 -26 -133 -56z"/>
<path d="M1007 883 c-13 -12 -7 -23 13 -23 13 0 18 5 14 15 -7 16 -17 19 -27
8z"/>
<path d="M1386 875 c-3 -9 0 -15 8 -15 7 0 13 7 13 15 0 8 -4 15 -8 15 -4 0
-9 -7 -13 -15z"/>
<path d="M1661 873 c0 -13 2 -14 6 -4 5 11 7 11 14 0 7 -11 9 -10 9 4 0 9 -7
17 -15 17 -8 0 -15 -8 -14 -17z"/>
<path d="M2451 875 c-1 -17 -3 -18 -11 -5 -8 13 -10 13 -10 -2 0 -9 -3 -24 -7
-34 -6 -16 -3 -15 16 3 14 13 21 29 18 40 -4 16 -5 16 -6 -2z"/>
<path d="M2837 868 c-3 -13 -9 -33 -12 -45 -10 -32 17 -30 32 2 11 25 7 65 -7
65 -4 0 -10 -10 -13 -22z"/>
<path d="M3400 877 c0 -11 14 -18 48 -22 26 -3 64 -8 85 -10 62 -8 42 12 -25
24 -35 7 -73 15 -85 18 -16 4 -23 1 -23 -10z"/>
<path d="M3664 875 c22 -16 56 -20 56 -6 0 9 -34 21 -60 21 -11 -1 -10 -4 4
-15z"/>
<path d="M3985 880 c-8 -13 4 -50 16 -50 5 0 9 14 9 30 0 30 -13 40 -25 20z"/>
<path d="M1439 871 c11 -7 11 -9 0 -13 -9 -3 -8 -6 4 -11 12 -5 17 -1 17 13 0
12 -7 20 -17 20 -14 0 -15 -2 -4 -9z"/>
<path d="M2691 871 c-9 -6 -11 -18 -7 -35 9 -38 26 -32 23 9 -1 19 -2 35 -2
35 0 0 -6 -4 -14 -9z"/>
<path d="M3221 856 c-11 -20 -12 -31 -3 -52 7 -14 8 -23 3 -19 -5 3 -12 1 -15
-4 -12 -19 12 -20 29 -1 17 19 13 66 -6 55 -5 -4 -9 -2 -9 4 0 5 5 11 12 13 6
2 9 10 7 17 -3 8 -10 3 -18 -13z"/>
<path d="M4520 870 c0 -5 7 -10 15 -10 8 0 15 5 15 10 0 6 -7 10 -15 10 -8 0
-15 -4 -15 -10z"/>
<path d="M2336 846 c5 -21 4 -27 -5 -22 -6 4 -11 1 -11 -8 0 -26 19 -18 26 10
4 15 2 30 -5 37 -10 9 -11 5 -5 -17z"/>
<path d="M2790 856 c0 -8 5 -18 10 -21 6 -3 10 3 10 14 0 12 -4 21 -10 21 -5
0 -10 -6 -10 -14z"/>
<path d="M3590 851 c0 -18 6 -21 40 -21 22 0 40 4 40 9 0 9 -8 12 -62 27 -13
4 -18 0 -18 -15z"/>
<path d="M4563 855 c-15 -17 -17 -55 -3 -55 6 0 10 9 10 20 0 11 7 20 16 20 8
0 13 -4 10 -8 -2 -4 4 -13 15 -20 17 -11 19 -9 19 9 0 21 -25 48 -45 48 -5 0
-16 -6 -22 -14z"/>
<path d="M2950 840 c0 -13 5 -20 13 -17 6 2 12 10 12 17 0 7 -6 15 -12 18 -8
2 -13 -5 -13 -18z"/>
<path d="M3173 839 c-1 -10 2 -19 8 -19 11 0 12 27 1 34 -4 2 -9 -4 -9 -15z"/>
<path d="M3270 838 c0 -9 5 -20 11 -23 12 -8 15 -6 23 20 5 16 1 21 -14 21
-12 0 -20 -7 -20 -18z"/>
<path d="M4470 845 c0 -8 6 -15 14 -15 8 0 16 7 20 15 4 10 -1 15 -14 15 -11
0 -20 -7 -20 -15z"/>
<path d="M1507 844 c-3 -3 6 -16 19 -29 13 -13 24 -32 24 -41 0 -16 2 -16 20
1 29 26 26 49 -5 43 -16 -3 -25 -1 -25 7 0 13 -25 27 -33 19z"/>
<path d="M1836 835 c-3 -10 -2 -23 4 -29 15 -15 24 1 13 26 -9 20 -10 20 -17
3z"/>
<path d="M1880 835 c0 -8 5 -15 10 -15 6 0 10 7 10 15 0 8 -4 15 -10 15 -5 0
-10 -7 -10 -15z"/>
<path d="M2227 844 c-4 -4 -7 -18 -7 -31 0 -28 23 -27 28 1 4 20 -11 40 -21
30z"/>
<path d="M3320 843 c0 -17 31 -73 41 -73 15 0 10 14 -16 50 -14 19 -25 29 -25
23z"/>
<path d="M3696 823 c17 -14 14 -15 -37 -11 -54 4 -57 3 -55 -19 1 -15 7 -23
19 -23 9 0 17 5 17 10 0 6 19 10 43 10 39 0 43 2 42 23 -1 16 -8 22 -25 23
-23 1 -23 1 -4 -13z"/>
<path d="M2007 824 c-4 -4 -7 -14 -7 -23 0 -11 3 -12 11 -4 6 6 10 16 7 23 -2
6 -7 8 -11 4z"/>
<path d="M2124 816 c-3 -8 -4 -23 -1 -33 3 -13 5 -11 7 7 1 23 2 23 10 5 8
-19 9 -19 9 2 1 26 -17 40 -25 19z"/>
<path d="M2271 818 c-1 -10 3 -18 8 -18 10 0 27 -39 22 -54 -1 -5 5 -4 13 4
22 17 20 41 -4 47 -11 3 -17 10 -13 16 3 5 1 7 -5 3 -5 -3 -13 0 -15 6 -3 8
-6 6 -6 -4z"/>
<path d="M2462 819 c2 -7 10 -15 17 -17 8 -3 12 1 9 9 -2 7 -10 15 -17 17 -8
3 -12 -1 -9 -9z"/>
<path d="M2510 806 c0 -14 5 -28 11 -31 14 -9 18 -4 21 25 2 16 -3 25 -14 28
-13 3 -18 -3 -18 -22z"/>
<path d="M2876 823 c-12 -12 -6 -33 9 -33 8 0 15 6 15 14 0 17 -14 28 -24 19z"/>
<path d="M3535 821 c-3 -5 4 -13 16 -16 23 -8 34 -1 24 14 -8 13 -32 14 -40 2z"/>
<path d="M3935 809 c-4 -6 -5 -13 -2 -16 7 -7 27 6 27 18 0 12 -17 12 -25 -2z"/>
<path d="M4065 798 c9 -28 25 -47 25 -29 0 7 5 9 10 6 17 -11 11 11 -8 28 -25
23 -35 21 -27 -5z"/>
<path d="M1488 803 c-24 -6 -32 -33 -10 -33 19 0 42 18 42 32 0 8 -4 9 -32 1z"/>
<path d="M2935 801 c-6 -11 9 -23 19 -14 9 9 7 23 -3 23 -6 0 -12 -4 -16 -9z"/>
<path d="M4336 794 c-4 -9 -4 -19 -1 -22 3 -3 5 0 5 7 0 7 5 9 10 6 6 -3 10 1
10 9 0 21 -16 20 -24 0z"/>
<path d="M4571 791 c-7 -12 -18 -21 -26 -21 -17 0 -20 -16 -6 -25 6 -3 14 3
20 12 6 10 11 12 11 6 0 -21 17 -14 24 9 8 31 -9 45 -23 19z"/>
<path d="M1599 780 l-24 -19 28 -1 c16 0 26 4 22 10 -3 6 1 7 9 4 11 -4 16 0
16 10 0 22 -23 20 -51 -4z"/>
<path d="M2080 776 c0 -14 5 -26 10 -26 6 0 10 9 10 19 0 11 -4 23 -10 26 -6
4 -10 -5 -10 -19z"/>
<path d="M2453 781 c3 -32 27 -40 27 -9 0 17 -3 19 -9 9 -7 -11 -10 -10 -14 5
-4 14 -5 12 -4 -5z"/>
<path d="M3040 785 c0 -8 5 -15 10 -15 6 0 10 7 10 15 0 8 -4 15 -10 15 -5 0
-10 -7 -10 -15z"/>
<path d="M4453 786 c4 -9 -3 -16 -19 -20 -17 -5 -24 -12 -22 -24 4 -22 38 -29
38 -8 0 9 -5 16 -12 16 -6 0 -9 3 -6 6 4 3 16 0 28 -6 15 -8 20 -8 16 -1 -4 6
0 11 9 11 8 0 21 -11 27 -25 7 -15 19 -25 32 -25 19 1 19 2 -6 21 -16 11 -28
28 -28 36 0 10 -6 14 -20 10 -13 -3 -20 0 -20 9 0 8 -5 14 -11 14 -6 0 -9 -6
-6 -14z"/>
<path d="M5150 764 c-30 -19 -68 -38 -85 -43 -16 -4 -29 -13 -28 -19 1 -5 -6
-8 -17 -5 -11 3 -32 2 -47 -2 -22 -5 -24 -8 -12 -16 10 -8 7 -9 -13 -5 -15 3
-30 1 -33 -5 -4 -6 -17 -15 -29 -20 -19 -9 -19 -9 4 -4 167 38 280 85 324 134
29 32 0 25 -64 -15z"/>
<path d="M2350 770 c0 -11 6 -20 13 -20 19 0 27 10 20 26 -8 21 -33 17 -33 -6z"/>
<path d="M2870 760 c0 -11 7 -20 15 -20 13 0 14 4 5 20 -6 11 -13 20 -15 20
-3 0 -5 -9 -5 -20z"/>
<path d="M3296 764 c-4 -10 -1 -14 6 -12 15 5 23 28 10 28 -5 0 -13 -7 -16
-16z"/>
<path d="M1512 756 c-14 -8 -18 -16 -13 -25 5 -8 14 -10 21 -6 9 5 11 4 6 -3
-4 -7 4 -22 17 -36 13 -13 32 -35 43 -51 l20 -27 63 59 c46 43 61 62 56 76
-10 25 -35 20 -74 -13 -29 -24 -32 -30 -18 -36 22 -8 12 -24 -15 -24 -18 0
-19 -2 -7 -17 8 -9 10 -14 4 -11 -5 2 -18 8 -29 12 -16 5 -16 9 -5 23 12 14
12 16 -1 9 -8 -4 5 11 30 33 25 23 40 41 33 41 -6 0 -15 -4 -18 -10 -9 -14
-35 -12 -66 4 -20 10 -31 11 -47 2z"/>
<path d="M2557 756 c4 -13 3 -17 -4 -13 -8 5 -9 -2 -4 -20 4 -16 12 -27 17
-26 16 4 15 37 -1 58 -14 19 -15 19 -8 1z"/>
<path d="M2660 751 c0 -12 5 -21 10 -21 6 0 10 6 10 14 0 8 -4 18 -10 21 -5 3
-10 -3 -10 -14z"/>
<path d="M4360 762 c0 -7 -4 -10 -10 -7 -5 3 -10 1 -10 -5 0 -6 -4 -8 -10 -5
-5 3 -15 3 -21 -1 -24 -14 80 -64 164 -78 l82 -14 -63 -1 c-46 -1 -63 -4 -59
-13 4 -15 193 -21 217 -7 10 5 3 6 -18 2 -18 -3 -32 -2 -31 3 4 23 -3 34 -21
34 -12 0 -59 10 -106 22 -78 19 -88 24 -100 52 -7 17 -13 25 -14 18z"/>
<path d="M2200 745 c0 -8 7 -15 15 -15 8 0 15 7 15 15 0 8 -7 15 -15 15 -8 0
-15 -7 -15 -15z"/>
<path d="M2700 752 c0 -5 7 -16 16 -23 14 -12 16 -11 13 5 -4 20 -29 35 -29
18z"/>
<path d="M2920 750 c0 -5 5 -10 11 -10 5 0 8 -4 4 -9 -3 -5 -1 -12 5 -16 11
-7 13 5 4 29 -7 18 -24 22 -24 6z"/>
<path d="M2602 734 c1 -9 9 -19 16 -22 9 -3 13 2 10 14 -1 9 -9 19 -16 22 -9
3 -13 -2 -10 -14z"/>
<path d="M3087 726 c-4 -10 -5 -21 -2 -24 9 -9 17 6 13 25 -3 17 -4 17 -11 -1z"/>
<path d="M4599 731 c11 -7 11 -9 0 -13 -10 -3 -6 -9 10 -17 19 -11 25 -11 32
0 4 7 5 16 2 19 -3 3 -8 -1 -10 -8 -3 -6 -9 -10 -13 -7 -5 3 -7 12 -3 20 3 10
-1 15 -13 15 -15 0 -16 -2 -5 -9z"/>
<path d="M2500 719 c0 -5 -4 -7 -10 -4 -5 3 -7 0 -4 -9 3 -8 12 -12 19 -10 8
3 11 12 8 20 -6 17 -13 18 -13 3z"/>
<path d="M1744 705 c-15 -12 -16 -16 -6 -23 11 -7 8 -14 -14 -31 -14 -11 -21
-21 -15 -21 7 0 9 -4 6 -10 -3 -5 -1 -10 5 -10 7 0 9 7 6 16 -3 9 -2 12 5 8
14 -8 69 45 69 68 0 22 -29 24 -56 3z"/>
<path d="M3862 709 c2 -6 8 -10 13 -10 5 0 11 4 13 10 2 6 -4 11 -13 11 -9 0
-15 -5 -13 -11z"/>
<path d="M4130 714 c0 -22 44 -67 103 -105 46 -30 70 -39 101 -39 l41 1 -45
18 c-44 17 -178 104 -192 125 -5 8 -8 8 -8 0z"/>
<path d="M4100 694 c0 -23 33 -58 50 -52 6 2 -3 19 -19 38 -26 31 -30 32 -31
14z"/>
<path d="M3260 690 c0 -5 7 -10 15 -10 8 0 15 5 15 10 0 6 -7 10 -15 10 -8 0
-15 -4 -15 -10z"/>
<path d="M3343 685 c-3 -9 -3 -19 1 -22 3 -4 6 2 6 13 0 16 2 17 10 4 8 -13
10 -12 10 3 0 21 -18 23 -27 2z"/>
<path d="M4845 685 c-36 -13 -37 -14 -8 -10 17 1 39 8 50 14 24 14 7 12 -42
-4z"/>
<path d="M297 684 c-8 -8 1 -24 13 -24 4 0 10 7 14 15 5 15 -14 21 -27 9z"/>
<path d="M1801 656 l-23 -24 35 8 c19 4 40 10 46 14 6 4 11 3 11 -1 0 -12 -42
-37 -63 -39 -22 -2 -68 -44 -61 -55 3 -5 0 -9 -5 -9 -6 0 -11 -7 -11 -15 0
-22 -17 -18 -23 5 -3 11 -1 20 4 20 5 0 9 5 9 11 0 5 -4 7 -10 4 -5 -3 -10 3
-10 15 0 30 -45 49 -67 27 -15 -15 -11 -22 56 -88 l72 -72 42 39 c116 108 146
138 141 146 -10 15 -41 8 -62 -15 -25 -26 -30 -46 -7 -27 11 9 15 9 15 1 0 -7
-13 -17 -30 -22 -16 -6 -30 -14 -30 -18 0 -11 -40 -51 -51 -51 -6 0 -7 5 -3
12 5 8 2 9 -9 5 -11 -4 -17 -1 -17 7 0 8 29 35 65 61 65 46 79 68 49 79 -27
10 -40 7 -63 -18z"/>
<path d="M4705 660 l-60 -7 65 -1 c36 -1 72 3 80 8 17 11 15 11 -85 0z"/>
<path d="M4805 625 c-40 -18 -16 -19 26 0 19 8 27 14 19 14 -8 0 -28 -6 -45
-14z"/>
<path d="M1930 583 c-43 -44 -43 -45 -10 -22 l35 24 -25 -32 c-14 -18 -33 -32
-42 -32 -9 -1 -26 -14 -37 -30 -14 -19 -27 -28 -39 -24 -10 2 -24 -3 -32 -11
-11 -14 -10 -19 5 -35 16 -19 20 -17 113 81 54 55 98 106 100 114 7 28 -25 13
-68 -33z"/>
<path d="M4166 622 c-7 -11 34 -45 43 -36 3 2 -4 14 -16 25 -13 13 -23 17 -27
11z"/>
<path d="M1985 560 c-39 -40 -45 -50 -30 -50 17 -1 16 -4 -10 -27 -16 -14 -30
-33 -31 -41 -3 -19 -31 -36 -63 -39 -13 -1 -25 -4 -28 -6 -7 -8 20 -57 32 -57
6 0 17 -11 23 -25 6 -14 16 -25 21 -25 5 0 32 28 60 63 28 34 80 98 116 141
40 49 62 83 56 89 -12 12 -31 0 -72 -48 -22 -26 -24 -32 -8 -17 14 12 29 22
33 22 22 0 -65 -98 -89 -100 -5 -1 -23 -18 -40 -38 -21 -25 -25 -34 -12 -29 9
3 17 4 17 1 0 -11 -53 -24 -66 -16 -12 6 -4 21 37 68 28 32 56 64 62 69 27 23
87 96 87 105 0 6 -10 10 -23 10 -14 0 -41 -19 -72 -50z"/>
<path d="M4610 600 l-25 -8 25 -2 25 -2 -25 -8 c-20 -6 -21 -8 -5 -8 11 0 29
3 40 8 l20 9 -20 1 -20 1 20 9 c25 11 -1 11 -35 0z"/>
<path d="M4235 570 c-3 -5 -5 -10 -3 -11 2 0 16 -2 32 -4 26 -4 27 -3 10 10
-23 17 -31 18 -39 5z"/>
<path d="M4530 568 c0 -6 -19 -8 -47 -5 -27 2 -39 2 -28 0 17 -4 16 -7 -10
-19 -17 -8 -21 -12 -10 -10 11 3 46 10 78 16 31 6 57 13 57 15 0 1 -9 5 -20 8
-11 3 -20 1 -20 -5z"/>
<path d="M2055 444 c-60 -69 -112 -130 -113 -135 -4 -10 16 -39 27 -39 3 0 17
19 29 41 13 23 59 85 103 140 73 91 90 119 72 119 -5 0 -57 -57 -118 -126z"/>
<path d="M2183 531 c-6 -10 -46 -60 -88 -110 -58 -70 -71 -91 -56 -91 14 0 18
-5 14 -20 -8 -32 23 -14 37 20 7 16 39 68 71 116 32 47 59 90 59 95 0 16 -25
9 -37 -10z"/>
<path d="M2188 464 c-58 -84 -72 -124 -43 -124 8 0 15 4 15 9 0 4 40 49 90 99
70 71 85 90 67 90 -12 -1 -28 -6 -34 -11 -9 -7 -13 -5 -13 7 0 35 -27 12 -82
-70z"/>
<path d="M2540 500 c12 -8 12 -10 -5 -11 l-20 0 20 -9 c27 -12 43 -12 25 0
-13 9 -13 10 0 10 13 0 13 1 0 10 -8 5 -19 10 -25 10 -5 0 -3 -5 5 -10z"/>
<path d="M2583 483 c0 -8 12 -13 31 -12 17 1 23 3 13 6 -9 2 -15 8 -13 12 3 4
-3 7 -13 7 -10 0 -18 -6 -18 -13z"/>
<path d="M4095 490 l-40 -7 35 -1 c19 -1 42 3 50 8 16 11 14 11 -45 0z"/>
<path d="M3885 470 c3 -5 21 -10 38 -10 24 0 28 3 17 10 -20 13 -63 13 -55 0z"/>
<path d="M3578 454 c-38 -20 -35 -27 10 -20 55 10 72 16 72 27 0 14 -52 10
-82 -7z"/>
<path d="M3446 444 c-4 -10 -1 -14 6 -12 15 5 23 28 10 28 -5 0 -13 -7 -16
-16z"/>
<path d="M3733 448 c-7 -13 -8 -16 -11 -47 -1 -8 -5 -11 -9 -8 -3 4 -15 -1
-26 -10 -21 -20 -26 -20 -37 -3 -5 8 -9 7 -13 -3 -4 -11 0 -15 14 -12 27 5 24
-5 -16 -48 -32 -35 -47 -66 -26 -53 5 3 11 -1 15 -9 9 -24 21 -18 45 25 12 22
26 38 31 35 4 -3 6 3 4 12 -3 10 11 40 30 67 33 45 38 66 16 66 -5 0 -12 -6
-17 -12z"/>
<path d="M3795 447 c-23 -11 -80 -95 -71 -104 3 -4 13 2 21 13 36 47 76 104
73 103 -2 -1 -12 -6 -23 -12z"/>
<path d="M3528 367 c-38 -15 -35 -29 4 -22 39 7 50 14 43 26 -7 11 -11 10 -47
-4z"/>
<path d="M3384 337 c-10 -22 -9 -23 13 -13 24 12 32 36 11 36 -7 0 -18 -11
-24 -23z"/>
<path d="M3589 341 c-31 -25 -21 -35 11 -11 14 10 22 21 19 25 -3 3 -17 -3
-30 -14z"/>
<path d="M3530 265 c-7 -8 -9 -15 -5 -15 4 0 -3 -9 -16 -21 -19 -16 -20 -18
-4 -10 25 13 65 47 65 55 0 12 -28 6 -40 -9z"/>
<path d="M3470 225 c-7 -8 -9 -15 -5 -15 4 0 1 -8 -6 -17 -13 -16 -12 -17 4
-4 9 8 15 16 12 19 -3 3 0 11 6 19 6 7 9 13 6 13 -2 0 -10 -7 -17 -15z"/>
<path d="M3530 207 c-20 -17 -55 -49 -79 -69 -24 -21 -39 -38 -33 -38 6 0 14
5 17 10 4 6 10 8 15 5 7 -5 87 67 119 108 22 28 -1 19 -39 -16z"/>
<path d="M3352 211 c-8 -5 -12 -17 -10 -27 2 -15 5 -13 15 9 14 30 14 30 -5
18z"/>
<path d="M3625 207 c-40 -20 -113 -133 -97 -149 6 -6 23 12 47 49 21 32 47 70
57 86 11 15 18 26 16 26 -2 -1 -12 -6 -23 -12z"/>
<path d="M3545 180 c-10 -11 -15 -23 -12 -27 8 -7 47 25 47 39 0 14 -16 9 -35
-12z"/>
<path d="M3354 146 c-6 -25 0 -78 11 -95 9 -16 31 -13 46 6 13 15 12 15 -9 4
-19 -10 -23 -9 -29 5 -3 9 0 20 8 25 8 5 9 9 3 9 -7 0 -11 14 -10 35 2 40 -11
47 -20 11z"/>
</g>
</svg>
