<?xml version="1.0" standalone="no"?>
<!DOCTYPE svg PUBLIC "-//W3C//DTD SVG 20010904//EN"
 "http://www.w3.org/TR/2001/REC-SVG-20010904/DTD/svg10.dtd">
<svg version="1.0" xmlns="http://www.w3.org/2000/svg"
 width="934.334441pt" height="355.817585pt" viewBox="0 0 934.334441 355.817585"
 preserveAspectRatio="xMidYMid meet">
<metadata>
Created by potrace 1.12, written by Peter Selinger 2001-2015
</metadata>
<g transform="translate(-13.087945,384.977242) scale(0.100000,-0.100000)"
fill="#000000" stroke="none">
<path d="M1659 3840 c-13 -8 -15 -41 -15 -252 l1 -243 33 -3 32 -3 0 114 c0
110 1 115 26 141 32 31 74 34 99 6 14 -16 18 -39 19 -137 l1 -118 33 -3 32 -3
0 115 c0 121 -8 157 -42 194 -27 28 -90 30 -135 2 l-32 -19 -3 107 c-3 111
-10 125 -49 102z"/>
<path d="M1267 3813 c-4 -3 -7 -14 -7 -24 0 -21 20 -27 95 -31 l50 -3 1 -198
c0 -208 3 -221 45 -210 18 5 19 18 19 204 0 193 1 199 21 210 12 6 39 9 60 6
41 -5 66 11 55 38 -4 13 -32 15 -169 15 -90 0 -167 -3 -170 -7z"/>
<path d="M2064 3671 c-40 -24 -66 -80 -71 -155 -7 -106 51 -176 148 -176 65 0
99 17 99 48 0 22 -3 23 -27 16 -16 -5 -48 -8 -72 -8 -36 0 -47 5 -67 29 -46
58 -37 65 81 65 l105 0 0 40 c0 54 -27 116 -60 140 -36 25 -95 26 -136 1z
m103 -53 c12 -13 23 -34 25 -48 3 -24 1 -25 -69 -28 -79 -3 -84 1 -59 47 13
23 51 50 72 51 6 0 20 -10 31 -22z"/>
<path d="M2623 3564 c-94 -95 -144 -209 -163 -364 -6 -52 -16 -108 -22 -125
-19 -54 -38 -94 -49 -100 -5 -4 -31 6 -57 22 -98 58 -268 132 -412 177 -83 26
-102 31 -205 58 -68 17 -336 17 -395 -1 -86 -26 -106 -33 -176 -67 -94 -46
-183 -120 -237 -197 -45 -63 -97 -166 -97 -192 0 -8 -5 -35 -12 -59 -22 -85
25 -220 100 -287 43 -37 60 -47 135 -78 49 -19 203 -14 271 10 100 36 189 109
225 186 7 15 17 36 22 45 14 28 10 68 -7 75 -21 8 -53 -33 -54 -68 0 -33 -57
-95 -120 -132 -154 -89 -346 -76 -425 27 -25 33 -28 46 -28 109 0 134 88 276
238 382 76 54 128 78 255 116 59 18 314 19 395 1 110 -24 291 -78 310 -92 6
-4 60 -26 120 -50 61 -24 114 -46 118 -50 8 -7 0 -28 -65 -170 -17 -36 -41
-87 -53 -115 -33 -71 -124 -276 -134 -300 -44 -107 -37 -103 -124 -80 -70 18
-319 21 -381 4 -67 -19 -161 -65 -201 -100 -52 -46 -117 -145 -119 -182 -2
-52 28 -47 88 15 86 88 166 118 366 137 126 12 258 7 275 -10 7 -8 6 -13 -2
-16 -7 -3 -13 -11 -13 -20 0 -8 -8 -27 -19 -41 -21 -31 -71 -135 -218 -452
-103 -221 -180 -365 -238 -442 -256 -340 -699 -514 -979 -385 -209 97 -258
256 -179 585 3 12 9 25 14 28 5 3 9 16 9 28 0 27 24 51 40 41 5 -3 10 -26 10
-50 0 -74 37 -230 58 -248 25 -20 32 14 26 109 -7 99 2 186 52 504 24 146 23
410 -1 446 -16 25 -17 25 -36 8 -13 -12 -19 -30 -19 -62 0 -106 -79 -319 -183
-497 -57 -97 -105 -187 -137 -260 -33 -73 -36 -84 -49 -151 -15 -83 -13 -177
5 -249 9 -33 18 -71 21 -85 8 -34 62 -131 94 -168 71 -82 193 -149 333 -182
249 -58 538 19 788 208 107 82 131 103 213 196 60 68 95 116 127 171 29 50
186 371 250 510 33 72 77 167 99 213 21 45 39 84 39 87 0 5 57 134 68 154 7
12 54 15 273 16 268 2 310 7 352 43 16 14 16 17 1 33 -16 18 -34 18 -289 12
-188 -4 -274 -3 -278 4 -4 6 28 85 72 175 43 89 85 179 94 198 21 48 56 127
78 177 11 23 19 46 19 51 0 25 37 18 112 -21 72 -37 165 -76 258 -107 14 -5
50 -14 80 -21 30 -6 68 -15 84 -20 46 -14 143 -11 203 7 70 20 135 78 152 134
13 44 7 80 -13 80 -15 0 -46 -32 -46 -48 0 -38 -111 -92 -189 -92 -55 0 -278
47 -336 70 -23 10 -180 65 -210 74 -11 4 -28 13 -38 20 -16 12 -14 19 25 102
36 77 95 153 119 154 10 0 94 111 113 149 47 91 59 201 28 260 -23 47 -61 72
-115 78 -45 5 -47 4 -104 -53z m154 -16 c18 -18 35 -46 39 -61 5 -23 3 -29
-15 -34 -11 -3 -21 -11 -21 -18 0 -7 -8 -23 -19 -36 -28 -35 -51 -11 -51 54 0
53 -19 87 -49 87 -12 1 -10 5 8 20 35 30 72 25 108 -12z m-115 -164 c18 -18
-112 -164 -146 -164 -20 0 -20 5 -2 75 20 73 21 75 64 75 20 0 44 5 52 10 17
11 24 12 32 4z m-162 -358 c0 -36 -28 -96 -45 -96 -21 0 -19 25 7 76 24 49 38
56 38 20z m-65 -156 c4 -6 -13 -52 -38 -103 -25 -51 -52 -108 -60 -128 -31
-68 -74 -164 -95 -209 -12 -25 -37 -83 -56 -130 -26 -65 -39 -86 -55 -88 -12
-2 -21 1 -21 7 0 6 24 62 54 124 29 61 60 128 68 147 9 19 28 62 43 95 30 67
108 250 118 278 7 19 32 23 42 7z m-343 -762 c3 -7 -21 -65 -52 -128 -32 -63
-76 -153 -98 -200 -120 -255 -120 -255 -127 -237 -5 10 -1 25 7 35 8 9 21 33
28 52 13 34 35 84 95 215 15 33 45 105 67 160 37 91 51 114 70 115 3 0 8 -6
10 -12z m-1722 -584 c0 -8 -4 -22 -9 -32 -5 -9 -13 -28 -18 -42 -6 -14 -15
-36 -21 -50 -19 -41 -34 -83 -44 -120 -21 -80 -38 -167 -38 -195 0 -47 -11
-79 -21 -63 -12 19 -11 130 2 185 33 139 120 350 139 338 5 -3 10 -13 10 -21z
m1436 -31 c-11 -11 -17 4 -9 23 7 18 8 18 11 1 2 -10 1 -21 -2 -24z m-497
-669 c-21 -25 -129 -98 -184 -123 -125 -58 -196 -77 -330 -86 -101 -7 -275 16
-275 36 0 5 -9 9 -20 9 -11 0 -20 5 -20 10 0 6 -7 10 -17 10 -22 0 -85 49 -78
60 6 10 87 -36 93 -51 2 -5 12 -9 22 -9 10 0 21 -4 24 -8 3 -5 43 -15 90 -22
74 -11 101 -11 203 3 65 9 134 19 153 23 52 9 289 126 298 147 2 4 12 7 23 7
10 0 19 5 19 12 0 6 3 8 6 5 4 -4 1 -14 -7 -23z"/>
<path d="M5301 3610 c-18 -4 -44 -13 -57 -19 -13 -6 -36 -17 -51 -23 -47 -22
-126 -110 -160 -178 -116 -236 -141 -517 -103 -1145 12 -188 17 -260 26 -320
8 -64 23 -192 34 -300 6 -55 14 -120 19 -145 5 -25 7 -48 5 -52 -3 -4 -60 -47
-127 -94 -214 -152 -296 -224 -392 -346 -19 -24 -35 -49 -35 -55 0 -7 -4 -13
-9 -13 -5 0 -22 -30 -37 -67 -23 -55 -29 -82 -29 -141 1 -61 4 -77 20 -88 29
-21 55 8 55 62 0 47 25 109 68 169 l28 40 80 -1 c70 -1 136 -12 279 -46 22 -5
52 -12 68 -15 15 -3 27 -12 28 -22 7 -98 -18 -267 -54 -364 -5 -16 -27 -47
-49 -69 -41 -43 -46 -59 -23 -78 35 -29 108 21 148 102 45 93 87 247 87 324 0
43 11 74 25 74 7 0 61 -16 121 -36 60 -20 123 -40 139 -45 17 -4 48 -13 70
-19 74 -21 160 -41 255 -60 195 -39 436 -50 580 -25 52 9 110 19 128 22 18 3
35 9 38 14 3 5 14 9 25 9 10 0 28 4 39 10 11 5 29 15 40 20 11 6 24 10 30 10
22 0 151 93 186 133 60 70 94 154 94 230 0 37 -4 76 -9 89 -5 13 -19 49 -31
80 -23 60 -57 88 -107 88 -28 0 -28 3 -3 -48 82 -169 -82 -368 -385 -468 -231
-76 -520 -75 -900 2 -44 9 -98 20 -120 24 -206 39 -206 39 -185 125 5 22 12
130 15 240 6 215 1 195 61 261 43 48 174 221 174 230 0 3 18 32 40 64 89 131
260 505 260 568 0 10 4 22 8 27 12 14 27 85 62 279 13 76 13 315 0 392 -17 93
-31 157 -40 179 -4 11 -13 38 -20 60 -19 65 -82 183 -125 234 -53 64 -119 106
-179 115 -27 4 -54 9 -60 11 -6 1 -26 -1 -45 -5z m98 -130 c102 -51 186 -208
220 -410 71 -422 8 -790 -196 -1142 -32 -55 -65 -110 -73 -123 -132 -196 -166
-239 -181 -230 -5 4 -19 90 -40 257 -5 46 -12 97 -15 113 -3 17 -9 75 -15 130
-6 55 -14 138 -19 185 -21 195 -39 441 -40 533 -1 336 76 579 214 674 56 38
90 41 145 13z m-405 -755 c3 -143 9 -300 12 -350 7 -122 51 -601 64 -700 13
-94 15 -183 6 -192 -21 -21 -26 12 -67 422 -6 55 -15 141 -21 190 -19 167 -22
913 -3 894 1 -2 6 -121 9 -264z m26 -1635 c0 -104 -4 -190 -8 -190 -4 0 -37 9
-73 20 -103 33 -120 37 -201 51 -43 7 -78 16 -78 21 0 12 35 43 265 237 97 81
95 83 95 -139z m1798 -97 c-18 -61 -76 -142 -133 -185 -59 -45 -218 -128 -245
-128 -10 0 -22 -4 -25 -10 -7 -12 -75 -14 -75 -2 0 4 18 13 40 19 117 37 276
136 339 212 52 63 91 139 92 181 l1 35 9 -40 c7 -28 6 -53 -3 -82z"/>
<path d="M7855 2881 c-16 -10 -42 -31 -56 -47 -64 -70 -210 -327 -393 -694
-67 -135 -143 -281 -168 -325 -25 -44 -56 -98 -68 -120 -13 -22 -28 -49 -34
-60 -85 -155 -176 -225 -298 -228 -67 -2 -70 -1 -102 33 -46 50 -63 129 -47
212 37 188 163 393 295 482 68 46 108 54 135 27 35 -35 22 -108 -29 -172 -33
-42 -38 -67 -15 -75 41 -16 113 37 140 102 35 85 8 171 -66 208 -38 19 -145
21 -186 5 -75 -31 -95 -42 -142 -79 -83 -66 -141 -151 -258 -380 -86 -167
-162 -270 -234 -316 -54 -34 -117 -33 -158 2 l-32 26 38 42 c110 121 159 200
199 318 29 83 33 233 10 290 -18 42 -63 88 -87 88 -10 0 -21 5 -24 10 -8 14
-69 13 -119 -2 -174 -51 -350 -247 -432 -483 -23 -66 -31 -224 -13 -268 35
-88 78 -118 174 -118 62 -1 107 14 183 62 18 11 26 11 40 2 50 -36 78 -45 142
-45 56 0 75 5 111 28 55 34 99 82 141 151 18 29 36 53 40 53 4 0 8 -19 8 -42
0 -81 27 -131 102 -191 l46 -38 79 5 c110 7 162 16 210 38 39 18 118 93 156
147 20 30 35 20 19 -12 -15 -30 -42 -115 -42 -132 0 -23 19 -28 99 -27 l76 0
-1 34 c-4 114 45 309 97 384 65 95 234 240 348 298 48 25 119 26 137 2 22 -31
17 -61 -19 -108 -37 -49 -159 -118 -208 -118 -73 0 -127 -65 -151 -180 -9 -47
-9 -70 2 -117 24 -103 63 -160 137 -197 35 -18 161 -22 191 -7 9 5 29 14 44
21 43 20 127 110 170 183 22 37 44 67 49 67 10 0 10 2 13 -67 4 -65 27 -114
74 -154 74 -62 168 -75 281 -37 57 19 77 33 146 103 44 44 91 100 104 125 78
146 120 239 173 379 l43 113 75 -6 c64 -6 78 -10 98 -33 30 -34 25 -62 -25
-140 -37 -58 -110 -199 -124 -238 -24 -73 -29 -97 -29 -140 0 -97 55 -163 138
-167 65 -2 108 21 198 109 58 58 228 360 218 388 -8 19 -31 26 -42 12 -5 -7
-33 -57 -62 -112 -105 -200 -203 -325 -254 -325 -54 0 -61 86 -15 198 5 12 13
32 18 45 5 12 48 101 95 198 90 186 117 262 100 279 -7 7 -41 7 -105 0 -118
-12 -190 -12 -209 0 -12 8 -8 16 24 47 63 61 86 105 86 164 0 40 -6 60 -25 85
-32 41 -56 49 -93 30 -31 -16 -32 -18 -64 -171 -11 -53 -77 -263 -88 -280 -4
-5 -13 -30 -20 -55 -13 -41 -102 -223 -160 -325 -83 -148 -191 -235 -293 -235
-62 0 -91 17 -112 67 -27 65 -12 233 23 259 9 7 33 14 53 14 46 0 151 34 209
68 58 33 159 135 187 190 32 61 39 131 19 174 -23 48 -56 63 -136 62 -99 -2
-199 -58 -303 -169 -48 -51 -136 -183 -166 -250 -154 -341 -333 -484 -445
-354 -18 21 -38 56 -44 78 -17 56 -15 186 3 221 9 17 17 30 19 30 2 0 27 5 56
10 163 31 321 183 323 310 1 64 -20 95 -71 104 -44 7 -113 -4 -181 -28 -80
-29 -229 -152 -332 -274 -60 -70 -54 -27 15 109 34 68 72 142 85 164 13 22 41
72 63 110 76 132 227 371 253 401 6 7 25 30 43 52 18 23 49 57 68 76 19 19 34
38 34 44 0 29 -130 31 -175 3z m821 -712 c14 -23 4 -89 -19 -136 -49 -95 -152
-181 -269 -224 -61 -22 -88 -24 -88 -7 0 16 62 118 72 118 4 0 8 5 8 11 0 27
155 194 213 229 35 22 72 26 83 9z m-2392 -30 c13 -7 30 -25 37 -41 17 -42 6
-149 -25 -243 -38 -114 -106 -247 -106 -207 0 5 -11 21 -25 36 -17 18 -34 26
-58 26 -67 0 -102 -71 -77 -160 7 -25 14 -52 16 -60 7 -25 -64 -63 -118 -64
-71 -1 -83 16 -82 117 1 88 24 166 88 297 67 136 162 246 249 289 48 24 66 26
101 10z"/>
<path d="M4579 2867 c-54 -25 -91 -85 -277 -447 -58 -113 -138 -272 -179 -355
-41 -82 -83 -168 -95 -190 -12 -22 -48 -94 -81 -160 -65 -130 -103 -191 -145
-231 -40 -38 -117 -74 -158 -74 l-36 0 48 53 c70 76 114 172 114 247 0 43 -30
141 -67 220 -67 143 -69 273 -6 332 21 20 34 23 94 21 53 -1 69 1 69 12 0 57
-136 77 -201 30 -46 -35 -70 -61 -102 -117 -41 -71 -147 -285 -147 -297 0 -6
-3 -11 -7 -11 -5 0 -28 -42 -53 -94 -33 -68 -54 -100 -78 -115 -35 -23 -43
-37 -64 -115 -41 -152 -237 -215 -238 -76 0 47 19 100 91 258 16 35 29 69 29
75 0 7 4 17 9 23 4 5 22 44 40 86 17 42 45 107 62 144 26 55 29 71 20 90 -10
23 -16 24 -100 24 -49 0 -93 -4 -96 -10 -3 -5 2 -23 11 -39 19 -31 17 -39 -27
-138 -11 -24 -19 -47 -19 -53 0 -6 -4 -18 -9 -28 -12 -21 -84 -201 -107 -267
-11 -31 -18 -81 -18 -130 -1 -68 2 -85 22 -113 33 -45 71 -62 142 -62 69 0 87
8 152 69 l46 43 16 -31 c35 -66 163 -117 233 -92 20 8 80 14 132 15 79 1 104
5 144 25 47 23 72 22 49 -1 -19 -19 -15 -51 5 -44 9 4 43 9 75 13 65 7 65 7
106 83 94 178 175 292 281 399 109 110 194 170 225 158 30 -12 17 -59 -39
-148 -85 -134 -135 -260 -135 -337 0 -39 23 -98 48 -125 33 -34 106 -53 151
-38 98 34 153 82 236 206 58 88 147 270 143 293 -7 38 -40 17 -75 -48 -20 -36
-54 -96 -77 -135 -23 -38 -49 -81 -57 -94 -45 -76 -133 -161 -166 -161 -62 0
-69 79 -19 208 57 149 176 394 216 447 28 36 57 103 51 114 -10 16 -71 6 -131
-23 -165 -80 -276 -158 -398 -283 -46 -47 -85 -83 -88 -80 -6 6 47 121 81 177
12 19 49 87 82 150 176 335 309 566 380 660 37 50 48 72 40 78 -20 16 -120 22
-148 9z m-989 -884 c22 -193 24 -349 5 -410 -29 -92 -79 -148 -112 -127 -45
28 -72 78 -78 144 -6 74 -13 100 -26 100 -17 0 -9 21 67 178 42 86 81 168 87
182 14 32 28 50 37 50 3 0 13 -53 20 -117z m-220 -432 c0 -27 29 -93 52 -118
18 -20 18 -22 3 -31 -25 -13 -69 6 -89 39 -20 34 -20 78 0 107 19 27 34 28 34
3z"/>
<path d="M3202 2497 c-73 -27 -105 -115 -61 -171 17 -21 29 -26 66 -26 47 0
103 25 103 47 0 7 5 13 10 13 15 0 12 92 -4 112 -12 16 -58 39 -74 37 -4 0
-22 -6 -40 -12z"/>
<path d="M2249 1146 c-2 -2 -69 -7 -149 -10 -231 -11 -241 -22 -25 -28 231 -7
2050 -5 2225 2 158 6 127 16 -97 30 -157 9 -1944 15 -1954 6z"/>
<path d="M5408 1136 c-37 -6 -69 -14 -72 -17 -11 -11 234 -19 574 -19 358 0
616 9 603 20 -4 4 -40 12 -80 19 -96 15 -932 13 -1025 -3z"/>
<path d="M7318 1145 c-3 -3 -54 -8 -114 -11 -164 -10 -161 -23 6 -26 80 -1
172 -3 205 -3 135 -3 1605 -3 1670 0 39 2 133 4 209 4 77 1 136 4 132 9 -4 4
-44 11 -89 15 -89 9 -2010 20 -2019 12z"/>
</g>
</svg>
