<?xml version="1.0" standalone="no"?>
<!DOCTYPE svg PUBLIC "-//W3C//DTD SVG 20010904//EN"
 "http://www.w3.org/TR/2001/REC-SVG-20010904/DTD/svg10.dtd">
<svg version="1.0" xmlns="http://www.w3.org/2000/svg"
 width="935.491923pt" height="354.767007pt" viewBox="0 0 935.491923 354.767007"
 preserveAspectRatio="xMidYMid meet">
<metadata>
Created by potrace 1.12, written by Peter Selinger 2001-2015
</metadata>
<g transform="translate(-4.086882,358.000000) scale(0.100000,-0.100000)"
fill="#000000" stroke="none">
<path d="M1560 3330 l0 -250 35 0 35 0 0 108 c0 105 1 109 28 140 34 38 61 40
90 9 20 -21 22 -34 22 -140 l0 -117 35 0 35 0 0 119 c0 176 -20 211 -117 211
-36 0 -55 -6 -71 -20 l-22 -21 0 106 0 105 -35 0 -35 0 0 -250z"/>
<path d="M1192 3538 c3 -20 10 -24 63 -28 l60 -5 5 -200 c3 -110 9 -206 13
-212 7 -11 52 -19 59 -10 1 1 4 97 7 212 l6 210 63 3 c59 3 63 5 60 25 -3 22
-6 22 -171 25 l-168 2 3 -22z"/>
<path d="M1985 3411 c-40 -24 -59 -54 -75 -118 -14 -55 -5 -107 27 -160 35
-59 206 -72 227 -18 10 28 -9 36 -56 24 -36 -10 -52 -10 -75 0 -31 13 -68 64
-58 81 3 6 50 10 105 10 114 0 119 4 95 82 -20 67 -32 86 -65 103 -39 20 -89
19 -125 -4z m105 -58 c11 -15 20 -36 18 -47 -3 -18 -11 -21 -57 -24 -72 -4
-85 1 -70 30 19 37 51 68 70 68 10 0 27 -12 39 -27z"/>
<path d="M2595 3356 c-61 -27 -153 -156 -188 -266 -8 -25 -20 -85 -27 -135 -6
-49 -16 -99 -20 -110 -5 -11 -14 -37 -21 -58 -8 -21 -20 -44 -29 -52 -17 -15
-10 -18 -109 34 -100 53 -287 131 -312 131 -10 0 -21 5 -24 10 -3 6 -15 10
-26 10 -10 0 -27 4 -37 9 -31 16 -88 31 -115 31 -15 0 -35 4 -45 9 -30 16
-234 31 -277 21 -22 -5 -55 -10 -74 -10 -19 0 -50 -4 -68 -10 -18 -5 -50 -15
-70 -21 -87 -26 -173 -78 -277 -169 -64 -56 -133 -185 -157 -293 -13 -61 -1
-165 27 -232 27 -65 139 -155 193 -155 11 0 23 -4 26 -10 3 -6 49 -10 103 -10
160 0 275 55 359 172 37 51 63 132 47 148 -23 23 -64 -22 -64 -69 0 -26 -82
-103 -142 -132 -90 -45 -106 -49 -188 -49 -68 0 -86 4 -139 31 -80 41 -101 76
-101 170 0 39 4 69 10 69 6 0 10 9 10 19 0 29 64 135 112 187 83 89 189 154
323 198 71 23 95 26 225 26 136 0 238 -13 325 -40 138 -44 195 -64 225 -77 19
-8 44 -19 55 -23 132 -52 150 -70 126 -118 -5 -9 -13 -28 -19 -42 -14 -36 -56
-129 -135 -300 -19 -41 -47 -104 -63 -140 -53 -121 -56 -125 -100 -122 -21 2
-118 6 -214 8 -197 6 -217 3 -339 -55 -79 -37 -197 -189 -189 -244 5 -37 34
-30 94 24 78 71 156 105 281 124 153 22 319 17 330 -12 3 -7 -4 -33 -15 -56
-33 -66 -147 -306 -177 -372 -90 -198 -222 -450 -267 -510 -73 -96 -180 -200
-269 -262 -79 -54 -243 -137 -294 -148 -16 -3 -48 -10 -70 -16 -120 -31 -240
-19 -353 33 -76 36 -128 85 -161 153 -13 28 -28 58 -33 67 -4 10 -8 62 -8 117
0 83 5 114 30 191 16 50 30 98 30 106 0 26 18 5 25 -29 7 -34 12 -51 45 -162
43 -143 54 -129 58 73 2 86 8 161 13 166 5 6 9 40 9 77 0 37 5 71 10 74 6 3
10 39 10 80 0 41 5 77 10 80 6 4 10 104 10 268 l-1 262 -30 -58 c-16 -31 -32
-79 -35 -105 -14 -113 -88 -287 -230 -538 -41 -72 -74 -136 -74 -142 0 -5 -10
-30 -21 -54 -32 -63 -36 -75 -53 -157 -20 -92 -20 -142 0 -228 35 -156 72
-230 156 -310 74 -71 174 -120 311 -152 97 -23 328 -11 389 20 10 5 29 9 42 9
14 0 28 4 31 10 3 5 15 10 26 10 20 0 196 86 234 114 96 72 196 154 223 184
66 73 119 138 149 182 49 73 220 420 325 660 40 91 97 212 133 285 l40 80 255
5 c235 5 260 8 312 29 32 12 60 26 63 31 3 5 -8 16 -24 25 -25 12 -75 15 -289
15 -142 0 -261 2 -264 5 -3 3 7 29 21 58 14 29 34 73 45 98 10 24 36 81 57
126 21 44 39 83 39 86 0 11 110 237 115 237 3 0 45 -18 93 -41 98 -46 111 -52
202 -85 36 -13 77 -24 92 -24 15 0 29 -4 32 -9 9 -14 81 -23 181 -24 104 0
135 7 188 42 71 46 113 178 54 169 -12 -2 -27 -14 -34 -28 -7 -14 -23 -36 -36
-48 -39 -37 -206 -68 -222 -42 -3 6 -25 10 -47 10 -23 0 -55 4 -72 9 -257 77
-396 131 -396 154 0 7 11 37 25 65 14 29 25 57 25 63 0 7 39 51 88 99 110 109
162 214 162 327 0 84 -28 132 -97 167 -38 19 -49 19 -88 2z m106 -77 c37 -40
37 -58 -4 -103 -39 -42 -57 -34 -57 24 0 44 -24 80 -52 80 -21 0 -21 0 -2 15
34 25 82 19 115 -16z m-141 -176 c0 -16 -129 -143 -135 -133 -3 5 -1 18 5 29
5 11 10 31 10 44 0 33 27 55 75 60 22 2 41 4 43 5 1 1 2 -1 2 -5z m-144 -360
c-4 -21 -9 -46 -12 -55 -6 -19 -29 -24 -38 -9 -6 9 41 101 51 101 3 0 2 -17
-1 -37z m-66 -142 c0 -4 -20 -49 -45 -100 -25 -50 -45 -94 -45 -96 0 -5 -33
-79 -80 -180 -15 -33 -38 -82 -50 -110 -59 -131 -71 -155 -80 -155 -13 0 -13
1 4 36 8 16 21 46 30 67 29 67 44 101 79 177 68 148 119 264 137 310 7 19 18
41 23 48 11 14 27 16 27 3z m-351 -788 c-5 -16 -23 -55 -39 -88 -86 -177 -160
-337 -181 -392 -13 -35 -27 -63 -31 -63 -5 0 -8 -9 -8 -20 0 -11 -4 -20 -10
-20 -5 0 -10 6 -10 13 0 18 24 67 33 67 4 0 7 11 7 25 0 14 5 25 10 25 6 0 10
8 10 18 0 10 14 46 30 80 17 34 30 64 30 67 0 2 20 46 44 97 24 51 56 121 72
156 15 34 33 62 41 62 9 0 10 -6 2 -27z m-1742 -600 c-3 -10 -24 -70 -46 -133
-35 -97 -42 -132 -48 -223 -7 -124 -23 -125 -23 -1 0 85 28 192 84 319 23 51
45 77 33 38z m913 -690 c-114 -76 -263 -143 -322 -143 -15 0 -30 -4 -33 -10
-4 -6 -62 -10 -142 -10 -123 0 -144 3 -212 27 -96 34 -195 103 -148 103 8 0
24 -11 36 -24 71 -76 279 -108 456 -71 39 8 84 17 100 20 17 4 39 10 50 14 76
31 134 61 188 97 34 23 66 39 70 37 5 -3 -15 -21 -43 -40z"/>
<path d="M5185 3342 c-76 -26 -140 -67 -176 -114 -42 -52 -99 -165 -99 -194 0
-13 -4 -26 -10 -29 -5 -3 -10 -15 -10 -26 0 -10 -4 -27 -10 -37 -5 -9 -16 -57
-25 -107 -12 -71 -15 -173 -15 -480 0 -214 4 -426 10 -470 5 -44 15 -127 21
-185 6 -58 15 -139 21 -180 5 -41 12 -139 14 -217 l5 -142 -103 -76 c-182
-134 -247 -186 -309 -250 -146 -150 -212 -294 -193 -420 13 -90 74 -80 74 12
0 48 14 81 67 154 l35 49 71 0 c85 0 265 -30 307 -50 8 -5 27 -13 43 -19 25
-10 27 -14 27 -73 0 -76 -24 -215 -47 -282 -10 -27 -35 -65 -55 -86 -41 -41
-47 -60 -23 -80 20 -17 58 -6 99 30 34 31 63 82 86 155 7 22 16 49 20 60 12
30 40 172 40 199 0 47 22 51 117 21 49 -15 98 -31 111 -36 13 -5 34 -9 47 -9
13 0 27 -5 30 -10 3 -6 19 -10 35 -10 16 0 31 -4 34 -9 3 -5 20 -11 38 -14 18
-3 62 -13 98 -22 97 -25 158 -36 225 -42 33 -2 64 -9 70 -14 12 -12 222 -12
304 1 208 32 266 47 353 91 10 5 22 9 28 9 24 0 163 104 192 143 84 115 103
225 59 347 -30 83 -73 130 -118 130 -38 0 -40 -7 -13 -60 24 -48 25 -125 2
-161 -72 -111 -93 -133 -175 -189 -62 -41 -177 -93 -242 -109 -27 -7 -59 -17
-70 -21 -35 -14 -175 -25 -320 -23 -227 2 -384 23 -647 87 -149 37 -141 32
-133 80 4 23 9 130 11 240 6 222 5 218 93 320 36 41 104 134 136 185 6 9 29
43 51 77 81 123 235 456 251 544 2 14 8 34 13 45 5 11 11 31 14 45 2 14 13 63
24 110 57 252 55 462 -4 670 -8 30 -19 69 -23 85 -8 31 -34 95 -54 130 -6 11
-17 34 -26 50 -21 42 -129 148 -171 167 -57 26 -147 30 -205 10z m133 -128
c45 -22 110 -100 142 -169 61 -131 80 -214 87 -375 2 -58 8 -109 14 -114 12
-13 12 -169 0 -181 -5 -6 -12 -46 -14 -90 -9 -142 -40 -257 -124 -450 -65
-150 -205 -373 -311 -493 l-20 -22 -6 32 c-4 18 -11 67 -16 108 -11 95 -28
217 -35 250 -7 32 -27 208 -56 495 -16 160 -22 476 -10 488 6 6 11 46 11 89 0
85 17 144 76 263 36 74 56 99 117 153 43 37 93 42 145 16z m-393 -1091 c4
-117 11 -213 16 -213 5 0 9 -49 9 -108 0 -59 4 -112 9 -117 5 -6 12 -64 15
-130 17 -345 17 -324 2 -280 -15 45 -36 231 -36 321 0 33 -4 64 -9 69 -15 16
-22 182 -25 655 -2 450 -1 434 19 -197z m3 -1294 l-3 -164 -34 -3 c-18 -2 -38
1 -44 7 -6 6 -24 11 -39 11 -16 0 -36 4 -46 9 -9 5 -44 15 -77 21 -107 21
-107 16 2 114 54 49 124 106 155 127 31 21 60 44 64 50 18 29 24 -22 22 -172z
m1783 -139 c-38 -75 -72 -113 -141 -159 -117 -79 -310 -154 -310 -121 0 6 9
10 20 10 19 0 38 7 117 41 24 11 45 19 48 19 3 0 36 20 74 45 127 84 209 196
213 292 2 46 2 46 5 -10 3 -49 -1 -67 -26 -117z"/>
<path d="M7765 2622 c-57 -35 -108 -108 -229 -324 -14 -27 -37 -67 -50 -90
-13 -24 -75 -144 -139 -268 -143 -280 -258 -496 -300 -565 -108 -177 -170
-225 -287 -225 -68 0 -69 0 -104 42 -20 23 -36 52 -36 65 0 14 -5 33 -11 44
-15 29 16 155 64 259 90 195 234 350 325 350 31 0 41 -5 52 -25 11 -21 10 -33
-5 -80 -9 -31 -28 -69 -42 -85 -32 -39 -27 -64 14 -68 59 -6 143 98 143 179 0
46 -36 103 -82 128 -45 24 -157 29 -205 10 -71 -29 -91 -40 -130 -68 -84 -61
-149 -157 -279 -409 -68 -132 -86 -160 -147 -235 -71 -87 -164 -112 -218 -61
l-28 26 37 40 c71 77 135 179 182 293 17 40 40 153 40 195 0 60 -29 146 -59
176 -50 50 -143 69 -208 43 -109 -45 -138 -64 -216 -142 -242 -243 -315 -616
-140 -714 26 -15 165 -17 191 -4 9 5 38 19 64 32 l47 23 39 -22 c58 -33 173
-31 233 3 57 32 120 98 153 160 14 27 26 45 27 40 0 -6 2 -30 3 -55 4 -67 29
-113 90 -165 l55 -46 88 4 c167 9 242 36 316 115 49 53 63 47 33 -14 -8 -16
-18 -41 -21 -56 l-7 -28 101 0 101 0 0 72 c0 39 4 85 9 102 6 17 19 63 30 101
27 92 89 181 193 280 134 127 197 165 271 165 52 0 67 -13 67 -57 0 -66 -120
-155 -225 -167 -70 -8 -115 -57 -145 -157 -22 -72 -22 -76 -6 -144 22 -94 52
-144 110 -183 45 -30 54 -32 131 -32 92 0 133 15 206 78 37 32 120 140 132
172 4 11 6 9 6 -5 3 -61 72 -189 110 -202 9 -4 18 -9 21 -13 20 -24 192 -41
205 -20 3 6 16 10 29 10 59 0 198 110 247 195 40 71 145 288 168 350 13 33 29
74 36 90 8 17 19 43 25 59 11 30 15 30 105 11 84 -18 100 -52 59 -123 -14 -26
-36 -65 -49 -87 -79 -139 -125 -261 -125 -329 0 -46 40 -127 74 -149 32 -21
112 -22 160 -2 37 15 166 136 166 154 0 5 17 36 39 68 43 65 121 224 121 247
0 9 -8 20 -18 25 -15 8 -25 -6 -76 -102 -73 -139 -145 -244 -202 -297 -50 -46
-68 -48 -92 -8 -16 28 -15 35 20 143 18 53 43 110 146 325 61 126 84 192 76
214 -5 14 -29 16 -168 16 -153 1 -160 1 -135 17 15 9 41 39 58 68 26 42 31 61
31 112 0 52 -4 66 -26 92 -20 25 -34 31 -64 31 -21 0 -43 -6 -49 -14 -10 -12
-36 -101 -61 -206 -5 -19 -13 -51 -19 -70 -5 -19 -13 -46 -16 -60 -7 -26 -22
-64 -36 -92 -5 -10 -9 -25 -9 -33 0 -8 -4 -23 -9 -33 -4 -9 -39 -80 -76 -157
-37 -77 -81 -159 -96 -183 -16 -24 -29 -46 -29 -50 0 -16 -128 -131 -167 -151
-110 -55 -213 4 -213 123 0 59 20 147 38 169 8 9 27 17 42 17 35 0 141 35 210
70 68 34 167 131 200 195 20 39 25 62 24 116 -2 81 -21 107 -86 120 -102 19
-200 -15 -306 -106 -98 -84 -136 -137 -237 -330 -93 -176 -108 -202 -148 -254
-63 -82 -121 -120 -181 -121 -44 0 -53 4 -86 39 -45 47 -70 119 -70 203 0 83
23 123 77 132 74 14 146 44 194 83 73 59 101 91 125 138 31 65 34 107 10 158
-20 40 -30 43 -144 38 -115 -6 -225 -72 -379 -229 -51 -52 -93 -89 -93 -83 0
5 5 13 10 16 6 3 10 15 10 25 0 10 4 20 9 22 4 2 24 37 44 78 50 103 123 234
205 370 51 84 173 272 181 280 4 3 26 31 50 63 24 32 55 67 68 77 20 16 22 22
13 39 -9 18 -20 21 -78 21 -47 0 -76 -5 -97 -18z m833 -751 c2 -19 -1 -45 -7
-58 -6 -13 -16 -34 -23 -48 -22 -47 -115 -140 -169 -169 -59 -32 -160 -69
-167 -61 -13 13 164 263 224 315 53 46 79 59 109 57 26 -2 30 -6 33 -36z
m-2394 4 c34 -26 47 -66 45 -137 -1 -37 -5 -65 -9 -63 -4 3 -10 -10 -13 -28
-10 -69 -106 -275 -115 -247 -11 35 -35 50 -82 50 -53 0 -70 -13 -91 -72 -11
-34 -11 -45 8 -97 l20 -60 -38 -26 c-46 -30 -119 -35 -140 -9 -7 9 -15 46 -17
83 -5 91 38 219 127 376 61 107 136 184 217 225 47 23 63 24 88 5z"/>
<path d="M4452 2572 c-26 -26 -59 -71 -75 -100 -15 -29 -51 -96 -79 -150 -28
-53 -142 -277 -253 -497 -214 -424 -231 -457 -275 -520 -63 -89 -150 -155
-205 -155 l-31 0 50 52 c89 93 136 225 107 300 -5 13 -15 43 -22 68 -7 25 -26
72 -42 104 -82 167 -71 292 31 351 27 16 36 17 52 7 11 -6 29 -12 40 -12 28 0
26 35 -2 54 -29 20 -120 21 -157 1 -55 -28 -112 -108 -192 -270 -144 -289
-176 -347 -209 -366 -33 -20 -41 -36 -62 -114 -10 -37 -26 -63 -65 -102 -47
-48 -56 -53 -96 -53 -36 0 -48 5 -61 25 -17 26 -21 75 -8 91 4 5 14 27 21 49
14 43 50 127 82 188 10 22 19 43 19 48 0 5 9 28 19 52 79 171 104 236 105 272
l1 40 -119 3 -119 3 32 -37 c18 -20 30 -41 28 -48 -36 -89 -94 -230 -108 -263
-11 -24 -19 -47 -19 -53 0 -6 -4 -18 -9 -28 -56 -106 -76 -250 -46 -328 24
-63 61 -84 147 -84 75 0 133 25 175 74 13 16 25 27 27 25 1 -2 13 -19 25 -36
36 -52 139 -89 217 -78 27 3 93 9 147 11 53 3 97 10 97 15 0 5 9 9 21 9 11 0
34 9 50 20 l28 21 -14 -35 c-8 -20 -15 -38 -15 -41 0 -11 110 -4 142 9 26 11
42 30 68 78 18 35 53 94 77 131 23 37 43 70 43 73 0 3 25 37 57 77 73 93 213
229 260 253 21 10 41 22 44 27 3 4 13 -1 22 -11 16 -17 15 -22 -23 -83 -114
-183 -176 -378 -141 -447 5 -9 14 -29 21 -44 22 -47 155 -91 175 -58 3 6 15
10 27 10 36 0 104 55 164 135 43 56 133 212 154 265 7 19 17 39 22 45 11 13
10 63 -2 70 -15 9 -38 -12 -59 -54 -10 -20 -35 -65 -56 -101 -20 -36 -46 -81
-57 -100 -56 -99 -162 -210 -199 -210 -53 0 -50 119 6 245 10 22 26 58 35 80
27 63 91 191 153 306 31 59 57 114 57 123 0 12 -10 16 -47 16 -99 0 -314 -131
-465 -282 -100 -100 -125 -119 -90 -70 11 15 48 81 82 147 144 277 215 408
302 558 37 65 68 120 68 122 0 7 114 170 122 173 23 10 2 30 -43 40 -88 21
-105 17 -157 -36z m-936 -1055 c7 -173 0 -216 -46 -284 -35 -51 -60 -53 -98
-8 -21 26 -32 52 -36 88 -4 29 -14 73 -23 98 l-16 45 72 148 c39 81 71 148 71
150 0 2 12 25 28 52 l27 49 7 -90 c4 -49 10 -161 14 -248z m-226 -247 c0 -26
20 -70 42 -96 16 -18 17 -23 4 -33 -12 -10 -20 -9 -39 3 -42 28 -60 94 -36
137 12 23 29 16 29 -11z"/>
<path d="M3104 2236 c-20 -9 -39 -30 -53 -58 -26 -54 -26 -65 -1 -105 19 -31
23 -33 81 -33 55 0 64 3 90 31 24 26 29 39 29 84 0 38 -5 56 -19 69 -26 24
-89 30 -127 12z"/>
<path d="M2158 889 c-301 -8 -368 -15 -368 -39 0 -7 421 -10 1305 -10 1126 0
1305 2 1305 14 0 19 -19 24 -105 26 -38 2 -117 4 -175 6 -269 9 -1679 11
-1962 3z"/>
<path d="M5390 888 c-116 -7 -161 -14 -180 -26 -24 -16 -7 -17 313 -20 186 -1
488 -1 670 0 284 3 329 5 308 16 -13 8 -62 18 -110 23 -128 13 -822 19 -1001
7z"/>
<path d="M7335 889 c-301 -8 -347 -12 -378 -34 -19 -13 110 -15 1218 -15 1226
0 1301 2 1179 31 -107 25 -1369 36 -2019 18z"/>
</g>
</svg>
