<?xml version="1.0" standalone="no"?>
<!DOCTYPE svg PUBLIC "-//W3C//DTD SVG 20010904//EN"
 "http://www.w3.org/TR/2001/REC-SVG-20010904/DTD/svg10.dtd">
<svg version="1.0" xmlns="http://www.w3.org/2000/svg"
 width="1041.014174pt" height="637.120290pt" viewBox="0 0 1041.014174 637.120290"
 preserveAspectRatio="xMidYMid meet">
<metadata>
Created by potrace 1.12, written by Peter Selinger 2001-2015
</metadata>
<g transform="translate(-14.985826,637.023389) scale(0.100000,-0.100000)"
fill="#000000" stroke="none">
<path d="M1117 6338 c-13 -28 -38 -83 -102 -223 -62 -134 -134 -354 -201 -610
-54 -207 -55 -239 -14 -260 63 -33 65 -30 115 180 52 217 82 304 108 314 29
11 320 23 352 15 30 -7 32 -27 9 -99 -70 -229 -88 -299 -85 -336 1 -21 87 -67
100 -54 5 6 17 50 25 99 14 80 133 480 173 581 8 22 23 63 33 91 10 28 32 83
49 122 38 86 38 105 5 131 -36 28 -48 27 -78 -10 -34 -40 -45 -67 -101 -246
-25 -81 -51 -150 -57 -154 -8 -5 -280 -22 -378 -24 -10 0 -14 9 -13 25 2 44
71 218 125 319 l52 98 -27 37 c-36 47 -69 48 -90 4z"/>
<path d="M2746 6307 c-34 -38 -163 -271 -196 -357 -11 -30 -25 -64 -30 -75
-31 -65 -111 -312 -121 -371 -10 -64 -10 -75 9 -117 27 -62 96 -107 161 -107
58 0 160 22 234 50 53 20 58 24 55 48 -5 42 -45 56 -122 43 -34 -6 -95 -11
-134 -11 l-71 0 -9 32 c-12 47 8 131 72 303 63 166 147 348 205 440 54 85 58
102 30 131 -30 32 -46 30 -83 -9z"/>
<path d="M2258 6299 c-37 -4 -83 -12 -101 -18 -19 -7 -61 -11 -93 -10 -40 1
-71 -4 -93 -15 -54 -29 -119 -94 -127 -129 -7 -34 -35 -88 -124 -237 -79 -131
-96 -170 -116 -257 -32 -145 -1 -224 116 -295 l65 -40 92 6 c154 9 285 64 361
150 31 36 48 73 38 83 -17 17 -71 2 -133 -35 -94 -57 -144 -73 -244 -79 -117
-8 -165 18 -187 99 -11 41 5 134 33 188 14 27 17 28 69 23 44 -5 89 3 226 37
94 23 181 50 192 60 20 16 20 20 9 49 -8 17 -23 34 -35 37 -12 3 -86 -11 -166
-31 -79 -19 -154 -35 -167 -35 -26 0 -41 26 -27 45 10 13 69 102 118 177 39
60 60 68 251 103 148 26 195 43 195 68 0 18 -40 53 -65 59 -11 3 -50 2 -87 -3z"/>
<path d="M3961 6264 c-30 -8 -59 -18 -65 -23 -6 -5 -22 -12 -36 -16 -52 -16
-114 -70 -173 -151 -112 -150 -171 -292 -193 -460 -18 -145 70 -274 187 -274
107 0 326 150 396 270 65 112 102 264 103 421 0 83 -3 102 -26 147 -41 82
-102 110 -193 86z m90 -131 c15 -39 11 -222 -6 -287 -20 -75 -62 -163 -117
-246 -37 -55 -53 -70 -110 -99 -78 -39 -147 -51 -166 -28 -7 8 -18 40 -24 70
-11 50 -9 66 15 162 44 170 162 380 225 397 15 4 33 16 42 27 17 22 74 39 108
33 13 -3 28 -15 33 -29z"/>
<path d="M3267 6227 c-79 -79 -204 -311 -261 -484 -32 -95 -66 -274 -59 -306
12 -54 48 -109 85 -128 78 -40 355 -8 390 45 32 48 -22 64 -193 58 l-138 -5
-11 27 c-16 42 -12 89 14 178 66 223 153 410 269 576 37 53 31 82 -19 82 -27
0 -43 -9 -77 -43z"/>
<path d="M8794 5987 c-12 -17 -32 -54 -44 -80 -21 -45 -172 -207 -193 -207 -5
0 -32 -19 -60 -43 -54 -45 -165 -107 -192 -107 -20 0 -19 24 1 41 8 7 22 25
30 41 20 38 29 175 15 211 l-11 29 -30 -29 c-17 -15 -30 -32 -30 -37 0 -15
-52 -66 -66 -66 -7 0 -19 -8 -26 -18 -32 -42 -252 -162 -299 -162 l-26 0 1
113 c1 102 -1 115 -22 145 -26 36 -42 34 -42 -5 0 -14 -10 -46 -22 -70 -30
-59 -111 -99 -230 -113 -45 -5 -116 -16 -155 -25 -71 -14 -165 -54 -178 -75
-14 -22 -35 -8 -55 38 -12 26 -33 60 -48 76 -28 30 -139 89 -152 81 -4 -3 8
-21 26 -41 29 -30 34 -43 34 -83 0 -33 -5 -53 -17 -63 -33 -28 -148 -77 -198
-84 -72 -10 -189 -40 -238 -62 -23 -11 -55 -33 -71 -51 -33 -35 -47 -38 -79
-16 -67 43 -218 68 -264 42 -19 -11 -16 -12 29 -14 70 -2 108 -38 108 -102 0
-30 -7 -55 -20 -71 -11 -14 -20 -29 -20 -33 0 -4 -38 -52 -85 -105 -97 -110
-137 -181 -143 -258 -5 -64 26 -138 69 -163 16 -9 29 -19 29 -23 0 -5 16 -25
35 -47 19 -21 35 -43 35 -48 0 -6 7 -16 15 -23 22 -18 20 -93 -3 -113 -35 -32
-120 -9 -146 38 -20 36 -54 74 -60 68 -14 -14 -5 -132 14 -186 38 -107 67
-143 127 -159 24 -6 43 -16 43 -23 0 -7 -12 -36 -26 -64 -20 -38 -27 -66 -27
-113 -1 -73 12 -101 56 -128 46 -29 112 -25 88 4 -10 12 -14 38 -12 73 1 28
46 70 84 79 50 11 62 -12 63 -124 0 -94 2 -100 43 -182 43 -83 94 -160 179
-266 23 -30 42 -57 42 -60 0 -3 18 -28 40 -54 22 -26 40 -52 40 -57 0 -6 9
-18 21 -29 12 -10 39 -50 62 -89 22 -38 54 -83 71 -98 50 -48 103 -125 147
-216 22 -47 63 -131 90 -186 61 -127 89 -193 89 -214 1 -9 9 -32 20 -51 23
-43 26 -20 6 48 -7 26 -24 85 -37 132 -12 47 -47 140 -76 207 -29 67 -53 125
-53 130 0 7 -71 138 -120 223 -8 14 -38 54 -65 90 -28 36 -63 83 -78 105 -15
22 -50 72 -77 110 -28 39 -67 94 -88 124 -146 212 -196 340 -139 355 12 3 62
6 111 6 107 0 244 34 351 87 129 64 265 115 337 125 86 13 253 0 343 -26 149
-44 430 -56 534 -23 57 18 185 84 236 122 129 96 370 152 495 114 19 -5 75
-14 124 -19 49 -5 94 -14 100 -20 6 -6 11 -36 11 -68 0 -47 -7 -69 -39 -127
-21 -38 -53 -83 -72 -98 -19 -16 -34 -33 -34 -39 0 -5 -26 -41 -57 -78 -178
-211 -298 -466 -372 -790 -10 -47 -27 -119 -37 -160 -15 -59 -19 -115 -19
-267 0 -174 4 -217 21 -201 3 4 7 63 10 133 2 73 12 167 24 223 12 53 28 131
36 172 16 79 62 237 95 330 21 56 89 173 145 246 17 23 37 64 43 90 20 79 96
197 181 280 17 16 37 39 43 51 7 11 30 47 52 79 49 72 69 144 60 216 -6 49 -4
56 24 92 30 38 31 43 30 128 -1 70 2 93 15 107 9 10 22 38 29 62 15 50 42 64
56 27 5 -13 14 -36 20 -52 l12 -28 18 23 c63 82 82 236 41 339 -40 102 -10
140 43 55 37 -58 45 -62 58 -28 18 47 -14 214 -63 329 -16 38 -90 143 -142
200 -51 58 -45 79 22 69 26 -4 55 -11 64 -16 56 -30 32 28 -37 89 -60 53 -122
82 -220 102 -54 11 -80 20 -80 30 0 14 92 55 155 68 19 5 35 12 35 17 0 14
-96 43 -145 44 -58 1 -165 -23 -261 -60 -101 -39 -103 -39 -93 14 12 59 11
190 -1 194 -5 1 -20 -12 -31 -30z m21 -79 c-8 -46 -25 -88 -85 -210 -22 -43
-37 -78 -35 -78 2 0 33 22 68 48 35 27 98 63 139 80 92 38 225 75 244 68 22
-9 16 -26 -13 -37 -41 -15 -113 -89 -113 -116 0 -22 1 -23 88 -17 149 11 286
-25 269 -70 -4 -11 -18 -16 -42 -16 -34 0 -85 -24 -85 -40 0 -4 19 -20 43 -36
110 -73 220 -242 267 -411 17 -61 17 -63 -2 -63 -10 0 -24 11 -30 25 -6 14
-26 34 -45 45 -18 11 -35 25 -37 32 -3 7 -14 45 -25 83 -24 85 -63 134 -164
208 -91 66 -98 70 -177 107 -171 81 -296 104 -371 68 -20 -10 -108 -93 -198
-188 -90 -93 -170 -170 -179 -170 -8 0 -27 13 -41 30 -14 16 -38 32 -53 34
-36 6 -35 2 7 -23 39 -23 44 -47 19 -89 -23 -39 -99 -92 -169 -120 -33 -13
-74 -30 -92 -38 -58 -26 -81 -12 -48 32 8 10 15 36 15 58 0 32 -6 45 -36 72
-19 19 -44 34 -55 34 -31 0 -22 -18 16 -30 30 -10 35 -16 35 -44 0 -18 -9 -41
-19 -53 -22 -23 -119 -72 -166 -83 -16 -5 -57 -15 -90 -24 -97 -26 -304 -17
-339 15 -6 5 -2 22 9 42 12 23 16 43 11 61 -7 28 -26 27 -26 -3 0 -31 -22 -41
-94 -41 -77 0 -115 12 -276 85 -318 144 -352 143 -517 -18 -51 -50 -93 -96
-93 -102 0 -6 -11 -22 -25 -35 -74 -70 -129 -169 -150 -272 -3 -19 -12 -28
-24 -28 -29 0 -45 28 -45 78 1 68 42 142 140 255 23 26 57 73 74 104 31 54 32
62 27 130 -3 40 -2 75 1 77 14 8 50 -14 87 -53 l39 -41 56 59 c49 52 62 60
106 66 201 29 330 72 391 130 40 39 43 46 44 96 1 30 1 57 1 60 -3 19 36 -6
57 -36 20 -29 23 -45 21 -112 -3 -103 -4 -100 28 -72 46 43 156 108 192 115
19 4 44 11 55 17 11 6 69 13 130 17 80 5 119 12 144 26 18 10 44 25 58 32 13
8 32 32 42 55 10 23 27 60 36 82 15 35 18 38 25 19 9 -22 -4 -176 -16 -196 -4
-7 -25 -36 -46 -64 -21 -28 -38 -54 -38 -58 0 -11 100 5 164 26 59 19 173 79
228 121 45 33 97 87 147 151 54 70 64 60 47 -40 -8 -51 -22 -85 -48 -125 -48
-72 -72 -92 -140 -118 -144 -54 -170 -66 -181 -80 -10 -12 -6 -13 28 -7 22 4
58 13 80 20 37 13 67 21 168 47 48 12 192 83 234 115 17 13 35 24 40 24 4 0
48 40 96 89 93 94 177 204 177 231 0 20 9 30 28 30 11 0 12 -9 7 -42z m72
-393 c19 -8 43 -15 53 -15 26 0 208 -97 280 -150 36 -27 75 -62 87 -78 27 -36
53 -98 53 -124 0 -32 -61 -147 -89 -169 -43 -34 -99 -126 -111 -182 -12 -62 3
-151 44 -261 16 -43 26 -89 26 -123 0 -47 -4 -59 -29 -84 -25 -24 -38 -29 -78
-29 -26 0 -64 5 -83 10 -19 5 -64 16 -100 25 -36 9 -92 25 -125 37 -117 39
-276 77 -420 99 -103 16 -423 6 -505 -15 -177 -48 -286 -89 -379 -145 -355
-212 -572 -317 -736 -358 -165 -41 -232 -43 -295 -9 -96 51 -108 121 -46 252
29 61 36 88 36 137 0 60 0 60 -54 111 -29 28 -73 65 -97 81 -54 38 -92 104
-92 159 0 36 27 107 66 172 24 40 102 137 169 208 56 60 77 75 123 90 65 20
84 16 255 -54 63 -27 165 -67 225 -89 61 -23 144 -55 185 -70 110 -42 209 -61
323 -61 132 0 293 29 382 70 24 11 48 20 52 20 31 0 176 73 269 136 85 57 146
110 257 223 149 152 187 185 222 194 41 10 97 7 132 -8z m530 -585 c17 -33 26
-75 33 -153 6 -59 8 -112 5 -118 -12 -18 -26 -9 -40 25 -9 20 -28 41 -46 50
-54 27 -59 23 -59 -52 0 -102 -34 -125 -64 -43 -42 117 -22 181 105 329 19 22
42 9 66 -38z m-3054 -515 c32 -30 37 -40 37 -80 0 -29 -12 -74 -32 -123 -25
-60 -32 -90 -31 -140 0 -59 -1 -64 -27 -77 -39 -20 -100 -94 -100 -122 0 -37
-27 -27 -34 13 -11 56 11 136 56 206 47 72 63 112 54 134 -4 12 -13 7 -37 -21
-30 -34 -35 -36 -88 -33 -49 3 -58 6 -76 34 -24 35 -61 161 -51 171 3 4 16 -3
29 -14 35 -33 62 -43 112 -43 38 0 52 5 75 28 16 16 32 45 35 65 9 47 28 48
78 2z m2064 -28 c50 -8 96 -18 103 -22 6 -4 32 -10 58 -14 38 -5 47 -10 47
-26 0 -13 -9 -21 -30 -25 -41 -9 -133 -55 -190 -96 -51 -37 -97 -60 -170 -85
-63 -22 -86 -24 -240 -24 -170 0 -216 6 -357 46 -36 10 -84 19 -106 19 -23 0
-43 4 -46 9 -12 19 26 43 155 100 139 61 284 103 423 121 44 6 82 13 85 16 8
8 159 -3 268 -19z"/>
<path d="M8880 5234 c-87 -31 -133 -95 -133 -185 0 -90 54 -159 150 -189 61
-19 122 0 177 56 88 88 71 233 -34 296 -59 35 -104 41 -160 22z m55 -76 c21
-9 25 -18 23 -42 -3 -30 -5 -31 -53 -31 -48 0 -50 1 -53 30 -6 47 32 67 83 43z
m-29 -152 c8 -35 -4 -49 -37 -44 -23 4 -26 2 -18 -9 8 -9 36 -13 84 -13 57 0
78 4 98 20 26 21 57 27 57 11 0 -20 -43 -60 -77 -72 -45 -15 -145 -6 -178 15
-14 9 -32 30 -40 46 -14 28 -14 31 1 37 9 3 19 0 23 -6 6 -8 13 -4 25 13 21
33 54 34 62 2z"/>
<path d="M6630 4899 c-43 -18 -89 -71 -106 -122 -22 -65 -6 -125 47 -178 43
-43 83 -54 161 -47 46 5 57 11 100 56 47 49 48 52 48 114 0 72 -18 110 -73
152 -39 30 -134 43 -177 25z m98 -72 c23 -18 10 -51 -25 -61 -41 -11 -86 14
-81 47 5 34 70 43 106 14z m-58 -121 c6 -8 10 -25 8 -38 -2 -19 -9 -23 -36
-21 -28 1 -31 -1 -21 -14 10 -12 27 -13 83 -8 39 4 75 11 81 16 14 14 45 11
45 -5 0 -8 -12 -24 -26 -35 -22 -17 -41 -21 -105 -21 -73 0 -81 2 -114 31 -35
31 -50 77 -20 65 8 -3 22 -9 30 -12 10 -4 15 0 15 13 0 38 37 56 60 29z"/>
<path d="M3590 4984 c-24 -52 -80 -256 -80 -292 0 -49 25 -13 43 61 13 52 24
78 36 82 28 8 109 10 117 2 4 -4 2 -37 -5 -73 -13 -63 -10 -87 8 -68 5 5 21
52 35 104 14 52 34 121 45 152 12 34 16 60 10 63 -17 11 -29 -5 -45 -63 -9
-31 -19 -60 -23 -63 -3 -4 -34 -10 -68 -14 -62 -7 -63 -7 -63 18 0 14 9 46 20
72 19 44 19 65 1 65 -5 0 -19 -21 -31 -46z"/>
<path d="M839 4910 c-85 -148 -85 -147 -99 -134 -9 9 -8 28 5 80 17 72 17 145
0 151 -17 5 -178 -285 -170 -305 6 -16 8 -15 21 3 9 11 36 62 60 113 26 53 51
92 59 92 19 0 19 3 -4 -78 -18 -66 -15 -112 8 -112 24 0 79 64 116 134 34 64
60 95 70 84 2 -2 -8 -39 -21 -83 -27 -90 -34 -156 -18 -162 7 -2 16 21 23 59
7 35 22 102 33 149 21 87 20 119 -5 119 -7 0 -42 -50 -78 -110z"/>
<path d="M2726 5004 c-11 -28 -6 -83 10 -124 15 -38 15 -45 0 -98 -18 -65 -21
-102 -7 -102 5 0 17 21 26 48 10 26 23 62 29 80 7 18 42 66 79 107 62 69 79
95 59 95 -5 0 -34 -29 -66 -66 -35 -38 -65 -64 -74 -62 -18 4 -30 36 -31 90
-1 40 -15 58 -25 32z"/>
<path d="M1317 4963 c-38 -63 -89 -182 -94 -222 -10 -74 15 -51 48 45 18 52
38 102 44 111 21 29 35 4 35 -61 0 -47 5 -70 18 -86 l19 -23 26 34 c47 62 106
216 89 234 -13 13 -21 2 -40 -52 -40 -113 -49 -134 -59 -144 -19 -19 -27 11
-31 109 -5 105 -17 117 -55 55z"/>
<path d="M4253 4988 c-6 -7 -18 -27 -27 -45 -12 -24 -23 -32 -48 -35 -38 -3
-44 -21 -9 -26 25 -4 25 -14 -3 -87 -22 -57 -21 -107 2 -103 12 2 19 17 23 53
8 69 42 131 74 139 27 7 35 26 10 26 -18 0 -19 23 -3 50 15 24 -2 49 -19 28z"/>
<path d="M2342 4940 c1 -13 9 -25 16 -28 17 -5 15 23 -4 39 -14 11 -15 10 -12
-11z"/>
<path d="M2062 4874 c-52 -36 -72 -143 -32 -164 25 -13 51 -6 75 20 20 22 6
27 -24 8 -26 -16 -53 -3 -49 24 2 18 10 23 37 25 53 2 87 55 56 87 -20 20 -35
20 -63 0z m46 -36 c-4 -30 -48 -39 -48 -10 0 24 8 32 32 32 14 0 19 -6 16 -22z"/>
<path d="M2431 4865 c-38 -32 -43 -80 -10 -90 27 -9 21 -39 -9 -43 -29 -4 -18
-22 13 -22 59 0 74 34 30 68 -33 26 -32 59 1 74 20 9 30 9 46 -1 18 -11 19
-10 16 11 -5 34 -47 36 -87 3z"/>
<path d="M4016 4865 c-23 -21 -27 -31 -21 -53 3 -15 7 -38 8 -52 2 -21 -2 -24
-23 -22 -21 4 -23 2 -10 -13 8 -9 24 -15 39 -13 25 3 26 5 26 73 0 65 2 70 23
73 15 2 22 -2 22 -13 0 -9 6 -15 13 -12 6 2 12 15 12 28 0 36 -52 39 -89 4z"/>
<path d="M957 4839 c-3 -26 0 -60 10 -88 14 -40 13 -48 -1 -78 -14 -29 -20
-33 -57 -33 -28 0 -39 -4 -37 -12 8 -22 62 -21 91 2 35 28 132 219 117 234
-12 12 -36 -17 -45 -56 -4 -15 -12 -32 -20 -38 -19 -16 -37 21 -33 67 4 52
-18 53 -25 2z"/>
<path d="M1551 4845 c-47 -53 -65 -93 -50 -111 17 -20 41 -17 79 11 l33 24 31
-25 c30 -26 50 -18 26 11 -7 8 -12 33 -12 55 1 30 -5 44 -21 55 -33 23 -52 18
-86 -20z m69 -13 c0 -20 -49 -72 -68 -72 -19 0 -14 35 9 64 24 30 59 35 59 8z"/>
<path d="M1727 4873 c-13 -12 -7 -23 13 -23 24 0 24 -4 0 -55 -36 -74 -19 -90
27 -25 34 49 59 49 55 0 l-2 -35 28 33 c32 36 52 41 52 13 0 -47 30 -67 58
-39 18 18 14 30 -8 23 -17 -6 -20 -2 -20 30 0 40 -17 53 -49 36 -16 -9 -22 -8
-30 6 -8 14 -13 15 -35 5 -24 -11 -26 -10 -26 13 0 21 -5 25 -28 25 -16 0 -32
-3 -35 -7z"/>
<path d="M2937 4864 c-16 -9 -37 -34 -47 -56 -23 -52 -14 -82 27 -86 43 -4 93
53 93 107 0 52 -22 63 -73 35z m39 -56 c-8 -39 -23 -58 -47 -58 -12 0 -19 7
-19 20 0 31 30 70 52 70 18 0 20 -5 14 -32z"/>
<path d="M3263 4868 c-28 -45 -44 -148 -23 -148 6 0 15 12 21 27 14 39 37 62
84 86 49 25 29 35 -27 13 l-40 -17 6 26 c7 26 -7 34 -21 13z"/>
<path d="M3849 4868 c-40 -33 -58 -85 -46 -130 18 -68 127 10 127 91 0 41 -49
65 -81 39z m47 -32 c7 -19 -22 -85 -41 -92 -31 -12 -38 12 -17 60 21 45 47 60
58 32z"/>
<path d="M3077 4846 c-24 -36 -30 -88 -13 -111 13 -19 15 -19 33 -2 26 22 40
22 48 -3 11 -34 25 -22 25 23 1 23 7 53 15 67 8 14 14 31 15 38 0 26 -21 10
-55 -43 -49 -77 -91 -70 -50 9 26 49 11 67 -18 22z"/>
<path d="M2301 4811 c-24 -56 -25 -67 -11 -76 11 -7 50 66 50 94 0 39 -18 30
-39 -18z"/>
<path d="M5180 4337 c-133 -32 -284 -111 -366 -192 -80 -79 -89 -102 -89 -225
1 -100 2 -108 35 -168 18 -35 63 -98 99 -140 98 -115 126 -159 155 -245 22
-66 26 -95 26 -200 0 -79 5 -139 15 -171 19 -62 19 -158 1 -222 -24 -83 -29
-151 -16 -221 l13 -65 -66 -66 c-45 -46 -76 -89 -98 -135 -23 -49 -40 -72 -63
-84 -87 -44 -185 -145 -228 -233 -9 -19 -37 -78 -62 -130 -39 -84 -52 -101
-107 -145 -106 -84 -177 -192 -204 -310 -22 -97 -38 -292 -32 -401 3 -71 9
-100 25 -126 24 -39 91 -90 157 -119 96 -43 126 -84 191 -267 33 -93 90 -198
120 -223 9 -7 20 -23 24 -35 8 -19 109 -95 142 -106 12 -4 5 -40 -18 -95 -4
-10 13 -13 70 -13 53 0 78 4 80 13 3 6 7 23 10 38 5 22 14 27 88 43 189 41
402 128 560 229 64 41 112 106 129 172 6 24 16 49 23 54 6 5 46 23 89 39 81
32 153 79 202 134 75 83 89 146 79 358 -13 253 -14 247 36 320 43 64 80 161
80 213 0 51 -31 138 -62 173 -25 28 -31 44 -31 78 1 55 82 251 139 336 68 101
77 114 98 129 11 8 28 23 38 33 10 10 42 33 71 50 182 109 215 235 105 403
-53 82 -146 143 -253 164 -49 10 -71 10 -120 -2 -109 -26 -153 -54 -262 -164
-57 -56 -103 -108 -103 -114 0 -6 -9 -24 -21 -40 -38 -54 -100 -190 -106 -235
-4 -33 -10 -44 -24 -44 -14 0 -19 12 -25 57 -10 79 2 234 23 318 16 63 18 113
16 475 -3 425 -9 498 -54 670 -28 103 -37 125 -82 200 -42 70 -151 188 -205
222 -41 25 -164 33 -242 15z m216 -96 c70 -37 143 -128 204 -258 53 -113 78
-241 92 -490 10 -163 10 -186 -6 -226 -22 -60 -113 -158 -181 -196 -62 -35
-75 -59 -17 -33 78 37 123 63 157 93 22 20 41 29 51 25 15 -6 16 -25 11 -174
-3 -109 -11 -188 -22 -227 -18 -67 -25 -244 -12 -312 13 -62 -13 -57 -51 10
-45 80 -81 117 -137 143 -63 30 -85 30 -172 0 -87 -30 -100 -24 -85 36 44 173
42 219 -12 363 -8 22 -15 49 -16 60 0 11 -7 38 -16 60 l-15 40 6 -75 c3 -41
12 -93 20 -115 17 -48 20 -221 4 -262 -6 -15 -16 -59 -23 -98 -9 -52 -16 -71
-29 -73 -33 -6 -40 43 -21 146 17 97 17 159 -5 512 -9 137 -16 176 -43 241
-19 43 -78 130 -122 179 -85 94 -131 174 -157 271 -24 89 13 108 51 27 13 -29
37 -69 52 -89 15 -20 28 -41 28 -46 0 -6 9 -18 21 -29 12 -10 33 -39 47 -63
45 -77 36 -26 -14 76 -26 54 -56 110 -66 124 -29 43 -42 122 -28 179 16 66 44
88 192 149 162 66 234 74 314 32z m1016 -1323 c132 -43 228 -149 228 -254 0
-57 -20 -106 -53 -130 -105 -73 -200 -150 -239 -192 -78 -85 -191 -292 -218
-400 -10 -39 -18 -52 -32 -52 -19 0 -23 16 -12 45 4 9 10 12 13 7 3 -6 6 9 6
31 1 30 18 78 63 170 34 71 67 134 72 140 80 100 126 150 148 161 73 38 201
193 190 228 -2 6 -12 -5 -22 -25 -16 -35 -54 -70 -190 -176 -125 -98 -225
-256 -293 -463 -31 -95 -39 -97 -138 -30 -73 49 -146 140 -159 198 -13 59 52
272 121 397 99 179 221 300 348 345 76 27 86 27 167 0z m-951 -359 c48 -17 87
-56 116 -119 66 -141 83 -179 104 -230 76 -181 207 -322 381 -411 21 -11 43
-31 48 -45 15 -39 11 -105 -9 -149 -22 -48 -104 -141 -132 -150 -25 -8 -15
-25 11 -18 28 8 118 89 136 125 8 16 19 26 24 23 6 -3 7 1 4 9 -4 11 0 16 10
16 37 0 6 -76 -61 -150 -37 -42 -55 -53 -112 -70 -84 -25 -102 -25 -149 -1
-38 20 -117 97 -144 142 -23 36 -230 251 -236 244 -3 -2 -12 1 -21 8 -8 6 26
-30 77 -81 51 -51 92 -97 92 -103 0 -6 15 -29 34 -52 19 -23 36 -49 38 -57 2
-8 7 -18 12 -21 4 -4 4 -9 0 -12 -20 -11 -166 84 -208 135 -82 100 -102 131
-147 224 -27 56 -53 124 -59 151 -14 74 -54 157 -87 181 -39 28 -95 48 -168
62 -114 21 -116 25 -57 104 21 28 45 63 55 79 10 15 22 27 28 27 6 0 25 11 42
24 51 38 272 125 318 126 14 0 41 -5 60 -11z m-426 -390 c33 -6 75 -19 95 -29
35 -18 80 -82 80 -114 0 -45 80 -246 123 -309 26 -38 47 -71 47 -75 0 -11 162
-165 190 -181 46 -27 181 -91 189 -91 5 0 33 -18 61 -41 45 -36 51 -44 45 -68
-3 -14 -10 -48 -15 -75 -13 -69 -58 -152 -102 -191 -42 -36 -50 -52 -15 -33
40 23 78 62 98 100 21 40 49 51 49 19 0 -39 -93 -173 -151 -219 -16 -13 -46
-26 -67 -29 -33 -4 -39 -1 -59 29 -12 18 -52 56 -88 83 -115 87 -197 159 -290
256 -112 117 -149 187 -165 315 -28 211 -59 277 -154 330 -69 38 -165 57 -236
48 -48 -6 -50 -6 -50 17 0 13 9 35 20 49 11 14 20 30 20 36 0 7 33 46 73 87
60 61 82 77 118 85 61 14 115 14 184 1z m-189 -340 c75 -31 114 -65 132 -114
6 -16 16 -79 22 -140 14 -142 40 -223 97 -310 50 -76 302 -334 351 -359 42
-22 74 -88 80 -166 4 -57 1 -73 -22 -118 -37 -74 -130 -164 -185 -180 -39 -11
-52 -11 -105 5 -48 14 -72 29 -113 70 -29 28 -58 62 -64 75 -6 13 -24 46 -40
73 -16 28 -38 69 -49 93 -12 23 -23 42 -26 42 -11 0 9 -68 43 -140 55 -120
108 -193 164 -226 81 -48 60 -81 -26 -39 -104 50 -197 192 -250 380 -47 167
-117 286 -207 350 -62 45 -108 65 -145 64 -27 -1 -26 -1 11 -19 22 -10 62 -37
89 -60 38 -34 48 -47 45 -69 -5 -39 -46 -40 -114 -1 -30 18 -57 30 -60 27 -8
-8 56 -77 87 -93 15 -7 43 -14 62 -14 77 0 94 -9 112 -59 24 -69 44 -140 59
-201 24 -104 87 -219 154 -283 86 -81 166 -117 260 -117 102 0 152 27 272 149
90 90 106 113 143 202 12 30 27 42 82 67 92 44 175 129 226 236 38 77 40 85
39 171 -1 50 -1 98 -1 107 1 12 17 20 57 28 30 7 58 9 61 6 3 -3 5 -91 4 -196
-2 -215 -7 -234 -78 -301 -40 -38 -140 -92 -154 -84 -4 3 -1 21 6 39 8 18 11
36 8 40 -4 3 2 6 13 7 11 0 14 3 6 6 -7 3 -32 -11 -56 -31 -43 -34 -57 -56
-119 -181 -41 -81 -80 -129 -141 -174 -150 -110 -494 -230 -624 -218 -139 12
-252 128 -321 327 -18 52 -44 116 -57 141 -28 57 -121 143 -171 160 -49 16
-93 45 -118 78 -18 23 -20 45 -23 209 -3 170 -2 190 22 282 37 142 92 225 201
298 124 83 157 121 95 107 -46 -10 -39 19 13 52 79 50 134 51 253 2z"/>
<path d="M215 4183 c-11 -2 -30 -6 -42 -9 -38 -8 -26 -26 14 -22 41 3 52 -11
34 -45 -24 -46 -71 -221 -62 -230 12 -12 16 -4 66 139 24 69 45 128 48 130 3
3 22 6 43 7 43 3 56 21 22 31 -25 6 -91 6 -123 -1z"/>
<path d="M414 4173 c-3 -10 -10 -29 -16 -43 -26 -63 -58 -166 -58 -187 0 -32
16 -29 62 13 47 43 72 42 76 -4 3 -25 8 -32 24 -32 14 0 18 5 14 16 -3 9 -9
33 -12 55 -4 22 -11 42 -16 45 -5 3 -27 -7 -49 -22 -23 -16 -43 -24 -48 -18
-5 5 3 39 20 79 29 73 36 115 19 115 -6 0 -13 -8 -16 -17z"/>
<path d="M601 4033 c-33 -40 -42 -98 -19 -121 24 -24 98 -9 98 19 0 4 -18 5
-40 2 -35 -5 -40 -3 -40 14 0 15 9 22 32 27 80 16 95 96 18 96 -10 0 -32 -17
-49 -37z m66 -17 c-8 -20 -47 -21 -47 -1 0 18 32 37 44 25 5 -5 6 -16 3 -24z"/>
<path d="M8370 3895 c-7 -8 -17 -15 -22 -15 -6 0 -26 -13 -44 -30 -37 -32
-266 -150 -292 -150 -10 0 -35 -7 -57 -15 -22 -8 -62 -14 -88 -15 -57 0 -59
-14 -7 -42 44 -23 105 -23 201 1 105 26 174 62 242 129 57 56 78 84 91 130 8
25 -5 29 -24 7z"/>
<path d="M883 3845 c-50 -21 -137 -90 -176 -137 -111 -137 -197 -294 -229
-421 -28 -109 -22 -253 12 -310 30 -51 94 -87 153 -87 86 0 317 136 317 186
-1 51 -14 50 -134 -11 -86 -43 -131 -60 -169 -63 -50 -4 -54 -3 -66 24 -25 54
-25 152 -1 249 28 112 64 186 147 298 98 131 173 191 219 173 24 -9 10 -77
-32 -161 l-35 -70 22 -17 c33 -27 65 -22 93 15 60 79 84 213 50 278 -16 31
-81 69 -119 68 -11 0 -34 -6 -52 -14z"/>
<path d="M2404 3788 c-59 -40 -107 -102 -162 -210 -69 -138 -93 -198 -125
-318 -26 -94 -31 -134 -31 -220 0 -92 2 -109 23 -142 13 -21 29 -38 36 -38 31
0 40 32 41 154 1 127 27 253 58 284 10 10 45 17 103 21 97 7 114 20 73 61 -18
18 -31 21 -78 18 -73 -4 -75 6 -24 114 64 136 156 242 178 206 3 -5 -2 -41
-11 -79 -19 -78 -14 -95 25 -76 28 14 80 109 80 148 0 47 -67 109 -118 109
-11 0 -42 -15 -68 -32z"/>
<path d="M3268 3753 c-71 -107 -177 -288 -200 -340 -11 -26 -29 -68 -40 -93
-23 -55 -27 -63 -78 -175 -57 -125 -59 -136 -20 -168 39 -33 42 -33 62 1 21
36 128 288 128 302 0 26 151 310 165 310 18 0 18 1 1 -69 -57 -223 -39 -361
45 -361 37 0 109 70 155 150 105 186 140 249 156 282 10 21 25 38 33 38 19 0
19 -5 -5 -81 -46 -142 -79 -398 -65 -504 6 -48 13 -65 40 -92 42 -42 58 -42
85 2 17 27 19 38 10 54 -22 41 -29 118 -20 205 19 164 30 252 46 341 26 154
28 199 9 218 -29 30 -79 22 -114 -18 -42 -49 -159 -224 -205 -310 -95 -176
-118 -173 -92 12 10 71 21 171 23 224 l6 96 -31 21 c-16 12 -34 22 -40 22 -5
0 -29 -30 -54 -67z"/>
<path d="M2735 3471 c-71 -23 -171 -96 -201 -147 -48 -82 -21 -151 77 -195 39
-18 49 -27 47 -43 -3 -19 -12 -22 -83 -26 -78 -5 -80 -6 -77 -30 4 -43 36 -60
114 -60 38 0 79 5 91 11 39 20 67 52 67 76 0 56 -58 129 -117 147 -40 13 -48
32 -28 76 21 47 82 90 137 97 36 5 38 4 44 -25 4 -18 13 -37 21 -44 31 -26 75
62 54 108 -21 48 -90 74 -146 55z"/>
<path d="M1185 3454 c-51 -51 -144 -357 -125 -410 4 -10 17 -28 29 -38 20 -18
22 -19 41 -1 11 10 26 39 34 65 23 76 43 107 98 151 54 42 145 92 188 102 14
3 34 13 45 21 20 15 20 15 -2 37 -45 46 -143 16 -229 -68 -69 -66 -82 -51 -37
43 27 58 34 80 26 93 -14 23 -47 25 -68 5z"/>
<path d="M1771 3459 c-91 -36 -254 -260 -268 -368 -5 -35 -2 -44 25 -71 56
-56 127 -37 240 64 51 46 67 55 78 45 8 -6 14 -17 14 -25 0 -21 64 -82 93 -89
15 -4 38 -4 52 -1 38 10 35 60 -4 80 -31 17 -61 77 -61 125 0 15 7 50 15 77
l15 49 -37 33 c-96 84 -122 97 -162 81z m67 -111 c32 -32 -7 -95 -115 -188
-67 -57 -111 -72 -105 -35 4 25 86 158 125 202 31 35 72 44 95 21z"/>
<path d="M4083 3455 c-64 -27 -166 -142 -210 -235 -17 -35 -34 -138 -27 -164
3 -12 20 -31 38 -44 58 -39 98 -28 187 53 33 31 63 55 65 52 3 -2 15 -24 27
-48 28 -56 68 -64 116 -24 45 38 42 70 -6 82 l-38 9 4 102 c3 94 1 105 -22
144 -44 76 -81 96 -134 73z m57 -114 c16 -31 12 -49 -25 -106 -56 -89 -103
-135 -136 -135 -25 0 -29 4 -29 28 0 40 55 146 100 193 40 43 73 50 90 20z"/>
<path d="M8858 3434 c-5 -4 -8 -14 -8 -22 0 -8 -21 -48 -46 -89 -41 -65 -48
-84 -57 -158 -10 -85 -1 -231 22 -365 12 -68 13 -499 1 -600 -29 -255 -39
-331 -46 -342 -4 -6 -11 -28 -15 -47 -14 -71 -51 -206 -58 -216 -5 -5 -25 -53
-46 -105 -36 -90 -141 -305 -186 -380 -12 -19 -63 -95 -115 -168 -52 -73 -94
-136 -94 -141 0 -5 -7 -14 -15 -21 -31 -26 -77 -143 -79 -200 -1 -44 -5 -55
-19 -58 -21 -4 -46 49 -73 156 -21 83 -13 78 -149 86 -137 8 -313 78 -419 166
-27 22 -54 44 -60 48 -21 14 -93 108 -124 163 -35 62 -67 158 -78 234 -4 28
-11 61 -17 75 -5 14 -13 168 -17 342 -4 174 -13 339 -18 365 -6 26 -16 84 -22
128 -22 154 -30 200 -44 255 -8 30 -25 93 -37 140 -14 50 -39 112 -63 150 -22
36 -47 79 -55 97 -32 66 -42 30 -12 -45 31 -79 41 -117 41 -154 0 -33 -5 -39
-47 -64 -46 -26 -303 -269 -303 -286 0 -5 -24 -37 -54 -73 -51 -60 -61 -79
-85 -177 -9 -36 6 -150 28 -208 21 -55 82 -275 84 -302 1 -9 5 -14 11 -11 5 3
7 -5 4 -20 -3 -16 -1 -24 5 -20 6 4 8 -2 5 -15 -4 -12 -3 -20 2 -17 10 6 20
-19 20 -48 0 -12 6 -39 14 -62 28 -84 40 -122 52 -175 7 -30 20 -77 28 -105
34 -114 74 -252 79 -275 29 -121 101 -333 116 -338 5 -2 15 6 21 18 22 41 140
175 174 198 47 32 106 44 157 33 37 -9 190 -94 232 -130 14 -12 46 -16 130
-19 107 -2 111 -2 78 13 -18 8 -40 15 -48 15 -8 0 -35 9 -61 19 -26 11 -54 22
-62 25 -8 3 -55 35 -105 71 -49 36 -105 73 -124 81 -55 25 -128 21 -190 -11
-60 -30 -145 -105 -167 -147 -17 -33 -40 -36 -49 -7 -24 74 66 220 180 293
121 76 131 75 230 -25 81 -81 159 -141 245 -184 103 -52 260 -91 356 -88 l51
2 22 -65 c38 -116 89 -209 151 -278 33 -37 58 -72 54 -78 -8 -13 -147 -77
-229 -105 -220 -77 -263 -87 -495 -123 -80 -13 -93 -17 -85 -30 12 -19 242
-12 350 11 164 35 333 92 457 155 26 13 50 24 53 24 8 0 6 -29 -4 -48 -11 -21
-41 -124 -41 -140 0 -8 18 -12 48 -12 l47 0 17 78 c9 42 19 99 23 126 5 50 19
76 39 76 16 0 173 137 203 177 35 46 14 48 -49 5 -54 -37 -84 -55 -123 -76
-11 -6 -41 -26 -67 -44 -28 -19 -59 -32 -77 -32 -26 0 -34 7 -52 42 -27 52
-36 162 -20 236 21 98 114 254 182 304 38 29 153 28 213 -2 56 -27 126 -103
126 -137 0 -29 -35 -83 -54 -83 -7 0 -25 14 -42 31 -54 56 -92 73 -165 73 -57
0 -73 -4 -108 -28 -49 -34 -68 -62 -73 -106 -4 -42 18 -52 33 -13 39 104 170
119 258 29 24 -24 48 -54 55 -66 6 -13 24 -33 39 -44 l29 -21 30 35 c61 72
170 249 258 420 50 97 139 313 166 401 8 26 21 52 29 59 8 7 15 19 15 27 0 8
4 12 9 9 4 -3 6 6 3 21 -3 14 -1 23 4 20 5 -3 10 58 11 141 1 81 7 165 13 188
12 43 10 125 -9 319 -18 180 -98 416 -176 520 -50 68 -139 234 -156 295 -22
74 -27 314 -8 368 11 33 9 99 -3 86z m101 -788 c27 -63 23 -75 -25 -79 -29 -2
-29 -1 -32 57 -5 105 18 114 57 22z m-1970 -83 c10 -51 19 -95 32 -143 3 -11
-4 -14 -26 -13 -98 7 -122 4 -170 -20 -100 -49 -113 -58 -151 -97 -41 -42 -74
-52 -74 -22 0 10 66 85 148 167 210 213 224 221 241 128z m2020 -56 c6 -8 14
-28 17 -46 4 -17 11 -34 15 -37 5 -3 9 -14 9 -24 0 -16 -8 -19 -69 -19 -68 0
-70 1 -75 27 -3 15 -2 41 2 57 13 45 76 71 101 42z m-2010 -165 c29 -22 61
-79 54 -98 -3 -9 -22 -13 -56 -13 -52 1 -78 -8 -209 -70 -73 -35 -155 -103
-188 -156 -37 -60 -60 -42 -62 49 0 28 6 55 16 68 9 13 26 38 37 56 12 17 25
32 30 32 4 0 32 19 61 43 67 54 120 85 182 107 54 19 92 14 135 -18z m2052
-61 c31 -30 38 -45 43 -93 6 -55 5 -58 -16 -58 -13 0 -41 5 -63 11 -30 8 -52
8 -92 -2 -29 -7 -56 -9 -60 -5 -11 11 27 153 45 169 41 36 94 28 143 -22z
m-2006 -121 c9 -8 15 -29 15 -55 l0 -43 -62 -4 c-86 -6 -255 -90 -335 -166
-30 -30 -59 -50 -64 -45 -12 12 15 116 40 151 41 58 154 129 266 168 45 16
118 13 140 -6z m1990 -90 c18 -11 39 -30 47 -43 19 -28 31 -154 17 -163 -6 -3
-33 6 -61 21 -67 37 -108 45 -164 33 -30 -7 -49 -7 -56 0 -13 13 35 113 64
132 68 44 106 49 153 20z m-1987 -70 c8 0 12 -20 12 -69 l0 -68 -56 -7 c-87
-10 -216 -76 -287 -148 -68 -68 -83 -66 -80 11 3 63 28 125 63 154 42 36 205
117 253 127 23 4 51 6 62 4 11 -2 26 -4 33 -4z m1952 -146 c19 -13 48 -34 64
-48 29 -24 29 -25 22 -102 -8 -96 -23 -117 -64 -91 -82 54 -163 73 -242 57
-19 -4 -24 -1 -21 10 2 8 9 40 16 70 11 43 22 63 55 92 60 53 102 56 170 12z
m-1937 -127 c5 -38 6 -71 3 -75 -6 -5 -32 -10 -71 -11 -36 -2 -146 -74 -187
-124 -23 -26 -46 -65 -53 -85 -20 -57 -39 -52 -59 16 -17 63 -19 92 -10 140
19 92 216 216 334 209 l35 -2 8 -68z m1868 -123 c32 -16 77 -68 90 -103 12
-30 -6 -114 -27 -132 -12 -9 -19 -8 -37 7 -63 54 -145 88 -211 89 -68 0 -76 9
-52 59 9 19 16 38 16 43 0 18 36 42 76 52 45 11 107 5 145 -15z m-1875 -22 c6
-4 14 -27 17 -52 4 -25 9 -57 13 -72 6 -25 3 -28 -18 -28 -68 0 -221 -107
-255 -178 -18 -37 -39 -50 -55 -34 -23 23 64 282 96 282 8 0 21 9 28 19 31 44
142 85 174 63z m1785 -179 c54 -30 109 -94 109 -127 0 -11 -10 -44 -22 -73
-24 -58 -43 -66 -73 -33 -10 11 -44 35 -74 53 -50 28 -64 32 -128 31 -40 -1
-73 2 -73 6 0 21 42 99 65 120 59 56 121 63 196 23z m-1755 -41 c18 -12 34
-49 34 -80 0 -25 -5 -30 -30 -36 -47 -9 -174 -100 -216 -155 -22 -28 -45 -50
-51 -51 -33 -1 -21 114 18 177 23 37 124 131 153 143 26 11 78 12 92 2z m1660
-157 c50 -26 124 -98 124 -120 0 -8 -9 -34 -20 -59 -24 -56 -54 -62 -88 -17
-12 16 -36 37 -54 46 -54 28 -144 53 -172 48 -42 -8 -45 22 -6 62 67 69 135
82 216 40z m-1610 -15 c12 0 70 -98 62 -105 -2 -1 -28 -13 -58 -27 -93 -42
-175 -113 -242 -209 -17 -24 -18 -24 -33 -5 -27 35 -24 128 5 168 11 15 20 31
20 35 0 12 89 96 124 118 36 22 77 35 94 29 8 -2 20 -4 28 -4z m1516 -146 c40
-21 117 -103 125 -133 3 -13 1 -31 -6 -40 -6 -9 -15 -26 -21 -38 -5 -13 -12
-23 -14 -23 -3 0 -28 20 -56 45 -78 69 -177 103 -244 84 -45 -13 -49 1 -16 58
24 41 36 53 67 61 46 13 126 6 165 -14z"/>
<path d="M4479 3393 c-7 -21 -34 -92 -61 -158 -26 -66 -48 -130 -48 -141 0
-29 37 -74 61 -74 10 0 46 27 79 59 74 73 174 141 206 141 24 0 24 -2 23 -80
-1 -59 3 -86 15 -105 19 -28 60 -34 91 -11 17 12 18 17 6 42 -8 17 -16 78 -19
147 l-5 119 -32 15 c-29 14 -35 14 -68 -2 -20 -9 -68 -44 -107 -77 -92 -76
-113 -73 -70 11 16 33 30 72 30 86 0 32 -33 65 -64 65 -19 0 -27 -8 -37 -37z"/>
<path d="M7602 2613 c26 -28 178 -246 191 -273 4 -8 25 -44 48 -80 23 -36 50
-80 60 -98 28 -49 127 -289 143 -346 8 -28 24 -76 35 -106 19 -51 32 -99 66
-240 8 -30 18 -71 24 -90 6 -19 11 -57 11 -85 1 -49 1 -49 15 -25 25 43 11
183 -41 385 -45 177 -83 296 -118 370 -8 17 -33 68 -55 115 -50 104 -66 132
-122 211 -61 85 -146 185 -207 242 -55 50 -93 66 -50 20z"/>
<path d="M6548 1614 c-5 -4 -8 -15 -8 -24 0 -16 -87 -139 -138 -194 -15 -15
-69 -60 -121 -98 l-94 -71 6 -54 c3 -30 8 -58 12 -61 3 -3 33 13 66 36 33 23
64 42 67 42 18 0 173 160 206 212 30 47 36 65 34 102 -2 24 -6 42 -10 40 -4
-3 -8 14 -10 37 -2 22 -6 37 -10 33z"/>
<path d="M9210 1495 c0 -25 -4 -44 -8 -41 -18 11 -3 -93 21 -142 33 -67 131
-198 165 -219 15 -9 41 -29 57 -44 50 -45 163 -117 218 -138 29 -11 75 -30
102 -44 28 -13 113 -50 190 -81 77 -32 154 -64 170 -71 110 -50 153 -69 196
-81 26 -8 51 -19 54 -24 3 -6 15 -10 27 -10 11 0 34 -6 51 -14 18 -8 49 -22
70 -30 l37 -15 0 58 c0 47 -3 60 -17 64 -10 3 -54 20 -98 37 -44 17 -126 49
-182 70 -56 21 -151 63 -211 92 -60 29 -140 66 -178 83 -142 61 -364 176 -404
210 -23 19 -45 35 -49 35 -7 0 -55 61 -103 134 -42 62 -88 158 -88 183 0 12
-4 25 -10 28 -6 4 -10 -12 -10 -40z"/>
<path d="M9025 678 c-14 -32 -44 -79 -134 -210 -24 -34 -136 -154 -248 -265
l-205 -203 68 1 69 1 117 126 c117 126 146 163 235 297 86 130 154 285 123
285 -6 0 -17 -15 -25 -32z"/>
<path d="M7815 522 c-22 -11 -48 -28 -57 -39 -28 -30 -49 -100 -39 -127 14
-34 -1 -50 -40 -42 -18 3 -41 14 -51 23 -10 9 -21 13 -24 10 -6 -5 24 -35 75
-74 10 -8 52 -12 109 -13 l92 0 45 41 c44 41 45 43 45 103 0 52 -5 66 -28 93
-34 42 -75 49 -127 25z m25 -137 c0 -15 -25 -21 -33 -7 -2 4 -2 1 -1 -5 2 -7
-3 -13 -11 -13 -8 0 -15 9 -15 20 0 16 7 20 30 20 20 0 30 -5 30 -15z"/>
<path d="M6049 403 c-7 -45 19 -119 60 -170 21 -27 40 -54 42 -60 2 -6 39 -48
83 -92 l78 -81 79 0 c77 0 79 1 69 20 -6 11 -17 20 -25 20 -8 0 -97 83 -199
185 -103 102 -187 182 -187 178z"/>
<path d="M7943 20 c-37 -15 -27 -20 44 -20 46 0 64 3 57 10 -15 15 -75 21
-101 10z"/>
</g>
</svg>
