<?xml version="1.0" standalone="no"?>
<!DOCTYPE svg PUBLIC "-//W3C//DTD SVG 20010904//EN"
 "http://www.w3.org/TR/2001/REC-SVG-20010904/DTD/svg10.dtd">
<svg version="1.0" xmlns="http://www.w3.org/2000/svg"
 width="300.000000pt" height="191.000000pt" viewBox="0 0 300.000000 191.000000"
 preserveAspectRatio="xMidYMid meet">
<metadata>
Created by potrace 1.10, written by Peter Selinger 2001-2011
</metadata>
<g transform="translate(0.000000,191.000000) scale(0.100000,-0.100000)"
fill="#000000" stroke="none">
<path d="M197 1786 c-19 -56 -16 -67 12 -42 18 17 19 17 24 -1 4 -14 5 -12 6
6 1 19 -3 22 -19 18 -17 -4 -18 -2 -9 15 6 10 9 27 7 36 -2 10 -11 -4 -21 -32z"/>
<path d="M120 1809 c0 -6 7 -9 15 -5 8 3 15 3 15 0 0 -2 -7 -21 -15 -41 -18
-42 -18 -43 -6 -43 5 0 16 19 24 43 7 23 19 42 25 42 5 0 14 3 18 8 4 4 -11 7
-34 7 -24 0 -42 -5 -42 -11z"/>
<path d="M266 1769 c-17 -25 -10 -53 11 -45 8 3 18 6 21 7 4 0 -2 4 -13 9 -17
7 -17 9 -2 9 9 1 17 7 17 15 0 25 -18 27 -34 5z"/>
<path d="M2497 1706 c-4 -9 -4 -22 -1 -30 3 -8 -2 -28 -10 -45 l-16 -30 50 25
c27 14 60 24 72 23 13 -1 34 -1 48 0 20 1 22 3 10 11 -21 13 -58 12 -104 -5
l-38 -13 5 27 c7 32 -7 62 -16 37z"/>
<path d="M305 1690 c-37 -24 -59 -51 -91 -113 -45 -87 -30 -187 29 -187 29 0
107 48 107 65 0 19 -3 19 -50 -5 -50 -25 -67 -25 -75 0 -14 45 21 133 75 188
48 48 65 40 35 -17 -15 -29 -11 -41 11 -41 15 0 28 22 38 62 5 20 1 33 -14 48
-25 25 -28 25 -65 0z"/>
<path d="M784 1658 c-54 -65 -97 -214 -75 -257 17 -31 31 -16 31 34 0 69 14
95 51 95 20 0 29 4 26 13 -2 6 -14 12 -26 11 -27 -1 -27 10 4 63 31 51 47 56
38 11 -6 -30 -5 -32 10 -20 23 19 31 50 17 67 -20 24 -46 17 -76 -17z"/>
<path d="M1058 1633 c-58 -100 -97 -197 -86 -210 18 -23 25 -15 57 70 17 45
38 93 46 107 13 23 13 19 8 -47 -5 -68 -5 -73 14 -73 26 0 55 32 88 98 14 30
28 52 30 50 2 -1 -3 -28 -11 -58 -18 -71 -18 -144 1 -160 23 -19 35 -2 29 43
-4 24 -1 74 5 112 19 114 19 110 -9 110 -20 0 -33 -14 -68 -73 -25 -40 -46
-71 -49 -69 -2 3 1 35 7 71 6 37 8 71 5 77 -14 21 -35 6 -67 -48z"/>
<path d="M2450 1644 c-19 -20 -47 -42 -61 -49 l-26 -14 11 39 c13 51 3 60 -31
26 -23 -23 -92 -66 -106 -66 -2 0 -2 12 0 28 3 15 -3 36 -11 47 -15 20 -15 20
-16 -2 0 -29 -36 -53 -80 -53 -19 -1 -46 -7 -58 -14 -21 -11 -27 -10 -52 16
-16 15 -34 28 -41 28 -10 0 -10 -3 -1 -12 32 -32 4 -58 -78 -73 -19 -4 -43
-14 -52 -22 -12 -11 -21 -12 -37 -4 -11 6 -32 11 -48 11 l-28 0 24 -13 c14 -6
26 -17 28 -22 2 -6 -15 -32 -37 -59 -49 -59 -51 -91 -10 -137 34 -39 36 -47
14 -56 -11 -4 -24 3 -36 18 l-20 24 6 -45 c3 -27 12 -51 24 -60 14 -12 17 -25
14 -54 -3 -26 0 -41 9 -47 23 -15 36 -10 35 13 -1 14 6 24 17 26 13 3 17 -3
17 -30 0 -35 20 -73 80 -153 36 -49 70 -121 70 -150 0 -8 -23 -35 -50 -61 -28
-26 -60 -63 -72 -82 -21 -34 -21 -35 -4 -102 10 -38 15 -77 12 -88 -9 -28 -99
-109 -104 -94 -2 7 6 32 18 57 21 42 21 45 4 80 -16 34 -16 38 1 83 12 30 39
66 77 102 32 31 58 61 58 68 0 27 -32 72 -62 88 -66 34 -147 -11 -193 -108
l-22 -47 1 197 c1 226 -6 262 -63 322 -45 48 -73 51 -147 16 -102 -48 -111
-108 -31 -208 23 -29 31 -51 37 -110 12 -105 2 -187 -27 -221 -12 -16 -23 -32
-23 -36 0 -4 -11 -13 -24 -20 -13 -8 -37 -36 -52 -65 -15 -28 -42 -66 -60 -84
-39 -38 -54 -84 -54 -169 0 -62 0 -63 41 -88 31 -20 47 -41 69 -90 16 -36 40
-71 55 -81 14 -9 24 -23 21 -30 -4 -10 3 -14 19 -14 14 0 25 4 25 8 0 4 31 18
69 30 81 26 131 58 148 94 7 14 26 31 42 38 48 19 74 55 73 97 0 33 5 42 41
68 23 17 52 45 64 64 l22 33 7 -29 c17 -72 67 -239 73 -246 5 -4 20 8 35 28
31 41 63 45 105 16 34 -24 77 -36 85 -23 3 5 -6 13 -22 17 -15 3 -41 17 -59
31 -43 32 -75 31 -112 -7 -27 -27 -31 -28 -31 -11 0 11 18 36 40 56 l41 37 45
-40 c44 -39 109 -68 149 -66 14 0 26 -12 38 -40 10 -22 27 -49 38 -61 l19 -20
-77 -26 c-43 -15 -98 -31 -123 -36 l-45 -10 36 -1 c52 -2 132 15 178 38 l40
19 -6 -29 c-4 -22 -2 -29 10 -29 10 0 18 14 22 40 4 22 10 40 13 40 11 0 62
50 62 60 0 5 -20 -4 -44 -20 -52 -36 -62 -37 -71 -9 -11 33 3 86 31 119 29 34
43 36 84 15 17 -9 30 -11 30 -6 0 14 -34 31 -60 31 -31 0 -19 24 14 28 19 2
36 -4 52 -19 21 -19 22 -25 11 -38 -8 -9 -17 -24 -21 -35 -6 -17 -8 -18 -24
-2 -10 9 -30 16 -44 16 -26 0 -66 -35 -54 -47 4 -5 12 0 17 10 15 26 54 21 77
-10 11 -14 24 -23 30 -19 22 13 104 169 127 241 5 17 9 13 24 -21 32 -70 96
-110 324 -200 53 -21 57 -21 57 -5 0 13 -15 24 -47 36 -95 36 -249 113 -275
137 -49 47 -62 85 -60 178 3 105 -17 185 -65 264 -35 58 -36 59 -31 147 6 94
3 88 84 199 14 19 24 43 22 55 -1 11 3 30 10 42 7 12 9 28 6 37 -3 8 1 25 10
38 13 18 16 19 16 5 0 -29 18 -19 30 17 7 23 8 41 0 60 -14 39 -12 55 5 26 12
-23 14 -23 21 -7 9 26 -13 95 -44 136 -25 33 -25 34 -4 29 12 -4 22 -2 22 2 0
13 -51 50 -69 50 -10 0 -22 5 -29 12 -8 8 -15 8 -27 -2 -25 -21 -17 -28 31
-28 26 0 51 -5 57 -11 8 -8 5 -11 -11 -11 -29 0 -28 -8 7 -45 17 -16 37 -47
46 -68 15 -37 15 -38 -3 -28 -11 6 -22 24 -25 40 -8 39 -97 100 -157 108 -40
6 -44 4 -101 -53 -32 -32 -59 -53 -59 -47 0 6 -7 14 -16 17 -14 6 -15 4 -4 -9
11 -14 10 -19 -6 -34 -10 -9 -31 -22 -46 -29 -25 -10 -27 -9 -25 16 2 19 -3
27 -18 29 -11 1 -14 0 -7 -3 35 -16 -1 -46 -72 -59 -53 -10 -85 0 -79 25 3 12
0 20 -6 20 -7 0 -9 -4 -6 -10 12 -19 -60 -10 -113 15 -80 37 -98 34 -155 -27
-26 -29 -51 -65 -54 -80 -6 -30 -23 -39 -23 -12 0 20 17 52 46 87 13 16 24 40
24 54 0 25 1 25 19 9 18 -17 20 -17 29 1 7 12 31 23 70 31 59 12 100 41 87 61
-3 6 -2 11 3 11 14 0 21 -25 15 -51 l-6 -23 33 24 c19 13 52 25 79 28 50 4 70
15 90 47 11 18 12 17 6 -10 -4 -16 -14 -38 -22 -47 -15 -17 -15 -18 3 -18 33
1 103 38 135 72 29 31 31 32 24 8 -10 -36 -33 -70 -48 -70 -6 -1 -25 -7 -42
-16 l-30 -14 34 5 c56 9 137 50 175 91 20 21 36 42 36 46 0 12 -2 10 -40 -28z
m115 -93 c38 -17 95 -72 95 -90 0 -5 -13 -25 -30 -46 -33 -42 -36 -63 -18
-130 18 -68 8 -72 -106 -40 -98 26 -218 34 -282 19 -16 -4 -78 -33 -139 -65
-136 -71 -205 -93 -241 -77 -21 10 -25 17 -20 37 20 95 21 90 -19 124 -31 27
-37 38 -32 58 9 35 72 115 95 121 11 3 44 -4 73 -15 179 -67 198 -71 256 -59
87 18 157 56 225 121 35 34 71 61 83 61 11 0 38 -9 60 -19z m124 -211 c0 -23
-1 -24 -13 -7 -18 23 -35 22 -29 -3 7 -26 -14 -26 -22 0 -4 13 2 34 16 57 l23
37 13 -30 c6 -16 12 -40 12 -54z m-874 -114 c-3 -11 -8 -35 -12 -53 -6 -33
-53 -89 -53 -62 0 8 9 29 20 47 23 37 28 64 8 44 -11 -11 -48 -17 -48 -8 0 2
-3 12 -7 21 -5 14 -2 16 15 11 15 -5 26 -1 38 13 22 25 48 16 39 -13z m638 5
c8 -8 6 -11 -7 -11 -9 0 -36 -11 -59 -24 -23 -13 -57 -27 -74 -31 -34 -7 -183
13 -183 24 0 6 97 46 135 55 34 8 177 -2 188 -13z m-900 -48 c37 -40 57 -94
63 -173 6 -79 -3 -102 -49 -130 -19 -12 -25 -20 -16 -20 9 0 29 10 44 22 l28
22 -6 -78 c-4 -44 -7 -95 -7 -115 l0 -36 -19 32 c-23 36 -52 49 -80 34 -29
-16 -30 -14 -20 24 7 25 6 47 -6 82 l-15 48 5 -46 c6 -48 -3 -129 -14 -129 -3
0 -5 47 -3 105 3 116 -6 149 -57 212 -31 39 -54 102 -32 89 6 -4 11 -11 11
-17 0 -14 44 -79 53 -79 5 0 -3 21 -17 46 -38 68 -35 91 17 114 58 27 88 25
120 -7z m1016 21 c44 -9 40 -37 -15 -108 -56 -71 -101 -167 -120 -255 -16 -78
-19 -184 -4 -161 5 8 10 33 10 55 0 44 30 185 40 185 3 0 6 -19 6 -42 5 -243
4 -279 -10 -343 -19 -90 -65 -191 -122 -273 -26 -35 -47 -75 -48 -88 -2 -35
-14 -29 -21 10 -6 30 -10 34 -39 34 -67 0 -150 52 -183 117 -10 19 -19 75 -24
151 -9 146 -16 193 -35 258 -7 27 -12 51 -10 54 5 4 44 -81 52 -115 4 -13 10
-26 15 -29 12 -7 12 -7 -7 57 -22 75 -57 140 -125 236 -85 120 -99 150 -65
144 19 -4 112 23 165 47 l55 25 97 -16 c111 -18 141 -14 219 31 56 32 102 39
169 26z m-716 -394 c48 -38 45 -56 -20 -118 -43 -41 -66 -73 -81 -112 -11 -30
-21 -47 -21 -37 -1 31 46 111 93 157 25 24 46 48 46 53 0 5 -14 -5 -32 -22
-17 -17 -35 -31 -39 -31 -11 0 -55 -72 -68 -112 -7 -21 -15 -38 -17 -38 -15 0
-43 22 -58 45 -21 32 -9 88 36 158 48 75 110 97 161 57z m697 -72 c0 -5 -4 -8
-10 -8 -5 0 -10 10 -10 23 0 18 2 19 10 7 5 -8 10 -18 10 -22z m-560 -27 c8
-29 7 -31 -14 -25 -14 3 -35 -4 -59 -20 -58 -39 -57 -31 3 29 29 30 55 53 57
51 2 -2 8 -17 13 -35z m-435 13 c9 -4 31 -39 49 -78 31 -68 57 -98 116 -137
22 -15 23 -18 11 -48 -8 -17 -21 -36 -30 -41 -9 -5 -11 -10 -4 -10 6 0 21 12
32 26 14 18 21 22 21 11 0 -19 -47 -57 -71 -57 -10 0 -39 25 -65 54 -26 30
-53 57 -61 60 -8 3 2 -13 21 -36 42 -49 39 -64 -5 -22 -33 31 -69 93 -69 119
0 25 -46 65 -75 65 -14 0 -25 3 -25 8 1 16 37 51 75 70 44 23 55 25 80 16z
m1015 -39 c0 -6 -9 -11 -20 -11 -22 0 -28 31 -7 39 12 4 27 -10 27 -28z m-572
-39 c2 -11 0 -16 -7 -12 -15 10 -78 -19 -106 -50 l-25 -27 0 26 c0 57 129 115
138 63z m569 2 c25 -33 22 -44 -13 -44 -34 1 -40 10 -28 40 7 19 28 21 41 4z
m-1124 -37 c18 -7 30 -24 42 -62 21 -64 73 -123 136 -155 46 -23 47 -25 39
-55 -5 -18 -17 -40 -26 -50 -10 -11 -14 -19 -11 -19 3 0 15 10 27 22 11 12 20
17 20 12 0 -6 -14 -25 -32 -43 -31 -31 -32 -32 -47 -14 -9 10 -37 36 -63 56
-57 46 -84 88 -92 148 -8 57 -32 81 -88 88 l-41 6 35 38 c36 38 58 44 101 28z
m562 -11 c0 -8 -6 -14 -13 -12 -16 3 -71 -25 -99 -51 -26 -23 -28 -19 -12 17
13 27 84 68 109 63 8 -1 15 -9 15 -17z m573 -22 c14 -14 16 -48 3 -48 -6 0
-13 5 -17 11 -4 6 -19 9 -36 5 -29 -6 -30 -1 -5 32 12 15 39 16 55 0z m-570
-29 c2 -12 -7 -18 -31 -23 -19 -4 -47 -18 -62 -32 -32 -29 -39 -27 -26 9 11
27 75 68 101 64 8 -1 16 -10 18 -18z m-629 -34 c32 -16 41 -33 41 -75 0 -49
18 -80 85 -146 69 -68 77 -92 49 -132 -39 -56 -98 -41 -134 33 -12 25 -24 44
-27 42 -8 -9 40 -98 60 -112 17 -12 18 -15 5 -15 -25 0 -54 43 -78 115 -22 66
-64 115 -98 115 -11 -1 -8 -6 11 -16 28 -15 36 -34 14 -34 -7 0 -18 5 -25 12
-7 7 -12 8 -12 2 0 -17 23 -34 47 -34 19 0 25 -9 39 -56 29 -101 99 -153 162
-120 34 18 82 71 82 92 0 8 6 14 13 14 15 0 59 45 76 78 7 13 11 35 9 50 -2
19 2 28 15 30 15 3 17 -5 17 -56 0 -48 -4 -62 -22 -79 -36 -32 -49 -37 -41
-16 12 32 -26 -6 -47 -48 -11 -20 -34 -46 -52 -57 -35 -21 -129 -52 -159 -52
-31 0 -77 49 -94 101 -12 36 -26 56 -49 69 -52 31 -56 38 -56 97 0 69 28 131
70 156 28 17 44 45 18 32 -7 -4 -4 1 6 9 24 20 39 20 75 1z m1189 3 c7 -7 12
-25 12 -40 0 -28 0 -28 -25 -12 -14 9 -34 14 -45 11 -22 -6 -25 5 -10 34 12
21 50 25 68 7z m-558 -28 c0 -13 -7 -20 -19 -20 -20 0 -71 -43 -71 -60 0 -5
-5 -10 -11 -10 -6 0 -9 14 -7 32 5 54 108 109 108 58z m531 -40 c11 -6 19 -21
19 -35 0 -29 -7 -30 -34 -10 -11 8 -28 15 -38 15 -21 0 -23 11 -6 28 15 15 33
15 59 2z m-531 -26 c0 -15 -4 -23 -10 -19 -6 4 -26 -9 -46 -29 l-35 -35 5 32
c5 33 46 77 72 77 8 0 14 -10 14 -26z m530 -63 c0 -27 -11 -33 -35 -17 -12 8
-32 16 -46 18 l-24 3 23 23 c21 21 24 21 52 7 17 -9 30 -24 30 -34z m-520 9
c0 -11 -6 -20 -14 -20 -7 0 -25 -11 -41 -26 -15 -14 -29 -23 -31 -21 -9 9 16
56 38 71 30 22 48 20 48 -4z m477 -44 c22 -20 25 -27 16 -37 -10 -10 -16 -9
-32 5 -10 9 -28 18 -40 19 -26 2 -27 12 -3 26 24 15 28 14 59 -13z m-461 2 c4
-6 -1 -17 -12 -24 -10 -8 -31 -25 -45 -39 -22 -21 -28 -23 -32 -10 -4 9 6 29
24 50 32 36 53 44 65 23z"/>
<path d="M2494 1465 c-19 -29 -11 -60 21 -81 29 -19 61 -5 76 33 23 61 -61
103 -97 48z m51 -4 c7 -12 -12 -24 -25 -16 -11 7 -4 25 10 25 5 0 11 -4 15 -9z
m-15 -46 c0 -12 7 -14 28 -9 21 4 24 3 12 -5 -28 -20 -80 -5 -66 18 10 16 26
14 26 -4z"/>
<path d="M1867 1382 c-34 -37 -11 -92 38 -92 24 0 55 33 55 57 0 19 -37 53
-58 53 -11 0 -26 -8 -35 -18z m44 -17 c-1 -15 -24 -12 -29 3 -3 9 2 13 12 10
10 -1 17 -7 17 -13z m-11 -34 c0 -5 -6 -12 -12 -15 -7 -4 3 -4 22 -1 25 4 31
2 20 -5 -22 -15 -46 -12 -61 7 -10 11 -10 14 -1 9 6 -4 12 -2 12 3 0 6 5 11
10 11 6 0 10 -4 10 -9z"/>
<path d="M2375 1110 c-10 -16 -101 -60 -130 -62 -28 -3 -34 -17 -7 -20 57 -5
112 18 138 58 9 13 14 27 11 30 -3 3 -8 0 -12 -6z"/>
<path d="M2150 759 c0 -3 24 -42 54 -86 53 -79 88 -165 112 -273 12 -55 12
-55 13 -15 2 96 -61 252 -134 332 -24 26 -44 45 -45 42z"/>
<path d="M397 1533 c-24 -76 -26 -92 -12 -103 10 -8 17 -2 31 27 13 26 32 44
61 58 23 11 42 26 43 33 0 21 -37 13 -69 -14 -17 -14 -31 -21 -31 -15 0 5 5
13 10 16 15 9 12 45 -4 45 -8 0 -21 -20 -29 -47z"/>
<path d="M577 1556 c-38 -35 -67 -98 -56 -119 14 -24 37 -21 75 8 33 25 33 25
44 5 11 -21 50 -28 50 -9 0 6 -7 18 -16 26 -11 11 -14 26 -10 46 5 22 1 33
-17 48 -29 24 -39 24 -70 -5z m23 -61 c-41 -42 -57 -46 -33 -7 31 49 46 63 57
52 7 -7 -1 -21 -24 -45z"/>
<path d="M877 1562 c-42 -26 -46 -60 -11 -89 l29 -23 -32 0 c-38 0 -43 -14
-12 -30 24 -13 79 4 79 24 0 16 -21 41 -44 53 -18 10 -18 11 3 32 25 25 51 27
51 4 0 -16 1 -16 17 -1 13 14 14 20 3 32 -16 21 -48 20 -83 -2z"/>
<path d="M1311 1548 c-70 -71 -51 -162 22 -108 27 21 29 21 42 4 11 -16 15
-16 29 -5 20 17 21 31 0 31 -12 0 -14 7 -9 30 7 34 -15 80 -39 80 -8 0 -28
-14 -45 -32z m53 -16 c6 -10 -42 -72 -55 -72 -14 0 -11 12 11 48 19 32 34 40
44 24z"/>
<path d="M1453 1513 c-19 -48 -21 -60 -9 -71 11 -11 19 -9 47 17 18 17 37 31
41 31 5 0 11 1 15 3 4 1 7 -11 8 -28 0 -23 5 -30 20 -30 17 0 19 6 17 45 -2
25 -10 51 -17 59 -12 12 -20 9 -55 -19 l-42 -34 16 33 c9 17 14 36 11 41 -14
22 -31 7 -52 -47z"/>
<path d="M2555 180 c-9 -17 -48 -65 -87 -106 -56 -58 -66 -74 -50 -74 37 0
180 186 159 207 -3 2 -13 -9 -22 -27z"/>
<path d="M2212 144 c-12 -8 -22 -24 -22 -35 0 -22 -11 -24 -28 -7 -7 7 -12 8
-12 4 0 -16 35 -35 62 -36 28 0 58 23 58 45 0 11 -25 45 -33 45 -2 0 -13 -7
-25 -16z m18 -34 c0 -5 -5 -10 -11 -10 -5 0 -7 5 -4 10 3 6 8 10 11 10 2 0 4
-4 4 -10z"/>
<path d="M1721 93 c15 -41 69 -93 96 -93 19 0 14 8 -37 60 -33 33 -62 60 -65
60 -2 0 0 -12 6 -27z"/>
<path d="M2258 3 c6 -2 18 -2 25 0 6 3 1 5 -13 5 -14 0 -19 -2 -12 -5z"/>
</g>
</svg>
