<!DOCTYPE svg PUBLIC "-//W3C//DTD SVG 20010904//EN" "http://www.w3.org/TR/2001/REC-SVG-20010904/DTD/svg10.dtd">
<svg version="1.0" xmlns="http://www.w3.org/2000/svg" width="1056px" height="672px" viewBox="0 0 10560 6720" preserveAspectRatio="xMidYMid meet">
<g id="layer101" fill="#010101" stroke="none">
 <path d="M0 3360 l0 -3360 5280 0 5280 0 0 3360 0 3360 -5280 0 -5280 0 0 -3360z"/>
 </g>
<g id="layer102" fill="#ffffff" stroke="none">
 <path d="M0 3360 l0 -3360 5280 0 5280 0 0 3038 c0 1670 -4 3032 -8 3027 -8 -11 -41 -27 -92 -45 -19 -7 -48 -18 -65 -25 -62 -27 -81 -34 -118 -45 -22 -7 -51 -18 -65 -26 -15 -8 -35 -14 -44 -14 -10 0 -18 -4 -18 -8 0 -5 -18 -15 -40 -22 -22 -7 -40 -17 -40 -21 0 -4 -13 -10 -30 -14 -16 -4 -30 -10 -30 -14 0 -4 -17 -13 -37 -20 -104 -35 -468 -220 -500 -253 -15 -15 -31 -28 -36 -28 -11 0 -57 -47 -57 -59 0 -4 -11 -18 -25 -31 -14 -13 -25 -29 -25 -37 0 -7 -4 -13 -9 -13 -5 0 -12 -8 -15 -17 -4 -10 -20 -43 -36 -73 -17 -30 -30 -60 -30 -67 0 -18 -7 -16 -29 6 -27 27 -43 59 -32 65 5 3 12 22 15 41 6 31 30 82 73 158 6 11 19 24 27 29 9 5 16 13 16 19 0 13 70 89 82 89 5 0 22 14 38 30 16 17 33 30 38 30 5 0 17 9 27 20 10 11 24 20 30 20 7 0 15 6 18 14 3 8 19 17 36 21 17 4 31 10 31 15 0 5 17 14 38 20 20 6 66 25 102 42 106 50 124 57 153 64 15 3 27 9 27 13 0 5 19 14 43 21 23 8 51 20 62 27 11 7 30 13 42 13 13 0 23 4 23 9 0 5 17 15 38 21 40 13 104 41 112 51 3 3 29 12 58 19 28 6 52 16 52 20 0 5 19 11 42 15 23 4 48 14 56 21 7 8 22 14 32 14 11 0 31 5 45 12 l25 11 0 269 0 268 -992 0 -991 0 80 -82 c98 -100 163 -173 163 -182 0 -3 6 -14 14 -23 58 -70 84 -105 101 -134 11 -19 32 -54 47 -79 15 -25 32 -56 39 -70 6 -14 15 -33 20 -43 5 -9 12 -38 16 -62 7 -56 -9 -60 -36 -7 -11 20 -26 48 -33 62 -14 28 -17 31 -53 76 -14 18 -25 35 -25 38 0 4 -11 17 -25 30 -14 13 -25 27 -25 31 0 4 -14 24 -31 44 -48 56 -281 291 -289 291 -4 0 -31 25 -59 55 l-52 55 -65 0 -64 0 0 -38 c0 -21 5 -43 10 -48 6 -6 14 -44 17 -84 6 -73 23 -110 51 -110 7 0 15 -7 18 -15 4 -8 10 -15 16 -15 9 0 94 -67 127 -101 20 -19 61 -76 61 -84 0 -13 -41 -3 -74 20 -20 14 -41 25 -46 25 -6 0 -10 4 -10 10 0 5 -15 17 -32 25 -47 22 -80 42 -87 52 -3 5 -17 14 -31 21 -14 6 -32 16 -40 21 -34 20 -119 64 -180 92 -36 17 -73 34 -82 40 -10 5 -23 9 -30 9 -7 1 -31 9 -53 20 -22 11 -51 20 -65 20 -14 0 -37 6 -52 14 -15 8 -42 17 -60 21 -18 4 -37 11 -43 15 -5 4 -53 14 -105 21 -52 7 -99 16 -104 21 -6 4 -32 8 -59 8 -26 0 -58 5 -70 12 -21 11 -21 11 -2 19 11 4 -185 8 -435 8 -445 1 -455 1 -468 -19 -7 -11 -19 -20 -27 -20 -8 0 -100 -86 -205 -191 -106 -105 -194 -189 -196 -186 -8 8 15 132 26 135 5 2 10 8 10 14 0 6 16 30 35 54 19 23 35 46 35 50 0 4 36 43 80 86 l80 78 -665 0 c-543 0 -663 -2 -659 -13 9 -25 -29 -54 -78 -59 -42 -5 -49 -3 -63 18 -8 13 -15 30 -15 39 0 13 -250 15 -2415 15 l-2415 0 0 -3360z m5094 3271 c4 -5 30 -12 59 -16 28 -4 57 -11 62 -15 6 -4 30 -13 55 -19 57 -15 61 -17 205 -87 118 -57 177 -92 183 -106 2 -5 9 -8 16 -8 15 0 50 -38 59 -62 4 -10 11 -18 16 -18 5 0 15 -25 22 -55 7 -30 16 -55 21 -55 4 0 8 -6 8 -14 0 -8 16 -16 40 -20 22 -3 40 -11 40 -16 0 -6 8 -10 18 -10 16 0 38 -10 92 -41 32 -19 130 -114 130 -126 0 -6 7 -16 15 -23 7 -6 17 -32 21 -56 3 -24 10 -47 15 -50 12 -7 11 -154 -3 -310 -11 -131 -11 -132 13 -165 13 -19 27 -35 31 -37 4 -2 8 -9 8 -15 0 -6 6 -18 13 -26 7 -9 19 -36 26 -61 7 -25 17 -53 22 -62 11 -23 12 -95 0 -102 -4 -3 -11 -24 -15 -46 -4 -26 -19 -54 -43 -80 -33 -38 -35 -44 -30 -89 3 -27 10 -58 15 -68 22 -42 52 -111 52 -118 0 -9 42 -97 50 -105 3 -3 19 -25 35 -50 16 -25 36 -49 42 -53 7 -4 13 -15 13 -23 0 -8 8 -18 18 -21 9 -4 31 -21 48 -38 17 -17 48 -39 68 -50 20 -11 36 -23 36 -27 0 -5 6 -8 13 -8 19 0 84 -70 107 -115 26 -51 26 -128 0 -183 -11 -22 -20 -45 -20 -50 0 -6 -7 -12 -15 -16 -8 -3 -15 -11 -15 -18 0 -16 -71 -88 -87 -88 -6 0 -16 -6 -20 -12 -13 -21 -73 -48 -120 -55 -23 -3 -43 -10 -43 -14 0 -5 -18 -9 -40 -9 -22 0 -40 4 -40 9 0 4 -18 11 -39 14 -81 10 -151 54 -253 158 -54 55 -98 106 -98 114 0 8 -3 15 -8 15 -4 0 -12 9 -17 19 -64 124 -95 193 -105 229 -6 26 -16 42 -23 39 -16 -5 -15 -320 0 -339 6 -7 16 -67 23 -133 14 -140 0 -835 -17 -857 -6 -7 -14 -43 -18 -80 -3 -38 -11 -68 -16 -68 -5 0 -9 -10 -9 -21 0 -33 -21 -99 -48 -149 -14 -25 -31 -58 -40 -75 -8 -16 -56 -71 -106 -121 -100 -99 -111 -104 -224 -104 -78 0 -192 18 -192 31 0 5 -8 9 -17 9 -22 0 -183 80 -183 91 0 5 -7 9 -16 9 -20 0 -134 115 -134 134 0 8 -4 16 -10 18 -25 8 -28 259 -3 277 4 3 21 32 37 63 16 31 44 71 62 89 19 18 34 38 34 43 1 6 14 22 30 36 17 13 30 28 30 33 0 4 13 25 29 45 16 20 34 55 41 77 7 22 17 49 23 60 6 11 13 90 15 175 2 99 8 160 15 169 16 19 15 194 -1 214 -18 21 -27 193 -13 242 l11 40 -65 65 c-36 36 -65 71 -65 78 0 6 -4 12 -9 12 -5 0 -12 14 -16 30 -4 17 -11 30 -16 30 -5 0 -9 9 -9 19 0 20 -43 61 -64 61 -6 0 -31 16 -55 35 -24 19 -48 35 -52 35 -5 0 -9 6 -9 13 0 8 -11 24 -25 37 -14 13 -25 29 -25 37 0 7 -4 13 -9 13 -8 0 -66 112 -104 200 -18 41 -61 109 -70 110 -26 1 -101 70 -142 131 -16 24 -32 46 -35 49 -18 18 -50 104 -56 150 -4 30 -11 58 -16 61 -6 4 -11 102 -11 232 -2 201 0 227 16 244 9 11 17 25 17 31 0 7 5 12 11 12 6 0 24 11 41 25 16 14 36 25 44 25 8 0 14 4 14 9 0 5 14 12 30 16 17 4 30 11 30 16 0 5 6 9 13 9 21 0 84 72 98 113 7 20 17 37 21 37 4 0 8 12 8 28 0 15 6 36 13 47 7 11 18 38 26 60 16 52 43 105 53 105 5 0 8 7 8 15 0 8 16 32 35 54 19 21 35 43 35 48 0 18 52 55 140 100 38 19 60 23 142 23 53 0 99 -4 102 -9z m2803 -178 c67 -44 78 -63 78 -138 0 -78 -14 -104 -73 -132 -25 -12 -38 -13 -55 -5 -12 6 -33 14 -46 18 -31 8 -70 51 -77 83 -3 14 -10 34 -15 45 -7 13 -7 22 0 29 6 6 11 22 11 35 0 21 -3 23 -31 17 -17 -4 -47 -16 -65 -27 -50 -29 -41 -6 17 46 l51 46 89 0 c69 0 96 -4 116 -17z m313 -33 c19 -10 19 -12 -6 -56 -24 -43 -25 -54 -22 -152 3 -100 5 -112 41 -184 21 -43 42 -78 46 -78 5 0 15 -14 22 -32 14 -34 27 -50 73 -85 23 -19 41 -23 95 -23 39 0 76 6 91 15 14 8 32 17 40 21 25 11 90 77 90 91 0 7 5 13 10 13 6 0 10 9 10 20 0 11 -4 20 -9 20 -5 0 -11 9 -14 20 -8 31 -35 35 -60 9 -52 -54 -88 -72 -158 -77 -80 -5 -119 7 -167 54 -26 26 -34 44 -39 83 -5 43 -3 51 10 51 9 0 23 -15 31 -33 7 -18 28 -46 47 -61 31 -26 38 -28 93 -23 55 5 62 9 112 58 30 29 54 58 54 64 0 5 14 23 30 38 33 34 57 30 82 -10 31 -50 43 -67 55 -80 6 -7 21 -29 34 -50 13 -21 26 -40 29 -43 3 -3 11 -16 18 -30 7 -14 33 -61 57 -105 25 -44 47 -88 51 -97 3 -10 10 -18 15 -18 5 0 9 -8 9 -17 0 -10 15 -49 34 -88 18 -38 39 -86 46 -105 7 -19 18 -48 25 -65 39 -87 45 -105 45 -123 0 -11 11 -33 23 -49 40 -48 48 -90 53 -263 2 -100 7 -166 14 -168 13 -5 13 -179 0 -187 -5 -3 -10 -26 -10 -50 0 -68 -22 -245 -30 -245 -4 0 -11 -17 -15 -37 -4 -21 -11 -43 -16 -49 -5 -6 -14 -35 -19 -64 -6 -30 -14 -56 -18 -59 -4 -4 -18 -28 -32 -56 -14 -27 -37 -66 -51 -85 -14 -19 -38 -57 -54 -85 -15 -27 -31 -52 -35 -55 -3 -3 -12 -21 -20 -40 -8 -19 -20 -41 -27 -48 -7 -7 -13 -26 -13 -42 0 -16 -4 -32 -10 -35 -6 -4 -10 -77 -10 -186 0 -113 4 -179 10 -179 6 0 10 -23 10 -51 0 -41 -3 -50 -16 -47 -19 3 -22 8 -64 98 -17 36 -38 76 -46 90 -13 21 -15 58 -11 224 4 151 8 201 19 207 18 11 20 696 2 707 -7 4 -15 50 -19 105 -4 53 -10 97 -14 97 -4 0 -13 41 -20 90 -8 50 -17 90 -21 90 -4 0 -10 23 -14 50 -4 28 -10 50 -15 50 -4 0 -14 25 -21 55 -7 30 -16 55 -20 55 -4 0 -11 16 -14 35 -4 19 -11 35 -15 35 -5 0 -14 21 -21 47 -6 26 -15 50 -18 53 -11 8 -62 114 -62 128 0 6 -4 12 -8 12 -4 0 -13 12 -19 28 -17 38 -46 85 -77 126 -14 19 -26 40 -26 46 0 6 -7 13 -15 16 -8 4 -15 10 -15 16 0 11 -51 81 -62 86 -5 2 -8 8 -8 14 0 5 -11 24 -25 42 -14 18 -25 38 -25 44 0 6 -3 12 -7 14 -14 6 -63 84 -63 99 0 8 -5 20 -11 26 -6 6 -14 43 -17 82 -3 45 -9 71 -16 71 -15 0 -45 -66 -53 -115 -3 -19 -10 -38 -14 -41 -5 -3 -9 -23 -9 -45 l0 -39 -67 0 c-75 0 -191 -17 -208 -29 -5 -5 -23 -11 -40 -15 -41 -10 -195 -86 -195 -97 0 -5 -5 -9 -11 -9 -10 0 -29 -14 -121 -96 -16 -13 -28 -27 -28 -32 0 -5 -11 -19 -25 -32 -14 -13 -25 -29 -25 -36 0 -7 -3 -14 -7 -16 -12 -5 -63 -115 -63 -135 0 -11 -4 -23 -10 -29 -5 -5 -13 -39 -16 -74 -4 -36 -12 -68 -17 -72 -6 -4 -13 -142 -18 -354 -5 -191 -13 -350 -17 -353 -5 -3 -13 -50 -17 -103 -4 -54 -10 -98 -14 -98 -4 0 -12 -44 -19 -97 -7 -53 -16 -101 -21 -107 -5 -6 -12 -33 -16 -61 -4 -27 -11 -52 -15 -55 -4 -3 -10 -26 -14 -52 -6 -39 -4 -48 8 -48 8 0 17 13 21 30 4 17 10 30 14 30 4 0 14 18 21 40 7 22 17 40 21 40 4 0 10 14 14 30 4 17 10 30 14 30 4 0 14 19 22 43 7 23 23 60 34 82 12 22 27 61 34 88 8 26 18 47 22 47 12 0 12 -57 0 -64 -5 -3 -14 -42 -21 -86 -7 -44 -16 -83 -20 -85 -5 -3 -11 -23 -15 -45 -4 -22 -11 -40 -15 -40 -5 0 -12 -15 -15 -32 -4 -18 -13 -44 -20 -58 -26 -52 -55 -117 -55 -125 0 -9 -42 -97 -50 -105 -3 -3 -12 -18 -20 -35 -8 -16 -17 -32 -20 -35 -3 -3 -11 -16 -18 -30 -32 -62 -44 -80 -53 -80 -5 0 -9 -5 -9 -11 0 -11 -32 -55 -65 -90 -8 -9 -15 -19 -15 -24 0 -4 -16 -27 -35 -51 -19 -23 -35 -47 -35 -52 0 -6 -3 -12 -7 -14 -5 -1 -21 -23 -38 -48 -16 -25 -36 -49 -42 -53 -7 -4 -13 -13 -13 -19 0 -6 -15 -29 -33 -52 -18 -23 -38 -52 -45 -66 -13 -27 -34 -62 -42 -70 -12 -12 -30 -51 -30 -64 0 -8 -4 -16 -9 -18 -4 -1 -11 -24 -15 -49 l-7 -46 130 -5 c72 -3 136 -9 143 -15 7 -6 33 -14 58 -17 48 -8 65 -14 180 -70 41 -19 87 -38 103 -42 15 -3 27 -10 27 -14 0 -5 15 -12 32 -16 18 -3 43 -13 55 -22 47 -30 390 -24 428 8 6 5 39 12 75 16 36 3 71 11 78 17 18 14 345 15 363 1 8 -6 28 -14 44 -18 26 -6 79 -30 156 -71 11 -5 19 -13 19 -17 0 -5 5 -8 11 -8 6 0 25 -10 42 -22 51 -37 159 -88 200 -94 20 -4 40 -11 43 -15 7 -12 248 -11 260 1 5 5 51 13 102 16 56 4 96 12 103 20 39 47 -15 200 -98 278 -18 17 -33 35 -33 39 0 5 -25 37 -55 72 -30 34 -55 66 -55 70 0 4 -10 17 -22 29 -13 12 -30 35 -38 51 -8 17 -19 33 -23 36 -14 10 -115 216 -122 248 -4 17 -10 31 -15 31 -4 0 -11 15 -14 34 -4 19 -11 36 -16 38 -5 2 -15 33 -22 71 -7 37 -16 67 -20 67 -4 0 -10 23 -14 50 -4 28 -10 50 -14 50 -4 0 -13 39 -20 88 -6 48 -17 98 -23 111 -13 27 -17 454 -4 467 15 16 20 -10 29 -158 5 -84 13 -162 18 -173 5 -11 11 -44 15 -73 3 -30 10 -61 15 -70 4 -10 14 -51 20 -92 7 -41 16 -79 20 -85 4 -5 11 -29 15 -52 4 -24 10 -45 15 -48 4 -3 11 -22 15 -42 3 -21 20 -62 36 -92 16 -30 29 -60 29 -67 0 -6 6 -17 13 -23 8 -6 20 -28 27 -50 7 -22 30 -60 51 -86 21 -25 43 -62 49 -83 22 -74 55 -130 118 -202 17 -21 32 -41 32 -46 0 -5 16 -22 35 -38 19 -16 35 -34 35 -39 0 -5 15 -27 33 -50 19 -23 37 -50 40 -59 4 -10 11 -18 16 -18 6 0 13 -22 17 -50 4 -27 10 -50 15 -50 12 0 11 -77 -1 -85 -20 -12 -9 -48 22 -79 32 -30 32 -31 33 -127 0 -77 3 -101 17 -116 10 -10 21 -37 26 -59 6 -29 13 -39 27 -39 15 0 23 11 31 44 11 48 30 64 41 34 3 -10 12 -21 19 -26 7 -4 16 -22 19 -40 4 -17 13 -35 19 -39 15 -10 15 -226 0 -236 -12 -8 -39 -100 -32 -108 15 -14 55 30 80 89 10 23 29 22 35 -3 3 -11 9 -20 14 -20 5 0 9 -16 9 -35 0 -19 -4 -35 -9 -35 -4 0 -11 -32 -14 -71 -3 -39 -10 -76 -15 -82 -5 -7 -15 -36 -22 -65 -6 -28 -16 -52 -21 -52 -5 0 -9 -7 -9 -15 0 -7 -6 -18 -13 -22 -6 -4 -19 -21 -27 -38 -8 -16 -25 -39 -37 -51 -13 -12 -23 -26 -23 -31 0 -5 -16 -24 -35 -43 -19 -19 -35 -38 -35 -42 0 -14 84 -9 114 7 15 8 32 15 37 15 25 0 -7 -68 -52 -110 -39 -37 -145 -89 -196 -96 -21 -3 -47 -10 -58 -14 -11 -5 -31 -11 -45 -13 -25 -4 -25 -4 -2 -12 12 -4 22 -11 22 -15 0 -5 15 -12 33 -15 17 -4 37 -11 42 -15 6 -4 29 -11 53 -15 52 -8 56 -31 7 -41 -19 -3 -38 -10 -41 -15 -7 -12 -181 -12 -188 0 -3 4 -30 11 -60 15 -30 3 -69 13 -88 22 -72 36 -90 44 -99 44 -13 0 -11 -34 2 -47 13 -13 19 -187 7 -198 -9 -9 -48 4 -48 16 0 14 -52 120 -69 140 -37 46 -166 169 -177 169 -4 0 -30 19 -58 43 -47 40 -150 97 -175 97 -16 0 -13 -16 4 -30 8 -7 15 -18 15 -25 0 -8 5 -15 10 -17 13 -4 25 -163 16 -212 -4 -22 -13 -36 -21 -36 -8 0 -15 6 -15 13 0 7 -9 18 -20 25 -11 7 -20 18 -20 24 0 16 -61 78 -76 78 -7 0 -17 6 -21 13 -10 16 -69 57 -82 57 -6 0 -14 6 -18 13 -11 16 -150 85 -188 93 l-30 5 0 -121 c0 -69 -4 -124 -10 -128 -5 -4 -15 -16 -21 -26 -18 -34 -31 -28 -37 19 -10 73 -52 124 -117 146 -19 6 -40 15 -46 20 -5 4 -48 11 -95 15 -46 4 -88 10 -94 14 -5 4 -36 11 -68 15 -60 7 -144 42 -167 70 -19 23 -26 19 -39 -25 -6 -22 -16 -40 -21 -40 -6 0 -10 -5 -10 -12 0 -16 -51 -68 -67 -68 -7 0 -13 -4 -13 -9 0 -5 -13 -12 -30 -16 -16 -4 -30 -11 -30 -16 0 -10 -43 -13 -53 -3 -3 3 7 17 24 31 16 14 29 31 29 39 0 8 5 14 10 14 17 0 11 70 -8 90 -37 40 -149 88 -222 95 -39 4 -70 10 -70 15 0 4 -23 10 -52 13 -28 4 -56 11 -62 17 -5 5 -18 10 -28 10 -11 0 -41 21 -68 46 l-49 46 -28 -20 c-16 -11 -45 -23 -66 -27 -20 -4 -40 -11 -43 -16 -7 -12 -141 -12 -148 0 -7 10 16 21 43 21 9 0 32 14 49 31 38 37 43 89 12 129 -11 14 -20 28 -20 33 0 4 -13 22 -29 40 -84 92 -111 125 -111 131 0 4 -10 17 -23 29 -13 12 -29 38 -37 57 -8 19 -18 38 -23 41 -12 9 -13 159 -1 167 6 4 16 21 23 39 8 19 22 34 37 37 14 4 30 19 37 34 6 15 24 38 39 52 16 13 28 30 28 36 0 6 7 17 15 24 23 19 19 78 -7 101 -13 10 -31 18 -41 19 -33 0 -107 -53 -107 -77 0 -8 -6 -16 -14 -19 -8 -3 -16 -14 -19 -25 -3 -10 -10 -19 -16 -19 -7 0 -11 33 -11 95 0 52 4 95 9 95 5 0 12 18 16 39 4 22 13 45 21 52 8 6 14 17 14 23 0 21 49 57 85 63 37 6 55 21 38 32 -6 3 -14 17 -18 31 -4 14 -12 28 -18 32 -6 4 -11 45 -11 96 -1 82 1 93 23 116 29 31 83 50 117 42 27 -7 32 -31 9 -40 -25 -9 -16 -106 10 -106 7 0 18 -6 24 -14 19 -23 59 -25 77 -5 13 14 17 41 18 121 2 81 6 110 22 138 10 19 22 37 25 40 3 3 11 21 19 40 7 19 28 54 47 77 18 23 33 44 33 48 0 3 4 11 10 18 43 53 60 76 60 81 0 4 11 17 25 30 14 13 25 27 25 31 0 4 18 29 40 55 22 26 40 53 40 58 0 6 6 15 13 19 16 11 67 86 67 100 0 6 7 24 15 39 8 16 15 37 15 47 0 9 4 17 9 17 5 0 15 25 22 55 7 30 16 55 20 55 5 0 11 23 15 50 4 28 10 50 15 50 5 0 9 17 9 39 0 28 -5 40 -17 44 -10 3 -31 14 -48 24 -32 19 -285 266 -285 277 0 4 -22 33 -50 65 -27 32 -50 63 -50 69 0 7 -4 12 -9 12 -10 0 -31 77 -31 114 0 14 -4 26 -10 26 -5 0 -10 7 -10 15 0 8 5 15 10 15 6 0 10 14 10 31 0 34 19 119 30 134 4 6 11 28 15 50 4 22 10 45 15 50 5 6 14 39 20 75 12 67 80 291 91 300 3 3 9 26 13 53 4 26 11 47 15 47 4 0 13 34 20 75 8 42 17 78 22 80 4 3 10 24 14 48 4 23 10 47 14 52 11 15 31 89 31 114 0 11 4 21 9 21 5 0 12 25 16 55 3 30 10 57 14 60 5 2 14 33 21 67 7 35 16 68 20 73 4 6 11 26 15 45 4 19 11 37 14 40 4 3 12 20 17 39 11 39 31 51 41 24 4 -10 19 -31 35 -48 38 -42 78 -92 78 -99 0 -8 30 -37 56 -54 84 -56 165 -55 247 1 29 20 57 37 61 37 7 0 67 40 76 51 18 21 154 36 219 23 29 -6 30 -8 14 -19 -10 -7 -36 -15 -57 -19 -22 -4 -49 -14 -60 -22 -11 -8 -30 -14 -42 -14 -12 0 -24 -7 -28 -15 -3 -8 -10 -15 -16 -15 -6 0 -26 -11 -44 -25 -18 -14 -38 -25 -44 -25 -6 0 -12 -4 -14 -8 -1 -5 -27 -26 -56 -47 -49 -35 -59 -38 -125 -39 -57 -1 -82 4 -119 22 -27 13 -48 28 -48 33 0 5 -6 9 -13 9 -16 0 -97 82 -97 98 0 7 -4 12 -10 12 -5 0 -10 7 -10 16 0 9 -6 14 -12 12 -21 -7 -21 -87 -1 -127 34 -66 113 -155 163 -182 19 -11 42 -23 50 -28 41 -22 61 -31 72 -31 6 0 57 44 113 98 56 53 119 108 141 121 69 43 144 79 177 86 18 4 37 11 43 16 6 5 44 14 85 20 41 6 82 15 91 20 23 12 55 11 63 -1 10 -15 35 -12 35 5 0 8 5 15 10 15 6 0 10 13 10 28 0 16 7 37 15 48 8 10 15 26 15 34 0 15 46 113 65 139 27 36 109 121 117 121 5 0 18 -5 28 -10z m-1935 -842 c27 -18 57 -38 67 -44 10 -6 31 -25 48 -42 17 -18 34 -32 39 -32 5 0 25 -19 45 -42 20 -24 45 -52 54 -63 10 -11 27 -38 38 -60 10 -22 23 -43 27 -46 9 -7 -30 -119 -42 -119 -7 0 -51 55 -51 65 0 2 -13 18 -30 33 -16 16 -30 34 -30 39 0 15 -124 127 -193 173 -54 36 -80 103 -61 154 9 24 35 19 89 -16z m1935 -245 c0 -56 -4 -104 -9 -108 -5 -3 -13 -31 -17 -63 -3 -31 -10 -61 -14 -67 -5 -5 -14 -39 -20 -75 -7 -36 -16 -69 -20 -75 -4 -5 -11 -29 -15 -52 -4 -24 -10 -45 -14 -48 -5 -2 -14 -26 -21 -52 -8 -27 -23 -66 -35 -88 -11 -22 -27 -59 -34 -82 -8 -24 -18 -43 -22 -43 -4 0 -10 -13 -14 -30 -4 -16 -10 -30 -15 -30 -4 0 -10 -8 -14 -17 -7 -23 -43 -85 -53 -92 -4 -3 -15 -19 -23 -36 -8 -16 -25 -39 -37 -51 -13 -12 -23 -26 -23 -32 0 -15 -203 -222 -218 -222 -20 0 -14 26 13 51 13 13 25 28 25 32 0 5 16 28 35 51 19 24 35 48 35 54 0 6 3 12 8 14 4 2 20 23 37 48 16 25 32 47 35 50 6 6 29 46 48 83 7 15 17 27 22 27 5 0 11 13 15 30 4 16 12 33 18 37 14 9 57 94 57 112 0 7 10 31 22 54 39 75 46 92 53 127 4 19 11 40 15 45 4 6 11 26 15 45 4 19 11 37 16 40 4 3 14 36 21 73 7 37 16 67 20 67 4 0 10 23 14 50 4 28 10 50 14 50 4 0 13 41 21 90 7 50 17 90 21 90 4 0 8 19 8 42 0 39 1 40 15 22 10 -14 14 -47 15 -121z m-155 -2233 c6 -4 28 -11 49 -15 55 -9 154 -65 203 -113 59 -59 81 -94 89 -142 7 -41 6 -42 -15 -31 -11 7 -21 16 -21 22 0 5 -8 13 -17 16 -10 4 -34 20 -54 35 -50 40 -241 136 -287 144 -20 4 -42 11 -48 16 -7 5 -41 11 -78 15 -39 3 -66 11 -66 17 0 12 51 42 85 50 27 6 147 -4 160 -14z m-5482 -1251 c34 -18 36 -26 30 -133 -5 -106 16 -247 50 -328 l16 -38 68 0 c117 -1 169 -20 156 -59 -17 -46 -35 -54 -112 -47 l-73 6 6 -31 c12 -59 83 -195 141 -266 85 -107 107 -99 75 26 -11 44 -20 84 -20 90 0 22 52 11 79 -17 31 -30 71 -127 71 -170 0 -80 -119 -139 -198 -98 -15 8 -54 43 -88 77 -47 50 -75 94 -127 199 -168 340 -219 673 -120 782 19 21 18 21 46 7z m-1565 -70 c180 -91 235 -142 216 -197 -14 -39 -43 -38 -103 3 -66 46 -204 105 -249 108 -55 3 -76 -34 -80 -143 -7 -155 45 -304 159 -463 85 -120 135 -175 188 -209 48 -30 77 -36 84 -15 8 24 -24 130 -57 186 -25 42 -31 62 -24 74 13 24 66 49 88 42 47 -15 114 -153 126 -257 11 -107 -72 -195 -173 -185 -160 17 -398 305 -504 607 -19 55 -23 87 -23 200 -1 126 1 139 24 185 20 38 40 58 80 83 75 46 128 42 248 -19z m3327 -16 c35 -40 40 -61 18 -85 -24 -26 -30 -164 -13 -297 7 -53 14 -114 16 -136 3 -52 21 -157 45 -270 24 -112 24 -116 -2 -149 -16 -21 -29 -26 -63 -26 -23 0 -52 7 -64 16 -26 18 -192 266 -247 369 -55 102 -96 158 -106 148 -6 -6 0 -79 16 -189 31 -210 35 -314 15 -339 -7 -9 -27 -23 -44 -32 -30 -16 -31 -15 -62 21 -42 48 -235 375 -267 451 -45 108 -93 218 -141 323 -31 66 -45 109 -41 122 9 28 71 74 90 66 9 -3 29 -34 45 -68 50 -111 130 -306 130 -320 1 -20 153 -311 166 -315 7 -2 2 45 -12 129 -33 191 -30 270 13 319 20 24 63 30 94 14 43 -23 123 -118 164 -196 47 -91 175 -308 185 -314 5 -3 -1 30 -12 72 -39 151 -60 291 -65 429 -7 176 -1 209 44 251 42 40 66 42 98 6z m-1145 -45 c24 -13 52 -34 62 -48 17 -24 17 -29 3 -77 -20 -67 -38 -88 -110 -126 -33 -18 -61 -39 -63 -48 -8 -45 96 -137 166 -146 42 -6 42 -5 42 26 0 18 9 40 21 52 20 20 21 20 41 2 54 -49 61 -107 17 -157 -36 -41 -98 -56 -159 -37 -38 11 -145 77 -188 115 -39 34 -64 95 -64 150 0 47 3 53 42 88 23 21 60 43 81 50 56 16 66 33 35 53 -24 16 -77 17 -151 4 -17 -3 -21 2 -23 32 -3 30 2 41 28 63 28 23 40 26 104 26 55 0 82 -5 116 -22z m-1209 -10 c44 -15 104 -55 171 -117 l55 -50 18 38 c29 65 76 103 133 109 45 4 52 2 67 -21 25 -38 16 -68 -24 -82 -65 -22 -90 -126 -54 -230 l16 -49 -64 -59 c-82 -74 -112 -91 -155 -82 -42 7 -139 95 -199 179 -41 59 -115 197 -129 244 -10 31 10 72 52 105 39 30 62 33 113 15z m2644 -7 c22 -10 65 -44 95 -75 56 -58 80 -69 80 -38 0 9 9 32 20 50 36 59 88 61 146 7 56 -53 37 -116 -30 -99 -32 8 -39 -14 -26 -91 19 -114 14 -147 -30 -212 -72 -109 -132 -109 -248 0 -43 41 -118 144 -137 190 -26 63 -46 182 -35 211 5 14 13 26 18 26 4 0 17 9 29 19 18 17 41 27 68 30 6 0 28 -8 50 -18z m-3201 -10 c9 -10 25 -48 35 -86 15 -54 28 -77 67 -117 59 -59 160 -122 246 -152 71 -24 83 -46 48 -84 -45 -48 -158 -15 -262 78 -31 27 -59 50 -61 50 -3 0 10 -33 29 -74 37 -81 43 -130 18 -140 -34 -13 -74 -6 -88 17 -43 65 -136 372 -136 448 0 27 47 79 70 79 9 0 24 -8 34 -19z m4166 -16 c23 -25 23 -26 8 -73 -11 -34 -14 -79 -12 -159 2 -111 2 -113 -23 -133 -59 -46 -88 -37 -223 69 -47 37 -90 70 -97 74 -7 4 3 -26 22 -68 19 -42 35 -89 35 -104 0 -44 -29 -73 -74 -75 -37 -1 -38 0 -56 54 -15 49 -56 150 -104 262 -25 59 -21 97 16 135 18 18 38 33 46 33 7 0 44 -31 80 -68 80 -82 208 -174 237 -170 18 3 20 10 20 99 0 101 8 123 50 139 34 14 51 11 75 -15z m-5099 -1050 c11 -28 36 -99 57 -159 l37 -108 42 5 c47 5 69 -4 60 -26 -8 -22 -62 -28 -156 -17 -87 10 -109 19 -96 40 5 8 22 10 52 6 34 -4 44 -3 40 7 -40 107 -89 278 -84 291 11 28 28 14 48 -39z m530 7 c15 -13 20 -25 16 -36 -6 -16 -8 -16 -36 0 -34 20 -61 13 -61 -16 0 -16 6 -20 36 -20 47 0 69 -13 84 -51 13 -29 12 -33 -9 -50 -28 -23 -43 -24 -81 -4 -57 30 -90 137 -53 177 21 23 74 23 104 0z m-321 -22 c10 -19 77 -70 92 -70 4 0 8 19 10 42 3 46 25 61 54 37 14 -12 14 -14 -1 -26 -13 -9 -16 -20 -11 -43 7 -39 -8 -70 -35 -70 -12 0 -39 14 -60 31 -21 17 -39 27 -39 23 0 -3 16 -52 36 -107 33 -92 35 -101 20 -116 -15 -14 -18 -14 -26 -1 -21 33 -100 289 -94 304 9 22 41 20 54 -4z"/>
 <path d="M4920 6541 c-59 -17 -97 -40 -147 -91 -50 -51 -63 -66 -63 -74 0 -4 -10 -22 -23 -39 -13 -18 -30 -52 -37 -77 -8 -25 -17 -49 -20 -55 -4 -5 -10 -23 -14 -40 -13 -57 -49 -120 -95 -167 -25 -27 -51 -48 -57 -48 -7 0 -14 -6 -17 -14 -3 -8 -21 -17 -39 -21 -40 -9 -90 -42 -119 -78 -20 -26 -21 -37 -20 -235 1 -124 5 -208 11 -210 6 -2 10 -14 10 -28 0 -34 23 -114 32 -114 4 0 8 -5 8 -11 0 -6 11 -25 25 -43 14 -18 25 -36 25 -40 0 -9 65 -76 74 -76 4 0 22 -11 40 -25 18 -14 36 -25 40 -25 12 0 71 -63 79 -82 7 -20 -5 -23 -35 -7 -11 6 -22 8 -25 5 -9 -8 27 -46 43 -46 7 0 17 -8 23 -17 8 -15 24 -18 89 -18 43 0 85 5 93 11 8 6 33 16 57 24 23 7 42 17 42 22 0 4 6 8 14 8 8 0 17 9 21 19 3 11 12 22 20 25 8 3 15 14 15 24 0 10 4 22 9 27 4 6 14 68 20 140 7 71 16 134 21 140 4 5 11 27 15 48 4 20 10 37 14 37 4 0 13 16 21 35 7 19 19 36 27 39 7 3 13 13 13 21 0 18 313 335 331 335 32 0 78 85 85 160 5 46 2 63 -20 106 -14 28 -33 57 -41 64 -8 7 -15 16 -15 21 0 21 -100 99 -128 99 -10 0 -23 5 -30 12 -9 9 -17 9 -34 0 -13 -6 -39 -14 -58 -18 -25 -5 -53 -25 -97 -70 -35 -35 -63 -71 -63 -79 0 -8 -6 -18 -13 -22 -7 -4 -19 -24 -27 -43 -8 -19 -24 -49 -37 -66 -13 -17 -23 -36 -23 -42 0 -6 -5 -14 -11 -17 -7 -5 -8 5 -3 32 11 63 62 176 107 234 15 20 27 41 27 46 0 11 46 53 58 53 4 0 21 12 37 25 l30 26 -35 -7 c-19 -3 -37 -9 -40 -13 -3 -3 -18 -13 -34 -21 -38 -20 -129 -126 -145 -170 -12 -33 -34 -85 -51 -120 -4 -9 -13 -42 -20 -73 -7 -31 -16 -57 -20 -57 -4 0 -10 -14 -14 -32 -9 -45 -51 -130 -75 -152 -12 -11 -21 -24 -21 -31 0 -14 -37 -47 -103 -93 -34 -23 -64 -35 -100 -39 -49 -5 -51 -4 -32 10 11 9 25 17 31 17 19 0 124 101 124 120 0 35 -46 33 -111 -5 -33 -19 -63 -35 -66 -35 -12 0 9 51 31 72 38 38 87 57 151 60 l60 3 9 38 c5 20 13 37 17 37 5 0 11 23 15 50 4 28 10 50 14 50 5 0 14 32 20 70 6 39 15 70 20 70 4 0 11 16 14 35 4 19 10 35 15 35 4 0 14 18 21 39 23 70 123 155 262 223 10 4 49 8 86 8 72 0 125 -20 199 -76 42 -32 143 -133 143 -143 0 -5 7 -14 16 -22 9 -7 25 -33 35 -58 34 -77 43 -94 59 -101 8 -4 37 -18 64 -30 28 -13 73 -47 100 -75 67 -68 73 -76 115 -154 34 -65 35 -68 34 -183 l0 -116 36 -5 c20 -3 46 -8 59 -12 l22 -7 0 191 c0 216 -3 226 -80 303 -42 42 -120 88 -150 88 -10 0 -11 -3 -3 -8 6 -4 15 -21 19 -37 4 -17 12 -33 18 -37 20 -14 -14 -9 -42 6 -47 24 -69 55 -137 191 -41 82 -53 100 -81 129 -29 29 -81 66 -94 66 -5 0 -10 4 -10 9 0 10 -154 88 -192 97 -16 3 -28 10 -28 14 0 4 -17 11 -37 15 -21 4 -42 10 -48 15 -5 4 -37 13 -70 20 -33 6 -67 16 -76 20 -24 13 -130 20 -159 11z"/>
 <path d="M5612 5860 c-12 -16 -22 -34 -22 -40 0 -5 -5 -10 -11 -10 -6 0 -33 -18 -59 -40 -26 -22 -51 -40 -55 -40 -4 0 -21 -13 -37 -30 -15 -16 -32 -30 -36 -30 -15 0 -262 -258 -262 -273 0 -8 -7 -20 -15 -27 -8 -7 -15 -21 -15 -30 0 -10 -5 -20 -11 -22 -6 -2 -16 -51 -22 -110 -7 -58 -15 -110 -19 -114 -5 -4 -8 -23 -8 -43 -1 -40 -48 -130 -76 -146 -11 -5 -22 -13 -25 -18 -12 -17 -86 -47 -141 -58 -32 -7 -85 -9 -118 -6 -53 4 -60 3 -60 -13 0 -10 7 -23 15 -30 8 -6 17 -22 21 -33 4 -12 17 -32 30 -44 13 -12 24 -26 24 -31 0 -8 58 -64 110 -105 9 -8 56 -12 130 -12 99 0 122 3 163 23 27 13 52 33 59 47 6 14 14 25 18 25 4 0 13 28 20 63 6 34 15 67 20 72 4 6 11 26 15 45 4 19 10 40 14 45 4 6 13 29 21 53 7 23 17 42 21 42 4 0 15 15 24 34 9 19 25 42 36 52 10 9 19 22 19 27 0 12 145 157 174 174 21 12 157 79 206 101 67 31 138 102 101 102 -5 0 -10 24 -13 53 -4 44 -39 139 -58 157 -3 3 -16 20 -29 38 -12 17 -28 32 -36 32 -7 0 -15 7 -19 15 -3 9 0 15 9 15 8 0 15 -4 15 -10 0 -5 7 -10 15 -10 20 0 105 -85 105 -104 0 -7 7 -17 16 -20 12 -5 14 -1 8 17 -4 12 -10 24 -13 27 -4 3 -13 20 -20 38 -8 17 -17 32 -22 32 -5 0 -9 6 -9 13 0 20 -94 115 -125 127 -40 15 -49 13 -73 -20z"/>
 <path d="M5844 5331 c-33 -17 -138 -117 -145 -138 -6 -18 -167 -190 -205 -220 -57 -43 -51 -17 11 49 81 89 95 105 95 113 0 4 16 26 35 49 60 73 38 90 -39 31 -26 -19 -49 -35 -52 -35 -9 0 -94 -86 -94 -95 0 -4 -16 -25 -35 -46 -19 -22 -35 -46 -35 -54 0 -8 -4 -15 -9 -15 -5 0 -15 -16 -22 -35 -7 -19 -16 -35 -20 -35 -4 0 -11 -15 -14 -32 -4 -18 -12 -36 -17 -39 -5 -3 -14 -34 -20 -70 -7 -35 -15 -66 -18 -69 -4 -3 -10 -18 -14 -35 -4 -16 -11 -32 -14 -35 -4 -3 -12 -14 -18 -25 -15 -29 -110 -76 -167 -82 -26 -3 -50 -10 -53 -14 -3 -5 -21 -9 -40 -9 -41 0 -43 -12 -9 -56 14 -18 25 -37 25 -42 0 -6 6 -12 14 -15 8 -3 20 -18 28 -34 7 -15 24 -33 37 -39 13 -7 26 -16 30 -21 7 -9 94 -53 106 -53 9 0 83 -33 118 -51 34 -19 108 -27 146 -17 20 6 52 26 71 46 36 38 79 115 80 145 0 9 4 17 8 17 5 0 15 18 22 40 7 22 17 40 22 40 4 0 8 7 8 16 0 9 21 60 47 113 40 83 59 109 144 194 54 53 104 97 113 97 8 0 19 6 23 13 4 6 31 23 58 37 63 33 79 62 70 135 -4 30 -11 55 -16 55 -5 0 -9 7 -9 15 0 9 -34 50 -75 91 -72 72 -74 75 -43 69 18 -4 35 -11 36 -16 2 -5 9 -9 16 -9 16 0 106 -90 106 -106 0 -6 7 -15 16 -18 12 -5 14 -1 8 17 -4 12 -9 24 -13 27 -3 3 -13 18 -21 35 -30 61 -108 115 -164 115 -14 0 -28 5 -31 10 -9 14 -45 10 -81 -9z"/>
 <path d="M5990 4770 c-14 -11 -29 -20 -33 -20 -22 0 -147 -126 -147 -148 0 -5 -7 -15 -15 -22 -17 -14 -21 -100 -6 -128 6 -9 13 -38 16 -64 3 -27 10 -48 14 -48 4 0 14 -25 21 -55 7 -30 17 -55 21 -55 4 0 10 -13 14 -30 4 -16 10 -30 14 -30 3 0 12 -12 19 -27 23 -52 43 -83 53 -83 5 0 9 -5 9 -11 0 -33 166 -199 199 -199 5 0 11 -7 14 -14 3 -8 22 -18 42 -22 19 -3 38 -10 41 -15 7 -12 121 -12 128 0 3 4 19 11 36 15 42 8 132 72 155 110 58 94 69 147 41 201 -15 28 -48 63 -77 80 -51 30 -119 79 -119 87 0 4 -6 8 -14 8 -7 0 -32 21 -55 48 -67 75 -73 84 -103 142 -7 14 -18 31 -25 37 -6 7 -23 38 -38 68 -27 58 -52 75 -40 28 3 -15 10 -30 14 -33 5 -3 14 -22 22 -42 7 -21 16 -38 20 -38 4 0 10 -13 14 -29 3 -16 13 -32 21 -35 8 -3 14 -11 14 -18 0 -15 140 -158 155 -158 13 0 126 -116 141 -146 7 -13 15 -37 19 -55 7 -30 6 -32 -9 -17 -9 9 -16 21 -16 26 0 9 -65 70 -111 105 -108 79 -219 190 -219 216 0 6 -4 11 -9 11 -5 0 -15 16 -22 35 -7 19 -17 35 -21 35 -4 0 -8 6 -8 14 0 7 -7 19 -15 26 -9 7 -20 32 -26 56 -6 24 -15 44 -19 44 -5 0 -11 18 -15 40 -4 22 -10 42 -15 45 -5 3 -11 23 -15 45 -8 46 -25 51 -65 20z"/>
 <path d="M6122 4699 c2 -7 10 -15 17 -17 8 -3 12 1 9 9 -2 7 -10 15 -17 17 -8 3 -12 -1 -9 -9z"/>
 <path d="M5632 4268 c-7 -7 -12 -16 -12 -20 0 -5 -4 -14 -10 -21 -79 -100 -125 -127 -211 -127 -31 0 -59 3 -63 7 -9 10 -78 33 -98 33 -19 0 -25 -25 -8 -35 5 -3 12 -33 16 -66 4 -32 11 -62 15 -65 12 -7 12 -124 0 -124 -5 0 -11 -22 -15 -50 -4 -27 -10 -50 -15 -50 -5 0 -14 -28 -22 -62 -7 -35 -19 -74 -27 -88 -12 -23 -13 -17 -9 58 3 48 11 90 19 99 17 21 19 260 1 271 -6 4 -15 36 -19 72 -6 63 -17 90 -35 90 -5 0 -9 -9 -9 -19 0 -11 -4 -23 -10 -26 -12 -7 -14 -45 -2 -45 15 0 35 -205 28 -296 -3 -49 -9 -156 -12 -239 -4 -82 -10 -154 -14 -160 -4 -5 -10 -26 -14 -46 -3 -20 -15 -54 -26 -77 -11 -23 -20 -46 -20 -52 0 -5 -5 -10 -10 -10 -6 0 -14 -10 -19 -22 -5 -13 -32 -48 -60 -80 -28 -31 -51 -59 -51 -63 0 -4 -14 -20 -30 -37 -17 -16 -33 -40 -36 -54 -3 -13 -10 -24 -15 -24 -5 0 -12 -18 -15 -40 -4 -22 -11 -43 -15 -46 -13 -7 -11 -94 1 -94 6 0 13 8 16 18 10 33 41 86 77 133 15 20 27 40 27 45 0 4 7 14 15 23 31 34 65 79 65 89 0 5 7 12 15 16 18 7 19 2 1 -37 -7 -18 -20 -48 -27 -67 -7 -19 -15 -37 -18 -40 -4 -3 -17 -27 -30 -55 -13 -27 -31 -58 -40 -69 -12 -13 -16 -39 -16 -101 0 -74 3 -86 24 -109 14 -14 30 -26 38 -26 7 0 13 -4 13 -9 0 -5 14 -12 30 -16 17 -4 30 -10 30 -14 0 -4 19 -14 43 -21 23 -8 51 -20 62 -27 11 -7 32 -13 47 -13 15 0 30 -4 33 -10 3 -5 34 -10 68 -10 77 0 119 20 184 86 52 54 66 72 88 122 9 17 19 32 24 32 5 0 13 15 17 32 3 18 12 42 20 53 7 11 16 38 20 60 3 22 10 45 14 50 4 6 11 44 15 85 4 41 11 80 16 85 4 6 9 89 11 185 3 152 1 180 -15 213 -10 20 -22 37 -27 37 -6 0 -10 6 -10 13 0 19 -98 110 -152 141 -58 33 -67 65 -10 37 9 -4 39 -19 67 -32 57 -27 99 -55 129 -84 l21 -20 6 30 c17 78 0 361 -23 376 -5 3 -12 76 -15 162 -3 87 -9 157 -13 157 -3 0 -11 -5 -18 -12z"/>
 <path d="M8689 5864 c-56 -58 -130 -88 -221 -89 -61 0 -74 -2 -66 -12 6 -7 18 -28 28 -46 22 -42 53 -57 118 -57 70 0 107 17 169 79 57 56 76 97 50 107 -8 3 -18 16 -21 30 -8 32 -16 30 -57 -12z"/>
 <path d="M6871 5881 c-9 -6 -14 -32 -15 -86 -1 -63 2 -78 17 -86 9 -6 17 -16 17 -22 0 -14 100 -117 113 -117 4 0 20 -9 36 -21 20 -14 39 -19 67 -17 36 3 41 7 65 56 l27 52 -29 0 c-16 0 -29 4 -29 8 0 4 -12 13 -27 20 -57 25 -77 40 -133 96 -47 46 -75 81 -85 103 -7 16 -14 20 -24 14z"/>
 <path d="M8766 5705 c-16 -19 -35 -35 -42 -35 -7 0 -17 -7 -22 -16 -5 -8 -27 -18 -50 -21 -23 -3 -42 -9 -42 -14 0 -4 -26 -9 -57 -11 l-58 -3 51 -51 c72 -72 115 -78 209 -27 66 35 100 77 99 123 -1 42 -26 90 -47 90 -7 0 -25 -16 -41 -35z"/>
 <path d="M6816 5673 c-10 -10 -7 -73 6 -117 15 -52 149 -190 194 -199 52 -10 81 2 88 35 12 60 8 78 -18 78 -26 0 -86 30 -86 43 0 4 -6 7 -12 7 -17 1 -88 64 -131 117 -19 23 -37 39 -41 36z"/>
 <path d="M8860 5545 c-13 -14 -29 -25 -37 -25 -7 0 -13 -3 -13 -8 0 -4 -17 -16 -37 -27 -27 -15 -56 -20 -115 -20 -43 0 -78 -2 -78 -5 0 -3 7 -14 15 -24 8 -11 15 -27 15 -36 0 -21 71 -90 92 -90 9 0 20 -4 23 -10 10 -16 47 -12 85 8 79 42 99 58 111 89 7 18 16 33 21 33 13 0 9 24 -12 65 -11 22 -20 47 -20 57 0 25 -23 22 -50 -7z"/>
 <path d="M6760 5476 c0 -19 4 -37 9 -40 4 -3 11 -29 13 -58 3 -29 11 -54 17 -56 6 -2 11 -9 11 -16 0 -27 33 -78 56 -86 14 -6 27 -17 30 -25 4 -8 12 -15 19 -15 7 0 18 -7 25 -15 18 -22 77 -36 106 -25 21 8 24 16 24 60 0 27 5 50 10 50 6 0 10 9 10 20 0 17 -7 20 -45 20 -25 0 -45 4 -45 8 0 4 -12 13 -27 20 -16 7 -38 18 -50 25 -25 15 -103 92 -103 101 0 11 -43 66 -52 66 -4 0 -8 -15 -8 -34z"/>
 <path d="M8960 5340 c0 -6 -11 -15 -25 -20 -14 -5 -25 -14 -25 -20 0 -5 -6 -10 -13 -10 -7 0 -29 -9 -50 -20 -26 -14 -56 -20 -102 -20 -51 0 -65 -3 -65 -15 0 -8 4 -15 9 -15 5 0 12 -15 15 -32 4 -18 18 -44 33 -58 23 -22 35 -25 98 -25 82 0 122 21 164 84 28 43 29 66 5 120 -16 37 -44 56 -44 31z"/>
 <path d="M6710 5291 c0 -11 -4 -23 -10 -26 -5 -3 -10 -40 -10 -81 0 -43 4 -74 10 -74 6 0 10 -6 10 -13 0 -15 58 -73 92 -93 105 -59 195 -88 239 -77 15 4 19 14 19 52 0 25 3 55 6 67 5 19 0 22 -48 27 -31 3 -74 17 -103 33 -62 35 -142 117 -162 167 -16 39 -43 50 -43 18z"/>
 <path d="M9016 5095 c-20 -14 -41 -25 -47 -25 -5 0 -21 -7 -35 -16 -19 -13 -42 -16 -107 -12 -45 3 -76 3 -70 1 7 -3 16 -27 19 -55 5 -39 16 -61 42 -90 19 -21 41 -38 48 -38 8 0 14 -4 14 -10 0 -5 18 -10 40 -10 22 0 40 4 40 9 0 5 11 12 25 15 39 10 105 83 105 116 0 16 -4 32 -10 35 -5 3 -10 23 -10 43 0 59 -11 66 -54 37z"/>
 <path d="M6643 5045 c-8 -22 5 -109 21 -140 26 -50 52 -69 181 -134 84 -42 147 -58 190 -47 23 6 25 10 25 70 l0 63 -62 5 c-59 5 -77 11 -153 51 -16 9 -44 23 -62 32 -18 9 -53 39 -78 66 -25 27 -48 49 -51 49 -2 0 -7 -7 -11 -15z"/>
 <path d="M6605 4833 c10 -68 31 -108 83 -153 47 -42 179 -111 246 -129 75 -20 126 8 126 71 l0 38 -63 0 c-55 0 -74 6 -168 53 -59 30 -113 59 -120 66 -8 6 -26 20 -41 32 -16 11 -28 26 -28 32 0 7 -10 18 -21 25 -21 14 -21 13 -14 -35z"/>
 <path d="M9076 4851 c-4 -5 -27 -20 -54 -33 -49 -24 -121 -30 -174 -15 -25 7 -28 5 -28 -18 0 -14 4 -25 9 -25 5 0 12 -12 16 -27 8 -33 61 -83 87 -83 10 0 18 -4 18 -10 0 -16 38 -12 68 7 15 10 39 31 54 48 24 26 28 38 28 98 0 61 -9 83 -24 58z"/>
 <path d="M6556 4741 c-3 -4 -8 -33 -12 -63 -6 -51 -4 -57 23 -89 16 -19 33 -42 36 -52 4 -9 15 -20 24 -24 10 -3 40 -25 67 -47 47 -39 82 -61 136 -87 14 -6 33 -15 42 -20 60 -31 153 21 164 92 l6 34 -55 0 c-29 0 -65 5 -78 11 -184 87 -207 101 -266 160 -35 34 -63 69 -63 78 0 17 -15 22 -24 7z"/>
 <path d="M8860 4571 c0 -12 4 -21 9 -21 5 0 11 -22 13 -48 6 -63 39 -102 85 -102 26 0 43 10 77 44 39 38 44 49 47 95 l4 52 -40 -7 c-22 -3 -44 -10 -49 -15 -13 -12 -59 -12 -71 0 -6 5 -25 12 -42 16 -29 6 -33 4 -33 -14z"/>
 <path d="M6610 4452 c0 -5 9 -17 20 -27 11 -10 20 -21 20 -26 0 -10 260 -269 270 -269 4 0 13 -7 20 -15 17 -21 30 -19 30 4 0 11 4 22 9 25 5 3 12 34 16 68 4 34 12 70 18 80 16 25 6 29 -38 17 -81 -23 -186 16 -307 113 -48 39 -58 44 -58 30z"/>
 <path d="M8910 4290 c0 -50 16 -73 57 -83 28 -6 52 20 60 67 3 20 10 36 14 36 5 0 9 6 9 13 0 8 -21 12 -70 13 l-70 0 0 -46z"/>
 <path d="M8910 4088 l1 -73 24 28 c14 15 25 37 25 47 0 10 5 22 10 25 17 10 11 25 -9 25 -11 0 -23 5 -26 10 -16 26 -25 4 -25 -62z"/>
 <path d="M6183 2770 c5 -54 37 -129 59 -138 4 -2 8 -9 8 -15 0 -7 9 -23 20 -37 19 -25 28 -100 12 -100 -5 0 -22 16 -39 35 -27 30 -38 35 -75 35 -61 0 -96 -42 -117 -140 -10 -44 -7 -64 7 -45 24 33 162 64 162 36 0 -5 9 -11 21 -14 11 -3 23 -15 26 -26 3 -12 9 -21 14 -21 5 0 9 -13 9 -29 0 -39 19 -50 41 -23 9 12 22 22 28 22 6 0 18 11 27 25 17 26 15 93 -4 132 -42 84 -46 101 -48 167 -2 66 -4 72 -30 86 -33 19 -64 47 -87 83 -29 45 -40 34 -34 -33z"/>
 <path d="M6528 2793 c-16 -2 -28 -8 -28 -13 0 -4 -11 -11 -25 -14 -14 -4 -36 -17 -48 -29 -18 -18 -22 -33 -21 -87 0 -53 6 -75 31 -122 60 -108 57 -191 -9 -257 -23 -22 -46 -41 -50 -41 -5 0 -14 -4 -21 -10 -65 -52 -91 -79 -107 -113 -21 -42 -26 -106 -12 -122 5 -6 15 -29 22 -52 7 -24 17 -43 22 -43 5 0 11 -8 15 -17 3 -10 28 -44 54 -75 27 -31 49 -60 49 -63 0 -4 33 -41 74 -81 52 -53 84 -76 107 -80 19 -4 40 -12 47 -17 9 -7 16 -7 20 0 4 5 26 13 50 17 24 3 51 10 60 15 38 21 109 50 135 56 15 4 27 11 27 15 0 4 13 10 30 13 16 4 50 16 74 27 25 11 51 20 58 20 7 0 21 7 31 15 11 7 36 17 58 20 21 4 39 11 39 16 0 5 7 9 16 9 8 0 34 9 57 19 23 11 68 22 100 26 31 4 60 11 63 16 7 12 239 12 262 0 9 -5 53 -14 97 -21 44 -7 85 -16 90 -20 6 -4 25 -11 43 -15 17 -3 32 -10 32 -15 0 -4 18 -11 39 -15 22 -3 47 -13 58 -20 10 -8 24 -15 32 -15 20 0 105 -43 114 -57 4 -7 13 -13 18 -13 6 0 25 -11 43 -25 18 -14 36 -25 39 -25 19 0 337 -306 337 -325 1 -11 65 -55 81 -55 5 0 9 -4 9 -10 0 -6 32 -10 75 -10 41 0 75 4 75 9 0 5 19 12 42 16 23 4 48 14 56 21 7 8 24 14 37 14 12 0 25 6 28 14 3 8 19 17 36 21 17 4 31 10 31 14 0 4 15 15 33 24 83 43 172 133 187 188 14 50 5 110 -21 143 -10 13 -19 27 -19 30 0 3 -19 24 -43 48 -24 24 -50 58 -58 76 -7 17 -17 32 -21 32 -4 0 -10 16 -14 35 -3 19 -10 35 -15 35 -5 0 -9 25 -9 55 0 30 4 55 9 55 5 0 11 23 15 50 4 28 10 50 15 50 5 0 14 27 21 60 7 33 17 63 21 66 5 3 9 23 9 45 0 50 -35 106 -72 114 -34 8 -113 -3 -153 -20 -16 -7 -52 -16 -80 -20 -27 -4 -54 -10 -60 -15 -5 -4 -26 -11 -45 -15 -19 -4 -39 -11 -45 -15 -5 -4 -40 -13 -77 -21 -38 -7 -68 -16 -68 -20 0 -4 -30 -11 -67 -14 -38 -4 -73 -11 -79 -16 -32 -26 -567 -26 -583 0 -4 5 -34 12 -68 16 -35 4 -63 10 -63 15 0 4 -13 10 -30 13 -16 4 -50 16 -74 27 -25 11 -48 20 -52 20 -14 0 -99 44 -129 66 -17 12 -41 28 -55 34 -14 6 -43 22 -65 35 -22 14 -51 30 -65 37 -14 7 -27 15 -30 18 -18 18 -275 146 -312 156 -16 3 -28 10 -28 14 0 4 -15 11 -32 14 -18 3 -45 12 -59 20 -14 7 -48 17 -75 21 -27 4 -53 10 -59 15 -12 9 -140 19 -177 13z m232 -623 c20 -5 55 -29 79 -54 39 -40 43 -49 48 -106 5 -53 3 -69 -17 -105 -36 -66 -79 -89 -171 -94 l-77 -3 -46 42 c-25 24 -46 51 -46 61 0 11 -4 19 -10 19 -6 0 -10 28 -10 65 0 36 3 65 8 65 4 0 13 13 20 30 31 68 133 105 222 80z m2214 -299 c3 -5 21 -12 40 -15 19 -4 37 -13 40 -21 3 -8 12 -15 21 -15 8 0 15 -7 15 -15 0 -7 7 -18 15 -22 23 -14 38 -109 24 -165 -6 -27 -15 -48 -20 -48 -5 0 -9 -6 -9 -14 0 -8 -12 -24 -27 -35 -16 -12 -34 -26 -41 -32 -25 -21 -125 -23 -168 -4 -45 21 -94 63 -94 81 0 7 -6 14 -12 17 -21 6 -17 160 5 184 9 11 17 24 17 30 0 15 84 63 109 63 12 0 21 5 21 10 0 12 57 13 64 1z"/>
 <path d="M6630 2133 c-18 -7 -83 -74 -77 -79 6 -7 67 27 67 37 0 13 147 11 172 -2 29 -16 35 -2 10 23 -18 18 -35 23 -89 25 -38 1 -75 0 -83 -4z"/>
 <path d="M6628 2073 c-26 -6 -23 -50 2 -58 23 -7 50 10 50 31 0 17 -29 32 -52 27z"/>
 <path d="M6660 1953 c-38 -15 -53 -56 -24 -67 56 -21 125 15 91 48 -17 17 -48 26 -67 19z"/>
 <path d="M8885 1821 c-35 -9 -75 -39 -75 -58 0 -7 -4 -13 -10 -13 -5 0 -10 -4 -10 -10 0 -17 16 -11 45 16 25 23 38 27 100 28 45 1 82 -4 98 -13 34 -18 46 -7 22 19 -31 34 -102 47 -170 31z"/>
 <path d="M8847 1753 c-13 -13 -7 -38 13 -51 17 -10 23 -10 35 2 8 8 15 21 15 29 0 22 -47 37 -63 20z"/>
 <path d="M8862 1628 c-18 -18 -15 -41 9 -61 19 -17 23 -17 55 -2 34 16 40 29 28 59 -7 19 -74 22 -92 4z"/>
 <path d="M7855 2623 c-27 -2 -54 -8 -60 -13 -5 -4 -35 -11 -65 -15 -30 -4 -68 -13 -85 -20 -16 -8 -56 -17 -87 -21 -64 -7 -74 -20 -28 -37 17 -6 30 -15 30 -18 0 -4 14 -10 30 -14 17 -4 30 -10 30 -14 0 -4 17 -13 38 -20 33 -11 75 -29 122 -51 9 -4 43 -13 75 -20 33 -6 68 -16 77 -21 10 -5 56 -12 103 -15 47 -4 88 -11 91 -16 7 -11 211 -11 218 0 3 5 45 12 93 16 48 3 90 11 93 16 3 5 29 12 58 16 59 7 70 28 20 38 -41 8 -173 74 -187 93 -3 5 -17 14 -31 21 -14 7 -45 24 -70 37 -25 14 -61 28 -80 31 -19 4 -41 11 -48 17 -13 10 -253 18 -337 10z"/>
 <path d="M9260 2096 c0 -13 -6 -26 -12 -28 -9 -3 -13 -29 -12 -84 0 -85 -1 -82 72 -164 17 -21 32 -42 32 -48 0 -15 34 -32 47 -24 5 4 16 25 23 47 7 22 17 46 23 53 5 7 12 56 15 109 4 79 2 95 -9 91 -8 -3 -19 -15 -25 -27 -11 -20 -28 -34 -71 -57 -31 -16 -41 3 -36 65 4 41 2 65 -7 76 -19 23 -40 18 -40 -9z"/>
 <path d="M6107 2022 c-18 -20 -24 -100 -9 -117 5 -6 15 -26 23 -45 7 -19 24 -45 36 -56 13 -12 23 -25 23 -29 0 -4 25 -35 55 -68 30 -34 55 -67 55 -73 0 -6 10 -24 22 -40 18 -22 23 -41 23 -93 0 -36 -4 -74 -9 -83 -6 -14 -4 -18 13 -18 12 0 24 7 27 15 4 8 13 15 20 15 8 0 18 8 21 17 8 19 40 53 51 53 9 0 42 -37 42 -48 0 -13 55 -62 68 -62 7 0 12 -4 12 -9 0 -5 33 -12 73 -16 39 -4 77 -11 82 -15 6 -4 32 -10 59 -14 27 -3 62 -12 77 -20 16 -8 42 -17 58 -21 34 -7 111 -70 111 -91 0 -8 5 -14 10 -14 6 0 10 -22 10 -50 0 -27 4 -50 8 -50 14 0 42 35 42 53 0 9 5 17 10 17 6 0 10 23 10 50 0 28 -4 50 -10 50 -5 0 -10 16 -10 35 0 43 12 44 60 3 68 -59 153 -106 203 -113 26 -4 47 -11 47 -15 0 -4 51 -10 113 -13 81 -4 122 -10 147 -24 19 -10 37 -22 39 -26 2 -5 14 -12 27 -17 13 -5 24 -16 24 -25 0 -8 4 -15 10 -15 5 0 16 -21 23 -47 8 -26 20 -49 27 -51 11 -4 12 12 7 78 -4 46 -10 86 -14 89 -5 3 -15 20 -23 36 -8 17 -27 41 -42 55 -48 42 -38 53 42 48 38 -3 75 -10 82 -16 7 -6 30 -13 51 -17 20 -4 37 -11 37 -15 0 -4 18 -13 40 -20 22 -7 40 -17 40 -22 0 -4 5 -8 10 -8 14 0 72 -41 83 -57 4 -7 14 -13 21 -13 13 0 66 -51 66 -64 0 -5 10 -18 23 -30 12 -11 30 -33 40 -48 30 -47 40 -35 33 34 -4 35 -11 65 -15 68 -4 3 -13 20 -20 38 -8 17 -17 32 -22 32 -5 0 -9 6 -9 13 0 22 -73 85 -107 92 -18 4 -33 10 -33 15 0 4 -17 11 -37 15 -43 8 -135 54 -140 71 -4 13 104 -2 122 -17 6 -4 34 -11 63 -15 28 -3 52 -10 52 -14 0 -5 19 -11 43 -15 57 -9 252 -104 270 -132 4 -7 13 -13 18 -13 15 0 197 -188 238 -246 19 -26 37 -42 39 -36 5 17 -18 112 -28 112 -4 0 -11 12 -15 27 -3 15 -10 30 -14 33 -9 6 -43 91 -38 96 1 2 15 -8 30 -21 14 -14 29 -25 33 -25 4 0 21 -10 38 -23 28 -21 52 -33 158 -81 20 -9 45 -16 55 -16 10 0 23 -4 29 -9 5 -5 36 -12 69 -16 56 -7 59 -6 40 9 -11 8 -25 16 -30 16 -21 0 -115 107 -115 130 0 21 3 22 44 16 105 -16 269 -4 294 20 7 8 20 14 28 14 8 0 14 7 14 15 0 11 -11 15 -36 15 -49 0 -104 27 -104 51 0 11 6 19 13 19 8 0 22 9 32 20 10 11 22 20 26 20 17 0 139 139 139 159 0 6 4 11 8 11 5 0 15 18 22 40 7 22 17 40 21 40 4 0 10 14 14 30 4 17 10 30 15 30 5 0 12 21 15 48 4 26 9 55 12 65 7 25 -10 21 -22 -5 -6 -13 -19 -27 -30 -33 -42 -21 -65 -49 -65 -80 0 -17 -4 -35 -8 -41 -4 -5 -14 -27 -21 -49 -8 -22 -24 -50 -37 -62 -13 -12 -24 -27 -24 -33 0 -5 -4 -10 -9 -10 -4 0 -20 -10 -34 -22 -57 -51 -84 -70 -114 -84 -18 -8 -33 -18 -33 -23 0 -5 -13 -12 -30 -16 -16 -4 -30 -10 -30 -14 0 -4 -19 -14 -42 -21 -24 -8 -52 -20 -63 -27 -11 -7 -31 -13 -45 -13 -14 0 -32 -6 -38 -13 -18 -17 -204 -17 -209 1 -3 6 -10 12 -17 12 -7 0 -52 42 -101 92 -203 213 -248 258 -256 258 -6 0 -39 -42 -43 -57 -1 0 -19 -4 -41 -8 l-40 -7 40 35 39 35 -18 33 c-32 59 -154 139 -236 156 -17 3 -33 10 -36 14 -9 15 -44 10 -44 -5 0 -8 5 -16 11 -18 6 -2 13 -25 16 -51 5 -44 3 -49 -31 -82 -36 -34 -78 -46 -91 -25 -3 5 7 12 22 16 15 4 34 11 41 17 14 11 16 57 2 57 -5 0 -10 7 -10 15 0 9 -11 20 -25 25 -14 5 -25 14 -25 19 0 5 -15 13 -32 16 -18 4 -37 11 -43 15 -5 4 -26 11 -45 15 -19 3 -49 13 -67 21 -47 21 -200 29 -275 14 -84 -17 -92 -25 -67 -59 14 -19 18 -35 13 -59 -8 -38 -34 -44 -34 -7 0 16 -6 25 -15 25 -8 0 -15 5 -15 10 0 6 -32 10 -75 10 -43 0 -75 -4 -75 -10 0 -5 -7 -10 -16 -10 -17 0 -60 -18 -179 -76 -38 -19 -76 -34 -83 -34 -7 0 -30 -9 -50 -19 -78 -40 -95 -45 -160 -44 -47 1 -79 7 -107 22 -40 22 -205 178 -205 195 0 5 -14 23 -30 40 -44 45 -80 92 -80 104 0 5 -7 12 -14 15 -8 3 -18 22 -22 41 -3 20 -10 36 -14 36 -4 0 -11 25 -15 55 -7 59 -20 68 -48 37z"/>
 <path d="M1965 1558 c12 -41 99 -179 141 -224 46 -50 76 -56 99 -20 15 23 15 27 -8 63 -39 62 -199 203 -230 203 -5 0 -5 -10 -2 -22z"/>
 <path d="M4596 1582 c-37 -36 77 -251 151 -285 21 -9 27 -8 39 8 8 10 14 29 14 41 0 25 -85 158 -130 203 -29 28 -64 44 -74 33z"/>
 <path d="M972 521 c-9 -5 -7 -12 7 -25 20 -19 58 -15 46 4 -11 17 -41 29 -53 21z"/>
 <path d="M7690 6713 c24 -3 49 -8 55 -13 5 -4 36 -11 68 -15 31 -4 59 -11 62 -15 3 -4 29 -14 57 -20 29 -7 58 -16 63 -20 6 -4 25 -11 43 -15 17 -3 32 -11 32 -16 0 -5 8 -9 18 -9 9 0 44 -13 76 -30 33 -16 61 -28 62 -27 5 6 -21 113 -29 118 -5 4 -8 21 -5 38 l5 31 -68 0 c-47 0 -72 -5 -83 -15 -19 -19 -105 -19 -130 0 -15 12 -48 15 -145 13 -69 -1 -106 -3 -81 -5z"/>
 </g>

</svg>