<?xml version="1.0" standalone="no"?>
<!DOCTYPE svg PUBLIC "-//W3C//DTD SVG 20010904//EN"
 "http://www.w3.org/TR/2001/REC-SVG-20010904/DTD/svg10.dtd">
<svg version="1.0" xmlns="http://www.w3.org/2000/svg"
 width="1056.000000pt" height="672.000000pt" viewBox="0 0 1056.000000 672.000000"
 preserveAspectRatio="xMidYMid meet">

<g transform="translate(0.000000,672.000000) scale(0.100000,-0.100000)"
fill="#000000" stroke="none">
<path d="M712 6338 c-49 -135 -72 -217 -66 -233 9 -21 41 -19 54 5 10 19 77
70 92 70 5 0 8 -18 8 -40 0 -46 16 -58 51 -39 21 11 22 12 4 25 -13 10 -16 21
-11 44 7 39 -8 70 -35 70 -12 0 -39 -14 -60 -31 -21 -17 -39 -27 -39 -23 0 3
16 51 36 106 28 79 33 102 23 114 -6 8 -15 14 -19 14 -5 0 -22 -37 -38 -82z"/>
<path d="M516 6399 c-71 -8 -93 -19 -81 -39 5 -8 22 -10 52 -6 34 4 44 3 41
-7 -37 -100 -89 -271 -86 -284 6 -34 30 -18 49 32 11 28 36 99 56 159 l37 108
42 -5 c23 -2 48 -1 55 3 20 13 3 37 -31 44 -36 7 -37 7 -134 -5z"/>
<path d="M968 6264 c-57 -30 -88 -143 -50 -177 39 -35 135 -5 119 37 -6 16 -8
16 -36 0 -34 -20 -61 -13 -61 16 0 16 6 20 36 20 47 0 69 13 84 51 13 29 12
33 -9 50 -28 23 -47 23 -83 3z m57 -33 c8 -13 -34 -41 -52 -34 -12 5 -11 9 3
24 18 21 39 25 49 10z"/>
<path d="M8803 6023 c-7 -2 -13 -9 -13 -14 0 -14 -52 -120 -69 -140 -37 -46
-166 -169 -177 -169 -4 0 -30 -19 -58 -43 -48 -41 -102 -71 -170 -97 -29 -11
-29 -10 -12 12 9 13 19 30 23 38 4 8 10 18 15 21 12 8 22 168 14 213 -4 22
-13 36 -21 36 -8 0 -15 -6 -15 -13 0 -7 -9 -18 -20 -25 -11 -7 -20 -18 -20
-25 0 -16 -62 -77 -77 -77 -7 0 -16 -6 -20 -12 -10 -17 -69 -58 -82 -58 -6 0
-14 -6 -18 -13 -11 -16 -150 -85 -188 -93 l-30 -5 0 121 c0 69 -4 124 -10 128
-5 4 -15 16 -21 26 -18 34 -31 28 -37 -19 -10 -73 -52 -124 -117 -146 -19 -6
-40 -15 -46 -20 -5 -4 -48 -11 -95 -15 -46 -4 -88 -10 -94 -14 -5 -4 -36 -11
-68 -15 -60 -7 -144 -42 -167 -70 -19 -23 -26 -19 -39 25 -6 22 -16 40 -21 40
-6 0 -10 6 -10 13 0 16 -52 67 -68 67 -7 0 -12 4 -12 9 0 5 -13 12 -30 16 -16
4 -30 11 -30 16 0 12 -57 12 -65 -1 -3 -5 0 -10 8 -10 16 0 57 -41 57 -58 0
-7 5 -12 10 -12 17 0 11 -70 -8 -90 -37 -40 -149 -88 -222 -95 -39 -4 -70 -10
-70 -15 0 -4 -23 -10 -52 -13 -28 -4 -56 -11 -62 -17 -5 -5 -18 -10 -28 -10
-11 0 -41 -21 -68 -46 l-49 -46 -28 20 c-16 11 -45 23 -66 27 -20 4 -40 11
-43 16 -9 15 -154 11 -170 -5 -12 -13 -11 -15 8 -14 54 3 76 -4 106 -33 38
-37 43 -89 12 -129 -11 -14 -20 -28 -20 -33 0 -4 -13 -22 -29 -40 -84 -92
-111 -125 -111 -131 0 -4 -10 -17 -23 -29 -13 -12 -29 -38 -37 -57 -8 -19 -18
-38 -23 -41 -12 -9 -13 -159 -1 -167 6 -4 16 -21 23 -39 8 -19 22 -34 37 -37
14 -4 30 -19 37 -34 6 -15 24 -38 39 -52 16 -13 28 -30 28 -36 0 -6 7 -17 15
-24 23 -19 19 -78 -7 -101 -13 -10 -31 -18 -41 -19 -32 0 -107 52 -107 76 0 7
-6 17 -13 21 -8 4 -16 16 -20 26 -3 9 -11 17 -17 17 -6 0 -10 -36 -10 -95 0
-52 4 -95 9 -95 5 0 12 -18 16 -39 4 -22 13 -45 21 -52 8 -6 14 -17 14 -23 0
-21 49 -57 85 -63 37 -6 55 -21 38 -32 -6 -3 -14 -17 -18 -31 -4 -14 -12 -28
-18 -32 -6 -4 -11 -45 -11 -96 -1 -82 1 -93 23 -116 29 -31 83 -50 117 -42 27
7 32 31 9 40 -25 9 -16 106 10 106 7 0 18 6 24 14 19 23 59 25 77 5 13 -14 17
-41 18 -121 2 -81 6 -110 22 -138 10 -19 22 -37 25 -40 3 -3 11 -21 19 -40 7
-19 28 -54 47 -77 18 -23 33 -44 33 -48 0 -3 4 -11 10 -18 43 -53 60 -76 60
-81 0 -4 11 -17 25 -30 14 -13 25 -27 25 -31 0 -4 18 -29 40 -55 22 -26 40
-53 40 -58 0 -6 6 -15 13 -19 16 -11 67 -86 67 -100 0 -6 7 -24 15 -39 8 -16
15 -37 15 -46 0 -10 4 -18 9 -18 5 0 15 -25 22 -55 7 -30 16 -55 20 -55 5 0
11 -23 15 -50 4 -28 10 -50 15 -50 5 0 9 -17 9 -39 0 -28 -5 -40 -17 -44 -10
-3 -31 -14 -48 -24 -32 -19 -285 -266 -285 -277 0 -4 -22 -33 -50 -65 -27 -32
-50 -63 -50 -69 0 -7 -4 -12 -9 -12 -10 0 -31 -77 -31 -114 0 -14 -4 -26 -10
-26 -5 0 -10 -7 -10 -15 0 -8 5 -15 10 -15 6 0 10 -14 10 -31 0 -34 19 -119
30 -134 4 -5 11 -28 15 -50 4 -22 10 -44 15 -50 4 -5 13 -34 20 -64 16 -66 7
-147 -20 -183 -11 -15 -20 -30 -20 -33 0 -2 -13 -18 -30 -33 -16 -16 -30 -34
-30 -39 0 -10 -97 -102 -141 -135 -13 -10 -36 -27 -51 -38 -14 -11 -31 -20
-36 -20 -5 0 -12 -7 -16 -15 -3 -8 -12 -15 -21 -15 -25 0 -20 94 7 133 12 18
26 33 30 35 4 2 8 9 8 15 0 6 6 18 13 26 7 9 19 36 26 61 7 25 17 53 22 62 11
23 12 95 0 102 -4 3 -11 24 -15 46 -4 26 -19 54 -43 80 -33 38 -35 44 -30 89
3 27 10 58 15 68 22 42 52 111 52 118 0 9 42 97 50 105 3 3 19 25 35 50 16 25
36 49 42 53 7 4 13 15 13 23 0 8 8 18 18 21 9 4 31 21 48 38 17 17 48 39 68
50 20 11 36 23 36 27 0 5 6 8 13 8 19 0 84 70 107 115 26 51 26 128 0 183 -11
22 -20 45 -20 50 0 6 -7 12 -15 16 -8 3 -15 11 -15 19 0 16 -71 87 -87 87 -7
0 -16 6 -20 13 -13 20 -73 47 -120 54 -23 3 -43 10 -43 14 0 5 -18 9 -40 9
-22 0 -40 -4 -40 -9 0 -4 -18 -11 -39 -14 -81 -10 -151 -54 -253 -158 -54 -55
-98 -106 -98 -114 0 -8 -3 -15 -8 -15 -4 0 -12 -9 -17 -19 -71 -138 -96 -195
-106 -239 -27 -113 -44 -35 -36 160 3 76 10 144 15 151 5 7 15 66 22 132 14
140 0 835 -17 857 -6 7 -14 43 -18 81 -3 37 -11 67 -16 67 -5 0 -9 10 -9 21 0
33 -21 99 -48 149 -14 25 -31 59 -40 75 -8 17 -56 71 -106 121 -100 99 -111
104 -224 104 -78 0 -192 -18 -192 -31 0 -5 -8 -9 -17 -9 -22 0 -183 -80 -183
-91 0 -5 -7 -9 -16 -9 -20 0 -134 -115 -134 -134 0 -8 -4 -16 -10 -18 -25 -8
-28 -259 -3 -277 4 -3 21 -32 37 -63 16 -31 44 -71 62 -89 19 -18 34 -38 34
-43 1 -6 14 -22 30 -36 17 -13 30 -28 30 -33 0 -4 13 -25 29 -45 16 -20 34
-55 41 -77 7 -22 17 -49 23 -60 6 -11 13 -90 15 -175 2 -99 8 -160 15 -169 16
-19 15 -194 -1 -214 -18 -21 -27 -193 -13 -242 l11 -40 -65 -65 c-36 -36 -65
-71 -65 -78 0 -6 -4 -12 -9 -12 -5 0 -12 -14 -16 -30 -4 -17 -11 -30 -16 -30
-5 0 -9 -9 -9 -19 0 -20 -43 -61 -64 -61 -6 0 -31 -16 -55 -35 -24 -19 -48
-35 -52 -35 -5 0 -9 -6 -9 -13 0 -8 -11 -24 -25 -37 -14 -13 -25 -29 -25 -37
0 -7 -4 -13 -9 -13 -8 0 -66 -112 -104 -200 -18 -41 -61 -109 -70 -110 -26 -1
-101 -70 -142 -131 -16 -24 -32 -46 -35 -49 -18 -18 -50 -104 -56 -150 -4 -30
-11 -58 -16 -61 -6 -4 -11 -102 -11 -232 -2 -201 0 -227 15 -244 10 -11 18
-25 18 -31 0 -7 5 -12 11 -12 6 0 24 -11 41 -25 16 -14 36 -25 44 -25 8 0 14
-4 14 -9 0 -5 14 -12 30 -16 17 -4 30 -11 30 -16 0 -5 6 -9 13 -9 21 0 84 -72
98 -112 7 -21 17 -38 21 -38 4 0 8 -12 8 -28 0 -15 6 -36 13 -47 7 -11 18 -38
26 -60 16 -52 43 -105 53 -105 5 0 8 -7 8 -15 0 -8 16 -32 35 -54 19 -21 35
-43 35 -48 0 -16 53 -56 122 -90 25 -13 29 -39 8 -68 -4 -5 -10 -18 -13 -27
-6 -16 2 -18 77 -18 l82 0 10 38 c8 34 12 37 49 40 22 2 44 7 50 12 5 4 33 11
60 15 28 4 55 11 60 15 6 5 30 13 55 19 57 15 61 17 205 87 118 57 177 92 183
107 2 4 9 7 16 7 15 0 50 38 59 63 4 9 11 17 16 17 5 0 15 25 22 55 7 30 16
55 21 55 4 0 8 6 8 14 0 8 16 16 40 20 22 3 40 11 40 16 0 6 8 10 18 10 16 0
38 10 92 41 32 19 130 114 130 126 0 6 7 16 15 23 7 6 17 32 21 56 3 24 10 47
15 50 5 3 9 49 9 103 l0 98 50 27 c27 15 63 38 79 52 16 13 33 24 38 24 4 0
23 16 40 35 18 19 36 35 42 35 5 0 25 19 45 43 20 23 45 51 54 62 10 11 27 38
38 60 10 22 22 42 25 45 3 3 8 12 11 20 3 9 9 -1 13 -22 4 -21 11 -38 15 -38
4 0 10 -22 14 -50 4 -27 10 -50 14 -50 5 0 14 -34 21 -75 8 -42 17 -78 22 -80
4 -3 10 -24 14 -48 4 -23 10 -46 14 -52 11 -15 31 -89 31 -114 0 -11 4 -21 9
-21 5 0 12 -25 16 -55 3 -30 10 -57 14 -60 5 -2 14 -33 21 -67 7 -35 16 -67
20 -73 4 -5 11 -26 15 -45 4 -19 11 -37 14 -40 4 -3 12 -20 17 -39 11 -39 31
-51 41 -24 4 10 19 32 35 48 38 42 78 92 78 99 0 8 30 37 56 54 84 56 165 55
247 -1 29 -20 57 -37 61 -37 7 0 67 -40 76 -51 18 -21 154 -36 219 -23 29 6
30 8 14 19 -10 7 -36 15 -57 19 -22 4 -49 14 -60 22 -11 8 -30 14 -42 14 -12
0 -24 7 -28 15 -3 8 -10 15 -16 15 -6 0 -26 11 -44 25 -18 14 -38 25 -44 25
-6 0 -12 4 -14 8 -1 5 -27 26 -56 47 -49 35 -59 38 -125 39 -57 1 -82 -4 -119
-22 -27 -13 -48 -28 -48 -33 0 -5 -6 -9 -13 -9 -16 0 -97 -82 -97 -98 0 -7 -4
-12 -10 -12 -5 0 -10 -7 -10 -16 0 -9 -6 -14 -12 -12 -21 7 -21 87 -1 127 34
66 113 155 163 182 19 11 42 23 50 28 41 22 61 31 72 31 6 0 57 -44 113 -97
56 -54 119 -109 141 -122 69 -43 144 -79 177 -86 18 -4 37 -11 43 -16 6 -5 44
-14 85 -20 41 -6 82 -15 91 -20 23 -12 55 -11 63 1 10 15 35 12 35 -5 0 -8 5
-15 10 -15 6 0 10 -13 10 -28 0 -16 7 -37 15 -48 8 -10 15 -25 15 -32 0 -14
48 -118 65 -141 5 -7 36 -42 68 -76 l58 -63 -78 -37 c-43 -20 -86 -41 -95 -46
-10 -5 -23 -9 -30 -9 -7 -1 -31 -9 -53 -20 -22 -11 -51 -20 -65 -20 -14 0 -37
-6 -52 -14 -15 -8 -42 -17 -60 -21 -18 -4 -37 -11 -43 -15 -5 -4 -53 -14 -105
-21 -52 -7 -99 -16 -104 -21 -6 -4 -33 -8 -60 -9 -28 -1 -62 -4 -76 -8 l-25
-7 24 -13 c30 -16 352 -10 373 6 7 6 38 14 68 18 30 4 60 11 65 15 6 4 30 13
55 19 47 12 75 23 123 47 16 8 34 14 40 14 7 0 39 13 71 30 33 16 61 28 62 27
5 -6 -22 -117 -28 -117 -4 0 -8 -16 -8 -35 l0 -35 55 0 55 0 0 38 c0 21 5 43
10 48 6 6 14 44 17 84 6 73 23 110 51 110 7 0 15 7 18 15 4 8 10 15 16 15 9 0
94 67 127 101 20 19 61 76 61 84 0 13 -41 3 -74 -20 -20 -14 -41 -25 -46 -25
-6 0 -10 -4 -10 -10 0 -5 -15 -17 -32 -25 -61 -29 -88 -46 -88 -56 0 -5 -6 -9
-14 -9 -7 0 -25 -9 -40 -21 -38 -30 -65 -21 -94 30 -22 39 -23 52 -20 150 3
99 5 111 41 184 21 42 42 77 46 77 5 0 15 14 22 32 14 34 27 50 73 85 23 19
41 23 95 23 39 0 76 -6 91 -15 14 -8 32 -17 40 -21 25 -11 90 -77 90 -91 0 -7
5 -13 10 -13 6 0 10 -9 10 -20 0 -11 -4 -20 -10 -20 -5 0 -10 -6 -10 -13 0 -8
-8 -21 -18 -30 -17 -15 -20 -15 -43 11 -51 56 -88 75 -160 80 -80 5 -119 -7
-167 -54 -26 -26 -34 -44 -39 -83 -5 -43 -3 -51 10 -51 9 0 23 15 31 33 7 18
28 46 47 61 31 26 38 28 93 23 55 -5 62 -9 112 -58 30 -29 54 -58 54 -64 0 -5
14 -23 30 -38 33 -34 57 -30 82 10 31 50 43 67 55 80 6 7 21 29 34 50 13 21
26 40 29 43 3 3 11 16 18 30 7 14 33 61 57 105 25 44 47 88 51 98 3 9 10 17
15 17 5 0 9 8 9 17 0 10 15 49 34 88 18 38 39 86 46 105 7 19 18 49 25 65 38
87 45 105 45 122 0 10 7 29 16 41 15 22 17 23 29 5 7 -10 16 -33 20 -52 6 -29
31 -81 72 -154 6 -11 19 -24 27 -29 9 -5 16 -13 16 -19 0 -13 70 -89 82 -89 5
0 22 -14 38 -30 16 -17 33 -30 38 -30 5 0 17 -9 27 -20 10 -11 24 -20 30 -20
7 0 15 -6 18 -14 3 -8 19 -17 36 -21 17 -4 31 -10 31 -15 0 -5 17 -14 38 -20
20 -6 66 -25 102 -42 106 -50 124 -57 153 -64 15 -3 27 -9 27 -13 0 -5 19 -14
43 -21 23 -8 51 -20 62 -27 11 -7 30 -13 42 -13 13 0 23 -4 23 -9 0 -5 17 -15
38 -21 20 -7 64 -25 97 -40 33 -16 75 -31 93 -35 17 -4 32 -10 32 -15 0 -4 19
-11 42 -15 23 -4 48 -14 56 -21 7 -8 23 -14 35 -14 13 0 33 -7 45 -16 l22 -15
0 63 c0 62 -1 64 -32 80 -18 9 -49 21 -68 28 -19 7 -48 18 -65 25 -62 27 -81
34 -118 45 -22 7 -51 18 -65 26 -15 8 -35 14 -44 14 -10 0 -18 4 -18 8 0 5
-18 15 -40 22 -22 7 -40 17 -40 21 0 4 -13 10 -30 14 -16 4 -30 10 -30 14 0 4
-17 13 -37 20 -104 35 -468 220 -500 253 -15 15 -31 28 -36 28 -11 0 -57 47
-57 59 0 4 -11 18 -25 31 -14 13 -25 29 -25 37 0 7 -3 13 -8 13 -4 0 -12 8
-17 19 -41 77 -65 130 -71 156 -4 17 -12 33 -18 37 -14 9 -10 312 4 316 13 5
13 179 0 187 -5 3 -10 26 -10 50 0 68 -22 245 -30 245 -4 0 -11 17 -15 38 -4
20 -11 42 -16 48 -5 6 -14 35 -19 64 -6 30 -14 56 -18 59 -4 4 -18 29 -32 56
-14 28 -37 66 -51 85 -14 19 -38 58 -54 85 -15 28 -31 52 -35 55 -3 3 -12 21
-20 40 -8 19 -20 41 -27 48 -7 7 -13 26 -13 42 0 16 -4 32 -10 35 -12 8 -14
365 -1 365 4 0 11 37 15 82 4 45 10 85 15 88 4 3 11 25 15 49 9 61 43 121 114
201 17 21 32 41 32 46 0 5 16 22 35 38 19 16 35 34 35 39 0 5 16 28 35 51 19
24 35 48 35 55 0 6 7 14 15 17 9 4 17 26 21 55 4 27 10 49 15 49 12 0 11 77
-1 85 -20 12 -9 48 22 79 32 30 32 31 33 127 0 79 3 101 18 117 10 11 20 36
24 56 11 71 45 66 61 -9 8 -43 28 -57 39 -28 3 10 12 21 19 26 7 4 16 22 19
40 4 17 13 35 19 39 15 10 15 226 0 236 -12 8 -39 100 -32 108 15 14 55 -30
80 -88 10 -24 29 -23 35 2 3 11 9 20 14 20 5 0 9 16 9 35 0 19 -4 35 -9 35 -4
0 -11 32 -14 71 -3 39 -10 76 -15 82 -5 7 -15 36 -22 65 -6 28 -16 52 -21 52
-5 0 -9 7 -9 15 0 7 -6 18 -13 22 -6 4 -19 21 -27 38 -8 16 -25 39 -37 51 -13
12 -23 26 -23 31 0 5 -16 24 -35 43 -19 19 -35 38 -35 42 0 14 84 9 114 -7 15
-8 32 -15 37 -15 25 0 -7 68 -52 110 -39 37 -145 89 -196 96 -21 3 -47 10 -58
14 -11 5 -31 11 -45 13 -25 4 -25 4 -2 12 12 4 22 11 22 15 0 5 15 12 33 15
17 4 37 11 42 15 6 4 29 11 53 15 52 8 56 31 7 41 -19 3 -38 10 -41 15 -7 12
-181 12 -188 0 -3 -4 -30 -11 -60 -15 -30 -3 -68 -13 -85 -21 -17 -8 -45 -22
-62 -30 -17 -8 -35 -15 -40 -15 -12 0 -12 37 0 44 13 8 24 127 16 170 -7 35
-15 40 -42 29z m7 -96 c0 -13 -4 -27 -8 -32 -5 -6 -14 -36 -21 -67 -7 -32 -16
-58 -21 -58 -5 0 -11 -13 -15 -30 -4 -16 -10 -30 -14 -30 -4 0 -13 -17 -20
-37 -8 -21 -18 -41 -23 -44 -6 -4 -6 -9 -1 -12 5 -3 21 5 36 19 14 13 29 24
33 24 4 0 21 10 38 23 28 21 52 33 158 81 20 9 45 16 55 16 10 0 23 4 29 9 5
5 36 12 69 16 56 7 59 6 40 -9 -11 -8 -25 -16 -30 -16 -21 0 -115 -107 -115
-130 0 -21 3 -22 44 -16 105 16 269 4 294 -20 7 -8 20 -14 28 -14 8 0 14 -7
14 -15 0 -11 -11 -15 -36 -15 -49 0 -104 -27 -104 -51 0 -11 6 -19 13 -19 8 0
22 -9 32 -20 10 -11 22 -20 26 -20 17 0 139 -139 139 -159 0 -6 4 -11 8 -11 5
0 15 -18 22 -40 7 -22 16 -40 21 -40 4 0 10 -12 14 -27 3 -15 10 -30 15 -33 9
-6 32 -131 26 -138 -2 -2 -10 9 -18 24 -7 16 -22 33 -33 39 -42 22 -65 50 -65
80 0 17 -4 35 -8 41 -4 5 -14 27 -21 49 -8 22 -24 50 -37 62 -13 12 -24 27
-24 33 0 5 -4 10 -9 10 -4 0 -20 10 -34 23 -57 50 -84 69 -114 83 -18 8 -33
18 -33 23 0 5 -13 12 -30 16 -16 4 -30 10 -30 14 0 4 -19 14 -42 21 -24 8 -52
20 -63 27 -11 7 -31 13 -45 13 -14 0 -32 6 -38 13 -9 8 -46 12 -109 12 -68 0
-98 -4 -100 -12 -3 -7 -10 -13 -17 -13 -7 0 -52 -42 -101 -92 -203 -213 -248
-258 -256 -258 -6 0 -39 42 -43 57 -1 0 -19 4 -41 8 l-40 7 40 -35 39 -35 -18
-33 c-29 -54 -128 -123 -214 -149 -20 -6 -46 -15 -57 -20 -46 -19 -54 -20 -48
-2 4 9 11 20 16 23 5 4 12 27 14 53 5 43 3 48 -31 81 -29 27 -46 35 -74 35
-35 -1 -36 -2 -18 -15 11 -8 27 -15 36 -15 9 0 21 -5 28 -12 15 -15 16 -58 2
-58 -5 0 -10 -7 -10 -15 0 -9 -11 -20 -25 -25 -14 -5 -25 -14 -25 -19 0 -5
-15 -13 -32 -16 -18 -4 -37 -11 -43 -15 -5 -4 -26 -11 -45 -15 -19 -3 -49 -13
-67 -21 -47 -21 -200 -29 -275 -14 -84 17 -92 25 -67 59 21 29 17 91 -6 91 -8
0 -16 6 -18 13 -3 6 -3 -5 0 -25 5 -31 2 -38 -11 -38 -9 0 -16 -4 -16 -10 0
-6 -32 -10 -75 -10 -43 0 -75 4 -75 10 0 6 -7 10 -16 10 -17 0 -60 18 -179 76
-38 19 -76 34 -83 34 -7 0 -30 9 -50 19 -78 40 -95 45 -160 44 -47 -1 -79 -7
-107 -22 -40 -22 -205 -178 -205 -195 0 -5 -14 -23 -30 -40 -44 -45 -80 -92
-80 -104 0 -5 -7 -12 -14 -15 -8 -3 -18 -22 -22 -41 -3 -20 -10 -36 -14 -36
-4 0 -11 -25 -15 -55 -7 -58 -17 -66 -47 -38 -19 17 -26 100 -10 118 5 6 15
26 23 45 7 19 24 45 36 56 13 12 23 25 23 29 0 4 25 35 55 68 30 34 55 67 55
73 0 6 10 24 22 40 18 22 23 41 23 93 0 36 -4 74 -9 84 -6 13 -4 17 13 17 12
0 24 -7 27 -15 4 -8 13 -15 20 -15 8 0 18 -8 21 -17 8 -19 40 -53 51 -53 9 0
42 37 42 47 0 13 54 63 67 63 7 0 13 4 13 9 0 5 33 12 73 16 39 4 77 11 82 15
6 4 32 10 59 14 27 3 62 12 77 20 16 8 42 17 58 21 34 7 111 70 111 91 0 8 5
14 11 14 7 0 10 21 7 60 l-3 59 28 -26 c15 -15 27 -35 27 -45 0 -10 5 -18 10
-18 6 0 10 -22 10 -50 0 -27 -4 -50 -10 -50 -5 0 -10 -16 -10 -35 0 -43 12
-44 60 -2 68 58 153 105 203 112 26 4 47 11 47 15 0 4 51 10 113 13 81 4 122
10 147 24 19 10 37 22 39 26 2 5 14 12 27 17 13 5 24 16 24 25 0 8 4 15 10 15
5 0 15 19 21 43 7 23 19 51 27 62 12 18 13 9 9 -74 -3 -52 -10 -97 -14 -100
-4 -3 -15 -19 -23 -36 -8 -16 -27 -41 -42 -55 -48 -42 -38 -53 42 -48 38 3 75
10 82 16 7 6 30 13 51 17 20 4 37 11 37 15 0 4 18 13 40 20 22 7 40 17 40 22
0 4 5 8 10 8 14 0 72 41 83 58 4 6 14 12 21 12 13 0 66 51 66 64 0 4 11 19 25
34 14 15 37 43 52 62 l25 35 -6 -75 c-4 -41 -10 -77 -14 -80 -5 -3 -14 -20
-21 -37 -8 -18 -17 -33 -22 -33 -5 0 -9 -6 -9 -13 0 -22 -73 -85 -107 -92 -18
-4 -33 -10 -33 -15 0 -4 -17 -11 -37 -15 -43 -8 -135 -54 -140 -71 -4 -13 104
2 122 17 6 4 34 11 63 15 28 3 52 10 52 14 0 5 19 11 43 15 57 9 252 104 270
133 4 6 13 12 18 12 15 0 196 188 237 244 18 25 35 59 38 76 8 35 24 40 24 7z
m80 -416 c0 -5 19 -12 42 -16 23 -4 48 -14 56 -21 7 -8 24 -14 37 -14 12 0 25
-6 28 -14 3 -8 19 -17 36 -21 17 -4 31 -10 31 -14 0 -4 15 -15 33 -24 83 -43
172 -133 187 -188 14 -50 5 -110 -21 -143 -10 -13 -19 -27 -19 -30 0 -3 -19
-24 -43 -48 -24 -24 -50 -58 -58 -75 -7 -18 -17 -33 -21 -33 -4 0 -10 -16 -14
-35 -3 -19 -10 -35 -15 -35 -5 0 -9 -25 -9 -55 0 -30 4 -55 9 -55 5 0 11 -22
15 -50 4 -27 10 -50 15 -50 5 0 14 -27 21 -60 7 -33 17 -63 21 -66 5 -3 9 -23
9 -45 0 -50 -35 -106 -72 -114 -34 -8 -113 3 -153 20 -16 7 -52 16 -80 20 -27
4 -54 10 -60 15 -5 4 -26 11 -45 15 -19 4 -39 11 -45 15 -5 4 -40 13 -77 21
-38 7 -68 16 -68 20 0 4 -30 11 -67 14 -38 4 -73 11 -79 16 -32 26 -567 26
-583 0 -4 -5 -34 -12 -68 -16 -35 -4 -63 -10 -63 -15 0 -4 -13 -10 -30 -13
-16 -4 -50 -16 -74 -27 -25 -11 -48 -20 -52 -20 -14 0 -99 -44 -129 -66 -17
-12 -41 -28 -55 -34 -14 -6 -43 -22 -65 -35 -22 -14 -51 -30 -65 -37 -14 -7
-27 -15 -30 -18 -18 -18 -275 -146 -312 -156 -16 -3 -28 -10 -28 -14 0 -4 -15
-11 -32 -14 -18 -3 -45 -12 -59 -20 -14 -7 -48 -17 -75 -21 -27 -4 -54 -11
-61 -17 -17 -14 -192 -16 -201 -2 -4 6 -18 15 -30 19 -50 15 -67 45 -66 115 0
53 6 75 31 122 60 108 57 191 -9 257 -23 22 -46 41 -50 41 -5 0 -14 4 -21 10
-65 52 -91 79 -107 113 -21 42 -26 106 -12 122 5 6 15 29 22 53 7 23 17 42 22
42 5 0 11 8 15 18 3 9 28 43 54 74 27 31 49 60 49 63 0 4 33 41 74 81 52 53
84 76 107 80 19 4 40 12 47 17 9 7 16 7 20 0 4 -5 26 -13 50 -17 24 -3 51 -10
60 -15 38 -21 109 -50 135 -56 15 -4 27 -11 27 -15 0 -4 13 -10 30 -13 16 -4
50 -16 74 -27 25 -11 51 -20 58 -20 7 0 21 -7 31 -15 11 -7 36 -17 58 -20 21
-4 39 -11 39 -16 0 -5 7 -9 16 -9 8 0 34 -9 57 -19 23 -11 68 -22 100 -26 31
-4 60 -11 63 -16 7 -12 239 -12 262 0 9 5 53 14 97 21 44 7 85 16 90 20 6 4
25 11 43 15 17 3 32 10 32 15 0 4 18 11 39 15 22 3 47 13 58 20 10 8 24 15 32
15 20 0 105 43 114 57 4 7 13 13 18 13 6 0 25 11 43 25 18 14 36 25 39 25 19
0 337 306 337 325 1 11 65 55 81 55 5 0 9 5 9 10 0 6 32 10 75 10 41 0 75 -4
75 -9z m520 -584 c6 -23 17 -48 23 -55 6 -7 12 -61 15 -120 l4 -107 -21 27
c-11 14 -21 31 -21 37 0 6 -10 16 -22 21 -13 6 -30 15 -39 22 -9 6 -23 9 -32
5 -12 -5 -14 -17 -10 -67 5 -49 2 -64 -12 -80 -21 -23 -35 -18 -35 15 0 13 -6
25 -12 27 -9 3 -13 29 -12 84 0 85 -1 82 72 164 17 21 32 42 32 48 0 14 30 31
45 25 7 -2 18 -23 25 -46z m-3078 -497 c7 -11 18 -20 25 -20 7 0 20 -11 29
-25 17 -26 15 -93 -4 -132 -42 -84 -46 -101 -48 -167 -2 -66 -4 -72 -30 -86
-54 -30 -103 -92 -105 -132 -1 -17 -3 -14 -11 12 -14 48 -3 124 24 168 12 20
26 39 30 40 4 2 8 9 8 15 0 7 9 23 20 37 21 26 28 110 10 110 -5 0 -10 -3 -10
-8 0 -4 -13 -22 -29 -40 -25 -27 -37 -32 -73 -32 -63 0 -97 42 -118 145 -11
54 -8 86 4 48 4 -10 24 -26 44 -35 40 -19 122 -25 122 -9 0 5 9 11 21 14 11 3
23 15 26 26 3 12 9 21 14 21 5 0 9 13 9 28 0 46 21 56 42 22z m2012 -38 c3 -5
45 -12 93 -16 48 -3 90 -11 93 -16 3 -5 29 -12 58 -16 59 -7 70 -28 20 -38
-41 -8 -173 -74 -187 -93 -3 -5 -17 -14 -31 -21 -14 -7 -39 -21 -57 -31 -17
-11 -51 -25 -75 -31 -24 -7 -54 -17 -67 -24 -32 -15 -374 -14 -392 1 -8 6 -39
14 -69 18 -30 4 -67 13 -82 20 -16 7 -58 17 -95 21 l-67 7 23 18 c13 11 29 19
37 19 8 0 14 4 14 9 0 5 14 12 30 16 17 4 30 10 30 14 0 4 17 13 38 20 33 11
75 29 122 51 9 4 43 13 75 20 33 6 68 16 77 21 10 5 56 12 103 15 47 4 88 11
91 16 3 4 52 8 109 8 57 0 106 -4 109 -8z m602 -143 c6 -5 52 -12 103 -16 56
-3 95 -11 102 -19 39 -47 -15 -200 -98 -278 -18 -17 -33 -35 -33 -39 0 -5 -25
-37 -55 -72 -30 -34 -55 -66 -55 -70 0 -4 -10 -17 -22 -29 -13 -12 -30 -35
-38 -51 -8 -17 -19 -33 -23 -36 -14 -10 -115 -216 -122 -248 -4 -17 -10 -31
-15 -31 -4 0 -11 -15 -14 -34 -4 -19 -11 -36 -16 -38 -5 -2 -15 -33 -22 -70
-7 -38 -16 -68 -20 -68 -4 0 -10 -22 -14 -50 -4 -27 -10 -50 -14 -50 -4 0 -13
-39 -20 -87 -6 -49 -17 -99 -23 -112 -13 -27 -17 -454 -4 -467 15 -16 20 10
29 158 5 84 13 162 18 173 5 11 11 44 15 73 3 30 10 61 15 70 4 10 14 51 20
92 7 41 16 80 20 85 4 6 11 29 15 52 4 24 10 45 15 48 5 3 11 23 15 44 3 22
12 47 19 57 11 14 14 -18 19 -186 4 -154 8 -205 19 -211 18 -11 20 -696 2
-707 -7 -4 -15 -50 -19 -104 -4 -54 -10 -98 -14 -98 -4 0 -13 -40 -20 -90 -8
-49 -17 -90 -21 -90 -4 0 -10 -23 -14 -50 -4 -28 -10 -50 -15 -50 -4 0 -14
-25 -21 -55 -7 -30 -16 -55 -20 -55 -4 0 -11 -16 -14 -35 -4 -19 -11 -35 -15
-35 -5 0 -14 -21 -21 -47 -6 -26 -15 -50 -18 -53 -11 -8 -62 -114 -62 -128 0
-6 -4 -12 -8 -12 -4 0 -13 -12 -19 -27 -17 -39 -46 -86 -77 -127 -14 -19 -26
-40 -26 -46 0 -6 -7 -13 -15 -16 -8 -4 -15 -10 -15 -16 0 -11 -51 -81 -62 -86
-5 -2 -8 -8 -8 -14 0 -5 -11 -24 -25 -42 -14 -18 -25 -38 -25 -44 0 -6 -3 -12
-7 -14 -14 -6 -63 -84 -63 -99 0 -8 -5 -20 -11 -26 -6 -6 -14 -43 -17 -82 -3
-45 -9 -71 -16 -71 -15 0 -45 66 -53 115 -3 19 -10 38 -14 41 -5 3 -9 23 -9
45 l0 39 -67 0 c-75 0 -191 17 -208 29 -5 5 -23 11 -40 15 -41 10 -195 86
-195 97 0 5 -5 9 -11 9 -10 0 -29 14 -121 96 -16 13 -28 27 -28 32 0 5 -11 19
-25 32 -14 13 -25 29 -25 36 0 7 -3 14 -7 16 -12 5 -63 115 -63 135 0 11 -4
23 -10 29 -5 5 -13 39 -16 74 -4 36 -12 68 -17 72 -6 4 -13 142 -18 354 -5
191 -13 350 -17 353 -5 3 -13 50 -17 104 -4 53 -10 97 -14 97 -4 0 -12 44 -19
97 -7 53 -17 101 -22 107 -5 7 -12 35 -16 64 -3 28 -10 52 -13 52 -8 0 -33
141 -27 148 3 2 8 -7 12 -22 3 -14 10 -26 14 -26 5 0 11 -13 15 -30 4 -16 10
-30 14 -30 4 0 14 -18 21 -40 7 -22 17 -40 21 -40 4 0 10 -13 14 -30 4 -17 10
-30 14 -30 4 0 14 -19 22 -42 7 -24 23 -61 34 -83 12 -22 27 -61 34 -87 8 -27
18 -48 22 -48 12 0 12 57 0 64 -5 3 -14 42 -21 86 -7 44 -16 83 -20 85 -5 3
-11 23 -15 45 -4 22 -11 40 -15 40 -5 0 -12 15 -15 33 -4 17 -13 43 -20 57
-26 52 -55 117 -55 125 0 9 -42 97 -50 105 -3 3 -12 19 -20 35 -8 17 -17 32
-20 35 -3 3 -11 16 -18 30 -32 62 -44 80 -53 80 -5 0 -9 5 -9 11 0 11 -32 55
-65 90 -8 9 -15 19 -15 24 0 4 -16 27 -35 51 -19 23 -35 47 -35 52 0 6 -3 12
-7 14 -5 2 -21 23 -38 48 -16 25 -36 49 -42 53 -7 4 -13 13 -13 19 0 6 -15 29
-33 52 -18 23 -38 52 -45 66 -13 27 -34 62 -42 70 -12 12 -30 51 -30 64 0 8
-4 16 -9 18 -4 2 -11 24 -15 49 l-7 46 130 5 c72 3 136 9 143 15 7 6 33 14 58
17 48 8 65 14 180 70 41 19 87 38 103 42 15 3 27 10 27 14 0 5 15 12 32 16 18
3 43 13 55 22 47 30 390 24 428 -8 6 -5 39 -12 75 -16 36 -3 71 -11 78 -17 18
-14 345 -15 363 -1 8 6 28 14 44 18 26 6 79 30 156 71 11 5 19 13 19 17 0 5 5
8 12 8 6 0 25 10 42 23 40 30 153 84 191 92 17 4 39 11 50 16 39 17 239 16
261 -2z m-3564 -8 c36 -18 121 -97 146 -136 7 -11 19 -35 27 -52 9 -18 19 -33
24 -33 5 0 13 -15 17 -32 3 -18 12 -42 20 -53 7 -11 16 -38 20 -60 3 -22 10
-44 14 -50 4 -5 11 -44 15 -85 4 -41 11 -80 16 -85 4 -6 9 -89 11 -185 3 -152
1 -180 -15 -212 -10 -21 -22 -38 -27 -38 -6 0 -10 -6 -10 -13 0 -19 -98 -110
-152 -141 -58 -33 -67 -65 -10 -37 9 4 39 19 67 32 57 27 99 55 129 84 l21 20
6 -30 c18 -81 -1 -361 -24 -377 -7 -4 -11 -72 -11 -181 l-1 -174 -22 33 c-13
18 -23 36 -23 39 0 21 -83 105 -124 124 -41 21 -144 29 -160 14 -9 -10 -78
-33 -98 -33 -19 0 -25 25 -8 35 5 3 12 33 16 66 4 32 11 62 15 65 12 7 12 124
0 124 -5 0 -11 23 -15 50 -4 28 -10 50 -15 50 -5 0 -14 28 -21 63 -7 34 -16
67 -20 72 -5 6 -10 19 -14 30 -3 11 -4 -19 -2 -68 2 -54 9 -94 17 -104 18 -21
20 -260 2 -271 -6 -4 -15 -36 -19 -72 -6 -63 -17 -90 -35 -90 -5 0 -9 9 -9 19
0 11 -4 23 -10 26 -12 7 -14 45 -2 45 15 0 35 205 28 296 -3 49 -9 157 -12
239 -4 83 -10 155 -14 160 -4 6 -10 26 -14 46 -3 20 -15 54 -26 77 -11 23 -20
46 -20 52 0 5 -5 10 -10 10 -6 0 -14 10 -19 23 -5 12 -32 47 -60 79 -28 31
-51 59 -51 63 0 4 -14 20 -30 37 -17 16 -33 40 -36 54 -3 13 -10 24 -15 24 -5
0 -12 18 -15 40 -4 22 -11 43 -15 46 -13 7 -11 94 1 94 6 0 13 -8 16 -17 10
-33 42 -88 77 -134 15 -20 27 -40 27 -45 0 -4 7 -14 15 -23 31 -34 65 -79 65
-89 0 -5 7 -12 15 -16 18 -7 19 -2 1 37 -7 18 -20 48 -27 67 -7 19 -15 37 -18
40 -4 3 -17 28 -30 55 -13 28 -31 58 -40 69 -12 13 -16 39 -16 101 0 74 3 86
24 109 14 14 30 26 38 26 7 0 13 4 13 9 0 5 14 12 30 16 17 4 30 10 30 14 0 4
19 14 43 21 23 8 51 20 62 27 11 7 32 13 47 13 15 0 30 5 33 10 11 18 128 12
167 -9z m1012 -1320 c3 -4 19 -11 36 -15 42 -8 132 -72 155 -110 58 -94 69
-147 41 -201 -15 -28 -48 -63 -77 -80 -51 -30 -119 -79 -119 -87 0 -4 -6 -8
-14 -8 -7 0 -32 -21 -55 -47 -67 -76 -74 -85 -103 -143 -7 -14 -16 -27 -20
-30 -18 -13 -108 -208 -119 -256 -12 -53 -29 -73 -29 -34 0 11 4 20 9 20 5 0
11 22 15 48 3 26 12 57 20 67 7 11 17 35 21 53 3 17 10 32 14 32 4 0 14 18 21
40 7 22 17 40 21 40 4 0 10 13 14 29 3 16 13 32 21 35 8 3 14 11 14 18 0 15
140 158 154 158 13 0 128 118 142 146 7 14 15 42 18 62 3 20 3 29 0 20 -3 -10
-10 -18 -15 -18 -5 0 -9 -6 -9 -14 0 -13 -57 -69 -111 -109 -108 -79 -219
-190 -219 -216 0 -6 -4 -11 -9 -11 -5 0 -15 -16 -22 -35 -7 -19 -17 -35 -21
-35 -4 0 -8 -6 -8 -14 0 -7 -7 -19 -15 -26 -9 -7 -20 -32 -26 -56 -6 -24 -15
-44 -19 -44 -5 0 -11 -18 -15 -40 -4 -22 -10 -42 -15 -45 -5 -3 -11 -23 -15
-45 -8 -46 -25 -51 -65 -20 -14 11 -29 20 -33 20 -22 0 -147 126 -147 148 0 5
-7 15 -15 22 -17 14 -21 100 -6 128 6 9 13 38 16 65 3 26 10 47 14 47 4 0 14
25 21 55 7 30 17 55 21 55 4 0 10 14 14 30 4 17 10 30 14 30 3 0 12 12 19 28
23 51 43 82 53 82 5 0 9 5 9 11 0 33 166 199 199 199 5 0 11 7 14 14 3 8 22
18 42 22 19 3 38 10 41 15 7 12 121 12 128 0z m2566 -292 c0 -10 5 -21 10 -24
17 -10 11 -25 -9 -25 -11 0 -23 -4 -26 -10 -16 -26 -25 -3 -25 67 l0 77 25
-34 c14 -19 25 -42 25 -51z m-1990 -28 c0 -11 4 -22 9 -25 5 -3 12 -34 16 -68
4 -34 12 -70 18 -80 16 -25 6 -29 -38 -17 -52 15 -102 7 -167 -26 -85 -43
-100 -52 -151 -96 -53 -45 -77 -46 -34 -1 15 16 27 31 27 34 0 9 261 268 270
268 4 0 13 7 20 15 17 21 30 19 30 -4z m-1510 -47 c50 -14 139 -133 140 -186
0 -10 4 -18 8 -18 5 0 15 -18 22 -40 7 -22 17 -40 22 -40 4 0 8 -7 8 -16 0 -9
21 -60 47 -113 40 -83 59 -109 144 -193 54 -54 104 -98 113 -98 8 0 19 -6 23
-12 4 -7 31 -24 58 -38 63 -33 79 -62 70 -135 -4 -30 -11 -55 -16 -55 -5 0 -9
-7 -9 -15 0 -9 -34 -50 -75 -91 -72 -72 -74 -75 -43 -69 18 4 35 11 36 16 2 5
9 9 16 9 17 0 106 90 106 107 0 7 4 13 9 13 5 0 12 6 14 13 2 6 3 -1 1 -18 -3
-16 -8 -31 -12 -35 -4 -3 -14 -18 -22 -35 -30 -61 -108 -115 -164 -115 -14 0
-28 -4 -31 -10 -9 -15 -37 -12 -76 7 -36 17 -149 124 -149 141 0 17 -224 239
-259 256 -30 14 -25 6 40 -62 96 -102 119 -128 119 -137 0 -4 16 -26 35 -49
19 -24 35 -48 35 -54 0 -6 6 -13 13 -16 6 -3 1 -3 -13 0 -14 3 -43 18 -64 32
-21 15 -46 32 -56 37 -24 14 -100 90 -100 100 0 4 -16 25 -35 46 -19 22 -35
46 -35 54 0 8 -4 15 -9 15 -5 0 -15 16 -22 35 -7 19 -16 35 -20 35 -4 0 -11
15 -14 33 -4 17 -12 35 -17 38 -5 3 -14 34 -20 70 -7 35 -15 66 -18 69 -4 3
-10 18 -14 35 -4 16 -11 32 -14 35 -4 3 -12 14 -18 25 -15 29 -110 76 -167 82
-26 3 -50 10 -53 14 -3 5 -21 9 -40 9 -41 0 -43 12 -9 56 14 18 25 37 25 42 0
6 6 12 14 15 8 3 20 18 28 34 7 15 24 33 37 39 13 7 26 16 30 21 8 10 95 53
109 53 6 0 23 7 39 15 55 29 106 49 142 56 37 7 47 6 91 -7z m3566 -106 c4
-21 10 -38 15 -38 5 0 9 -6 9 -12 0 -9 -21 -13 -70 -14 l-70 0 0 46 c0 100
101 116 116 18z m-2059 -93 c42 -21 63 -47 69 -86 l6 -34 -55 0 c-29 0 -65 -5
-78 -11 -184 -87 -207 -101 -266 -160 -35 -34 -63 -70 -63 -79 0 -27 -24 -11
-31 21 -14 63 -10 93 19 126 16 18 32 41 35 51 4 9 15 20 24 24 10 3 40 25 67
47 47 39 82 61 136 87 14 6 32 15 40 19 24 14 64 11 97 -5z m2077 -79 c39 -38
44 -49 47 -95 l4 -52 -40 7 c-22 3 -44 10 -49 15 -13 12 -59 12 -71 0 -6 -5
-25 -12 -42 -16 -29 -6 -33 -4 -33 14 0 12 4 21 9 21 5 0 11 22 13 48 6 63 39
102 85 102 26 0 43 -10 77 -44z m-2001 -124 c10 -9 17 -29 17 -54 l0 -38 -63
0 c-55 0 -74 -6 -168 -53 -59 -30 -113 -59 -120 -66 -8 -6 -26 -20 -41 -32
-16 -11 -28 -26 -28 -32 0 -7 -10 -18 -21 -25 -21 -14 -21 -13 -14 35 10 69
31 108 84 154 47 42 165 104 236 125 46 14 92 9 118 -14z m-1925 -12 c24 -11
48 -32 54 -45 6 -14 14 -25 18 -25 4 0 13 -28 20 -62 6 -35 15 -67 20 -73 4
-5 11 -26 15 -45 4 -19 10 -39 14 -45 4 -5 13 -29 21 -52 7 -24 17 -43 21 -43
4 0 15 -15 24 -34 9 -19 25 -42 36 -52 10 -9 19 -22 19 -27 0 -12 145 -157
174 -174 21 -12 157 -79 206 -101 67 -31 138 -102 101 -102 -5 0 -10 -24 -13
-53 -4 -44 -39 -139 -58 -157 -3 -3 -16 -20 -29 -37 -12 -18 -28 -33 -36 -33
-7 0 -15 -7 -19 -15 -3 -9 0 -15 9 -15 8 0 15 5 15 10 0 6 7 10 15 10 20 0
105 85 105 104 0 7 7 17 16 20 12 5 14 1 8 -17 -4 -12 -10 -24 -13 -27 -4 -3
-13 -20 -20 -37 -8 -18 -17 -33 -22 -33 -5 0 -9 -6 -9 -14 0 -24 -106 -124
-141 -131 -27 -6 -35 -3 -55 21 -13 16 -23 35 -24 42 0 6 -5 12 -11 12 -6 0
-33 18 -59 40 -26 22 -51 40 -55 40 -4 0 -21 14 -37 30 -15 17 -32 30 -36 30
-15 0 -262 258 -262 273 0 8 -7 20 -15 27 -8 7 -15 21 -15 30 0 10 -5 20 -11
22 -6 2 -16 51 -22 110 -7 58 -15 110 -19 114 -5 4 -8 23 -8 43 -1 40 -48 130
-76 146 -11 5 -22 13 -25 18 -12 17 -86 47 -141 58 -32 7 -85 9 -118 6 -53 -4
-60 -3 -60 13 0 10 7 23 15 30 8 6 17 22 21 33 4 12 17 32 30 44 13 12 24 26
24 31 0 8 67 72 106 102 22 16 50 19 154 15 82 -2 114 -8 148 -25z m3900 -67
c15 -10 39 -31 54 -48 24 -26 28 -38 28 -97 0 -62 -9 -84 -24 -59 -4 5 -27 20
-54 33 -49 24 -121 30 -174 15 -25 -7 -28 -5 -28 18 0 14 4 25 9 25 5 0 12 12
16 27 8 33 61 83 87 83 10 0 18 5 18 10 0 16 38 12 68 -7z m-1974 -79 c12 -5
16 -21 16 -69 l0 -62 -62 -5 c-59 -5 -77 -11 -153 -51 -16 -9 -45 -23 -63 -33
-17 -9 -54 -41 -82 -71 -49 -53 -49 -54 -56 -28 -8 32 3 107 21 141 14 28 48
63 80 81 45 26 181 92 200 96 31 7 82 8 99 1z m1916 -123 c0 -5 11 -12 25 -15
39 -10 105 -83 105 -116 0 -16 -4 -32 -10 -35 -5 -3 -10 -23 -10 -43 0 -59
-11 -66 -54 -37 -20 14 -41 25 -47 25 -5 0 -21 7 -35 16 -19 13 -42 16 -107
12 -45 -3 -76 -3 -70 -1 7 3 16 27 19 55 5 39 16 61 42 90 19 21 41 38 48 38
8 0 14 5 14 10 0 6 18 10 40 10 22 0 40 -4 40 -9z m-4157 -28 c6 -5 31 -15 55
-23 23 -7 42 -17 42 -22 0 -4 6 -8 14 -8 8 0 17 -9 21 -19 3 -11 12 -22 20
-25 8 -3 15 -14 15 -24 0 -10 4 -22 9 -28 4 -5 14 -67 20 -139 7 -71 16 -134
21 -140 4 -5 11 -27 15 -47 4 -21 10 -38 14 -38 4 0 13 -16 21 -35 7 -19 19
-36 27 -39 7 -3 13 -13 13 -21 0 -18 313 -335 331 -335 32 0 78 -85 85 -160 5
-46 2 -63 -20 -106 -14 -28 -33 -57 -41 -64 -8 -7 -15 -16 -15 -21 0 -21 -100
-99 -128 -99 -10 0 -23 -5 -30 -12 -9 -9 -17 -9 -34 0 -13 6 -39 14 -58 18
-25 5 -53 25 -97 70 -35 35 -63 71 -63 79 0 8 -6 18 -13 22 -7 4 -19 24 -27
43 -7 19 -19 42 -27 51 -7 9 -22 33 -33 55 l-21 39 7 -45 c9 -66 58 -178 107
-241 15 -20 27 -41 27 -46 0 -11 46 -53 58 -53 4 0 21 -12 37 -25 l30 -26 -35
7 c-19 3 -37 9 -40 13 -3 3 -18 13 -34 21 -38 20 -129 126 -145 170 -12 33
-34 85 -51 120 -4 9 -13 42 -20 73 -7 31 -16 57 -20 57 -4 0 -10 14 -14 32 -9
45 -51 130 -75 152 -12 11 -21 24 -21 31 0 14 -37 47 -103 93 -34 23 -64 35
-100 39 -49 5 -51 4 -32 -10 11 -9 25 -17 31 -17 19 0 124 -101 124 -120 0
-32 -45 -34 -98 -4 -26 15 -56 34 -66 43 -18 15 -19 15 -13 -16 12 -63 88
-111 182 -115 l60 -3 9 -37 c5 -21 13 -38 17 -38 5 0 11 -23 15 -50 4 -28 10
-50 14 -50 5 0 14 -31 20 -70 6 -38 15 -70 20 -70 4 0 11 -16 14 -35 4 -19 10
-35 15 -35 4 0 14 -18 21 -39 23 -70 123 -155 262 -223 10 -4 49 -8 86 -8 72
0 125 20 199 76 42 32 143 133 143 143 0 5 7 14 16 22 9 7 25 33 35 58 34 77
43 94 59 101 8 4 37 18 64 30 28 13 73 47 100 75 67 68 73 76 115 154 34 65
35 68 34 183 l0 116 36 5 c20 3 46 8 59 12 l22 7 0 -191 c0 -216 -3 -226 -80
-303 -42 -42 -120 -88 -150 -88 -10 0 -11 3 -3 8 6 4 15 21 19 37 4 17 12 33
18 37 20 14 -14 9 -42 -6 -47 -24 -69 -55 -137 -191 -41 -82 -53 -100 -81
-129 -29 -29 -81 -66 -94 -66 -5 0 -10 -4 -10 -9 0 -10 -154 -88 -192 -97 -16
-3 -28 -10 -28 -14 0 -4 -17 -11 -37 -15 -21 -4 -42 -10 -48 -15 -5 -4 -37
-13 -70 -20 -33 -7 -71 -17 -83 -23 -13 -6 -56 -11 -95 -11 -88 2 -132 22
-204 94 -50 51 -63 66 -63 74 0 4 -10 22 -23 39 -13 18 -30 52 -37 77 -8 25
-17 50 -20 55 -4 6 -10 24 -14 40 -13 57 -49 120 -95 168 -25 26 -51 47 -57
47 -7 0 -14 6 -17 14 -3 8 -21 17 -39 21 -40 9 -90 42 -119 78 -20 26 -21 37
-20 235 1 124 5 208 11 210 6 2 10 14 10 28 0 34 23 114 32 114 4 0 8 5 8 11
0 6 11 25 25 43 14 18 25 36 25 40 0 9 65 76 74 76 4 0 22 11 40 25 18 14 36
25 40 25 12 0 71 63 79 83 7 19 -5 22 -35 6 -11 -6 -22 -8 -25 -5 -9 8 27 46
43 46 7 0 17 6 21 14 4 8 17 16 28 19 29 8 143 1 158 -10z m2253 -57 c1 0 4
-31 6 -67 l5 -66 -51 -6 c-29 -3 -73 -18 -101 -33 -70 -40 -151 -126 -166
-180 -16 -51 -27 -56 -36 -14 -3 17 -10 33 -14 36 -13 7 -11 154 1 154 6 0 10
6 10 13 0 15 58 73 92 93 106 60 190 87 233 77 11 -3 21 -6 21 -7z m1886 -195
c40 -28 80 -88 80 -118 0 -13 -6 -37 -15 -55 -8 -18 -17 -40 -19 -48 -4 -11
-9 -10 -23 8 -11 12 -25 22 -33 22 -7 0 -15 7 -18 15 -4 8 -11 15 -18 15 -6 0
-28 9 -49 20 -26 14 -56 20 -102 20 -51 0 -65 3 -65 15 0 8 4 15 9 15 5 0 12
15 15 33 6 34 36 67 71 79 41 14 132 3 167 -21z m-1898 -11 c23 -8 26 -15 26
-60 0 -27 5 -50 10 -50 6 0 10 -9 10 -20 0 -17 -7 -20 -45 -20 -25 0 -45 -4
-45 -8 0 -4 -12 -13 -27 -20 -16 -7 -38 -18 -50 -25 -25 -15 -103 -92 -103
-101 0 -11 -43 -66 -52 -66 -11 0 -10 67 1 74 4 3 11 29 13 58 3 29 11 54 17
56 6 2 11 9 11 16 0 27 33 78 56 86 14 6 27 17 30 25 4 8 12 15 19 15 7 0 18
7 25 15 7 8 27 19 44 24 17 5 32 10 33 10 1 1 13 -3 27 -9z m1766 -168 c79
-42 99 -58 111 -89 7 -18 16 -33 21 -33 13 0 9 -24 -12 -65 -11 -22 -20 -47
-20 -57 0 -25 -23 -22 -50 7 -13 14 -29 25 -37 25 -7 0 -13 3 -13 8 0 4 -17
16 -37 27 -27 15 -56 20 -115 20 -43 0 -78 2 -78 5 0 3 7 14 15 24 8 11 15 27
15 35 0 21 70 91 91 91 10 0 21 5 24 10 10 16 47 12 85 -8z m-1712 -57 c1 -1
5 -25 9 -54 6 -50 5 -51 -20 -51 -26 0 -87 -29 -87 -42 0 -5 -7 -8 -15 -8 -16
0 -155 -136 -155 -152 0 -5 -4 -6 -10 -3 -14 8 -13 69 2 119 14 48 150 191
189 199 21 4 79 -1 87 -8z m1654 -160 c70 -39 103 -79 102 -125 -1 -42 -26
-90 -47 -90 -7 0 -25 16 -41 35 -16 19 -35 35 -42 35 -7 0 -17 7 -22 16 -5 8
-27 18 -50 21 -23 3 -42 9 -42 14 0 4 -26 9 -57 11 l-58 3 52 52 c70 70 118
77 205 28z m-1581 -62 l27 -53 -29 0 c-16 0 -29 -4 -29 -8 0 -4 -12 -13 -27
-20 -57 -25 -77 -40 -133 -96 -47 -46 -75 -81 -85 -103 -7 -16 -14 -20 -24
-14 -9 6 -14 32 -15 86 -1 63 2 78 17 86 9 6 17 15 17 22 0 13 100 117 113
117 5 0 21 9 35 20 19 15 37 20 66 18 38 -3 43 -6 67 -55z m1462 -87 c18 -7
56 -37 84 -65 57 -56 76 -97 50 -107 -9 -3 -19 -19 -22 -36 l-7 -30 -47 44
c-69 67 -130 92 -223 93 -61 0 -74 2 -66 12 6 7 18 28 28 46 9 17 28 38 41 44
32 17 122 16 162 -1z"/>
<path d="M8858 5232 c-44 -21 -88 -60 -88 -78 0 -7 -6 -14 -12 -16 -21 -7 -17
-161 5 -185 9 -11 17 -24 17 -30 0 -15 84 -63 109 -63 12 0 21 -4 21 -10 0
-12 57 -13 64 -1 3 5 21 12 40 15 19 4 37 13 40 21 3 8 12 15 21 15 8 0 15 7
15 15 0 7 7 18 15 22 23 14 38 109 24 166 -6 26 -15 47 -20 47 -5 0 -9 6 -9
14 0 8 -12 24 -27 35 -16 12 -34 26 -41 32 -25 21 -133 22 -174 1z m70 -78
c32 -15 37 -28 26 -58 -4 -11 -19 -16 -43 -16 -58 0 -79 35 -43 71 21 22 22
22 60 3z m-32 -138 c21 -22 17 -45 -10 -52 -45 -11 -64 25 -28 52 21 17 21 17
38 0z m43 -80 c65 -1 81 3 109 23 18 13 36 20 39 17 4 -3 1 -6 -5 -6 -7 0 -12
-6 -12 -13 0 -40 -85 -72 -161 -62 -47 7 -99 39 -99 62 0 6 -5 13 -12 15 -6 2
-8 9 -4 16 5 8 17 2 38 -20 29 -29 35 -31 107 -32z"/>
<path d="M6576 4870 c-25 -24 -46 -51 -46 -61 0 -11 -4 -19 -10 -19 -6 0 -10
-28 -10 -65 0 -36 3 -65 8 -65 4 0 13 -14 21 -31 28 -63 134 -102 217 -80 24
6 56 27 83 54 39 41 43 50 48 107 5 53 3 69 -17 105 -36 66 -79 89 -171 94
l-77 3 -46 -42z m152 -50 c11 -17 10 -23 -4 -37 -32 -32 -104 -11 -104 30 0
33 88 38 108 7z m-48 -146 c0 -18 -29 -32 -51 -27 -24 7 -25 42 -1 59 14 10
20 10 35 -3 9 -9 17 -22 17 -29z m-92 -20 c18 -8 32 -20 32 -25 0 -16 153 -11
178 7 34 24 40 7 9 -24 -25 -25 -34 -27 -106 -27 -78 0 -80 1 -115 37 -50 51
-49 58 2 32z"/>
<path d="M8366 3905 c-13 -14 -26 -25 -30 -25 -4 0 -24 -14 -45 -31 -51 -40
-242 -137 -289 -145 -20 -4 -42 -11 -49 -16 -6 -5 -43 -12 -81 -15 -78 -6 -84
-17 -25 -48 29 -16 54 -20 115 -18 44 1 85 6 91 11 7 5 30 13 51 17 84 15 204
98 264 183 21 28 41 112 28 112 -4 0 -17 -11 -30 -25z"/>
<path d="M7568 2653 c6 -2 12 -11 12 -18 0 -7 11 -23 25 -36 13 -13 25 -28 25
-32 0 -5 16 -28 35 -51 19 -24 35 -48 35 -54 0 -6 3 -12 8 -14 4 -1 20 -23 37
-48 16 -25 32 -47 35 -50 6 -6 29 -46 48 -82 7 -16 17 -28 22 -28 4 0 11 -11
14 -24 3 -14 12 -31 19 -38 13 -14 57 -101 57 -113 0 -8 29 -73 55 -125 7 -14
16 -41 20 -60 4 -19 11 -39 15 -45 4 -5 11 -26 15 -45 4 -19 11 -37 16 -40 4
-3 14 -36 21 -73 7 -37 16 -67 20 -67 4 0 10 -22 14 -50 4 -27 10 -50 14 -50
4 0 13 -40 21 -90 7 -49 17 -90 21 -90 4 0 8 -19 8 -42 0 -39 1 -40 15 -22 17
22 22 219 6 229 -5 3 -13 31 -17 63 -3 31 -10 62 -14 67 -5 6 -14 39 -20 75
-7 36 -16 70 -20 75 -4 6 -11 28 -14 49 -4 21 -13 48 -21 60 -7 12 -16 36 -20
55 -4 19 -17 53 -29 75 -12 23 -28 60 -35 84 -8 23 -18 42 -22 42 -4 0 -10 14
-14 30 -4 17 -10 30 -15 30 -4 0 -10 8 -14 18 -7 22 -43 84 -53 91 -4 3 -15
19 -23 36 -8 16 -25 39 -37 51 -13 12 -23 26 -23 31 0 5 -38 50 -85 100 -79
84 -139 134 -161 132 -5 0 -3 -3 4 -6z"/>
<path d="M1114 5975 c-146 -73 -317 -289 -408 -515 -44 -110 -60 -207 -53
-323 6 -117 32 -169 107 -215 75 -46 128 -42 248 19 180 91 235 142 216 197
-14 39 -43 38 -103 -3 -66 -46 -204 -105 -249 -108 -55 -3 -76 34 -80 143 -7
162 50 320 174 486 85 114 119 150 173 185 48 31 77 37 84 17 8 -25 -24 -131
-57 -187 -25 -42 -31 -62 -24 -74 13 -24 66 -49 88 -42 27 9 78 85 101 150 48
136 27 228 -61 273 -57 28 -94 28 -156 -3z"/>
<path d="M3837 5918 c-47 -60 -230 -370 -260 -443 -34 -83 -129 -298 -161
-365 -14 -30 -26 -61 -26 -69 0 -17 67 -81 85 -81 8 0 22 11 30 24 20 30 109
237 140 327 26 73 142 307 175 354 l22 30 -6 -35 c-48 -265 -54 -332 -35 -391
22 -66 68 -90 120 -64 41 22 121 116 158 186 41 79 194 339 198 336 1 -2 -7
-38 -18 -82 -41 -159 -61 -292 -66 -441 -6 -173 1 -211 51 -249 42 -32 61 -31
91 3 35 39 40 60 19 84 -14 14 -20 40 -23 96 -4 88 13 303 34 407 7 39 18 99
23 135 6 36 16 91 23 122 12 54 12 60 -7 85 -26 34 -92 43 -130 18 -26 -17
-191 -262 -249 -370 -55 -102 -96 -158 -106 -148 -6 6 0 80 16 190 15 108 25
212 23 259 -3 77 -4 79 -37 101 -19 13 -37 23 -42 23 -4 0 -23 -19 -42 -42z"/>
<path d="M2855 5931 c-71 -43 -140 -134 -208 -271 -145 -293 -208 -600 -150
-731 27 -60 45 -74 75 -58 13 7 26 17 30 22 3 6 4 58 1 116 -5 110 15 239 51
324 l15 37 68 0 c117 1 169 20 156 59 -17 46 -35 54 -110 47 -87 -7 -87 -8
-41 102 35 85 49 108 122 200 76 95 97 84 66 -37 -11 -44 -20 -84 -20 -90 0
-22 52 -11 79 17 31 30 71 127 71 170 0 84 -127 141 -205 93z"/>
<path d="M3182 5551 c-45 -21 -120 -71 -160 -106 -38 -32 -64 -93 -64 -149 0
-47 3 -53 42 -88 23 -21 60 -43 81 -50 56 -16 66 -33 35 -53 -24 -16 -77 -17
-151 -4 -17 3 -21 -2 -23 -32 -3 -30 2 -41 28 -63 28 -23 40 -26 104 -26 81 0
146 26 178 70 17 24 17 29 3 77 -20 67 -38 88 -110 126 -33 18 -61 39 -63 48
-8 45 96 137 166 146 42 6 42 5 42 -26 0 -18 9 -40 21 -52 20 -20 21 -20 41
-2 56 50 61 109 16 159 -28 30 -41 36 -88 40 -42 4 -65 0 -98 -15z"/>
<path d="M1456 5538 c-44 -67 -136 -373 -136 -451 0 -26 47 -77 71 -77 27 0
49 34 69 106 17 62 25 75 82 129 69 65 139 107 233 139 68 24 80 46 45 84 -47
50 -160 14 -268 -84 -34 -30 -62 -54 -62 -51 0 2 16 38 35 80 38 82 45 131 19
141 -34 13 -74 6 -88 -16z"/>
<path d="M2115 5544 c-42 -21 -119 -98 -170 -169 -44 -61 -135 -238 -135 -262
0 -39 60 -99 108 -109 46 -9 139 39 223 115 l67 61 13 -32 c29 -71 90 -118
153 -118 69 0 91 83 27 105 -65 22 -90 126 -54 230 l16 49 -59 54 c-102 94
-132 106 -189 76z m90 -138 c15 -23 15 -27 -8 -64 -44 -68 -217 -216 -234
-199 -8 8 24 74 77 156 80 125 132 158 165 107z"/>
<path d="M4704 5534 c-58 -38 -101 -82 -150 -150 -54 -75 -69 -110 -89 -207
-15 -73 -10 -127 13 -127 4 0 17 -8 28 -18 53 -50 115 -32 210 60 40 38 74 66
77 61 2 -4 7 -20 10 -34 20 -84 97 -106 161 -45 57 54 40 117 -28 100 -33 -8
-40 19 -27 93 20 107 15 144 -29 210 -58 88 -107 103 -176 57z m87 -128 c17
-36 6 -64 -61 -157 -55 -78 -111 -126 -132 -113 -34 21 26 167 103 246 51 54
74 60 90 24z"/>
<path d="M5188 5514 c-5 -4 -8 -14 -8 -22 0 -14 -72 -202 -109 -282 -31 -68
-28 -110 12 -148 18 -18 38 -32 45 -32 6 0 42 31 79 68 82 83 209 174 238 170
19 -3 20 -10 20 -100 0 -84 3 -100 20 -117 34 -33 68 -36 101 -8 l29 25 -17
48 c-12 37 -15 77 -13 162 3 110 3 112 -23 132 -58 46 -92 35 -236 -79 -49
-39 -91 -70 -92 -68 -2 1 12 35 31 75 39 81 43 120 18 151 -18 22 -82 39 -95
25z"/>
<path d="M9038 708 c-8 -13 -19 -32 -26 -43 -7 -11 -18 -31 -25 -45 -13 -28
-15 -31 -52 -76 -14 -18 -25 -35 -25 -38 0 -4 -11 -17 -25 -30 -14 -13 -25
-27 -25 -31 0 -4 -14 -24 -31 -44 -46 -54 -281 -291 -288 -291 -4 0 -31 -25
-61 -55 l-54 -55 75 0 76 0 80 82 c98 100 163 173 163 182 0 3 6 14 14 23 58
70 84 105 101 134 11 19 32 54 47 79 15 25 32 56 39 70 6 14 15 33 21 43 11
22 23 117 15 117 -4 0 -12 -10 -19 -22z"/>
<path d="M7846 541 c-3 -4 -19 -11 -36 -15 -36 -7 -78 -49 -86 -85 -3 -14 -10
-34 -15 -45 -7 -13 -7 -22 0 -29 6 -6 11 -22 11 -35 0 -21 -3 -23 -31 -17 -17
4 -47 16 -65 27 -50 29 -41 6 17 -46 l51 -46 89 0 c95 0 115 7 168 60 23 22
26 33 26 95 0 58 -4 74 -22 94 -37 40 -95 63 -107 42z"/>
<path d="M6045 378 c12 -79 17 -98 26 -98 5 0 9 -5 9 -11 0 -7 16 -31 35 -55
19 -23 35 -46 35 -49 0 -4 35 -43 79 -86 l79 -79 87 0 c92 0 107 11 51 38 -15
8 -110 97 -211 198 -102 101 -187 184 -191 184 -3 0 -3 -19 1 -42z"/>
<path d="M7916 15 c-18 -14 -11 -15 70 -14 49 1 81 3 72 6 -10 2 -18 9 -18 14
0 15 -103 10 -124 -6z"/>
</g>
</svg>
