<?xml version="1.0" standalone="no"?>
<!DOCTYPE svg PUBLIC "-//W3C//DTD SVG 20010904//EN"
 "http://www.w3.org/TR/2001/REC-SVG-20010904/DTD/svg10.dtd">
<svg version="1.0" xmlns="http://www.w3.org/2000/svg"
 width="900.000000pt" height="573.000000pt" viewBox="0 0 900.000000 573.000000"
 preserveAspectRatio="xMidYMid meet">
<metadata>
Created by potrace 1.10, written by Peter Selinger 2001-2011
</metadata>
<g transform="translate(0.000000,573.000000) scale(0.100000,-0.100000)"
fill="#000000" stroke="none">
<path d="M615 5440 c-3 -11 -11 -20 -16 -20 -5 0 -9 -8 -9 -17 0 -10 -11 -51
-25 -91 -14 -41 -25 -85 -25 -98 0 -39 28 -41 60 -4 32 37 61 37 70 0 4 -16
13 -25 25 -25 18 0 20 6 16 55 -2 30 -5 58 -8 63 -7 12 -47 7 -67 -8 -33 -25
-34 -17 -8 59 23 70 25 106 3 106 -5 0 -13 -9 -16 -20z"/>
<path d="M383 5443 c-26 -10 -13 -33 17 -33 32 0 35 -7 20 -54 -5 -17 -21 -66
-35 -110 -25 -79 -25 -100 1 -94 13 3 56 106 85 205 13 42 34 62 59 56 26 -7
57 16 38 28 -14 9 -165 11 -185 2z"/>
<path d="M799 5321 c-14 -11 -31 -38 -38 -61 -10 -36 -10 -45 4 -66 21 -33 39
-39 75 -24 42 17 39 40 -5 40 -49 0 -48 28 1 32 43 4 76 46 58 76 -16 25 -65
27 -95 3z"/>
<path d="M7456 5061 c-40 -77 -103 -144 -217 -231 -65 -51 -146 -96 -155 -88
-1 2 6 28 16 58 23 66 26 158 6 185 -14 19 -14 19 -36 0 -12 -11 -28 -32 -36
-46 -26 -51 -264 -199 -319 -199 -19 0 -20 5 -16 85 2 57 -1 85 -8 85 -6 0
-11 10 -11 23 0 22 -16 47 -32 47 -4 0 -13 -19 -19 -42 -16 -57 -62 -104 -118
-123 -25 -8 -91 -21 -146 -29 -131 -19 -153 -25 -197 -53 -21 -12 -40 -23 -42
-23 -3 0 -17 20 -31 44 -14 23 -33 50 -43 59 -33 29 -111 67 -126 61 -13 -5
-12 -11 8 -37 53 -72 40 -114 -49 -158 -34 -16 -88 -34 -121 -39 -129 -18
-198 -43 -245 -87 l-27 -25 -72 26 c-69 25 -131 33 -164 20 -20 -8 -11 -24 13
-24 28 0 69 -37 76 -69 8 -39 -8 -67 -100 -176 -148 -173 -171 -281 -80 -369
56 -56 125 -149 125 -170 0 -37 -20 -56 -57 -56 -31 0 -43 8 -82 50 -26 28
-50 48 -54 44 -4 -4 -7 -33 -7 -64 0 -105 52 -209 117 -237 38 -16 38 -12 13
-83 -36 -101 -22 -169 42 -201 49 -25 84 -22 80 6 -2 11 -6 34 -9 50 -5 32 22
67 62 79 38 11 46 -6 49 -100 2 -85 4 -94 47 -174 25 -47 104 -164 175 -260
72 -96 142 -195 157 -220 14 -25 49 -72 77 -105 28 -33 53 -70 56 -82 4 -13
10 -23 14 -23 4 0 13 -12 19 -27 6 -16 15 -35 20 -43 11 -19 63 -130 113 -244
22 -50 44 -95 49 -100 15 -16 19 -2 10 30 -5 16 -17 61 -26 99 -28 119 -110
313 -200 473 -22 40 -154 228 -270 387 -101 138 -161 256 -148 293 3 8 27 12
71 12 63 0 145 13 238 39 23 6 86 32 140 57 177 83 214 94 317 94 56 0 125 -8
177 -21 47 -11 139 -27 205 -35 202 -26 316 -2 472 98 91 59 141 84 204 102
61 18 214 21 274 5 22 -6 65 -14 95 -18 l55 -6 3 -53 c4 -64 -13 -95 -142
-256 -140 -175 -183 -247 -248 -411 -74 -186 -93 -256 -138 -520 -12 -72 -11
-278 2 -291 4 -4 14 -2 22 5 9 8 16 46 21 124 4 62 13 146 21 187 34 174 99
399 122 422 7 7 12 18 12 25 0 19 53 117 88 161 15 20 39 62 51 92 22 53 109
179 157 229 38 38 94 128 111 177 10 29 13 63 10 92 -5 40 -1 53 21 86 24 35
27 48 25 114 -1 63 2 79 23 109 13 20 24 42 24 50 0 26 24 7 34 -25 5 -19 15
-32 25 -32 30 0 81 119 81 190 0 42 -25 139 -39 153 -16 16 -13 37 3 37 8 0
24 -16 36 -35 23 -38 40 -44 60 -20 18 21 -5 173 -37 249 -26 63 -80 148 -131
206 -17 19 -28 38 -25 43 6 10 57 5 85 -8 25 -10 34 20 17 52 -17 33 -119 99
-173 114 -91 25 -107 31 -103 42 1 5 34 20 71 31 37 12 68 26 68 31 1 17 -54
38 -110 43 -61 5 -185 -20 -250 -50 -60 -28 -70 -17 -54 60 13 63 2 122 -23
122 -7 0 -29 -31 -49 -69z m10 -113 c-8 -24 -26 -65 -40 -91 -42 -78 -32 -86
40 -36 69 47 189 99 244 106 l50 6 -51 -51 c-71 -71 -65 -88 25 -83 132 7 226
-14 226 -50 0 -5 -9 -9 -20 -9 -32 0 -70 -22 -70 -41 0 -10 20 -32 45 -49 25
-17 64 -55 86 -83 76 -96 143 -257 107 -257 -20 0 -68 53 -68 76 0 24 -34 98
-58 129 -24 31 -134 125 -146 125 -5 0 -17 7 -26 15 -9 8 -59 34 -111 56 -85
38 -104 42 -197 47 l-103 5 -154 -159 c-154 -158 -155 -159 -173 -138 -16 21
-72 42 -72 27 0 -4 9 -16 20 -28 28 -30 15 -60 -43 -106 -46 -36 -182 -97
-193 -86 -3 3 0 21 7 40 11 31 10 38 -10 71 -24 38 -65 56 -83 38 -8 -8 -4
-14 15 -21 36 -14 35 -46 -4 -82 -69 -64 -339 -121 -421 -89 -53 21 -58 28
-43 56 7 14 11 34 8 45 -6 22 -33 26 -33 5 0 -23 -56 -39 -113 -33 -53 6 -104
26 -327 130 -27 13 -72 23 -114 25 -89 6 -130 -15 -216 -107 -144 -154 -205
-244 -216 -317 -7 -50 -28 -58 -46 -18 -22 48 13 119 128 262 62 77 87 134 81
188 -2 24 -1 46 2 49 4 2 27 -14 50 -37 l44 -40 46 49 c51 55 53 56 161 73
199 32 310 98 310 184 0 35 27 34 41 -1 6 -17 8 -54 4 -90 -4 -42 -3 -63 4
-63 6 0 43 22 84 50 96 65 141 80 263 90 83 6 110 12 150 35 47 26 85 70 99
114 3 12 11 21 16 21 11 0 12 -67 0 -74 -4 -3 -11 -19 -15 -36 -3 -17 -22 -52
-41 -77 -20 -26 -34 -51 -32 -57 7 -21 67 -17 137 8 140 51 224 106 304 199
41 49 61 66 69 58 7 -7 7 -17 0 -33 -6 -13 -23 -49 -38 -81 -37 -79 -80 -118
-162 -146 -87 -31 -138 -60 -124 -74 6 -6 32 -4 78 8 190 49 268 79 358 138
66 44 225 194 225 214 0 7 6 16 13 20 8 4 17 17 21 28 16 38 17 -4 2 -47z
m134 -274 c25 -8 70 -28 100 -44 144 -72 229 -146 250 -218 11 -34 10 -44 -10
-83 -13 -24 -41 -65 -64 -90 -23 -25 -54 -72 -70 -104 -35 -73 -33 -127 13
-260 30 -87 37 -137 25 -169 -8 -20 -71 -59 -83 -52 -5 3 -37 12 -72 20 -35 8
-95 24 -134 36 -38 12 -86 25 -105 30 -19 5 -60 16 -90 25 -134 39 -339 56
-510 43 -207 -16 -320 -54 -560 -192 -327 -187 -487 -254 -647 -270 -75 -8
-128 5 -165 39 -37 34 -38 100 -4 165 75 141 56 202 -96 306 -33 23 -50 44
-63 78 -17 43 -17 48 0 98 21 65 81 151 179 255 92 97 122 110 211 87 33 -9
65 -19 70 -23 6 -4 48 -23 95 -41 47 -18 99 -38 115 -45 171 -70 243 -94 320
-110 78 -16 218 -17 290 -1 191 42 338 100 445 176 30 22 71 50 90 63 19 13
89 80 154 148 66 68 129 129 140 136 29 17 123 16 176 -3z m402 -476 c30 -46
53 -208 30 -208 -5 0 -19 11 -32 25 -18 19 -33 25 -54 23 -28 -3 -29 -5 -30
-58 -1 -43 -5 -55 -18 -58 -13 -2 -19 9 -28 53 -16 77 -7 114 42 177 60 77 68
80 90 46z m-2588 -459 c32 -38 33 -59 0 -140 -15 -36 -27 -89 -28 -122 -3 -54
-6 -60 -39 -83 -20 -13 -41 -33 -47 -44 -6 -11 -17 -20 -25 -20 -30 0 -12 71
42 160 31 52 44 110 24 110 -6 0 -22 -11 -37 -25 -37 -35 -79 -33 -114 5 -29
31 -47 81 -35 99 4 7 15 7 31 1 14 -6 45 -10 70 -10 36 0 50 5 69 26 14 15 25
35 25 44 0 40 30 40 64 -1z m1716 -9 c193 -30 231 -52 148 -83 -24 -9 -66 -32
-95 -51 -125 -82 -242 -120 -368 -120 -76 0 -255 28 -285 44 -10 6 -31 10 -47
10 -28 0 -73 24 -73 39 0 4 35 23 78 43 144 67 216 89 392 118 62 10 184 10
250 0z"/>
<path d="M7513 4440 c-40 -24 -58 -52 -74 -111 -30 -112 75 -224 193 -205 72
12 111 47 140 129 13 36 15 54 7 75 -40 104 -76 132 -172 132 -44 0 -71 -6
-94 -20z m95 -62 c29 -29 -10 -68 -48 -48 -32 17 -18 60 20 60 9 0 21 -5 28
-12z m-40 -145 l-3 -38 49 -3 c27 -2 54 2 59 7 6 6 18 11 27 11 11 -1 10 -4
-5 -12 -11 -7 -26 -18 -33 -25 -7 -7 -33 -13 -57 -13 -34 0 -47 5 -55 20 -6
11 -20 20 -30 20 -27 0 -25 27 3 51 36 30 49 24 45 -18z"/>
<path d="M5602 4154 c-45 -36 -62 -74 -62 -139 0 -66 23 -104 82 -135 95 -49
204 -3 239 102 9 29 10 47 1 77 -25 82 -80 121 -171 121 -45 0 -62 -5 -89 -26z
m116 -62 c2 -13 -3 -25 -12 -28 -23 -9 -66 4 -66 19 0 41 73 49 78 9z m-50
-118 c2 -13 -6 -25 -23 -34 -27 -15 -46 -7 -27 12 7 7 12 20 12 31 0 26 34 18
38 -9z m91 -61 c14 -11 -23 -24 -64 -21 -54 3 -73 24 -28 30 28 4 84 -1 92 -9z"/>
<path d="M973 5100 c-119 -28 -279 -215 -376 -438 -46 -106 -65 -238 -49 -331
14 -76 29 -101 84 -141 70 -51 138 -40 288 48 106 62 144 114 108 150 -18 18
-35 15 -81 -16 -63 -43 -157 -84 -203 -90 -60 -6 -79 25 -79 128 1 134 45 258
138 384 98 133 166 196 213 196 26 0 12 -72 -30 -153 -34 -68 -35 -68 -15 -88
29 -29 81 -25 105 9 41 54 74 148 74 206 0 57 -42 117 -90 131 -45 12 -55 13
-87 5z"/>
<path d="M2435 5054 c-32 -16 -135 -113 -135 -126 0 -5 -11 -26 -24 -47 -30
-47 -103 -216 -128 -296 -37 -120 -60 -254 -53 -308 9 -64 26 -106 52 -130 19
-17 21 -17 43 1 21 17 22 25 21 124 -2 113 24 245 54 278 12 13 37 19 96 22
55 3 84 9 90 19 12 20 12 23 -12 54 -21 25 -26 26 -75 20 -62 -7 -73 3 -51 48
9 18 24 50 34 73 29 64 115 174 135 174 22 0 22 -4 3 -75 -8 -31 -12 -62 -8
-70 22 -59 123 63 123 148 0 37 -36 78 -83 96 -37 14 -46 14 -82 -5z"/>
<path d="M3266 5045 c-26 -28 -216 -340 -216 -355 0 -6 -13 -38 -29 -72 -70
-148 -141 -314 -141 -327 0 -22 51 -71 73 -71 20 0 64 88 127 250 42 110 128
291 152 321 l19 24 -4 -35 c-2 -19 -10 -78 -17 -131 -21 -155 2 -229 69 -229
53 0 137 92 200 219 17 35 44 82 59 105 15 22 31 50 35 60 6 14 11 16 18 9 8
-8 8 -21 0 -45 -46 -138 -68 -456 -37 -517 16 -30 56 -61 79 -61 16 0 57 53
57 73 0 8 -7 28 -15 43 -17 34 -20 161 -5 245 5 30 11 77 14 105 8 71 35 232
48 276 16 54 -3 95 -47 104 -39 7 -75 -3 -92 -25 -37 -47 -166 -246 -202 -312
-22 -42 -51 -85 -63 -95 l-21 -19 6 55 c3 30 13 109 21 175 20 153 20 195 -2
221 -28 36 -58 39 -86 9z"/>
<path d="M2693 4721 c-67 -31 -143 -93 -164 -133 -10 -21 -19 -57 -19 -81 0
-50 27 -83 101 -120 24 -12 43 -26 41 -32 -4 -16 -54 -25 -104 -19 -39 5 -49
4 -54 -10 -10 -26 12 -63 47 -82 61 -31 191 -1 226 53 14 21 14 28 -2 71 -21
57 -40 79 -80 97 -58 25 -67 37 -55 71 11 32 41 58 97 87 40 21 56 15 72 -28
16 -45 44 -46 71 -2 27 44 25 71 -8 108 -37 41 -106 49 -169 20z"/>
<path d="M1233 4718 c-28 -35 -87 -208 -109 -320 -16 -85 -11 -106 33 -129 32
-17 55 6 77 78 13 41 31 72 64 106 49 50 175 127 209 127 21 0 53 29 53 47 0
5 -9 18 -20 28 -38 35 -123 14 -202 -49 -21 -16 -41 -27 -44 -23 -3 3 1 26 11
50 25 66 18 91 -26 95 -21 2 -40 -2 -46 -10z"/>
<path d="M1763 4701 c-76 -55 -171 -188 -214 -300 -17 -47 -18 -54 -4 -80 19
-38 62 -71 92 -71 36 0 96 34 168 95 l64 55 22 -39 c32 -58 71 -83 122 -79 41
3 42 4 45 41 3 32 0 38 -23 47 -17 7 -33 26 -47 57 -19 43 -20 52 -8 93 27 95
28 92 -46 153 -81 67 -110 72 -171 28z m107 -125 c0 -29 -71 -110 -139 -160
-27 -20 -51 -36 -55 -36 -27 0 46 131 111 198 36 38 44 42 62 32 12 -6 21 -21
21 -34z"/>
<path d="M3983 4701 c-94 -68 -168 -184 -189 -295 -13 -66 -13 -73 5 -96 10
-14 32 -33 50 -44 30 -17 34 -18 76 -2 24 10 61 37 84 62 23 24 46 44 51 44 5
0 21 -18 35 -40 14 -23 32 -43 40 -47 43 -16 115 38 115 87 0 26 -4 30 -27 30
-45 0 -56 13 -49 56 19 118 18 130 -3 171 -52 103 -114 127 -188 74z m93 -117
c5 -20 -4 -41 -46 -103 -52 -77 -93 -113 -117 -104 -19 7 -16 27 16 96 54 116
131 175 147 111z"/>
<path d="M4413 4693 c-7 -2 -13 -13 -13 -22 0 -10 -27 -83 -59 -162 -63 -153
-63 -157 -18 -206 11 -13 27 -23 35 -23 8 0 47 30 86 68 73 69 160 132 182
132 19 0 26 -34 18 -85 -12 -81 30 -135 92 -119 30 8 40 42 24 89 -7 20 -10
74 -8 126 3 91 3 91 -27 115 -16 13 -37 24 -46 24 -26 0 -73 -27 -122 -70 -25
-22 -50 -40 -55 -40 -6 0 -12 -6 -15 -12 -2 -7 -8 -10 -12 -6 -4 4 2 31 14 59
28 68 27 93 -5 118 -26 21 -46 25 -71 14z"/>
<path d="M4370 3686 c-92 -28 -168 -65 -240 -119 -93 -69 -120 -121 -120 -232
0 -104 35 -184 121 -277 58 -63 118 -163 134 -223 8 -33 15 -101 15 -155 0
-56 7 -121 17 -160 16 -64 16 -68 -7 -163 -22 -94 -24 -176 -5 -219 5 -12 -10
-34 -53 -81 -34 -36 -71 -88 -83 -117 -18 -41 -31 -56 -68 -75 -90 -47 -139
-108 -215 -266 -50 -105 -61 -120 -111 -158 -78 -59 -148 -168 -170 -263 -10
-43 -19 -143 -22 -246 -6 -155 -4 -178 11 -207 20 -37 74 -79 151 -118 73 -36
104 -79 139 -187 41 -127 124 -262 190 -306 64 -44 108 -57 187 -55 125 1 270
46 452 139 139 71 198 123 217 191 12 46 37 81 57 81 29 0 146 63 187 100 23
21 51 58 63 82 41 83 47 119 38 250 -15 203 -13 233 12 260 29 31 74 130 80
178 8 54 -14 133 -48 176 -17 22 -29 49 -29 67 0 46 86 240 138 310 52 71 111
126 159 151 50 25 102 75 124 117 79 156 -107 383 -313 381 -118 -1 -263 -96
-352 -230 -50 -76 -110 -193 -120 -235 -4 -15 -11 -25 -16 -22 -17 10 -11 194
11 320 18 108 19 148 14 410 -9 396 -37 560 -122 704 -44 74 -134 171 -183
196 -54 28 -151 28 -240 1z m208 -85 c102 -53 204 -228 233 -398 6 -37 15
-113 20 -168 5 -55 12 -119 15 -142 10 -72 -19 -138 -96 -215 -37 -37 -80 -72
-95 -78 -20 -8 -25 -14 -18 -21 16 -16 68 4 142 51 39 25 63 35 67 28 18 -28
15 -147 -5 -243 -12 -55 -25 -153 -28 -218 -6 -114 -6 -117 -25 -100 -10 9
-28 31 -39 49 -11 18 -36 43 -55 55 -31 19 -46 21 -114 17 -44 -3 -86 -10 -95
-18 -29 -24 -36 2 -19 80 9 44 14 98 11 130 -7 72 -61 238 -72 221 -12 -21 -7
-105 10 -137 21 -40 19 -121 -5 -206 -11 -40 -20 -85 -20 -100 0 -31 -11 -36
-29 -14 -9 10 -9 31 -1 82 6 37 13 71 16 76 9 14 11 152 3 182 -5 15 -11 87
-15 160 -3 72 -10 151 -16 176 -13 62 -58 140 -140 239 -76 92 -102 137 -112
194 -10 53 8 47 48 -15 19 -29 54 -80 80 -112 42 -54 46 -57 46 -33 0 15 -25
75 -55 134 -87 170 -75 227 58 293 146 71 237 86 305 51z m898 -1136 c93 -39
169 -134 166 -208 -3 -54 -33 -97 -96 -135 -28 -17 -52 -29 -54 -27 -2 1 16
24 40 50 45 49 56 68 57 98 1 14 -8 10 -38 -20 -41 -41 -44 -43 -138 -117 -65
-50 -125 -122 -163 -191 -11 -22 -25 -47 -30 -55 -13 -22 -36 -78 -56 -140
-30 -91 -33 -92 -117 -32 -53 39 -114 112 -124 150 -12 47 33 216 84 316 70
139 199 277 295 316 36 14 135 12 174 -5z m-797 -323 c27 -22 49 -58 87 -143
95 -208 129 -271 173 -321 50 -56 125 -114 188 -147 23 -11 49 -31 57 -43 34
-48 8 -134 -63 -211 -23 -24 -41 -47 -41 -51 0 -25 96 26 106 57 3 9 10 17 15
17 14 0 11 -16 -6 -30 -8 -7 -15 -18 -15 -24 0 -24 -74 -65 -142 -80 -54 -12
-123 39 -208 155 -65 88 -190 196 -190 164 0 -3 28 -38 63 -78 135 -155 143
-194 24 -109 -64 46 -140 144 -188 242 -32 65 -36 76 -61 164 -33 119 -90 163
-235 182 -29 3 -53 10 -53 14 0 4 18 35 41 69 57 85 81 102 234 165 17 7 46
20 65 29 48 23 104 15 149 -21z m679 -179 c-12 -27 -44 -73 -50 -73 -3 0 -4 9
-1 20 3 11 9 20 13 20 5 0 12 9 15 20 3 11 11 20 17 20 5 0 8 -3 6 -7z m-1076
-132 c13 -5 35 -12 49 -15 46 -10 77 -52 104 -145 36 -119 52 -157 90 -221 37
-61 131 -163 185 -202 42 -31 149 -88 164 -88 6 0 32 -15 59 -32 l49 -33 -5
-51 c-5 -46 -39 -141 -56 -154 -17 -14 -61 -80 -53 -80 17 0 63 27 77 46 19
25 19 5 0 -34 -22 -43 -90 -109 -122 -117 -20 -5 -31 -2 -40 12 -25 34 -51 59
-129 118 -44 33 -124 105 -179 160 -127 127 -149 169 -173 339 -21 143 -43
188 -114 230 -58 34 -154 58 -200 50 -57 -9 -61 1 -25 59 40 65 106 132 149
151 38 17 136 20 170 7z m-178 -281 c101 -38 126 -80 144 -235 14 -123 34
-183 85 -259 50 -74 167 -198 259 -272 77 -64 97 -93 105 -163 6 -53 -6 -83
-66 -163 -67 -91 -165 -111 -253 -53 -34 23 -109 120 -125 162 -12 31 -50 82
-57 76 -9 -10 -7 -51 3 -57 5 -3 12 -17 15 -31 8 -33 82 -154 110 -181 11 -11
30 -25 41 -32 19 -11 19 -11 -2 -12 -13 0 -23 5 -23 10 0 6 -6 10 -14 10 -25
0 -103 88 -130 144 -14 30 -46 113 -70 185 -63 191 -126 273 -242 317 -69 26
-77 5 -14 -36 55 -35 86 -72 75 -90 -11 -17 -49 -11 -87 15 -54 37 -72 31 -48
-15 20 -37 73 -65 135 -70 l60 -5 16 -50 c9 -27 25 -77 35 -110 52 -178 75
-224 151 -296 79 -75 113 -91 203 -97 105 -6 150 16 260 128 63 64 90 100 106
141 19 50 26 56 80 82 76 37 158 122 198 207 27 57 31 75 30 152 l0 86 39 16
c22 8 44 13 48 10 5 -3 9 -73 9 -155 0 -171 -8 -198 -78 -261 -71 -64 -102
-71 -102 -22 0 64 -71 -3 -135 -128 -26 -51 -59 -106 -74 -121 -35 -38 -112
-89 -186 -122 -33 -15 -68 -32 -79 -37 -30 -15 -164 -54 -239 -68 -61 -13 -73
-12 -121 4 -51 17 -94 50 -144 111 -31 37 -47 70 -82 165 -58 157 -96 203
-213 259 -91 43 -97 59 -97 250 0 191 17 262 85 366 24 35 61 70 110 104 80
56 105 85 86 104 -18 18 -13 27 32 48 48 22 77 20 161 -11z"/>
<path d="M7073 3285 c-59 -44 -259 -145 -287 -145 -18 0 -127 -28 -134 -34
-13 -14 63 -50 103 -48 44 1 175 36 218 57 87 44 177 142 177 195 0 29 -11 26
-77 -25z"/>
<path d="M7514 2883 c-12 -16 -24 -40 -28 -55 -3 -16 -11 -28 -16 -28 -6 0
-10 -11 -10 -24 0 -13 -7 -52 -16 -86 -17 -66 -16 -96 10 -290 41 -313 -5
-793 -98 -1035 -108 -279 -147 -349 -374 -678 -57 -83 -65 -102 -88 -215 -11
-53 -34 -5 -68 139 -5 25 -9 26 -98 32 -133 9 -292 73 -385 153 -21 19 -41 34
-45 34 -4 0 -26 26 -50 57 -109 145 -136 259 -148 633 -10 288 -17 361 -55
550 -42 203 -62 264 -111 325 -32 41 -51 23 -36 -35 13 -54 7 -73 -32 -94 -47
-25 -223 -200 -295 -293 -93 -120 -107 -211 -57 -352 22 -59 49 -153 57 -196
7 -41 25 -96 40 -128 5 -9 16 -43 24 -75 15 -61 59 -219 81 -292 7 -25 27 -94
43 -155 80 -294 112 -366 145 -320 8 11 23 30 34 43 11 12 30 37 43 56 12 18
44 48 71 66 73 50 111 46 229 -25 128 -78 210 -101 260 -75 27 15 24 29 -8 36
-65 14 -123 42 -193 91 -41 30 -93 62 -115 73 -106 52 -230 1 -329 -135 -14
-19 -15 -19 -21 8 -11 42 28 118 94 183 30 30 59 54 64 54 6 0 18 6 26 14 9 8
30 17 48 21 30 6 37 1 104 -65 106 -105 192 -158 309 -194 30 -9 70 -22 89
-28 19 -6 62 -12 95 -13 l60 -2 21 -59 c34 -97 95 -203 136 -236 21 -17 35
-36 33 -42 -19 -49 -483 -196 -618 -196 -18 0 -41 -7 -52 -15 -17 -13 -3 -14
133 -15 84 0 176 5 205 11 70 14 215 63 296 99 67 31 89 31 73 2 -5 -9 -12
-38 -16 -64 l-7 -48 49 0 48 0 14 62 c7 35 13 72 13 83 0 49 10 66 61 99 69
44 157 131 157 156 0 28 -16 25 -74 -13 -114 -76 -150 -97 -211 -131 l-30 -16
-8 37 c-4 21 -12 42 -17 47 -24 24 -6 207 25 246 7 8 15 22 18 31 12 35 93
137 120 153 67 38 178 -1 244 -87 23 -29 21 -49 -5 -79 -14 -16 -18 -15 -58
21 -87 76 -213 67 -271 -19 -26 -38 -31 -90 -9 -90 8 0 27 19 43 42 32 47 64
60 120 48 37 -9 60 -29 144 -129 15 -17 31 -31 37 -31 21 0 148 186 209 305
11 22 28 54 36 70 42 80 88 185 127 290 33 91 54 130 65 125 5 -3 8 -17 6 -32
-3 -36 28 -103 84 -183 41 -56 62 -78 130 -127 5 -4 24 -18 40 -31 50 -40 106
-71 190 -106 88 -37 105 -44 218 -95 43 -20 83 -36 90 -36 7 0 17 -4 22 -8 6
-4 44 -22 85 -39 65 -27 101 -41 215 -83 11 -4 33 -13 48 -19 51 -20 57 -16
57 44 0 34 -4 55 -11 55 -20 0 -341 130 -435 176 -50 24 -94 44 -98 44 -3 0
-79 35 -169 79 -170 83 -246 132 -300 197 -38 44 -107 156 -107 172 0 18 -20
25 -35 12 -19 -16 -29 4 -19 38 5 15 9 54 9 87 1 33 7 112 14 175 25 228 -36
544 -134 700 -36 58 -96 157 -136 225 -23 38 -24 50 -26 234 -1 106 -5 197
-10 202 -5 5 -18 -3 -29 -18z m113 -662 c6 -23 -12 -44 -32 -38 -12 4 -19 62
-10 85 6 15 8 15 21 -3 8 -11 18 -31 21 -44z m-1689 -57 c20 -58 21 -120 2
-115 -66 18 -107 7 -217 -59 -37 -22 -53 -27 -53 -18 0 20 227 241 242 236 7
-3 19 -22 26 -44z m1719 -42 c13 -8 33 -55 33 -78 0 -10 -14 -14 -55 -14 -54
0 -55 1 -55 28 0 30 16 57 40 65 21 8 24 8 37 -1z m-1716 -132 c22 -13 52 -67
44 -80 -3 -6 -18 -10 -33 -10 -85 0 -241 -80 -316 -161 -58 -63 -66 -62 -66
10 0 30 9 46 48 89 26 28 85 76 131 107 70 46 91 55 128 55 24 0 53 -5 64 -10z
m1753 -59 c32 -33 37 -44 34 -77 -2 -33 -6 -38 -23 -36 -11 2 -51 4 -88 4 -66
0 -69 0 -63 21 3 12 6 32 6 44 0 30 47 83 74 83 12 0 38 -17 60 -39z m-1720
-102 c20 -15 26 -29 24 -48 -3 -24 -8 -27 -60 -33 -69 -9 -197 -71 -262 -128
-26 -22 -49 -40 -52 -40 -11 0 10 78 29 106 12 18 44 47 71 65 51 33 191 99
212 99 6 0 23 -10 38 -21z m1730 -101 c27 -26 35 -43 39 -81 2 -26 1 -50 -4
-53 -5 -3 -35 7 -66 22 -46 21 -66 25 -105 21 -45 -6 -48 -5 -48 17 0 12 16
41 36 64 31 36 41 42 75 42 31 0 47 -7 73 -32z m-1720 -41 c13 -10 17 -24 14
-57 l-3 -45 -47 -7 c-68 -9 -195 -74 -239 -120 -52 -56 -72 -39 -49 43 18 65
81 117 209 170 76 32 91 34 115 16z m1673 -123 c12 -7 34 -25 48 -40 24 -24
26 -30 19 -83 -3 -31 -10 -60 -14 -65 -5 -4 -35 5 -67 20 -43 21 -73 29 -118
29 -47 0 -60 4 -63 17 -2 9 2 19 7 23 6 3 11 14 11 24 0 26 38 71 74 87 33 14
68 10 103 -12z m-1655 -98 c8 -58 5 -66 -26 -66 -63 0 -184 -84 -221 -154 -35
-65 -55 -44 -55 57 0 53 4 66 28 93 55 62 180 126 237 122 28 -3 30 -7 37 -52z
m1595 -116 c18 -10 43 -36 57 -57 23 -34 24 -42 14 -80 -12 -48 -26 -53 -66
-24 -56 39 -112 61 -157 61 -41 0 -45 2 -45 24 0 14 14 40 34 60 29 32 39 36
82 36 31 0 61 -7 81 -20z m-1585 -65 c9 -61 5 -75 -22 -75 -40 0 -105 -42
-168 -108 l-64 -67 7 60 c11 89 40 141 114 197 50 39 70 48 95 46 29 -3 31 -6
38 -53z m1537 -124 c15 -11 36 -35 46 -55 18 -34 18 -35 0 -76 -10 -22 -22
-43 -27 -46 -5 -3 -25 8 -46 24 -51 40 -106 62 -158 62 -24 0 -44 5 -44 10 0
19 27 64 52 86 52 48 105 46 177 -5z m-1509 -43 c19 -35 6 -60 -37 -69 -36 -7
-130 -76 -161 -119 -23 -31 -52 -40 -52 -17 0 31 33 106 62 141 77 94 156 120
188 64z m1416 -120 c26 -18 56 -45 67 -59 17 -24 18 -30 6 -63 -7 -20 -19 -36
-26 -36 -8 0 -38 18 -67 40 -42 32 -66 42 -107 47 -30 3 -60 10 -66 15 -32 25
46 88 108 88 25 0 52 -11 85 -32z m-1395 2 c10 -6 25 -23 34 -39 13 -26 13
-30 -4 -45 -10 -9 -22 -16 -28 -16 -21 0 -128 -89 -167 -139 -22 -27 -43 -48
-47 -45 -4 2 -11 24 -15 49 -5 37 -2 52 20 89 29 49 99 115 148 140 40 19 35
18 59 6z m1311 -137 c21 -14 52 -44 68 -66 30 -41 29 -58 -5 -87 -14 -11 -20
-9 -48 18 -41 40 -120 74 -173 76 -23 0 -45 4 -49 8 -4 4 5 23 20 42 26 34 30
36 88 36 50 0 68 -5 99 -27z"/>
<path d="M6450 2233 c0 -5 19 -33 42 -63 82 -107 200 -296 248 -395 74 -152
182 -486 205 -635 4 -25 11 -52 15 -60 8 -13 9 -13 15 1 9 23 0 216 -12 264
-37 146 -50 190 -80 275 -34 94 -103 242 -144 310 -77 128 -236 310 -270 310
-11 0 -19 -3 -19 -7z"/>
<path d="M5499 1262 c-67 -82 -68 -84 -157 -155 l-73 -59 3 -51 c3 -49 5 -52
28 -49 54 6 221 146 273 229 35 55 36 111 3 135 -23 17 -24 16 -77 -50z"/>
<path d="M7665 557 c-10 -17 -30 -50 -43 -72 -13 -22 -27 -42 -31 -45 -4 -3
-22 -27 -41 -55 -18 -27 -109 -125 -202 -217 l-170 -168 69 0 70 0 72 78 c101
107 100 106 173 207 85 117 135 210 144 263 8 53 -12 57 -41 9z"/>
<path d="M6652 447 c-63 -20 -99 -80 -93 -154 2 -31 -14 -37 -51 -19 -58 29
-49 -10 12 -51 26 -18 47 -23 102 -23 104 0 159 38 173 119 8 49 -14 94 -58
121 -36 22 -38 22 -85 7z"/>
<path d="M5136 308 c12 -66 57 -139 136 -223 l80 -85 81 0 81 0 -60 51 c-32
29 -111 105 -175 170 -122 125 -153 144 -143 87z"/>
</g>
</svg>
