<?xml version="1.0" standalone="no"?>
<!DOCTYPE svg PUBLIC "-//W3C//DTD SVG 20010904//EN"
 "http://www.w3.org/TR/2001/REC-SVG-20010904/DTD/svg10.dtd">
<svg version="1.0" xmlns="http://www.w3.org/2000/svg"
 width="455.023480pt" height="431.000000pt" viewBox="0 0 455.023480 431.000000"
 preserveAspectRatio="xMidYMid meet">
<metadata>
Created by potrace 1.12, written by Peter Selinger 2001-2015
</metadata>
<g transform="translate(-25.077784,431.000000) scale(0.100000,-0.100000)"
fill="#000000" stroke="none">
<path d="M3520 4249 c-45 -88 -173 -205 -289 -263 l-54 -28 23 36 c32 53 41
206 12 206 -4 0 -18 -17 -32 -37 -14 -20 -52 -57 -85 -81 -57 -42 -187 -112
-210 -112 -6 0 -10 33 -10 83 0 65 -4 89 -19 112 l-19 29 -12 -47 c-21 -85
-60 -107 -232 -132 -99 -14 -149 -31 -185 -62 -14 -13 -17 -12 -23 9 -18 59
-101 128 -154 128 -17 0 -16 -3 10 -29 19 -19 29 -40 29 -59 0 -51 -56 -83
-194 -112 -113 -23 -153 -39 -184 -72 l-23 -25 -42 21 c-44 21 -162 35 -177
20 -5 -5 2 -10 17 -11 59 -3 93 -43 79 -95 -3 -13 -37 -61 -76 -108 -39 -47
-81 -103 -92 -124 -37 -72 -19 -185 32 -201 11 -3 20 -10 20 -14 0 -4 16 -28
36 -54 25 -32 35 -53 32 -73 -7 -63 -72 -57 -121 12 l-32 46 -3 -59 c-2 -32 2
-78 9 -101 14 -52 67 -112 99 -112 17 0 21 -4 15 -17 -55 -130 -41 -209 42
-229 33 -9 48 8 32 33 -18 30 -4 68 33 86 48 23 60 7 62 -85 2 -95 27 -144
181 -350 101 -137 121 -171 156 -263 22 -57 42 -124 45 -149 6 -39 4 -45 -16
-51 -29 -9 -187 -161 -251 -242 -93 -117 -100 -169 -45 -345 20 -64 36 -125
36 -137 0 -62 -89 -178 -197 -260 -37 -28 -71 -51 -75 -51 -5 0 -8 17 -8 38 0
26 9 50 29 78 31 41 61 120 61 157 0 40 -20 96 -45 126 -33 38 -31 60 10 161
42 101 111 204 163 243 20 15 57 42 82 60 98 72 116 149 58 247 -59 97 -177
160 -269 145 -144 -25 -292 -178 -364 -378 -16 -43 -24 -55 -28 -42 -13 33 -7
161 13 275 18 102 20 141 14 350 -8 343 -35 487 -112 606 -43 65 -118 139
-158 154 -68 26 -189 4 -304 -56 -134 -70 -182 -134 -181 -244 0 -79 29 -142
110 -240 98 -118 120 -176 120 -313 0 -43 5 -102 12 -131 9 -43 8 -66 -5 -130
-18 -88 -20 -144 -7 -179 8 -21 3 -30 -39 -72 -27 -27 -58 -70 -70 -97 -15
-36 -30 -53 -60 -68 -66 -33 -118 -97 -176 -216 -45 -92 -61 -115 -99 -142
-51 -36 -120 -135 -136 -195 -25 -94 -38 -343 -20 -390 14 -35 47 -64 112 -97
60 -31 99 -69 116 -116 47 -126 58 -153 76 -184 37 -63 81 -112 124 -137 l43
-25 -15 -34 -14 -34 57 0 c55 0 58 1 69 30 8 22 18 30 36 30 51 0 206 52 315
106 132 65 182 109 207 183 10 32 22 51 32 51 37 0 144 63 186 110 50 56 67
106 67 202 l0 63 43 24 c59 33 162 118 195 160 15 19 37 53 48 75 l22 41 20
-70 c12 -39 42 -144 67 -235 70 -245 114 -388 124 -394 4 -3 33 28 65 68 60
77 115 116 163 116 18 0 63 -20 111 -49 95 -57 132 -71 181 -70 76 1 78 14 6
38 -40 13 -103 46 -154 81 -103 71 -146 82 -213 52 -52 -22 -124 -84 -133
-113 -11 -32 -25 -21 -25 20 0 50 48 123 115 173 83 62 96 61 174 -15 36 -36
93 -82 126 -102 77 -46 204 -86 277 -88 l57 -2 16 -49 c26 -80 63 -145 111
-196 l44 -47 -68 -31 c-133 -61 -297 -107 -496 -137 -65 -11 -21 -25 75 -25
143 0 335 47 472 116 26 14 47 23 47 22 0 -2 -7 -25 -15 -52 -23 -77 -21 -86
23 -86 l37 0 13 65 c6 35 12 75 12 88 0 18 17 37 70 76 39 29 81 67 95 85 51
66 32 62 -104 -24 -60 -39 -115 -70 -121 -70 -26 0 -50 65 -50 135 0 77 17
123 76 212 48 73 71 87 139 81 60 -5 116 -40 144 -90 13 -23 13 -29 -3 -52
l-17 -27 -36 31 c-42 37 -72 50 -119 50 -66 0 -121 -43 -131 -104 -7 -46 9
-47 36 -1 25 44 59 60 105 51 27 -5 49 -22 92 -71 32 -36 61 -65 65 -65 9 0
78 93 122 166 52 87 139 265 176 364 18 47 37 96 43 110 l10 25 10 -25 c58
-144 123 -225 243 -305 60 -40 389 -186 623 -276 l123 -47 -3 46 -3 46 -165
66 c-174 71 -403 174 -520 236 -124 65 -219 181 -265 322 -15 47 -16 66 -5
175 16 167 2 307 -46 462 -27 85 -47 124 -140 275 l-58 95 -4 130 c-4 139 13
277 45 356 9 23 56 92 105 153 108 135 122 163 123 242 0 47 5 67 20 84 16 17
20 36 20 89 0 42 5 74 13 84 7 9 17 28 21 44 10 37 24 36 36 -3 15 -45 27 -43
54 10 34 66 38 136 12 213 -24 72 -24 73 -11 73 5 0 22 -18 37 -41 25 -38 28
-40 40 -22 17 22 9 99 -18 189 -17 56 -96 182 -133 213 -27 23 -19 34 22 28
20 -3 45 -8 55 -12 25 -11 22 18 -7 52 -34 40 -113 81 -188 96 l-63 13 31 17
c17 9 52 21 77 28 55 13 59 23 16 38 -65 23 -196 9 -288 -31 -24 -10 -46 -17
-48 -15 -2 2 2 28 8 56 11 54 5 121 -11 121 -5 0 -23 -27 -40 -61z m21 -55
c-7 -25 -27 -77 -47 -115 -19 -38 -32 -69 -29 -69 3 0 27 16 54 35 26 19 72
46 102 59 58 25 167 51 176 42 4 -3 1 -6 -6 -6 -20 0 -101 -82 -101 -102 0
-17 5 -19 30 -13 38 8 133 8 162 0 75 -21 103 -45 53 -45 -31 0 -75 -20 -75
-34 0 -6 18 -24 40 -39 22 -15 55 -47 74 -70 39 -48 101 -174 110 -224 l5 -32
-43 42 c-29 28 -45 54 -50 78 -15 83 -105 169 -251 239 -93 45 -184 66 -240
56 -35 -6 -57 -25 -167 -139 l-128 -132 -17 22 c-10 12 -31 25 -48 28 l-30 7
30 -25 c29 -25 29 -27 15 -53 -21 -37 -83 -79 -163 -109 l-68 -25 16 29 c8 17
15 39 15 51 0 31 -44 70 -77 69 l-28 -1 33 -14 c70 -31 23 -90 -102 -129 -107
-33 -183 -41 -243 -25 -65 18 -65 18 -48 43 16 25 10 63 -10 71 -9 3 -11 -2
-7 -16 7 -27 -13 -38 -72 -38 -39 0 -80 14 -199 66 -221 98 -258 94 -381 -36
-104 -110 -153 -182 -167 -245 -7 -30 -15 -55 -19 -55 -16 0 -30 27 -30 57 0
44 21 83 85 163 88 109 112 170 85 221 -18 33 16 23 55 -18 l36 -37 37 43 c36
41 41 44 132 61 194 37 265 83 258 167 l-3 43 25 -25 c22 -23 25 -33 24 -95
-1 -39 0 -70 2 -70 2 0 25 16 51 37 72 55 124 74 230 84 112 10 171 38 195 91
8 18 20 44 26 58 10 23 11 21 11 -20 1 -62 -13 -107 -49 -151 -16 -21 -30 -41
-30 -45 0 -12 95 3 153 26 88 33 174 97 230 170 l50 65 -6 -54 c-7 -56 -39
-122 -79 -157 -12 -12 -49 -31 -81 -43 -153 -56 -155 -79 -4 -40 128 33 189
58 267 110 70 46 191 173 216 226 24 52 30 47 15 -13z m116 -275 c127 -48 252
-142 273 -205 16 -47 1 -88 -57 -155 -54 -63 -82 -121 -83 -166 0 -18 14 -75
30 -126 37 -115 37 -140 4 -174 -32 -32 -48 -30 -265 33 -207 59 -299 75 -449
75 -226 0 -347 -36 -590 -176 -365 -211 -578 -268 -666 -180 -32 32 -31 71 6
155 17 38 30 78 30 90 0 41 -30 85 -86 124 -92 63 -113 119 -75 201 22 49 123
177 179 228 66 58 86 56 307 -33 267 -106 319 -122 421 -128 113 -6 218 14
357 68 135 52 241 126 365 254 56 58 112 112 124 121 32 21 107 19 175 -6z
m338 -443 c8 -27 15 -75 15 -105 l0 -56 -19 28 c-23 36 -58 60 -75 54 -10 -4
-12 -18 -9 -49 4 -32 1 -47 -11 -57 -13 -11 -17 -9 -27 15 -7 16 -12 52 -13
80 0 46 4 56 49 113 45 57 50 61 62 44 8 -10 20 -40 28 -67z m-2169 -363 c3
-12 -6 -58 -21 -102 -16 -48 -26 -92 -23 -111 4 -26 0 -33 -23 -45 -35 -19
-69 -62 -70 -89 0 -19 -1 -19 -10 4 -16 37 -4 87 36 151 21 34 35 70 35 89 l0
32 -26 -31 c-30 -36 -76 -42 -106 -14 -19 17 -54 120 -44 130 3 4 6 1 6 -5 0
-17 54 -42 90 -42 35 0 80 38 80 68 0 10 3 21 6 25 10 10 64 -36 70 -60z
m1527 1 c42 -9 77 -21 77 -25 0 -4 -13 -10 -29 -14 -17 -3 -67 -29 -113 -57
-131 -80 -173 -92 -313 -92 -95 0 -142 5 -225 26 -58 15 -114 28 -125 30 -15
3 -1 14 50 40 97 49 196 83 285 98 41 6 82 13 90 15 35 9 231 -5 303 -21z
m375 -90 c34 -4 65 -11 68 -16 12 -20 5 -77 -14 -114 -11 -21 -64 -93 -117
-159 -182 -226 -297 -529 -312 -826 -5 -109 2 -217 14 -205 3 3 12 67 19 143
14 135 65 372 97 443 15 35 15 35 16 -55 1 -50 8 -145 17 -210 12 -91 15 -164
10 -300 -13 -431 -100 -698 -343 -1052 -106 -157 -133 -210 -133 -269 0 -19
-4 -34 -9 -34 -13 0 -41 74 -48 126 l-6 44 -51 0 c-125 0 -298 74 -395 170
-120 118 -148 216 -161 555 -10 262 -26 389 -76 594 -19 79 -33 146 -31 148 5
4 142 -283 158 -332 22 -68 21 -13 -1 76 -25 98 -96 277 -147 369 -20 36 -95
148 -167 250 -73 102 -146 208 -163 236 -27 44 -53 111 -53 137 0 4 29 7 66 7
97 0 194 26 344 93 184 82 228 85 470 31 45 -10 121 -16 190 -17 133 0 173 12
294 87 138 86 219 108 341 94 33 -4 88 -10 123 -14z m-2619 1 c73 -37 160
-178 186 -302 24 -109 39 -330 26 -373 -14 -48 -81 -123 -137 -156 -25 -15
-43 -29 -40 -32 10 -9 97 30 141 63 l43 33 6 -30 c11 -53 7 -116 -15 -241 -14
-81 -20 -148 -17 -198 l5 -77 -39 59 c-20 33 -52 68 -70 79 -40 24 -103 26
-158 4 -23 -9 -43 -14 -46 -12 -2 3 3 36 12 74 19 83 15 128 -25 249 -26 79
-30 85 -30 51 -1 -21 6 -66 15 -100 11 -41 14 -80 10 -121 -8 -85 -30 -178
-43 -182 -20 -7 -22 41 -7 117 11 51 14 98 10 150 -4 41 -10 129 -14 195 -10
146 -29 194 -124 311 -79 97 -97 130 -105 195 -7 57 1 63 21 17 17 -40 137
-210 144 -204 2 3 -21 57 -52 121 -81 165 -76 209 27 262 122 62 218 79 276
48z m772 -963 c95 -49 147 -158 104 -219 -8 -12 -51 -46 -95 -77 -109 -77
-197 -200 -256 -360 -29 -77 -31 -56 -3 27 46 136 94 211 202 310 90 83 127
132 127 169 0 7 -9 -1 -19 -18 -10 -17 -57 -61 -103 -97 -122 -97 -191 -198
-240 -348 -12 -38 -27 -69 -33 -69 -24 0 -116 73 -146 116 -29 43 -31 51 -25
105 13 126 115 322 212 408 98 86 181 102 275 53z m1784 -199 c3 -13 2 -23 -4
-23 -5 0 -16 -3 -25 -6 -14 -5 -16 3 -16 52 l0 59 19 -30 c10 -16 22 -40 26
-52z m-1415 -50 c6 -32 14 -68 17 -81 5 -21 3 -22 -22 -12 -14 5 -36 10 -48
10 -32 0 -114 -41 -170 -84 -27 -21 -51 -35 -54 -32 -7 7 240 256 254 256 6 0
17 -26 23 -57z m-1047 -21 c14 -15 51 -83 81 -151 31 -68 67 -142 80 -165 34
-57 109 -128 186 -174 38 -23 69 -49 74 -63 15 -44 -11 -107 -70 -166 -39 -39
-48 -52 -32 -48 40 12 86 48 112 89 14 22 26 33 26 24 0 -26 -63 -111 -98
-131 -18 -11 -54 -20 -83 -20 -49 -2 -52 0 -102 53 -29 31 -78 86 -110 123
-32 37 -79 81 -105 98 l-47 32 51 -54 c55 -58 110 -127 140 -173 l18 -28 -45
22 c-70 36 -161 137 -207 232 -22 46 -45 106 -52 134 -23 101 -62 135 -183
156 -34 7 -64 13 -66 14 -2 2 16 30 40 64 45 65 80 90 189 136 117 49 153 48
203 -4z m2507 -47 c0 -7 2 -19 5 -27 4 -10 -8 -13 -45 -14 l-51 0 3 35 c2 26
10 39 28 48 22 11 27 10 43 -8 9 -12 17 -27 17 -34z m-1449 -84 c44 -44 39
-66 -13 -66 -81 0 -265 -108 -283 -166 -10 -31 -23 -22 -30 21 -6 34 -3 47 17
76 44 66 194 164 250 164 19 0 40 -10 59 -29z m1456 -33 c20 -22 32 -46 35
-70 2 -21 2 -38 0 -38 -2 0 -23 5 -47 11 -33 8 -53 8 -76 0 -18 -6 -34 -10
-36 -8 -1 2 1 25 6 51 16 88 64 110 118 54z m-1429 -90 c6 -6 12 -23 12 -39 0
-28 -2 -29 -45 -29 -59 0 -191 -65 -245 -121 -44 -46 -51 -36 -26 34 23 64 72
103 194 153 55 23 83 23 110 2z m-1372 -11 c36 -18 46 -37 80 -147 34 -111 73
-178 152 -262 54 -57 83 -77 168 -119 57 -28 110 -59 118 -68 30 -33 -12 -158
-74 -220 -18 -17 -28 -31 -24 -31 19 0 76 45 95 76 26 43 37 38 13 -8 -32 -62
-83 -124 -119 -144 -39 -21 -39 -21 -73 31 -4 6 -45 40 -92 76 -104 81 -229
210 -254 263 -10 21 -26 86 -35 145 -21 135 -42 170 -119 208 -45 22 -71 28
-124 28 -38 0 -68 4 -68 8 0 13 67 110 92 134 48 45 78 55 159 50 42 -3 89
-12 105 -20z m2794 -54 c40 -28 49 -45 50 -95 0 -27 -1 -48 -2 -48 -2 0 -25
11 -52 25 -53 27 -80 30 -120 15 -22 -8 -26 -7 -26 9 0 26 41 83 70 98 34 17
51 16 80 -4z m-1412 -94 l3 -46 -44 -5 c-61 -7 -171 -63 -212 -109 -39 -44
-50 -37 -40 27 8 57 39 93 116 133 74 40 105 50 144 48 28 -2 30 -5 33 -48z
m1380 -53 c15 -8 38 -25 51 -39 20 -22 22 -32 16 -69 -12 -81 -13 -81 -43 -60
-47 32 -90 45 -141 40 l-48 -5 13 46 c16 53 63 101 100 101 14 0 37 -6 52 -14z
m-2953 -25 c71 -31 85 -55 101 -174 17 -123 33 -172 74 -232 44 -64 140 -165
215 -225 121 -99 124 -191 11 -304 -100 -100 -200 -57 -309 135 -38 67 -47 77
-42 49 17 -90 95 -214 165 -263 l25 -18 -25 7 c-41 10 -101 56 -134 104 -17
25 -49 97 -70 160 -22 63 -47 131 -57 150 -42 84 -137 160 -200 160 -22 0 -21
-2 11 -21 45 -27 90 -69 90 -85 0 -26 -35 -24 -82 5 -49 31 -61 25 -32 -17 22
-31 66 -52 113 -52 49 0 49 0 91 -145 40 -139 67 -190 125 -244 94 -87 197
-105 291 -52 65 38 151 132 180 197 19 44 30 55 78 78 61 30 114 85 154 161
23 43 27 62 26 132 0 80 0 81 25 86 14 2 34 8 44 12 16 7 17 -3 17 -129 0
-151 -5 -169 -62 -222 -29 -28 -87 -64 -102 -64 -3 0 2 16 10 35 8 19 11 35 8
35 -25 0 -77 -61 -119 -140 -28 -53 -63 -104 -84 -121 -112 -92 -402 -193
-488 -170 -85 23 -158 105 -203 230 -17 46 -37 95 -45 111 -20 38 -76 85 -138
114 -76 37 -80 47 -78 205 1 75 4 152 8 171 16 91 72 175 153 230 54 37 95 78
86 88 -3 2 -14 -1 -25 -8 -31 -16 -26 5 7 28 15 10 34 22 42 25 26 11 93 1
145 -22z m1575 -56 c0 -18 3 -40 6 -49 5 -12 0 -16 -22 -16 -67 0 -170 -77
-204 -152 l-17 -40 -12 33 c-20 58 -14 124 15 158 33 40 104 82 163 97 59 15
71 9 71 -31z m1330 -100 c16 -8 40 -31 54 -51 23 -35 24 -38 9 -80 l-15 -44
-31 24 c-54 40 -94 56 -142 56 -43 0 -46 1 -40 23 24 78 94 109 165 72z
m-1320 -53 c0 -15 3 -37 6 -49 6 -20 3 -23 -23 -23 -51 0 -124 -56 -186 -140
-18 -25 -18 -24 -11 35 8 82 36 136 89 174 80 57 125 58 125 3z m1262 -94 c21
-12 48 -37 60 -56 20 -33 20 -34 2 -75 -10 -23 -19 -43 -20 -45 -1 -2 -23 13
-48 32 -49 37 -96 51 -146 44 -17 -3 -30 -4 -30 -2 0 15 34 74 52 90 43 40 75
43 130 12z m-1244 -33 c2 -1 6 -19 9 -39 5 -33 4 -36 -20 -36 -30 0 -134 -76
-162 -118 -22 -35 -35 -33 -35 6 1 100 152 235 208 187z m1194 -121 c21 -13
45 -35 53 -48 14 -22 15 -28 1 -60 -17 -41 -26 -44 -51 -16 -33 37 -82 60
-140 68 l-57 7 23 29 c28 35 76 57 109 50 14 -3 42 -16 62 -30z m-1142 -34
c19 -38 19 -40 2 -40 -40 0 -154 -91 -192 -153 -20 -33 -28 -26 -36 35 -5 39
-2 49 28 88 46 61 113 110 149 110 23 0 32 -7 49 -40z m1066 -76 c22 -14 50
-41 62 -59 23 -33 23 -33 4 -64 l-19 -31 -24 26 c-40 43 -98 68 -161 68 l-56
1 21 30 c30 45 47 55 92 55 27 0 54 -9 81 -26z"/>
<path d="M3581 3733 c-53 -28 -76 -66 -76 -126 0 -67 29 -109 90 -133 55 -21
107 -9 149 32 111 112 -24 300 -163 227z m64 -57 c27 -19 13 -46 -25 -46 -34
0 -49 22 -30 45 15 19 31 19 55 1z m-30 -112 c0 -10 -8 -20 -18 -22 -22 -4
-35 27 -16 39 20 12 34 5 34 -17z m16 -40 c33 -4 54 0 81 14 37 19 37 19 27 0
-15 -29 -75 -51 -117 -43 -35 6 -82 44 -82 66 0 7 10 3 23 -9 13 -13 42 -24
68 -28z"/>
<path d="M1954 3477 c-31 -28 -37 -42 -41 -84 -7 -70 20 -115 83 -139 37 -14
51 -15 82 -6 55 17 93 61 99 115 10 85 -49 147 -140 147 -40 0 -53 -5 -83 -33z
m110 -34 c6 -16 -16 -43 -34 -43 -18 0 -43 29 -37 44 9 22 63 22 71 -1z m-43
-117 c-16 -19 -41 -10 -41 14 0 24 21 31 39 14 11 -10 12 -16 2 -28z m32 -24
c29 2 61 8 72 12 15 6 13 1 -8 -18 -39 -36 -103 -36 -146 0 -40 33 -40 52 -1
24 25 -17 41 -21 83 -18z"/>
<path d="M3215 2774 c-84 -71 -277 -154 -360 -154 -23 0 -26 -2 -15 -15 24
-29 83 -37 158 -21 91 19 158 54 209 109 34 37 63 100 51 112 -1 2 -21 -12
-43 -31z"/>
<path d="M2670 1883 c216 -296 281 -420 364 -696 20 -65 44 -159 54 -209 21
-100 32 -97 32 9 0 131 -94 436 -184 596 -70 125 -193 274 -250 304 -30 15
-30 15 -16 -4z"/>
<path d="M3692 468 c-59 -102 -167 -231 -293 -351 l-124 -117 56 0 56 0 71 74
c155 163 283 369 270 433 -2 12 -14 0 -36 -39z"/>
<path d="M2833 375 c-44 -19 -66 -57 -65 -111 0 -41 -1 -44 -21 -38 -12 3 -32
12 -44 20 -35 22 -27 0 12 -35 33 -28 42 -31 105 -31 62 0 73 3 101 28 24 21
32 38 36 74 5 42 3 50 -25 78 -34 33 -51 36 -99 15z"/>
<path d="M1576 263 c9 -55 47 -115 121 -194 l65 -69 66 0 66 0 -60 51 c-32 29
-102 96 -155 150 -52 55 -98 99 -102 99 -5 0 -5 -17 -1 -37z"/>
<path d="M2910 10 c-11 -7 4 -10 50 -10 46 0 61 3 50 10 -19 13 -81 13 -100 0z"/>
</g>
</svg>
