<?xml version="1.0" standalone="no"?>
<!DOCTYPE svg PUBLIC "-//W3C//DTD SVG 20010904//EN"
 "http://www.w3.org/TR/2001/REC-SVG-20010904/DTD/svg10.dtd">
<svg version="1.0" xmlns="http://www.w3.org/2000/svg"
 width="1056.000000pt" height="672.000000pt" viewBox="0 0 1056.000000 672.000000"
 preserveAspectRatio="xMidYMid meet">
<metadata>
Created by potrace 1.15, written by Peter Selinger 2001-2017
</metadata>
<g transform="translate(0.000000,672.000000) scale(0.100000,-0.100000)"
fill="#000000" stroke="none">
<path d="M712 6338 c-49 -135 -72 -217 -66 -233 9 -21 41 -19 54 5 10 19 77
70 92 70 4 0 8 -19 10 -42 3 -46 25 -61 54 -37 14 12 14 14 -1 26 -13 9 -16
20 -11 43 7 39 -8 70 -35 70 -12 0 -39 -14 -60 -31 -21 -17 -39 -27 -39 -23 0
3 16 51 36 106 28 79 33 102 23 114 -6 8 -15 14 -19 14 -5 0 -22 -37 -38 -82z"/>
<path d="M511 6399 c-67 -9 -88 -19 -76 -39 5 -8 22 -10 52 -6 34 4 44 3 41
-7 -37 -100 -89 -271 -86 -284 6 -34 30 -18 49 32 11 28 36 99 57 159 l37 108
42 -5 c47 -5 69 4 60 26 -10 26 -63 31 -176 16z"/>
<path d="M968 6264 c-57 -30 -88 -143 -50 -177 39 -35 135 -5 119 38 -7 16 -9
16 -32 1 -31 -20 -51 -20 -59 0 -9 24 2 34 35 34 42 0 64 14 79 51 13 29 12
33 -9 50 -28 23 -47 23 -83 3z"/>
<path d="M8802 6018 c-5 -7 -22 -40 -38 -73 -16 -33 -35 -67 -43 -76 -37 -46
-166 -169 -177 -169 -4 0 -30 -19 -58 -43 -47 -40 -102 -71 -169 -96 l-28 -11
31 45 c27 39 32 57 37 129 7 97 -2 156 -22 156 -8 0 -15 -6 -15 -13 0 -7 -9
-18 -20 -25 -11 -7 -20 -18 -20 -25 0 -16 -62 -77 -77 -77 -7 0 -16 -6 -20
-13 -4 -6 -28 -26 -53 -42 -25 -16 -47 -32 -50 -35 -13 -13 -158 -80 -185 -86
l-30 -5 0 121 c0 69 -4 124 -10 128 -5 4 -15 16 -21 26 -18 34 -31 28 -37 -19
-10 -73 -52 -124 -117 -146 -19 -6 -40 -15 -46 -20 -5 -4 -48 -11 -95 -15 -46
-4 -88 -10 -94 -14 -5 -4 -37 -11 -69 -15 -61 -7 -125 -34 -164 -68 l-22 -21
-17 42 c-9 23 -20 42 -25 42 -4 0 -8 6 -8 13 0 32 -128 117 -176 117 -13 0
-24 -2 -24 -3 0 -2 18 -23 40 -46 49 -51 55 -100 16 -136 -42 -39 -147 -83
-216 -90 -36 -4 -69 -11 -75 -15 -5 -4 -31 -11 -57 -14 -26 -4 -50 -11 -53
-17 -4 -5 -15 -9 -26 -9 -11 0 -42 -21 -69 -46 l-49 -46 -28 20 c-16 11 -45
23 -66 27 -20 4 -40 11 -43 16 -9 15 -161 11 -167 -4 -3 -8 2 -13 12 -13 52
-1 70 -7 99 -35 38 -37 43 -89 12 -129 -11 -14 -20 -28 -20 -33 0 -4 -13 -22
-29 -40 -89 -96 -159 -186 -171 -217 -7 -19 -18 -41 -23 -48 -5 -6 -10 -41
-10 -76 -1 -76 32 -151 70 -161 12 -3 29 -18 37 -34 8 -15 26 -39 40 -52 14
-13 26 -29 26 -35 0 -6 7 -17 15 -24 23 -19 19 -73 -8 -98 -26 -25 -48 -27
-80 -9 -31 17 -67 49 -67 59 0 13 -42 68 -52 68 -15 0 -9 -176 7 -206 8 -16
15 -36 15 -45 0 -9 7 -22 15 -29 8 -7 15 -18 15 -24 0 -22 46 -57 84 -63 20
-3 39 -9 42 -14 2 -5 -8 -28 -22 -51 -24 -38 -28 -53 -28 -129 -1 -73 2 -90
19 -109 24 -27 75 -50 110 -50 31 0 45 28 22 42 -30 16 -22 75 14 108 40 36
73 43 95 19 13 -14 17 -42 19 -121 2 -100 3 -106 44 -183 23 -44 55 -97 71
-117 17 -20 30 -40 30 -43 0 -9 102 -139 112 -143 5 -2 8 -8 8 -14 0 -6 18
-32 40 -58 22 -26 40 -53 40 -58 0 -6 6 -15 13 -19 17 -11 67 -86 67 -101 0
-7 4 -20 10 -30 19 -34 50 -111 50 -124 0 -7 7 -26 15 -42 8 -16 18 -46 21
-68 4 -21 11 -41 15 -44 5 -3 9 -22 9 -43 0 -28 -5 -40 -17 -44 -10 -3 -31
-14 -48 -24 -33 -20 -285 -265 -285 -277 0 -4 -21 -33 -48 -64 -60 -72 -80
-108 -88 -163 -4 -24 -11 -50 -17 -57 -7 -9 -7 -16 1 -24 7 -7 12 -25 12 -41
0 -32 19 -117 30 -132 4 -5 11 -28 15 -50 4 -22 10 -44 15 -50 5 -5 13 -39 20
-75 10 -58 68 -254 90 -305 5 -11 12 -36 16 -55 3 -19 10 -39 14 -45 4 -5 13
-39 20 -75 7 -36 16 -69 21 -75 4 -5 10 -28 14 -50 4 -22 11 -44 15 -50 4 -5
13 -35 20 -65 7 -30 16 -62 20 -70 4 -9 11 -36 15 -60 4 -25 11 -49 15 -55 4
-5 13 -37 20 -70 7 -33 17 -64 22 -70 4 -5 8 -15 8 -23 0 -8 6 -28 14 -45 8
-18 18 -45 23 -61 11 -36 30 -45 40 -19 4 10 21 32 37 50 17 17 48 53 68 80
20 27 56 62 79 79 37 25 51 29 109 29 62 0 72 -3 122 -37 30 -21 58 -38 62
-38 7 0 67 -40 76 -51 18 -21 154 -36 219 -23 29 6 30 8 14 19 -10 6 -34 15
-53 19 -19 3 -48 13 -65 20 -16 8 -37 17 -45 21 -24 9 -49 26 -155 99 l-99 70
-71 0 c-54 1 -81 -4 -118 -23 -55 -27 -157 -116 -157 -137 0 -8 -4 -14 -10
-14 -5 0 -10 -7 -10 -16 0 -9 -6 -14 -12 -12 -31 11 -14 122 27 176 38 51 105
117 135 133 19 11 42 23 50 28 41 22 61 31 72 31 6 0 57 -44 113 -97 56 -54
119 -109 141 -122 69 -43 144 -79 177 -86 18 -4 37 -11 43 -16 6 -5 44 -14 85
-20 41 -6 82 -15 91 -20 23 -12 55 -11 63 1 16 26 55 -16 55 -60 0 -9 7 -25
15 -36 8 -10 15 -25 15 -32 0 -14 48 -118 65 -141 5 -7 33 -39 61 -69 49 -53
54 -55 78 -44 l26 12 -26 46 c-24 43 -25 53 -22 152 3 101 5 111 42 185 21 42
42 77 46 77 4 0 13 13 20 30 7 16 32 48 56 70 42 39 46 40 111 40 41 0 78 -6
93 -15 14 -8 32 -17 40 -21 25 -11 90 -77 90 -91 0 -7 5 -13 10 -13 18 0 10
-33 -16 -68 l-27 -34 -32 36 c-17 20 -36 36 -40 36 -5 0 -17 7 -26 16 -25 23
-147 31 -191 13 -59 -24 -98 -72 -105 -128 -5 -43 -3 -51 10 -51 9 0 24 16 33
35 9 19 30 47 47 61 28 24 37 26 91 21 55 -5 62 -9 112 -58 30 -29 54 -57 54
-62 0 -13 53 -67 66 -67 14 0 84 83 84 99 0 6 3 11 8 11 8 0 68 87 90 130 6
14 32 61 57 105 25 44 48 88 51 98 4 9 10 17 15 17 5 0 9 7 9 16 0 9 15 49 34
88 18 39 46 103 61 141 15 39 34 84 41 102 8 17 14 40 14 51 0 11 10 33 23 49
41 51 56 106 50 187 -3 41 -2 83 2 93 4 10 6 44 5 76 -1 32 4 64 10 72 11 14
9 133 -4 235 -4 25 -11 89 -17 143 -6 53 -15 99 -19 102 -5 3 -11 23 -15 45
-4 22 -10 42 -15 45 -5 3 -11 24 -15 47 -9 48 -60 152 -129 258 -27 41 -62
100 -78 130 -16 30 -33 59 -37 65 -17 21 -24 84 -28 249 -3 110 0 173 7 180 5
5 10 32 10 59 0 40 -3 48 -16 45 -19 -3 -22 -8 -64 -98 -17 -36 -38 -76 -46
-90 -21 -34 -14 -401 7 -427 19 -22 21 -692 2 -714 -6 -8 -14 -56 -18 -107 -4
-50 -12 -92 -16 -92 -5 0 -7 -11 -3 -25 3 -14 2 -31 -4 -38 -6 -7 -14 -36 -18
-65 -3 -28 -10 -52 -14 -52 -4 0 -10 -22 -14 -50 -4 -27 -11 -50 -17 -50 -5 0
-9 -6 -8 -13 1 -6 -3 -25 -9 -40 -7 -16 -12 -35 -12 -43 0 -8 -4 -14 -10 -14
-5 0 -10 -7 -10 -16 0 -20 -14 -52 -104 -234 -73 -149 -79 -159 -118 -211 -16
-20 -28 -40 -28 -43 0 -10 -82 -120 -92 -124 -4 -2 -8 -8 -8 -14 0 -6 -11 -26
-25 -44 -14 -18 -25 -37 -25 -42 0 -6 -3 -12 -7 -14 -14 -6 -63 -84 -63 -99 0
-8 -5 -20 -11 -26 -6 -6 -14 -43 -17 -82 -3 -45 -9 -71 -16 -71 -15 0 -45 66
-53 115 -3 19 -10 38 -14 41 -5 3 -9 23 -9 45 l0 39 -67 0 c-75 0 -191 17
-208 29 -5 5 -23 11 -40 15 -41 10 -195 86 -195 97 0 5 -6 9 -14 9 -19 0 -196
176 -196 194 0 8 -3 16 -7 18 -12 5 -63 116 -63 136 0 10 -4 22 -10 28 -5 5
-13 39 -16 74 -4 36 -11 71 -17 78 -7 8 -14 145 -18 354 -5 187 -12 345 -18
352 -5 6 -12 52 -16 101 -4 50 -10 95 -15 100 -4 6 -13 50 -19 100 -7 49 -16
94 -21 100 -4 5 -11 33 -15 60 -4 28 -11 55 -15 60 -7 10 -30 118 -30 139 0
13 60 -96 80 -145 8 -19 23 -50 35 -69 12 -19 27 -51 34 -70 8 -19 24 -57 37
-85 13 -27 29 -69 35 -92 14 -50 34 -58 26 -11 -12 69 -39 184 -47 203 -5 11
-12 31 -15 45 -4 14 -13 41 -22 60 -9 19 -21 49 -28 65 -7 17 -25 59 -40 95
-36 88 -90 196 -105 210 -3 3 -11 16 -18 30 -21 44 -91 144 -127 181 -8 9 -15
19 -15 24 0 4 -16 27 -35 51 -19 23 -35 45 -35 49 0 7 -62 93 -85 116 -8 9
-15 19 -15 24 0 4 -16 27 -35 51 -19 23 -35 47 -35 52 0 5 -8 20 -18 33 -16
20 -40 65 -72 129 -4 9 -11 34 -14 57 l-7 40 130 5 c71 3 136 9 143 15 7 6 33
14 58 17 49 8 67 15 180 70 41 20 79 36 84 36 9 0 78 30 130 57 57 31 393 25
431 -7 6 -5 39 -12 75 -16 36 -3 71 -11 78 -17 18 -14 345 -15 363 -1 8 6 28
14 44 18 29 7 110 44 150 69 11 6 40 26 65 42 66 44 170 94 210 101 19 4 40
11 47 16 16 12 242 11 258 -2 6 -5 53 -13 104 -17 57 -4 95 -11 102 -19 21
-25 13 -106 -15 -159 -38 -72 -47 -85 -83 -119 -18 -17 -33 -35 -33 -39 0 -5
-25 -37 -55 -72 -30 -34 -55 -65 -55 -69 0 -4 -11 -19 -25 -34 -14 -15 -31
-39 -38 -54 -6 -16 -15 -28 -18 -28 -9 0 -116 -219 -125 -252 -3 -16 -10 -28
-15 -28 -5 0 -9 -6 -9 -14 0 -8 -5 -27 -12 -43 -6 -15 -12 -31 -12 -35 -1 -3
-4 -10 -8 -14 -4 -4 -11 -29 -14 -56 -4 -26 -10 -48 -15 -48 -5 0 -11 -22 -15
-50 -4 -27 -11 -50 -16 -50 -5 0 -7 -9 -3 -19 3 -11 2 -22 -3 -25 -5 -3 -13
-36 -17 -73 -4 -38 -12 -74 -18 -82 -14 -16 -17 -454 -4 -467 15 -15 20 9 33
163 14 170 29 276 43 308 5 11 15 54 21 95 7 41 16 80 20 85 4 6 11 29 15 52
4 24 10 45 15 48 4 3 11 22 15 42 3 21 20 62 36 92 16 30 29 60 29 67 0 6 6
17 13 23 8 6 20 28 27 50 7 22 30 60 51 86 21 25 41 56 45 68 13 46 60 143 79
166 11 14 48 57 83 97 34 40 62 76 62 79 0 4 16 26 35 49 19 24 35 48 35 53 0
6 7 13 15 16 8 4 17 26 21 57 4 27 10 50 15 50 12 0 11 77 -1 85 -20 12 -9 49
22 77 32 29 32 29 33 127 0 76 4 103 16 117 18 21 33 55 30 67 0 4 4 17 10 28
15 29 37 8 45 -43 4 -21 11 -41 17 -45 14 -8 55 46 72 97 1 3 6 14 11 25 12
26 11 204 0 230 -5 11 -10 22 -11 25 -1 3 -7 18 -13 33 -20 47 -14 69 13 49
13 -10 50 -63 58 -84 10 -27 24 -22 41 14 17 34 21 74 7 82 -4 3 -11 31 -14
63 -8 89 -45 191 -94 260 -13 17 -23 33 -23 36 0 6 -26 38 -82 102 -21 23 -35
45 -31 48 12 13 75 7 109 -9 19 -9 37 -14 41 -11 18 18 -39 100 -93 134 -48
31 -127 65 -161 69 -21 3 -47 10 -58 14 -11 5 -31 11 -45 12 -22 3 -18 6 25
27 28 13 57 27 65 31 9 4 35 11 58 15 52 8 56 31 7 41 -19 3 -38 10 -41 15 -7
12 -181 12 -188 0 -3 -4 -30 -11 -60 -15 -30 -3 -68 -13 -85 -21 -17 -8 -45
-22 -63 -30 -39 -20 -57 -7 -40 27 16 33 25 121 17 168 -7 40 -24 51 -43 28z
m-1 -122 c-6 -8 -9 -20 -5 -29 3 -8 1 -18 -5 -22 -6 -3 -11 -13 -11 -22 0 -15
-39 -103 -51 -113 -9 -8 -40 -92 -36 -96 2 -2 16 7 31 21 15 14 30 25 33 25 3
0 20 10 37 23 28 21 52 33 158 81 20 9 45 16 55 16 10 0 23 4 29 9 5 5 36 12
69 16 56 7 59 6 40 -9 -11 -8 -25 -16 -30 -16 -19 0 -114 -105 -112 -122 4
-27 7 -27 91 -19 94 9 194 -2 247 -26 49 -23 51 -43 3 -43 -41 0 -104 -27
-104 -44 0 -10 62 -66 74 -66 9 0 90 -88 122 -132 17 -24 37 -59 44 -78 8 -19
16 -37 19 -40 17 -15 43 -82 51 -134 11 -68 8 -80 -12 -40 -7 16 -22 33 -33
39 -39 20 -65 50 -65 76 0 51 -46 140 -100 195 -30 30 -58 54 -63 54 -5 0 -25
14 -44 30 -18 17 -40 30 -48 30 -8 0 -18 6 -22 13 -9 14 -115 67 -135 67 -7 0
-22 7 -32 15 -11 8 -32 15 -46 15 -14 0 -30 4 -36 10 -14 14 -115 24 -171 16
-46 -7 -54 -13 -231 -194 -165 -168 -184 -185 -195 -169 -26 41 -34 46 -72 52
l-40 7 40 -35 39 -35 -18 -33 c-29 -54 -128 -123 -214 -149 -20 -6 -46 -15
-57 -20 -55 -23 -56 -22 -35 18 31 58 27 99 -16 138 -24 23 -45 34 -65 34 -37
0 -38 -17 -1 -26 15 -4 33 -11 40 -17 14 -11 16 -57 2 -57 -5 0 -10 -7 -10
-15 0 -9 -11 -20 -25 -25 -14 -5 -25 -14 -25 -19 0 -5 -15 -13 -32 -16 -18 -4
-37 -11 -43 -15 -5 -4 -26 -11 -45 -15 -19 -3 -49 -13 -67 -21 -47 -21 -200
-29 -275 -14 -84 17 -92 25 -67 59 23 31 18 81 -11 99 -17 10 -18 8 -13 -21 4
-28 1 -35 -21 -45 -32 -15 -142 -16 -151 -2 -3 6 -13 10 -22 10 -16 0 -60 18
-178 76 -38 19 -74 34 -79 34 -5 0 -30 10 -55 21 -25 12 -56 27 -69 32 -40 19
-152 11 -197 -12 -40 -22 -205 -178 -205 -195 0 -5 -14 -23 -30 -40 -54 -55
-108 -131 -116 -162 -4 -16 -10 -33 -14 -39 -5 -5 -11 -31 -15 -57 -8 -51 -18
-58 -47 -31 -38 34 -7 165 51 217 11 11 21 23 21 28 0 6 25 38 55 71 30 34 55
67 55 73 0 6 10 24 22 40 18 22 23 41 23 93 0 36 -4 74 -9 84 -18 37 33 16 83
-35 50 -51 51 -51 71 -33 11 10 20 23 20 30 0 13 43 54 76 72 12 6 50 15 85
19 35 3 69 10 74 14 6 4 32 10 59 14 27 3 62 12 77 20 16 8 43 18 61 21 18 4
52 28 80 57 50 49 50 49 46 108 l-3 59 28 -26 c15 -15 27 -35 27 -44 0 -10 5
-21 10 -24 6 -3 10 -26 10 -50 0 -24 -4 -47 -10 -50 -13 -8 -13 -52 0 -60 6
-4 27 8 48 25 66 56 140 99 189 111 26 6 57 14 68 19 11 5 65 11 121 14 95 5
162 24 173 49 2 5 14 12 27 17 13 5 24 16 24 25 0 8 4 15 10 15 5 0 15 19 21
43 7 23 19 51 27 62 12 18 13 9 9 -73 -4 -71 -10 -99 -26 -121 -12 -16 -21
-33 -21 -38 -1 -4 -14 -19 -30 -33 -51 -41 -40 -53 40 -48 38 3 75 10 82 15 7
6 27 14 44 17 56 12 197 93 217 124 4 6 14 12 21 12 16 0 55 44 142 160 l26
35 -6 -72 c-6 -66 -34 -141 -58 -151 -4 -2 -8 -9 -8 -15 0 -14 -71 -87 -84
-87 -13 0 -105 -35 -173 -66 -48 -22 -70 -40 -61 -49 5 -5 100 14 119 25 9 4
38 12 64 16 26 3 60 13 74 20 14 8 35 14 46 14 27 0 180 75 226 112 20 15 41
28 46 28 4 0 50 42 100 93 98 99 163 186 178 240 6 20 8 20 12 -1 3 -13 0 -29
-6 -36z m114 -395 c28 -10 63 -23 78 -29 16 -7 35 -12 43 -12 8 0 14 -4 14 -9
0 -4 30 -24 66 -42 36 -19 70 -40 76 -46 6 -7 14 -13 19 -13 17 0 119 -113
125 -138 4 -15 11 -32 16 -39 11 -14 -18 -107 -38 -124 -8 -6 -14 -15 -14 -20
0 -4 -19 -27 -42 -51 -24 -24 -49 -54 -57 -68 -32 -55 -41 -76 -41 -92 0 -10
-3 -18 -8 -18 -9 0 -7 -98 2 -107 3 -4 6 -18 6 -32 0 -14 6 -38 14 -53 8 -15
20 -52 27 -83 7 -31 16 -58 21 -61 4 -3 8 -26 8 -51 0 -38 -5 -50 -35 -80
l-35 -35 -68 7 c-37 4 -72 11 -78 16 -7 5 -40 15 -75 21 -35 6 -68 14 -74 18
-5 4 -26 11 -45 15 -19 4 -39 11 -45 15 -5 4 -39 13 -75 20 -36 7 -70 17 -76
21 -6 5 -37 11 -70 15 -32 4 -64 11 -70 16 -33 25 -556 25 -588 -1 -6 -4 -31
-11 -56 -15 -44 -7 -155 -43 -175 -56 -5 -4 -21 -11 -35 -15 -40 -11 -113 -47
-145 -71 -17 -12 -41 -28 -55 -34 -14 -6 -43 -22 -65 -35 -22 -14 -53 -31 -70
-39 -16 -8 -41 -23 -55 -33 -34 -26 -239 -125 -325 -158 -38 -14 -79 -30 -90
-35 -11 -5 -40 -12 -65 -16 -25 -3 -50 -10 -57 -16 -6 -5 -49 -10 -95 -11 -93
-1 -148 19 -188 70 -32 40 -23 118 21 198 29 52 33 70 34 130 0 81 -12 104
-88 156 -85 60 -117 91 -137 132 -21 43 -26 96 -11 125 5 9 16 33 25 52 23 49
35 67 89 132 26 31 47 60 47 63 0 4 33 41 74 82 57 57 83 75 111 80 19 3 38
10 41 14 3 5 13 5 22 0 9 -4 34 -12 56 -15 21 -4 46 -11 55 -16 9 -5 39 -18
66 -30 28 -12 64 -27 80 -35 17 -7 47 -19 68 -25 22 -7 51 -18 65 -26 15 -8
34 -14 43 -14 8 0 19 -4 25 -9 5 -5 38 -19 74 -31 36 -12 83 -30 105 -40 22
-10 66 -21 98 -25 31 -4 60 -11 63 -16 7 -12 239 -12 262 0 9 5 53 14 97 21
44 6 84 16 90 21 5 5 16 9 25 9 8 1 33 9 55 20 22 11 47 19 56 20 8 0 24 7 35
15 10 8 25 15 33 15 20 0 105 43 114 57 4 7 13 13 18 13 6 0 25 11 43 25 18
14 38 25 45 25 7 0 99 86 204 190 105 105 197 190 204 190 7 0 13 5 13 10 0
17 121 11 175 -9z m495 -574 c6 -23 17 -48 23 -55 6 -7 12 -61 15 -120 l4
-107 -21 27 c-11 14 -21 31 -21 37 0 6 -10 16 -22 21 -13 6 -30 15 -39 22 -9
6 -23 9 -32 5 -12 -4 -14 -18 -10 -69 5 -55 3 -65 -16 -82 -20 -18 -21 -18
-27 0 -3 11 -11 30 -17 43 -14 28 -14 170 -1 180 5 3 35 38 67 78 34 41 64 70
71 67 7 -3 19 -24 26 -47z m-3078 -497 c7 -11 18 -20 25 -20 7 0 20 -11 29
-25 17 -26 15 -93 -4 -132 -42 -84 -46 -101 -48 -167 -2 -66 -4 -72 -30 -86
-54 -30 -103 -92 -105 -132 -1 -17 -3 -14 -11 12 -16 54 -3 125 32 176 16 25
30 48 30 52 0 4 9 18 20 32 21 26 28 110 10 110 -5 0 -10 -4 -10 -9 0 -5 -14
-23 -32 -40 -25 -24 -40 -31 -73 -31 -60 0 -94 43 -115 145 -11 54 -8 86 4 48
8 -23 73 -53 115 -53 62 0 121 52 121 108 0 36 23 43 42 12z m2012 -38 c3 -5
45 -12 93 -16 48 -3 90 -10 93 -15 3 -5 29 -12 58 -16 59 -8 70 -29 20 -39
-41 -8 -173 -74 -187 -93 -3 -5 -17 -14 -31 -21 -14 -7 -39 -21 -57 -31 -17
-11 -51 -25 -75 -31 -24 -7 -54 -17 -67 -24 -31 -14 -373 -14 -392 0 -8 6 -47
16 -86 23 -40 7 -75 16 -78 21 -3 4 -34 11 -70 15 -36 3 -65 10 -65 15 0 8
142 81 225 115 22 9 47 20 55 24 9 5 43 14 75 21 33 6 68 16 77 21 10 5 56 12
103 15 47 4 88 11 91 16 3 4 52 8 109 8 57 0 106 -4 109 -8z m-1374 -1791 c0
-11 4 -22 9 -25 5 -3 12 -34 16 -68 4 -34 12 -70 18 -80 16 -25 6 -29 -38 -17
-52 15 -102 7 -167 -26 -85 -43 -100 -52 -151 -96 -27 -23 -51 -39 -54 -35 -3
3 17 31 45 63 67 78 299 303 312 303 5 0 10 -9 10 -19z m-7 -243 c12 -7 30
-20 40 -27 22 -18 52 -79 44 -88 -4 -3 -33 -7 -64 -8 -32 0 -67 -6 -78 -12
-11 -6 -60 -30 -110 -54 -88 -42 -177 -116 -217 -179 l-16 -25 -11 40 c-18 64
-14 91 19 128 17 19 30 40 30 45 0 6 10 17 23 23 12 7 44 30 70 52 47 39 84
62 137 87 14 7 32 16 40 20 23 13 67 12 93 -2z m2081 -82 c39 -38 44 -49 47
-95 l4 -52 -40 7 c-22 3 -44 10 -49 15 -13 11 -59 12 -71 0 -31 -28 -90 -17
-67 12 5 7 12 34 15 60 6 61 37 97 84 97 26 0 43 -9 77 -44z m-2001 -124 c10
-9 17 -29 17 -54 l0 -38 -63 0 c-55 0 -74 -6 -168 -53 -118 -60 -124 -63 -187
-127 l-44 -45 7 50 c14 103 70 166 204 232 128 63 191 73 234 35z m1986 -89
c62 -46 71 -61 71 -135 0 -62 -9 -84 -24 -59 -4 5 -27 20 -54 33 -49 24 -121
30 -174 15 -25 -7 -28 -5 -28 18 0 14 5 25 10 25 6 0 10 7 10 15 0 22 70 95
91 95 11 0 19 5 19 10 0 19 43 10 79 -17z m-1980 -77 c7 -8 11 -37 9 -68 l-3
-53 -58 -6 c-53 -6 -86 -17 -157 -55 -14 -7 -39 -20 -57 -29 -18 -9 -53 -39
-78 -66 -25 -27 -51 -46 -57 -43 -14 9 -3 112 16 148 15 30 49 64 81 83 45 26
181 92 200 96 43 10 93 6 104 -7z m1928 -123 c20 -10 54 -36 76 -57 l39 -39
-7 -61 c-4 -34 -13 -71 -19 -84 l-12 -23 -37 26 c-21 14 -42 25 -48 25 -5 0
-21 7 -35 16 -19 13 -42 16 -107 12 -45 -3 -76 -3 -70 -1 7 3 15 27 19 53 5
36 16 60 41 90 19 22 41 40 49 40 8 0 14 5 14 10 0 16 56 12 97 -7z m-1921
-77 c1 0 4 -31 6 -67 l5 -66 -51 -6 c-29 -3 -73 -18 -101 -33 -70 -40 -151
-126 -166 -180 -8 -24 -16 -44 -20 -44 -13 0 -39 99 -39 148 0 27 7 62 15 78
16 33 62 80 97 100 106 59 190 87 233 77 11 -3 21 -6 21 -7z m1858 -180 c45
-19 109 -99 108 -135 0 -15 -9 -46 -18 -69 -17 -39 -19 -40 -36 -25 -20 18
-33 26 -108 66 -41 21 -65 27 -116 27 -58 0 -79 9 -55 24 4 3 11 19 14 35 7
34 43 76 72 84 40 10 106 7 139 -7z m-1870 -26 c23 -8 26 -15 26 -60 0 -27 5
-50 10 -50 6 0 10 -9 10 -20 0 -16 -7 -20 -35 -20 -31 0 -65 -14 -136 -56 -22
-13 -99 -89 -99 -98 0 -14 -44 -65 -52 -60 -11 7 -10 61 1 68 4 3 11 29 13 58
3 29 11 54 17 56 6 2 11 10 11 17 0 20 40 85 52 85 5 0 28 15 51 34 23 18 56
38 72 44 17 6 31 11 32 11 1 1 13 -3 27 -9z m1774 -171 c50 -25 112 -82 112
-104 0 -8 5 -15 10 -15 16 0 12 -27 -10 -67 -11 -21 -20 -46 -20 -55 0 -25
-23 -22 -50 7 -13 14 -29 25 -37 25 -7 0 -13 4 -13 10 0 22 -76 45 -147 45
-40 0 -73 2 -73 5 1 48 77 150 111 150 10 0 21 5 24 10 10 16 45 12 93 -11z
m-1720 -54 c1 -1 5 -25 9 -54 6 -50 5 -51 -21 -51 -38 0 -130 -62 -198 -133
-32 -33 -58 -65 -58 -69 0 -5 -4 -6 -10 -3 -18 11 -10 89 14 140 25 55 142
171 179 178 20 4 78 -1 85 -8z m1650 -157 c50 -29 92 -68 103 -96 11 -29 -4
-94 -27 -112 -12 -11 -21 -7 -52 23 -21 21 -41 37 -46 37 -4 0 -19 9 -33 20
-14 11 -35 20 -47 20 -12 0 -26 4 -31 9 -6 6 -35 11 -65 13 l-55 3 51 52 c69
69 121 77 202 31z m-1577 -65 c25 -50 26 -53 8 -53 -17 0 -54 -17 -121 -56
-20 -12 -37 -27 -81 -71 -58 -58 -75 -79 -82 -100 -12 -42 -33 -14 -41 54 -6
57 -4 68 15 93 11 16 21 33 21 37 0 10 102 113 113 113 5 0 21 9 35 20 19 15
37 20 66 18 38 -3 43 -6 67 -55z m1462 -87 c36 -15 133 -109 142 -137 4 -11
-3 -32 -17 -51 -13 -18 -24 -35 -26 -37 -1 -3 -21 13 -45 36 -66 63 -128 88
-219 88 -70 -1 -76 1 -63 16 8 8 15 19 15 23 0 13 41 61 58 68 30 12 122 8
155 -6z"/>
<path d="M8858 5232 c-84 -40 -124 -111 -115 -205 3 -32 12 -66 20 -75 7 -9
16 -24 19 -32 5 -13 24 -24 120 -71 23 -11 54 -11 76 0 9 5 30 15 46 22 52 24
66 34 66 43 0 5 7 17 16 27 18 20 45 127 34 134 -4 3 -11 21 -15 41 -8 45 -81
119 -126 128 -53 10 -102 6 -141 -12z"/>
<path d="M6575 4869 c-25 -23 -45 -50 -45 -60 0 -10 -4 -21 -10 -24 -5 -3 -10
-28 -10 -55 0 -95 66 -172 161 -185 67 -10 118 8 168 58 39 41 43 50 48 107 5
53 3 69 -17 105 -13 24 -41 54 -64 69 -34 22 -51 26 -113 26 -72 0 -74 -1
-118 -41z"/>
<path d="M1135 5988 c-51 -19 -173 -117 -219 -177 -118 -155 -186 -276 -237
-421 -19 -55 -23 -87 -23 -200 -1 -126 1 -139 24 -185 20 -38 40 -58 80 -83
75 -46 128 -42 248 19 180 91 235 142 216 197 -14 39 -43 38 -103 -3 -66 -46
-204 -105 -249 -108 -55 -3 -76 34 -80 143 -8 191 70 370 256 589 49 57 124
111 154 111 38 0 17 -110 -39 -203 -29 -48 -33 -60 -22 -73 20 -25 68 -46 89
-39 47 15 114 153 126 257 13 126 -102 218 -221 176z"/>
<path d="M3837 5918 c-46 -58 -229 -368 -260 -443 -40 -95 -94 -221 -105 -241
-54 -107 -84 -183 -78 -202 10 -29 72 -76 91 -68 9 3 29 34 45 68 48 105 130
305 130 317 0 18 136 284 159 311 l21 25 -5 -25 c-18 -88 -45 -269 -45 -307 0
-58 18 -118 41 -139 10 -9 34 -16 55 -17 33 -1 43 6 98 64 34 35 76 93 95 129
38 73 194 340 197 337 2 -1 -10 -54 -26 -117 -39 -163 -60 -320 -60 -455 0
-131 11 -170 58 -204 40 -28 58 -27 87 7 35 39 40 60 19 83 -33 37 -28 305 11
504 7 39 18 99 23 135 6 36 16 91 23 122 12 54 12 60 -7 85 -26 35 -92 43
-131 18 -25 -17 -205 -286 -257 -385 -46 -87 -87 -143 -97 -133 -6 6 0 78 16
187 16 109 25 209 23 259 -3 80 -4 82 -37 104 -19 13 -37 23 -42 23 -4 0 -23
-19 -42 -42z"/>
<path d="M2855 5931 c-71 -43 -140 -134 -208 -271 -167 -337 -221 -687 -122
-780 20 -19 26 -20 47 -9 12 6 26 17 30 22 4 6 4 56 1 111 -5 106 16 247 50
329 l16 37 68 0 c78 1 143 13 153 30 11 17 1 46 -21 66 -16 14 -31 16 -90 11
l-71 -6 6 30 c12 59 83 195 141 267 85 106 105 99 75 -27 -11 -45 -20 -86 -20
-92 0 -20 53 -8 79 19 31 30 71 127 71 170 0 84 -127 141 -205 93z"/>
<path d="M3182 5551 c-45 -21 -120 -71 -160 -106 -37 -32 -64 -94 -65 -149 -1
-46 2 -52 42 -88 24 -21 61 -43 82 -50 56 -16 66 -33 35 -53 -24 -16 -77 -17
-151 -4 -17 3 -21 -2 -23 -32 -3 -30 2 -41 28 -63 28 -23 40 -26 104 -26 81 0
146 26 178 70 17 23 17 29 4 73 -21 71 -40 94 -105 127 -33 16 -63 34 -66 40
-4 6 0 26 9 45 28 58 112 115 171 115 21 0 25 -5 25 -30 0 -17 9 -39 21 -51
20 -20 21 -20 41 -2 56 50 61 109 16 159 -28 30 -41 36 -88 40 -42 4 -65 0
-98 -15z"/>
<path d="M1456 5538 c-44 -67 -136 -370 -136 -447 0 -30 45 -81 71 -81 27 0
49 34 68 105 15 54 28 77 67 117 59 59 160 122 246 152 71 24 83 46 48 84 -47
50 -160 14 -268 -84 -34 -30 -62 -54 -62 -51 0 2 16 38 35 80 38 82 45 131 19
141 -34 13 -74 6 -88 -16z"/>
<path d="M2115 5544 c-42 -21 -119 -98 -170 -169 -44 -61 -135 -238 -135 -262
0 -34 58 -98 98 -109 53 -15 140 30 244 125 l55 50 18 -38 c29 -65 76 -103
133 -109 43 -4 51 -1 66 19 27 39 21 65 -21 86 -69 33 -92 125 -56 228 l16 49
-59 54 c-102 94 -132 106 -189 76z m90 -138 c15 -23 15 -27 -8 -64 -44 -68
-217 -216 -234 -199 -8 9 28 81 83 163 81 122 126 151 159 100z"/>
<path d="M4697 5529 c-107 -71 -201 -207 -229 -332 -21 -98 -17 -131 23 -154
16 -10 29 -20 29 -24 0 -4 14 -9 31 -13 45 -9 105 22 169 88 30 31 60 56 66
56 6 0 14 -12 17 -28 17 -86 96 -109 161 -48 57 54 40 117 -28 100 -32 -8 -39
14 -26 91 19 114 14 147 -30 212 -60 91 -106 104 -183 52z m94 -123 c17 -36 6
-64 -61 -157 -56 -79 -111 -126 -133 -112 -32 19 31 167 103 244 51 54 75 61
91 25z"/>
<path d="M5186 5509 c-2 -8 -10 -31 -16 -52 -6 -20 -36 -95 -66 -164 -65 -153
-68 -186 -21 -231 18 -18 39 -32 45 -32 7 0 43 31 80 68 82 83 209 174 237
170 19 -3 20 -10 20 -99 0 -108 11 -132 67 -144 25 -6 35 -2 56 19 25 25 26
27 12 63 -9 25 -14 81 -14 163 l-1 124 -35 24 c-51 34 -78 24 -205 -73 -60
-46 -111 -83 -112 -82 -1 1 14 34 32 72 38 79 43 123 18 154 -22 26 -90 40
-97 20z"/>
<path d="M5155 4339 c-64 -15 -178 -68 -266 -124 -61 -40 -139 -119 -139 -143
0 -6 -4 -12 -10 -14 -25 -8 -28 -259 -3 -277 4 -3 18 -27 30 -54 13 -26 41
-67 63 -91 22 -24 40 -47 40 -52 1 -5 14 -20 30 -34 17 -13 30 -29 30 -36 0
-6 7 -17 16 -25 20 -17 64 -103 64 -127 0 -10 6 -24 12 -30 9 -9 14 -62 16
-170 2 -101 8 -162 15 -171 16 -19 15 -194 -1 -214 -18 -21 -27 -193 -13 -242
l11 -40 -64 -65 c-54 -56 -77 -90 -126 -190 -4 -8 -26 -25 -50 -38 -117 -62
-192 -161 -286 -377 -25 -57 -52 -91 -98 -122 -96 -66 -187 -205 -201 -308 -4
-27 -12 -55 -17 -62 -6 -7 -11 -109 -11 -237 -2 -200 0 -226 16 -243 9 -11 17
-25 17 -31 0 -7 5 -12 12 -12 6 0 21 -8 32 -19 12 -10 53 -35 93 -56 79 -40
124 -84 144 -139 7 -20 17 -36 21 -36 4 0 8 -10 8 -22 0 -23 39 -127 68 -183
47 -91 122 -185 167 -212 97 -56 120 -63 219 -63 52 0 97 4 100 9 4 5 30 12
59 16 28 4 57 11 62 15 6 4 30 13 55 19 57 15 61 16 210 90 150 73 230 126
248 164 7 15 17 27 22 27 5 0 12 15 15 32 15 66 37 108 57 108 18 0 91 28 133
52 11 6 29 16 40 22 31 17 125 109 125 122 0 6 7 17 15 24 7 6 17 32 21 56 3
24 10 47 15 50 12 7 11 153 -2 312 l-12 133 32 39 c17 21 31 42 31 46 0 4 6
15 13 23 7 9 19 36 26 61 7 25 17 53 22 62 24 47 -13 187 -61 233 -21 20 -30
38 -30 60 0 29 30 126 50 163 5 9 21 46 37 82 15 36 31 70 35 75 4 6 25 33 46
60 21 28 41 58 45 68 3 9 12 17 20 17 7 0 24 12 38 26 13 15 49 42 79 62 119
75 170 146 170 237 0 55 -31 141 -57 158 -7 4 -13 14 -13 20 0 16 -72 87 -87
87 -7 0 -16 6 -20 13 -12 19 -71 46 -114 53 -22 4 -42 11 -45 15 -7 12 -81 12
-88 0 -3 -4 -22 -11 -41 -14 -79 -13 -147 -57 -247 -158 -54 -55 -98 -104 -98
-111 0 -6 -10 -25 -23 -42 -34 -45 -94 -173 -108 -229 -27 -112 -44 -41 -36
155 3 76 10 144 15 151 5 7 15 66 22 132 14 140 0 827 -18 860 -5 11 -14 47
-20 80 -19 120 -41 181 -109 310 -9 17 -57 71 -107 121 -66 66 -101 92 -125
97 -46 10 -188 7 -236 -4z m227 -98 c37 -18 128 -103 142 -131 4 -8 18 -33 31
-55 14 -22 30 -51 36 -65 6 -14 17 -36 24 -50 7 -14 16 -43 20 -65 4 -22 11
-44 15 -50 4 -5 11 -44 15 -85 4 -41 11 -80 16 -85 4 -6 9 -89 11 -185 3 -152
1 -180 -15 -212 -27 -56 -121 -152 -182 -187 -30 -17 -55 -36 -55 -41 0 -12
15 -13 38 -1 9 5 40 19 67 32 54 24 96 52 129 84 l21 20 6 -30 c18 -82 2 -332
-24 -384 -8 -15 -12 -81 -12 -186 l0 -162 -22 33 c-13 18 -23 37 -23 41 0 19
-86 105 -123 123 -40 20 -146 28 -161 13 -9 -10 -78 -33 -98 -33 -19 0 -25 25
-8 35 5 3 12 33 16 66 4 32 11 62 15 65 12 7 11 124 -1 124 -5 0 -10 10 -10
23 0 12 -11 54 -25 92 -13 39 -25 79 -25 90 0 12 -4 25 -9 30 -5 6 -12 19 -15
30 -3 11 -4 -19 -2 -68 2 -49 9 -94 16 -102 18 -21 24 -180 10 -235 -7 -25
-16 -72 -22 -105 -5 -33 -13 -66 -17 -74 -11 -23 -31 -25 -31 -4 0 11 -5 24
-12 31 -9 9 -9 18 -1 34 20 42 36 202 29 299 -3 52 -9 162 -12 244 -4 83 -10
155 -14 160 -4 6 -10 26 -14 46 -3 20 -15 54 -26 77 -11 23 -20 46 -20 52 0 5
-5 10 -10 10 -6 0 -14 10 -19 23 -5 12 -32 47 -60 79 -28 31 -51 61 -51 66 0
6 -11 19 -24 29 -28 23 -76 110 -76 140 0 12 -4 25 -10 28 -13 8 -13 82 0 90
6 3 13 -2 16 -12 13 -43 32 -76 77 -134 15 -20 27 -40 27 -44 0 -4 18 -29 40
-55 22 -26 40 -52 40 -58 0 -5 7 -12 15 -16 18 -7 19 -2 1 37 -7 18 -20 48
-27 67 -7 19 -15 37 -18 40 -4 3 -17 28 -30 55 -13 28 -31 58 -40 69 -12 13
-16 39 -16 101 0 102 6 110 124 167 47 23 98 47 113 55 14 7 38 13 51 13 14 0
29 5 32 10 11 18 128 12 167 -9z m1012 -1320 c3 -4 19 -11 36 -15 65 -13 153
-93 193 -175 39 -79 7 -169 -75 -216 -61 -35 -163 -113 -193 -149 -63 -72 -69
-80 -97 -136 -7 -14 -16 -27 -20 -30 -16 -12 -107 -205 -118 -251 -13 -51 -30
-75 -30 -40 0 12 4 21 9 21 4 0 11 21 15 46 3 25 12 58 20 72 7 15 35 70 60
122 26 52 53 106 61 119 18 32 147 161 161 161 23 0 142 136 153 175 16 57 13
75 -5 38 -15 -30 -68 -83 -125 -126 -108 -79 -219 -190 -219 -216 0 -6 -4 -11
-8 -11 -7 0 -26 -32 -77 -130 -26 -51 -45 -96 -51 -125 -4 -16 -10 -34 -14
-40 -5 -5 -11 -27 -15 -47 -4 -22 -13 -38 -21 -38 -23 0 -150 88 -178 122 -15
18 -31 38 -36 45 -6 7 -10 16 -10 21 0 5 -7 15 -15 22 -17 14 -21 100 -6 128
6 9 13 38 16 65 3 26 10 47 14 47 5 0 12 15 15 33 3 19 25 71 49 117 61 120
67 130 78 130 5 0 9 7 9 15 0 20 173 195 193 195 8 0 17 7 20 14 3 8 22 18 42
22 19 3 38 10 41 15 7 12 121 12 128 0z m-934 -367 c14 -4 41 -23 60 -43 35
-36 49 -60 89 -153 124 -286 134 -303 242 -410 54 -54 104 -98 113 -98 8 0 19
-6 23 -12 4 -7 30 -24 58 -38 61 -32 78 -60 70 -121 -8 -68 -30 -106 -107
-181 -37 -38 -62 -68 -55 -68 49 1 150 81 189 152 l19 33 -5 -33 c-12 -72
-109 -177 -173 -187 -21 -3 -46 -10 -55 -16 -25 -13 -40 -11 -79 8 -36 17
-149 124 -149 141 0 17 -224 239 -259 256 -30 14 -25 6 40 -62 96 -102 119
-128 119 -137 0 -4 15 -25 33 -48 19 -23 37 -50 40 -59 5 -15 3 -16 -21 -6
-15 6 -44 24 -64 40 -20 15 -40 28 -44 28 -10 0 -94 86 -94 97 0 5 -12 20 -26
34 -25 23 -49 61 -76 122 -7 15 -16 27 -19 27 -4 0 -11 15 -15 32 -3 18 -13
42 -20 53 -7 11 -16 44 -20 73 -3 28 -10 52 -14 52 -4 0 -10 14 -14 31 -14 72
-98 134 -199 146 -26 3 -50 10 -53 14 -3 5 -21 9 -40 9 -19 0 -34 5 -34 12 0
6 19 36 43 67 23 31 47 65 52 76 6 11 19 24 30 30 11 6 38 22 60 36 22 14 51
29 65 33 23 7 85 33 137 58 28 14 93 26 113 23 8 -2 26 -7 40 -11z m-344 -413
c49 -24 80 -72 96 -145 5 -28 14 -55 18 -61 4 -5 11 -26 15 -45 4 -19 10 -39
14 -45 4 -5 13 -29 21 -52 7 -24 17 -43 21 -43 4 0 15 -15 24 -34 9 -19 25
-42 36 -52 10 -9 19 -22 19 -28 1 -14 140 -154 172 -171 20 -12 116 -60 212
-106 51 -24 60 -31 84 -61 17 -20 21 -32 14 -41 -5 -7 -12 -33 -14 -58 -5 -40
-41 -133 -58 -149 -3 -3 -16 -20 -29 -37 -12 -18 -28 -33 -36 -33 -7 0 -15 -7
-19 -15 -17 -45 91 28 135 91 17 25 33 43 36 40 7 -6 -49 -116 -59 -116 -4 0
-8 -6 -8 -14 0 -24 -106 -124 -141 -131 -27 -6 -35 -3 -55 21 -13 16 -23 35
-24 42 0 6 -5 12 -10 12 -11 0 -115 78 -157 117 -13 13 -27 23 -32 23 -13 0
-250 246 -261 271 -5 13 -14 31 -19 39 -27 43 -40 94 -47 173 -4 48 -11 90
-15 93 -5 3 -9 21 -9 40 0 44 -46 130 -84 157 -81 57 -177 83 -276 74 -53 -4
-60 -3 -60 13 0 10 7 23 15 30 8 6 17 21 21 32 13 43 113 148 166 176 39 21
53 23 148 18 79 -3 115 -9 146 -25z m-310 -299 c10 -5 43 -20 71 -32 29 -13
55 -31 58 -41 3 -9 12 -20 20 -23 8 -3 15 -14 15 -24 0 -10 4 -22 9 -28 4 -5
14 -67 20 -139 7 -71 16 -134 21 -140 4 -5 11 -26 15 -45 4 -19 16 -47 26 -62
11 -14 19 -31 19 -36 0 -5 7 -12 15 -16 8 -3 15 -12 15 -21 0 -18 266 -289
328 -333 53 -38 81 -89 88 -162 5 -45 2 -63 -17 -101 -50 -95 -143 -189 -188
-189 -9 0 -22 -5 -29 -12 -9 -9 -17 -9 -34 0 -13 6 -39 14 -58 18 -23 4 -52
25 -90 63 -54 53 -66 71 -107 151 -9 19 -23 42 -30 51 -7 9 -22 33 -33 55
l-21 39 7 -45 c15 -109 127 -306 194 -343 87 -47 73 -64 -17 -21 -60 30 -151
127 -172 184 -7 19 -19 49 -26 65 -7 17 -18 41 -24 55 -5 14 -15 45 -22 70 -6
25 -14 50 -19 55 -4 6 -10 24 -14 40 -11 47 -52 129 -75 149 -12 11 -21 24
-21 31 0 14 -39 50 -102 93 -33 23 -63 35 -100 39 -50 5 -52 4 -33 -10 11 -9
25 -17 31 -17 19 0 124 -101 124 -120 0 -32 -45 -34 -98 -4 -26 15 -56 34 -66
43 -18 15 -19 15 -13 -16 12 -62 88 -111 181 -115 56 -3 60 -5 69 -33 5 -16
15 -44 23 -62 8 -17 14 -42 14 -55 0 -13 5 -29 10 -34 6 -6 15 -38 21 -72 6
-34 15 -62 20 -62 5 0 9 -7 9 -16 0 -8 13 -43 30 -77 48 -99 127 -168 272
-239 10 -4 49 -8 86 -8 72 0 125 20 199 76 42 32 143 133 143 143 0 5 7 14 16
22 9 7 25 33 35 58 34 77 43 94 59 101 8 4 38 18 65 31 73 33 162 128 210 224
40 80 40 80 39 192 l-2 111 37 5 c20 3 46 8 59 12 l22 7 0 -191 c0 -167 -2
-195 -19 -226 -35 -66 -120 -138 -188 -159 -21 -7 -21 -5 -10 31 6 21 16 41
22 45 18 14 -15 9 -43 -6 -47 -24 -72 -59 -134 -186 -41 -85 -91 -148 -146
-185 -55 -37 -200 -115 -216 -115 -6 -1 -29 -9 -51 -20 -22 -11 -48 -19 -57
-20 -9 0 -19 -4 -22 -9 -3 -4 -34 -14 -68 -20 -35 -7 -74 -18 -86 -24 -13 -6
-56 -11 -95 -11 -88 2 -132 22 -204 94 -50 51 -63 66 -63 74 0 4 -10 22 -23
39 -13 18 -30 52 -37 77 -8 25 -17 50 -20 55 -4 6 -10 24 -14 40 -13 57 -49
120 -95 168 -25 26 -51 47 -57 47 -7 0 -14 6 -17 14 -3 8 -21 17 -39 21 -40 9
-90 42 -119 78 -20 26 -21 37 -20 234 1 114 5 211 10 217 4 6 11 28 14 48 7
44 32 101 64 144 13 17 23 34 23 38 0 9 65 76 74 76 4 0 22 11 40 25 18 14 37
25 43 25 12 0 67 59 76 83 7 19 -5 22 -35 6 -11 -6 -22 -8 -25 -5 -8 8 17 36
42 47 11 6 31 17 45 25 28 17 131 14 166 -4z"/>
<path d="M8369 3908 c-15 -16 -30 -28 -33 -28 -4 0 -26 -15 -49 -33 -54 -43
-235 -134 -284 -143 -21 -4 -43 -11 -50 -16 -6 -5 -43 -12 -82 -15 -39 -3 -71
-9 -71 -13 0 -5 17 -18 38 -31 31 -19 50 -23 120 -22 45 1 88 5 95 11 7 5 30
13 51 17 137 24 312 194 294 283 -3 14 -8 12 -29 -10z"/>
<path d="M7581 2625 c12 -19 25 -35 30 -35 5 0 13 -8 16 -17 4 -10 21 -36 40
-57 18 -22 33 -45 33 -52 0 -7 3 -14 8 -16 4 -1 20 -23 37 -48 16 -25 32 -47
35 -50 10 -10 31 -45 45 -77 9 -18 19 -33 24 -33 5 0 12 -11 15 -24 3 -14 12
-31 19 -38 13 -14 57 -101 57 -113 0 -8 31 -77 55 -125 7 -14 16 -42 20 -63 4
-20 11 -39 15 -42 5 -3 11 -23 15 -45 4 -22 10 -40 14 -40 7 0 28 -67 35 -110
1 -9 5 -20 8 -25 3 -6 9 -28 13 -50 4 -22 11 -44 15 -50 4 -5 11 -32 15 -60 4
-27 11 -56 17 -62 6 -7 8 -22 5 -33 -3 -11 -1 -23 4 -26 5 -3 9 -24 9 -47 0
-38 1 -39 15 -21 16 22 22 213 6 229 -5 6 -14 37 -20 70 -12 69 -39 181 -51
210 -5 11 -11 34 -15 50 -7 34 -37 116 -71 193 -13 29 -24 55 -24 58 0 12 -56
122 -82 161 -15 23 -28 44 -28 48 0 3 -11 21 -25 39 -14 18 -25 38 -25 44 0 7
-4 12 -9 12 -4 0 -20 17 -33 38 -55 82 -219 242 -249 242 -5 0 1 -16 12 -35z"/>
<path d="M6500 1530 c-25 -33 -48 -60 -52 -60 -5 0 -8 -6 -8 -13 0 -17 -97
-108 -173 -162 -59 -42 -87 -84 -87 -132 1 -65 36 -68 114 -8 26 19 50 35 55
35 21 0 197 188 216 230 11 25 23 48 28 51 9 6 -30 119 -41 119 -4 0 -28 -27
-52 -60z"/>
<path d="M9208 1480 c-25 -28 -39 -58 -29 -64 4 -3 11 -20 15 -38 6 -28 35
-93 71 -157 7 -13 21 -28 29 -33 9 -5 16 -15 16 -21 0 -14 71 -87 83 -87 4 0
21 -13 37 -30 16 -16 33 -30 38 -30 5 0 17 -9 27 -20 10 -11 24 -20 32 -20 7
0 13 -4 13 -9 0 -9 121 -71 138 -71 4 0 36 -14 72 -31 99 -48 123 -58 153 -65
15 -3 27 -9 27 -13 0 -4 17 -13 38 -20 20 -7 51 -19 67 -26 101 -46 122 -55
132 -55 5 0 30 -11 55 -24 24 -13 55 -27 69 -31 40 -11 132 -47 161 -61 14 -8
35 -14 45 -14 10 0 29 -7 41 -16 l22 -15 0 65 c0 72 1 71 -100 106 -19 7 -48
18 -65 25 -47 20 -77 32 -115 45 -19 7 -48 18 -65 25 -103 46 -126 55 -134 55
-5 0 -11 3 -13 8 -3 8 -112 62 -125 62 -9 0 -68 28 -287 136 -147 73 -165 85
-242 162 -46 46 -84 89 -84 97 0 8 -4 15 -9 15 -5 0 -12 8 -15 18 -4 9 -20 42
-36 72 -17 30 -30 60 -30 67 0 18 -12 15 -32 -7z"/>
<path d="M9038 708 c-8 -13 -19 -32 -26 -43 -7 -11 -18 -31 -25 -45 -13 -28
-15 -31 -52 -76 -14 -18 -25 -35 -25 -38 0 -4 -11 -17 -25 -30 -14 -13 -25
-29 -25 -37 0 -7 -97 -109 -216 -226 l-215 -213 78 1 78 1 115 124 c63 68 117
129 119 136 2 7 7 15 10 18 37 31 150 202 191 290 7 14 16 33 22 43 11 22 23
117 15 117 -4 0 -12 -10 -19 -22z"/>
<path d="M7846 541 c-3 -4 -18 -11 -33 -14 -37 -8 -81 -51 -88 -85 -4 -15 -11
-35 -16 -46 -7 -13 -7 -22 0 -29 6 -6 11 -22 11 -35 0 -21 -3 -23 -32 -17 -18
4 -46 16 -61 27 -51 36 -43 7 11 -43 l53 -49 90 0 c94 0 112 6 169 58 22 21
25 32 25 97 0 80 -11 102 -68 130 -34 17 -53 19 -61 6z"/>
<path d="M8516 468 c-58 -40 -113 -73 -143 -87 -13 -6 -23 -14 -23 -19 0 -4
-12 -13 -27 -19 -16 -7 -35 -16 -43 -21 -30 -19 -117 -64 -180 -93 -36 -17
-73 -34 -82 -40 -10 -5 -23 -9 -30 -9 -7 -1 -31 -9 -53 -20 -22 -11 -51 -20
-65 -20 -14 0 -37 -6 -52 -14 -15 -8 -42 -17 -60 -21 -18 -4 -37 -11 -43 -15
-5 -4 -50 -13 -100 -20 -49 -6 -99 -16 -110 -20 -11 -5 -46 -10 -77 -13 -63
-4 -80 -13 -58 -28 19 -13 355 -6 372 8 7 6 38 13 68 17 30 4 59 11 65 16 5 4
30 13 55 19 47 12 75 23 123 47 16 8 34 14 40 14 7 0 39 13 71 30 33 16 61 28
62 27 5 -6 -22 -117 -28 -117 -4 0 -8 -16 -8 -35 l0 -35 54 0 54 0 5 38 c3 20
10 55 16 77 6 22 11 61 11 86 0 43 20 79 44 79 10 0 116 83 155 121 27 26 71
84 71 94 0 15 -42 1 -84 -27z"/>
<path d="M6046 368 c7 -59 23 -93 71 -155 18 -23 33 -45 33 -48 0 -4 35 -43
77 -86 l78 -79 88 0 c94 0 109 11 53 38 -15 8 -110 97 -211 198 -102 101 -187
184 -190 184 -3 0 -3 -24 1 -52z"/>
</g>
</svg>
